<?xml version="1.0" encoding="UTF-8"?><svg id="Layer_1" xmlns="http://www.w3.org/2000/svg" viewBox="0 0 397.21 401.01"><defs><style>.cls-1,.cls-2{stroke-width:0px;}.cls-2{fill:#fff;}</style></defs><path class="cls-1" d="m115.61,384.33c-10.16-.3-22.51-5.44-35.31-8.51-1.39-.33-3.05-1-3.01-2.44.11-4.09-1.79-6.4-5.5-7.63-5.61-1.85-12.93-6.49-16.77-3.92-10.77,7.21-18.26-.3-26.54-3.55-8.68-3.41-15.06-10.04-18.83-18.7-4.38-10.07-4.72-19.7,1.34-29.79,18.09-30.16,36.45-60.2,52.92-91.24,8.95-16.87,34.24-28.12,52.66-23.87,23.71,5.47,47.29,11.73,70.51,18.99,25.08,7.84,35.06,30.49,25.48,55-1.76,4.51-4.07,8.86-6.56,13.03-16.07,26.9-32.49,53.6-48.34,80.63-8.83,15.06-21.77,21.82-42.05,22Z"/><path class="cls-1" d="m337.33,59.34c13.72,15.96,28.28,29.34,43.72,41.84,7.35,5.95,6.85,13.74-.85,18.74-3.88,2.52-7.82,3.04-11.57-.13-19.7-16.63-39.77-32.91-54.63-54.37-8.18-11.83-10.1-24.88-6.83-38.88,1.07-4.55,3.45-7.27,7.71-8.98,13.08-5.26,34.07-.12,43.23,10.78,4.75,5.65,5.04,9.62,1.19,16.18-3.51,5.99-9.27,9.94-21.98,14.82Z"/><path class="cls-1" d="m298.54,128.18c12.05,3.55,21.54,10.97,29.76,20.1,16.91,18.78,27.82,41.47,40.41,63.05,3.17,5.43.72,10.36-5.35,13.67-5.73,3.12-9.31,2.33-13.08-3.1-10.49-15.13-19.25-31.4-30.29-46.17-1.87-2.5-3.73-5.01-5.55-7.56-2.07-2.9-4.3-2.97-6.98-.76-2.95,2.42-6.08,4.62-9.08,6.98-7.16,5.63-15.52,5.9-23.86,4.66-6.94-1.03-10.41-6.51-12.39-12.73-4.04-12.71,2.4-30.61,13.68-37.81,7.59-4.85,15.39-5.77,23.06.04-3.13,4.72-8.01,5.32-12.93,4.93-8.3-.66-11.84,5.18-13.91,11.14-2.5,7.21-6.63,15.18.78,22.38,3.94,3.84,8.57,4.48,13.55,2.93,6.3-1.97,12.74-4.25,17.8-8.31,6.57-5.26,11.28-3.34,16.32,1.68,8.25,8.21,13.27,18.72,20.17,27.88,3.21,4.25,6.83,13.6,10.03,11.28,4.45-3.24-2.39-9.48-4.9-13.94-11.23-19.94-24.47-38.37-43.32-52-3.04-2.2-5.8-4.04-3.94-8.33Z"/><path class="cls-2" d="m9.93,324.11c-.34-4.72,1.51-9.42,4.26-14.05,16.86-28.41,33.56-56.92,50.36-85.36,2.21-3.73,3.66-9.34,9.57-7.61,5.27,1.53,13.28-.83,14.09,8.66.26,3.07,3.68,4.15,6.27,4.88,19.05,5.41,38.14,10.66,57.23,15.92,3.38.93,6.32-.37,8.36-2.89,2.54-3.14,5.39-2.67,8.43-1.49,13.14,5.11,25.06,12.02,34.22,23.07,3.61,4.36,4.87,8.12,1.34,13.82-17.02,27.5-33.38,55.41-50.19,83.04-9.37,15.39-26.43,22.25-44.02,18.15-6.77-1.58-13.53-3.2-20.2-5.16-3.94-1.16-9.03-.77-9.43-7.36-.16-2.57-3.86-3.94-6.53-4.6-8.7-2.14-17.24-8.91-26.47-1.34-.18.15-.65-.11-.99-.1-16.95.49-36.32-19.17-36.32-37.57Z"/><path class="cls-2" d="m109.56,197.42c6.56-.78,13.44,2.1,20.47,3.89,16.83,4.29,33.58,8.9,50.36,13.39,6.45,1.73,12.37,4.64,17.84,8.41,13.25,9.15,18.09,24.24,13.04,39.52-1.27,3.84-2.77,4.75-5.42,1.29-4.07-5.3-9.02-9.65-14.47-13.43-8.64-5.99-17.98-10.43-28.19-13.15-28.19-7.54-56.34-15.23-84.51-22.86-1.89-.51-4.78.1-5.08-2.52-.25-2.18,2.13-3.39,3.8-4.58,9.34-6.66,19.7-10.16,32.18-9.95Z"/><path class="cls-2" d="m309.08,38.42c.13-1.73.23-3.46.4-5.19,1.07-11,7.15-15.92,18.17-14.74,1.01.11,2.26-.05,2.61,1.14.57,1.93-1.5,5.11,2.89,5.06,2.67-.03,3.92-1.97,5.77-2.99,2.97-1.65,6.54.88,9.42,2.67,12,7.5,14.81,14.94,1.26,25.64-3.32,2.62-7.3,3.9-11.31,5.12-6.28,1.92-6.7,3.14-2.18,8.18,10.21,11.39,21.24,21.96,32.76,32.03,1.05.91,2.11,1.8,3.2,2.66,2.56,2.01,3.78,3.93.5,6.56-1.86,1.49-3.33,3.53-4.77,5.47-1.6,2.15-3.15,2.3-5.12.55-17.41-15.42-35.49-30.22-48.02-50.27-4.15-6.63-5.87-14.05-5.58-21.9Z"/><path class="cls-2" d="m382.8,110.02c-.31,4.62-4.51,8.67-8.81,8.37-2.86-.2-4.44-1.71-4.03-4.72.45-3.36,6.23-8.98,9.23-8.79,3.14.19,3.66,2.55,3.61,5.14Z"/><path class="cls-2" d="m298.54,128.18c1.23,4.23,5.3,5.28,8.46,7.04,9.63,5.35,17.27,12.75,24.06,21.29,12.84,16.16,21.9,34.61,32.66,52.31-4.67,2.54-9.18,7.05-12.86,6.45-4.18-.68-5.63-7.31-8.32-11.31-7.55-11.27-14.81-22.74-22.6-33.83-7.23-10.3-7.97-10.25-17.76-2.57-4.97,3.9-10.02,7.49-16.43,8.64-13.58,2.44-22.62-5.27-21.68-19.11.52-7.72,2.94-14.98,8.23-21.01,4.88-5.57,10.62-8.81,18.33-7.77,2.72.37,5.51.19,8.26.24,0-.01-.35-.38-.35-.38Z"/><path class="cls-2" d="m361.48,220.68c-2,3.28-5.13,3.54-7.1.94-1.51-1.98.48-4.22,3.14-4.85.39.1.78.21,1.17.31,1.16.48,2.04,1.26,2.59,2.4.06.4.13.8.19,1.2Z"/><path class="cls-2" d="m357.52,216.77c.8-.6,1.53-1.55,2.41-1.71,2.11-.38,5.08-2.48,5.97,1.16.74,3.01-1.79,4.09-4.42,4.46,0,0,.35.25.35.25-1.19-1.77-2.98-2.95-4.44-4.45l.13.3Z"/><path class="cls-1" d="m92.16,303.92c.08,5.97-6.36,12.13-13.12,12.54-5.76.35-10.38-3.62-10.52-9.04-.17-6.56,5.45-11.84,12.96-12.15,6.34-.27,10.61,3.19,10.69,8.65Z"/><path class="cls-1" d="m140.83,249.09c-17.41-2.55-34.27-7.21-50.78-13.23,17.4,2.6,34.4,6.73,50.78,13.23Z"/><path class="cls-1" d="m343,44.25c-11.86-1.08-21.11-7.31-26.54-17.56,8.25,6.76,16.72,13.16,26.54,17.56Z"/><path class="cls-1" d="m380.01,111.49c-.54,1.69-1.72,3.36-3.97,3.75-1.99.34-2.29-1.37-2.08-2.61.37-2.24,1.94-3.62,4.29-3.55,1,.03,1.86.78,1.76,2.41Z"/><path class="cls-1" d="m298.12,134.82c7.11,7.33,8.73,15.86,4.38,25.36-1.34-8.39.26-17.33-4.38-25.36Z"/><path class="cls-1" d="m278.46,147.53c-1.38-.61-2.26-1.32-1.84-2.44,1.24-3.21,2.76-6.42,6.51-7.17,1.74-.35,2.36,1.61,1.8,2.8-1.39,3.02-2.84,6.24-6.48,6.81Z"/><path class="cls-1" d="m270.72,157.67c-.48.37-.98,1.05-1.45,1.04-1.17-.04-1.42-1.03-1-1.9.17-.36,1.1-.54,1.66-.5.85.05,1.11.63.8,1.37Z"/><path class="cls-1" d="m357.39,216.47c3.19-.22,6.89-.95,4.44,4.45-3.39.42-4.41-1.53-4.44-4.45Z"/><path class="cls-2" d="m78.09,312.98c-3.53-.29-6.49-1.76-6.47-6.18.02-4.22,5.52-8.73,10.29-8.57,3.96.14,6.76,1.96,6.85,6.19.09,4.22-5.42,8.59-10.67,8.56Z"/></svg>