<?xml version="1.0" encoding="UTF-8"?><svg id="Layer_1" xmlns="http://www.w3.org/2000/svg" viewBox="0 0 785.74 790.45"><defs><style>.cls-1,.cls-2,.cls-3,.cls-4,.cls-5,.cls-6,.cls-7,.cls-8,.cls-9,.cls-10,.cls-11,.cls-12,.cls-13,.cls-14,.cls-15,.cls-16,.cls-17,.cls-18,.cls-19,.cls-20{stroke-width:0px;}.cls-2{fill:#497484;}.cls-3{fill:#75401a;}.cls-4{fill:#888688;}.cls-5{fill:#6f3820;}.cls-6{fill:#5a5b56;}.cls-7{fill:#83adb5;}.cls-8{fill:#191414;}.cls-9{fill:#406573;}.cls-10{fill:#233a3d;}.cls-11{fill:#9d9c97;}.cls-12{fill:#bac0a6;}.cls-13{fill:#342517;}.cls-14{fill:#304b50;}.cls-15{fill:#9f8256;}.cls-16{fill:#9e896f;}.cls-17{fill:#816b50;}.cls-18{fill:#74492a;}.cls-19{fill:#7ea0a1;}.cls-20{fill:#fff;}</style></defs><path class="cls-17" d="m30.68,528.5c-9.02,7.86-15.46,41.06-15.46,41.06l26.5,73.93,316.73,60.85,48.73,19.7,51.85,18.15h68.43l38.71-13.52,19.02-38.36v-22.71s-8.67-32.95-8.67-32.95l-19.84-27.06-55.4-38.41-12.95-4.09-51.57-7.01-89.52,1.55-44.99-5.05-60.01-12.08-83.84-35.93s-52.92-5.53-65.81-4.54c-11.31.87-52.89,18.61-61.9,26.47Z"/><path class="cls-20" d="m636.75,60.72c-.05.21-.1.41-.15.62.65-.07.59-.21-.17-.41,0-.02.32-.21.32-.21Z"/><path class="cls-1" d="m182.97,536.05c-1.63.57-3.22,1.48-4.9,1.66-7.73.83-12.25-4.65-10.74-12.36.73-3.71,4.41-7.59,2.27-10.86-2.25-3.44-7.39-3.4-11.39-4.51-28.52-7.95-57.18-9.2-85.92-1.28-12.95,3.57-24.87,9.31-35.07,18.2-10.06,8.77-16.63,19.44-19.05,32.86-1.77,9.8.34,18.82,3.69,27.64,4.55,11.99,12.34,21.88,21.88,30.35,22.67,20.13,49.66,30.82,79.21,35.63,18.82,3.07,37.61,2.75,56.32-1.2,3.04-.64,6.25-.63,9.38-.68,27.6-.49,54.03,5.85,80.34,13.32,33.41,9.48,65.53,21.77,95.79,39.1,32.41,18.56,67.28,30.7,104.23,36.77,21.38,3.51,42.48,2.61,63.31-3.27,10.89-3.08,20.89-8.17,29.37-15.7,21.05-18.69,26.56-41.9,18.9-68.48-6.33-21.96-20.16-38.86-37.23-53.41-.53-.45-1.09-.88-1.65-1.3-4.76-3.5-9.37-9.93-14.63-9.19-5.26.74-7.39,8.46-10.71,13.25-4.93,7.12-9.9,8.6-16.7,4.78-7.35-4.14-10.63-11.66-7.16-18.4,7.68-14.91,15.79-29.6,23.76-44.37,10.62-19.69,21.63-39.18,31.83-59.08,14.97-29.23,29.37-58.75,44.03-88.14,8.11-16.26,15.96-32.66,24.5-48.69,12.18-22.87,22.49-46.56,32.72-70.32,8.56-19.9,17.26-39.73,25.17-59.91,8.19-20.87,20.05-39.93,29.97-59.94,7.61-15.34,15.75-30.42,23.66-45.61.81-1.55,1.53-3.15,2.45-4.63,3.65-5.84,6.64-6.23,11.64-1.79,3.73,3.31,5.99,7.63,8.48,11.79,2.85,4.75,5.87,8.88,12.44,6.48,1.41-.52,2.7.09,3.77,1.16,1.23,1.23,2.39,2.64,3.83,3.55,6.46,4.08,6.97,9.34,4.55,16.21-2.07,5.87-3.16,12.19-3.9,18.41-1.74,14.71-6.09,28.66-11.23,42.44-1.81,4.84-4.59,9.36-4.13,14.96.24,2.89-2.29,4.98-4.06,7.12-24.52,29.69-45.02,62.32-67.94,93.18-3.47,4.67-6.34,9.94-8.23,15.65-1.08,3.27-2.63,6.63-4.8,9.25-9.42,11.31-15.85,24.47-23.32,36.96-37.69,63.01-75.19,126.13-112.75,189.2-.89,1.5-1.8,3-2.7,4.5-5.05,8.38-3.96,7.41,2.74,12.09,19.58,13.67,35.5,30.56,45.09,52.73,8.24,19.06,10.5,38.82,1.44,57.91-8.06,17-18.13,33.06-27.47,49.45-2.3,4.03-6.38,6.43-10.1,9.01-21.27,14.81-45.08,21.91-70.81,22.99-35.04,1.48-67.85-7.45-99.46-21.68-10.52-4.74-20.56-10.41-30.59-16.12-35.48-20.21-72.97-35.06-113.4-41.98-11.7-2.01-23.26-4.77-35.05-6.37-17.42-2.37-34.89-1.86-52.37-2.11-36.44-.52-70.64-8.88-101-29.89-14.31-9.9-25.88-22.25-33.46-38.22-4.41-9.3-5.22-18.55-2.68-28.38,3.5-13.52,6.81-27.1,10.2-40.65,4.32-17.25,14.84-29.83,29.72-39,18.02-11.11,37.95-15.78,58.84-16.8,21.54-1.05,42.52,2.1,62.99,8.88,5.13,1.7,5.35,1.65,7.31-3.78,8.65-23.99,17.17-48.02,25.76-72.03,27.9-77.95,55.93-155.85,83.66-233.86,10.29-28.93,19.77-58.14,29.88-87.13,5.4-15.47,9.96-31.29,18.55-45.5,1.78-2.94,2.62-6.46,3.77-9.76,6.34-18.24,15.2-35.27,24.78-51.97.85-1.48,1.5-3.2,3.78-3.83,4.92,3.08,6,7.85,5.03,13.31-.48,2.74-1.2,5.48-2.17,8.08-17.42,46.86-29.79,95.32-45.44,142.74-1.31,3.98-2.25,8.08-3.52,12.07-2.13,6.75-3.19,13.3.26,20.11,1.77,3.49,1.26,7.43-.6,11.14-1.71,3.39-3.03,6.97-4.52,10.48,3.92,1.55,4.26-4,7.73-3.02,1.57,1.97.33,3.82-1.03,5.4-15.12,17.55-20.69,39.1-26.65,60.79-6.18,22.51-12.73,44.97-21.71,66.67-4.11,9.93-5.91,20.79-9.19,31.09-9.22,29-21.88,56.68-32.87,85.01-7.08,18.23-13.59,36.69-20.26,55.08-2.31,6.38-2.32,6.83,4.09,9.25,9.79,3.7,19.74,6.99,29.75,10.05,4.79,1.46,5.77.63,7.91-4.24,1.12-2.55,1.91-5.25,3-7.83,29.85-70.48,56.27-142.26,81.72-214.41,1.39-3.95,2.56-8.06,4.55-11.71,15.59-28.62,24.28-60.14,37.91-89.58,3.08-6.65,6.32-13.24,9.78-19.71,1.83-3.41,3.36-6.84,4.41-10.58,2.68-9.6,8.09-17.72,14.38-25.29.34-.41,1.28-.33,1.97-.48,1.75,2.32.65,4.7-.05,6.94-4.39,13.97-8.51,28.04-13.43,41.82-6.69,18.75-13.74,37.38-21.2,55.83-3.59,8.87-4.23,18.32-7.03,27.29-4.9,15.69-12.29,30.37-18.47,45.54-11.47,28.15-22.7,56.39-34.21,84.53-15.47,37.83-31.12,75.59-46.67,113.39-1.59,3.87-3.02,7.8-4.56,11.8,3.77,2.58,7.91,3.15,11.92,4.04,25.24,5.61,50.41,11.66,76.54,11.46,9.84-.08,9.87.09,13.77-9.05,19.63-45.95,39.16-91.94,58.9-137.85,9.25-21.5,18.89-42.83,28.36-64.24,2.55-5.76,5.03-11.57,9.09-16.47,1.4-1.69,1.95-3.56,2.6-5.58,3.21-9.91,6.48-19.82,10.06-29.6,12.16-33.23,28.52-64.48,45.3-95.54,4.97-9.2,8.98-18.91,13.58-28.31,2-4.07,4.34-7.98,6.68-11.87.47-.78,1.62-1.14,2.43-1.69,3.6,2.82,4.73,7.07,6.32,10.68,2.72,6.18,1.95,12.55-.81,19.08-15.77,37.32-31.23,74.78-46.7,112.23-3.59,8.69-5.9,18.05-10.47,26.16-7.62,13.5-11.71,28.29-17.24,42.53-5.58,14.35-11.81,28.38-18.29,42.31-20.78,44.66-41.78,89.23-62.63,133.86-1.59,3.39-4.03,6.56-3.82,11.17,9.08,1.55,18.03.54,26.98.02,3.09-.18,3.85-2.62,4.86-4.8,4.86-10.46,9.69-20.93,14.51-31.41,37.12-80.63,74.22-161.27,111.35-241.89,3.61-7.83,7.64-15.32,9.83-23.94,1.42-5.58,5.48-11.04,8.76-16.27,4.62-7.38,8.14-15.33,12.47-22.8,14.03-24.18,25.99-49.41,38.81-74.21,9.46-18.3,19.37-36.39,27.03-55.59,3.9-9.79,9.76-18.49,17.12-26.19,4.7-4.92,8.85-10.36,13.19-15.5,2.5,1.91,1.63,3.57,1.3,5.24-3.53,18.32-9.71,35.68-18.62,52.08-19.7,36.26-34.86,74.66-52.23,112.01-4.19,9.01-9.39,17.86-11.07,27.96-.11.66-.01,1.35-.01,2.02,5.02.39,9.43-.12,14.05-2.97,5.29-3.26,16.2-.61,20,3.95,1.46,1.75,2.34,4.4,2.52,6.71.47,6.13.71,12.33-.44,18.42-.67,3.57-3.24,6.55-1.06,10.84,1.21,2.38-2.13,4.84-4.15,6.75-12.04,11.38-21.28,24.99-30.86,38.34-4.13,5.76-6.46,12.25-9.2,18.66-5.08,11.89-10.79,23.5-16.24,35.23-4.12,8.87-7.58,18.14-12.49,26.55-13.93,23.82-24.09,49.45-36.26,74.11-12.22,24.75-23.76,49.84-35.58,74.8-1.18,2.49-2.18,5.07-3.24,7.55,5.27,3.78,12.55,2.62,17.32,8.39-4.31.9-7.23-1.34-10.43-2.26-8.28-2.38-9.06-2.07-12.79,5.75-18.17,38.18-36.3,76.39-54.46,114.58-1.5,3.16-2.95,6.35-4.69,9.37-2.91,5.07-6.18,6.25-11.19,4.38-5.17-1.94-8.18-6.41-7.07-11.29.69-3.03,2.06-5.92,3.29-8.8,15.98-37.25,31.99-74.49,47.98-111.74,1.09-2.53,2.63-4.93,2.69-7.78-1.15-1.84-3.03-1.52-4.64-1.7-10-1.11-9.95-1.06-14.4,7.72-2.21,4.36-4.54,8.66-7,12.87-2,3.42-5.28,4.44-9.03,3.75-5.3-.97-7.72-4.97-5.92-10.07,1.73-4.89,4.93-9.21,6.1-14.75-9.17,0-18.07.02-26.96,0-4.09-.01-5,3.32-6.3,6.08-7.14,15.18-14.18,30.4-21.26,45.61-6.79,14.57-13.57,29.15-20.38,43.71-1.03,2.21-2.06,4.45-3.32,6.53-3.15,5.17-7.16,6.38-12.34,3.93-5.11-2.43-6.77-6.35-4.4-11.98,11.38-27.06,22.9-54.05,34.36-81.08,1.34-3.17,2.61-6.38,3.78-9.26-1.96-3.23-4.7-2.39-6.88-2.34-26.88.66-52.68-6.02-78.67-11.44-1.02-.21-1.98-.7-3-.95q-8.84-2.2-12.52,5.91c-1.01,2.23-1.88,4.53-3.07,6.66-3.07,5.46-8.46,6.28-12.96,1.98-1.88-1.8-2.82-3.92-1.39-6.57,1.5-2.76,2.75-5.66,4.25-8.41,1.8-3.29.84-5.07-2.67-6.17-8.66-2.71-17.29-5.53-25.87-8.47-3.23-1.11-6.29-2.68-9.39-4.03-3.17,3.09-3.68,7.07-4.98,10.6-10.63,28.84-21.09,57.75-31.69,86.6-2.77,7.53-9.72,9.5-15.68,4.66-2.68-2.18-3.95-4.73-2.61-8.27,2.47-6.53,4.77-13.13,7.17-19.69,7.43-20.34,14.85-40.69,22.34-61.01.85-2.31,1.96-4.5,1.2-7.05,1.76-1.41.98-3.95,2.47-5.48-1.42,1.63-.91,4.01-2.22,5.68Z"/><path class="cls-1" d="m502.27,701.74c5.78.46,10.71,2.79,14.24,7.42,3.48,4.57,1.2,10.07-4.52,10.77-5.83.71-10.88-1.51-15.1-5.48-2.64-2.49-4.6-5.45-2.69-9.19,1.63-3.21,4.76-3.71,8.07-3.52Z"/><path class="cls-1" d="m552.87,676.12c-4.98-.53-9.6-1.91-13.27-5.52-2.13-2.1-3.22-4.6-2.09-7.57,1-2.62,3.32-3.47,5.83-3.79,5.1-.65,9.7.83,13.8,3.78,3.62,2.6,4.81,5.8,3.53,8.98-1.43,3.55-4.64,3.8-7.8,4.13Z"/><path class="cls-1" d="m82.01,621.79c-4.61-.01-8.85-3.66-8.5-7.31.29-3.05,3.04-5.39,6.51-5.53,4.92-.2,8.83,2.72,8.95,6.69.1,3.32-3.1,6.16-6.96,6.15Z"/><path class="cls-1" d="m253.39,638.75c-.16,1.97-1.04,3.4-2.59,4.29-4,2.31-10.49.16-12.28-4.08-.55-1.3-.49-2.59.39-3.85,2.15-3.09,5.27-2.98,8.31-2.29,3.16.72,5.51,2.64,6.18,5.93Z"/><path class="cls-1" d="m329.89,573.81c4.03-.23,8.02,2.58,8.51,5.99.39,2.73-1.97,5.24-5,5.32-3.95.11-8.18-2.84-8.66-6.03-.37-2.48,2.2-5.1,5.16-5.27Z"/><path class="cls-1" d="m52.84,562c-3.62-.03-7.6-3.16-7.27-6.06.32-2.82,2.45-4.07,5.12-4.25,3.82-.25,7.44,2.35,7.74,5.42.24,2.5-2.51,4.9-5.59,4.88Z"/><path class="cls-1" d="m105.46,525.2c-.08,1.61-1.43,2.72-3.21,3.09-3.31.68-6.18-.35-8.48-2.84-1.01-1.09-1.35-2.45-1.11-3.86.36-2.07,2.08-2.66,3.82-2.92,5.15-.76,9.3,2.09,8.97,6.53Z"/><path class="cls-16" d="m561.76,727.35c-5.55,12.16-10.83,23.75-22.98,31.1-26.1,15.8-54.25,21.68-84.31,19.62-38.48-2.64-73.71-15.74-106.39-35.43-22.93-13.82-47.3-24.17-72.46-32.52-35.95-11.92-72.96-18.71-110.97-20.01-18.47-.63-37.05.41-55.41-3.04-23.98-4.52-46.58-12.38-66.54-26.7-15.94-11.44-28.84-25.35-34.86-44.63-1.6-5.14-2.07-9.95-.29-15.29,2.42-7.25,3.9-14.82,5.79-22.28,2.25.4,2.74,2.08,3.18,3.63,4.87,17.13,15.3,30.47,28.77,41.6,24.47,20.22,53.16,30.36,84.28,34.17,16.04,1.97,31.98.7,48.02-1.6,15.96-2.29,32.24-1.48,48.03,1.75,37.01,7.57,73.31,17.75,107.76,33.59,8.56,3.93,16.88,8.42,25.1,13.04,36.28,20.42,74.67,34.78,116.06,40.37,23.22,3.13,46.03,1.36,68.01-7.44,6.66-2.67,12.74-6.51,19.24-9.92Z"/><path class="cls-10" d="m626.84,340.38c4.46,4.16,8.9,8.45,14.74,11.11,5.8,2.65,12.37,1.56,17.87,4.12.29,2.36-.8,3.73-1.7,5.23-44.1,73.83-88.16,147.68-132.29,221.48-3.94,6.59-8.16,13.03-12.54,19.35-3.38,4.88-7.7,5.47-12.59,2.28-5.86-3.82-7.34-9.63-3.93-15.94,18.94-35.05,38.29-69.89,56.77-105.18,14.42-27.55,27.73-55.67,41.59-83.51,8.41-16.89,16.84-33.77,25.43-50.57,1.53-2.99,2.64-6.55,6.66-8.37Z"/><path class="cls-15" d="m695.26,184.1c16.69,16.34,35.4,28.83,55.63,38.48-.19,1.43-.04,2.24-.38,2.64-21.31,25.09-38.67,53.08-58.2,79.48-8.26,11.17-16.37,22.41-21.43,35.72-3.85,10.13-9.09,12.03-20.04,10.26-8.29-1.34-15.2-5.1-20.28-11.87-3.35-4.47-3.54-6.69-.33-11.42,6.28-9.26,10.19-19.59,14.49-29.81,13.41-31.87,27.02-63.65,40.77-95.38,2.59-5.97,5.25-12.05,9.76-18.09Z"/><path class="cls-7" d="m480.34,337.48c1.01,3.45-.6,5.97-1.55,8.51-8.54,22.92-17.68,45.58-28.07,67.75-36.94,78.78-73.73,157.63-110.59,236.44-1.63,3.48-3.46,6.86-5.17,10.3-1.73,3.47-4.5,4.15-7.88,2.84-3.35-1.29-4.47-3.92-3.3-7.67.52-1.66,1.36-3.21,2.04-4.82,33.94-79.72,67.81-159.48,101.87-239.15,9.19-21.5,18.96-42.76,28.47-64.13.57-1.28,1.13-2.56,1.78-3.79,2.12-3.97,3.17-9.16,7.41-11.1,4.12-1.89,7.45,2.8,11.47,3.57,1.3.25,2.53.89,3.51,1.24Z"/><path class="cls-13" d="m522.84,407.58c6.8,4.17,14.61,5.64,22.31,6.43.73,2.88-.78,4.58-1.63,6.38-43,90.56-86.05,181.11-129.09,271.65-.45.95-.84,1.92-1.31,2.86-2.19,4.41-4.4,5.61-7.85,4.29-4.56-1.74-6.5-5.39-4.65-9.76,9-21.22,18.14-42.38,27.24-63.56,29.91-69.64,59.82-139.28,89.79-208.9,1.34-3.12,1.93-6.72,5.18-9.39Z"/><path class="cls-3" d="m736.26,107.52c5.58,3.18,8.83,8.68,12.35,13.75,3.34,4.81,6.18,8.95,13.23,7.52,5.32-1.07,7.16,4.8,10.73,7.27,2.8,1.94.79,5.32-.1,7.75-3.39,9.3-3.73,19.15-5.6,28.72-3.1,15.84-8.61,30.81-15.26,46.26-10.53-3.99-19.55-9.78-28.33-15.79-8.34-5.71-16.52-11.76-23.36-19.36-2.01-2.23-2.97-4.24-1.28-7.42,11.62-21.91,23.02-43.92,34.48-65.92.68-1.31,1.63-2.22,3.14-2.79Z"/><path class="cls-9" d="m291.31,191.34c3.1,1.81,5.78,3.37,8.44,4.93.93,3.24-1.25,5.46-2.19,7.91-2.63,6.86-5.1,13.7-6.13,21.04-2.54,18.22-10.92,34.52-17.41,51.42-4.88,12.71-10.47,25.14-15.52,37.78-3.62,9.07-6.99,18.24-8.23,28.05-.29,2.34-1.43,4.64-2.49,6.81-4.61,9.43-8.51,19.15-11.66,29.15-15.22,48.31-35.08,94.91-52.32,142.47-1.19,3.28-2.29,6.6-3.61,9.83-.98,2.41-2.54,4.3-5.58,3.35-3.02-.94-4.95-3-4.35-6.21.64-3.4,1.8-6.73,2.97-10.01,12.21-34.19,24.49-68.35,36.72-102.54,25.62-71.65,51.2-143.32,76.86-214.96,1.04-2.9,1.3-6.22,4.5-9.02Z"/><path class="cls-8" d="m577.63,336.24c-7.44-.81-13.94-1.94-19.68-5.72-2.63-1.73-3.62-3.83-3.01-7.07,3.54-18.61,3.91-37.41,3-56.26-.08-1.72-.15-3.46.05-5.16.27-2.25,1.08-3.66,4.01-3.5,7.7.4,14.7-1.99,21.37-5.86,8.02-4.66,17.61-5.13,25.91-9.43,5.02-2.6,13.79.11,15.68,4.69,1.63,3.96,2.48,8.85,1.75,13-.76,4.3-.06,9.2-3.22,13-.65.78-1.62,2.1-1.37,2.73,2.86,6.96-2.99,9.73-6.39,13.63-11.29,12.93-21.42,26.72-30.49,41.28-2.04,3.28-4.28,5.48-7.61,4.69Z"/><path class="cls-19" d="m552.71,273.19c2.61,12.29,1.72,24.14,1.35,36-.04,1.32-.49,2.76-1.14,3.91-14.78,26.18-26.82,53.72-39.99,80.7-28.51,58.38-56.63,116.95-84.95,175.42-1.52,3.13-3.17,6.25-5.12,9.12-2.63,3.87-5.86,4.72-8.74,2.6-3.21-2.38-1.19-4.94-.05-7.4,19.16-41.55,38.36-83.08,57.49-124.64,25.56-55.52,51.07-111.07,76.63-166.6,1.42-3.08,3.02-6.07,4.53-9.1Z"/><path class="cls-2" d="m266.57,355.17c-2.84,12.64-7.25,24.79-11.49,36.99-7.69,22.13-17.57,43.39-25.77,65.3-19.36,51.68-38.16,103.57-57.19,155.38-1.69,4.59-3.45,9.15-5.11,13.75-1.3,3.59-3.95,4.78-7.42,3.98-3.02-.7-5.13-2.48-4.1-6.01,1.18-4.02,2.42-8.03,3.87-11.96,18.07-48.8,36.31-97.54,54.24-146.4,6.38-17.37,10.69-35.37,15.41-53.25,5.54-20.96,12-41.63,21.21-61.34,2.23-4.76,2.28-4.7,7.63-2.78,1.97.71,3.96,1.5,6.01,1.8,2.96.44,3.14,2.21,2.7,4.51Z"/><path class="cls-14" d="m366.11,277.15c-.32,6.04-2.56,11.59-4.78,17.07-6.43,15.84-13.15,31.56-19.6,47.39-11.05,27.14-21.87,54.37-32.98,81.48-18.12,44.22-36.4,88.38-54.62,132.56-.53,1.29-1.15,2.55-1.61,3.87-1.15,3.3-3.35,4.42-6.5,2.88-2.94-1.45-2.39-3.74-1.14-6.17,5.43-10.55,10.26-21.39,14.45-32.49,14.19-37.53,31.15-73.95,44.75-111.7,12.18-33.79,24.17-67.65,36.26-101.47,4.36-12.2,10.54-23.55,16.53-34.99.81-1.54,1.47-3.17,3.19-3.99,3.21-1.52,6.33,1.35,6.03,5.56Z"/><path class="cls-15" d="m332.44,71.93c4.6,2.42,9.83,3.47,11.46,6.46,2.07,3.8-1.35,8.61-2.64,12.91-9.35,31.09-18.77,62.16-28.14,93.24-2.52,8.36-8.52,10.77-16.01,6.33-4.34-2.57-5.24-4.26-3.77-9.47,2.18-7.72,4.52-15.41,7.18-22.98,8.24-23.38,16.62-46.71,25.07-70.02,1.89-5.22,4.26-10.28,6.86-16.49Z"/><path class="cls-11" d="m521.31,206.81c2.19.75,1.78,3.63,3.39,4.78,8.32,5.98,4.84,12.69,1.81,19.83-12.26,28.9-24.28,57.9-36.36,86.87-1.47,3.52-2.47,7.25-4.11,10.69-1.49,3.11-4.28,4.62-7.81,3.9-3.81-.77-7.5-1.96-9.6-5.63-.93-1.63-.31-3.37.27-5.04,2.57-7.53,5.06-15.08,7.65-22.61,10.96-31.81,26.91-61.3,42.28-91.07.46-.9,1.05-1.85,2.48-1.73Z"/><path class="cls-20" d="m439.36,556.41c1.76-8.03,92.62-197.42,103.56-216,2.17,2.59-.36,4.48-1.17,6.37-6.01,14.12-12.38,28.08-18.3,42.23-2.08,4.97-5.88,9.58-4.16,15.77.36,1.31-1.21,3.15-1.9,4.75-19.86,46.14-39.71,92.27-59.57,138.4-.41.96-.85,1.91-1.29,2.86q-3.11,6.78-10.96,6.25c-2.06-.14-4.12-.41-6.21-.63Z"/><path class="cls-15" d="m289.16,249.05c1.7.41,3.32,1,4.98,1.15,3.93.35,4.44,2.57,3.53,5.8-4,14.09-7.84,28.23-12.02,42.27-3.58,12.04-7.5,23.97-11.31,35.94-.74,2.32-1.76,4.56-2.48,6.88-1.91,6.13-6.41,7.79-13.42,4.34-3.62-1.78-5.19-4.55-3.94-8.55,1.98-6.32,3.64-12.78,6.09-18.92,8.79-22.03,17.85-43.95,26.84-65.91.38-.93,1.01-1.76,1.73-2.99Z"/><path class="cls-11" d="m644.41,117.45c-7.41,16-14.85,31.76-22.02,47.65-8.9,19.7-18.65,39.02-26.31,59.27-1.21,3.2-2.26,7.26-6.87,6.47-4.5-.77-8.75-2.69-11.2-6.91-.93-1.59-.02-3.38.89-4.92,3.36-5.64,6.95-11.16,10.04-16.95,4.94-9.23,9.56-18.63,14.29-27.97,9.15-18.06,18.25-36.14,27.43-54.18,3.45-6.78,3.54-6.74,10.75-3.84.9.36,1.76.81,2.99,1.38Z"/><path class="cls-5" d="m364.5,5.85c2.51,6.37,1.42,10.69-.04,14.91-5.48,15.81-11.71,31.35-15.81,47.63-1.18,4.68-3.01,5.55-6.56,4.61-5.11-1.36-7.06-3.81-5.6-8.05,6.93-20.1,15.47-39.46,28.02-59.1Z"/><path class="cls-18" d="m316.43,203.05c-.57,1.77-.89,3.14-1.45,4.41-4.53,10.17-8.95,20.35-10.76,31.49-.37,2.27-2.06,4.37-3.33,6.43-2,3.24-4.81,1.86-7.45,1.04-3.3-1.03-2.63-3.16-1.95-5.8,3.12-12.1,3.86-24.83,9.56-36.24,1.06-2.13,1.32-4.9,3.66-6.15,2.07-1.12,4.43-3.78,6.51-2.28,2.33,1.68,3.62,4.82,5.2,7.09Z"/><path class="cls-15" d="m394.54,189.19c1.76,4.62.39,7.87-.82,11.07-7.87,20.84-15.75,41.67-23.73,62.47-2.41,6.3-3.36,6.89-6.65,5.48-4.75-2.03-1.91-5.31-1.03-7.87,7.01-20.44,15.9-40.13,24.83-59.78,1.68-3.7,3.35-7.61,7.4-11.37Z"/><path class="cls-12" d="m669.68,55.3c-3.06,20.64-12.45,37.31-21.42,54.12-2.21,4.14-6.26,4.58-9.47,1.52-.96-.92-1.85-2.04-1.16-3.65,7.89-18.48,14.35-37.82,32.06-51.99Z"/><path class="cls-4" d="m541.78,164.26c4.37,7.93,7.6,14.47,3,22.92-3.64,6.68-5.76,14.19-8.56,21.33-.88,2.24-1.28,4.79-3.93,5.85-7.68-6.57-9.55-11.83-6.12-19.75,4.38-10.11,8.64-20.32,15.61-30.35Z"/><path class="cls-6" d="m539.4,360.93c7.44,6.63,15.25,8.73,23.93,8.46,3.52-.11,4.23,1.37,3.1,4.64-3.33,9.65-5.63,11.16-16.26,10.87-3.16-.09-6.23-.42-9.24-1.59-8.07-3.14-8.98-5.14-5.6-13.24,1.07-2.56,2.26-5.07,4.07-9.13Z"/><path class="cls-19" d="m562.97,251.09c2.18-7.29,5.96-13.79,10.27-20.06,1.7-2.47,3.53-2.89,6.01-1.2,1.7,1.16,3.48,2.28,5.34,3.15,2.35,1.1,6,.72,5.72,4.68-.3,4.23-1.47,8.91-5.49,10.46-5.13,1.98-10.31,3.9-15.48,5.8-1.97.73-4.44-.97-6.37-2.84Z"/><path class="cls-6" d="m546.97,344.14c8.34,7.41,17.26,9.81,27.08,9.26-1.17,8.19-1.66,8.86-7.93,9.44-6.39.59-12.58-.45-18.36-3.29-5.61-2.75-6.02-3.97-3.67-9.77.64-1.58,1.55-3.06,2.88-5.64Z"/><path class="cls-6" d="m530.36,383.03c7.74,5.75,16.28,9.23,26.22,7.94-1.39,8.42-2.61,9.7-9.1,10.28-4.28.38-8.37-.6-12.29-2.08-9.02-3.41-9.94-6.51-4.83-16.14Z"/><path class="cls-6" d="m572.66,347.09c-8.09-.08-13.95-2.05-19.25-5.69-2.06-1.41-3.91-3.14-2.97-6.03.67-2.05,1.88-4.4,4.35-2.76,6.94,4.6,14.72,6.02,22.73,6.89,1.64.18,3.84.24,3.42,2.73-.28,1.62-.9,3.68-2.68,4.17-2.31.63-4.79.61-5.6.7Z"/><path class="cls-6" d="m548.08,408.29c-9.13,2.87-17.39,1.23-24.43-5.33-1.03-.96-1.34-2.44-.21-3.65.3-.32,1.35-.43,1.67-.17,6.71,5.33,14.98,6.48,22.96,9.15Z"/><path class="cls-20" d="m195.28,502.03c1.55-8.97,5.92-16.91,9.34-27.01-.1,9.09-4.56,20.75-9.58,26.79l.24.22Z"/><path class="cls-5" d="m402.93,169.49c-.37,6.17-2.36,10.5-4.1,14.89-.37.94-1.16,1.93-2.29,1.5-1.49-.58-1.75-1.95-1.12-3.33,1.97-4.27,2.66-9.25,7.51-13.05Z"/><path class="cls-20" d="m182.97,536.05c-.51-5.77,2.71-10.31,5.17-15.09-.45,5.44-1.16,10.79-5.42,14.89l.25.2Z"/><path class="cls-20" d="m195.03,501.8c1.27,3.6-.9,6.22-2.89,8.88.13-3.18.77-6.19,3.13-8.66l-.24-.22Z"/><path class="cls-1" d="m654.86,314.93c20.72-27.42,41.63-52.25,68.58-72.88-12.47-9.69-24.45-19-36.8-28.6,3.9-2.11,5.48.5,7.23,1.79,9.56,7.06,18.95,14.35,28.48,21.45,4.54,3.38,4.58,3.23,8.4-1,3.15-3.48,5.15-8.08,10.12-10.83-2.8,7.23-9.4,16.8-14.65,20.09-17.47,10.94-30.86,26.18-44.23,41.44-7.37,8.41-14.2,17.28-21.3,25.92-.85,1.03-1.47,2.44-5.83,2.62Z"/><path class="cls-1" d="m664.28,341.34c-13.23,2.38-22.72-1.7-30.04-14.06,6.23,4.22,9.94,8.15,14.91,10.08,4.86,1.89,10.12,1.82,15.13,3.98Z"/><path class="cls-1" d="m643.57,312.86c5.82,11.27,16.82,12,29.31,13.35-15.82,4.22-26.81-1.05-29.31-13.35Z"/><path class="cls-1" d="m523.7,221.51c.6,6.4-1.32,11.83-5.23,15.62-12.35,11.97-19.66,27-27.01,42.09-1.47,3.02-2.16,6.61-5.06,8.69-1.45-.43-1.83-1.2-1.34-2.33,5.18-11.85,10.84-23.44,17.71-34.42.93-1.48,1.96-2.89,2.97-4.32,5.96-8.42,15.59-14.18,17.97-25.33Z"/><path class="cls-1" d="m636.08,121.67c-5.41,15.73-12.12,30.74-20.32,45.12.52-8.61,5.23-15.74,8.52-23.31,3.3-7.59,6.27-15.4,11.8-21.81Z"/><path class="cls-1" d="m605.18,186.68c-1.12,7.18-4.21,13.34-8.39,19-.03-7.6,4.3-13.31,8.39-19Z"/><path class="cls-1" d="m610.49,173.03c.6.21,1.19.43,1.79.65-.58,1.13-1.05,2.35-1.79,3.36-.44.59-1.26.23-1.38-.66-.18-1.32-.03-2.62,1.39-3.34Z"/></svg>