<?xml version="1.0" encoding="UTF-8"?><svg id="Layer_1" xmlns="http://www.w3.org/2000/svg" viewBox="0 0 772.93 804.3"><defs><style>.cls-1,.cls-2{stroke-width:0px;}.cls-2{fill:#fff;}</style></defs><path class="cls-1" d="m526.38,390.64c-1.9-1.09-3.43-.04-4.7,1.05-1.58,1.35-2.88,3.02-4.29,4.55-7.56,8.18-14.72,16.77-22.76,24.45-20.16,19.25-39.88,38.93-59.37,58.86-2.27,2.32-4.15,5.33-8.34,6.77,1.01-4.76,3.65-7.5,5.98-10.31,11.99-14.49,23.87-29.08,36.22-43.26,14.17-16.28,27.57-33.26,43.43-48.03,1.93-1.8,4.9-3.94,2.14-6.82-2.28-2.38-5.24-1.11-7.55.72-2.73,2.16-5.48,4.32-7.91,6.8-27.99,28.66-58.07,55.2-85.76,84.18-1.23,1.29-2.16,3.78-5.05,2.59-.28-3.17,2.21-4.91,3.92-6.77,13.65-14.89,27.24-29.84,41.26-44.38,13.77-14.29,28.05-28.1,42.03-42.18,1.95-1.96,3.68-4.19,5.23-6.49.96-1.42,1.5-3.3.13-4.83-1.58-1.75-3.11-.53-4.53.46-1.14.79-2.24,1.66-3.33,2.52-18.36,14.4-36.76,28.77-54.02,44.49-11.07,10.09-21.84,20.5-32.84,30.67-3.57,3.3-6.94,7.07-12.08,8.16,9.71-11.56,20.02-22.39,30.14-33.39,17.46-18.98,36.23-36.68,54.23-55.12,2.55-2.61,7.14-5.98,4.6-9.34-3.31-4.37-6.79.93-9.43,2.79-23.63,16.65-47.07,33.57-70.53,50.46-20.51,14.77-37.86,32.8-53.75,52.32-8.18,10.05-13.72,21.34-12.42,34.49,1.66,16.81-5.01,29.46-16.59,40.86-28.66,28.2-60.12,53.01-93.43,75.23-37.96,25.32-76.18,50.2-112.98,77.2-18.37,13.48-36.07,27.48-45.89,49.42l-2.91,9.84c.32,3.38.01,6.89-1.1,10.65-4.57,15.51,3.5,27.01,20.79,29.01,1.51.17,2.84.46,4.04.86,3.86.01,7.72.11,11.56-.28.74-.23,1.38-.42,2.03-.55,22.32-4.42,40.44-16,56.29-31.98,19.01-19.16,33.99-41.41,49.92-62.97,35.01-47.4,71.83-93.2,115.98-132.67,18.77-16.78,38.45-29.98,65.28-26.55,5.94.76,11.8-.94,17.34-3.13,17.83-7.06,33.02-17.75,45.04-32.84,16.92-21.24,34.22-42.18,49.66-64.56,6.72-9.73,14.28-18.88,21.41-28.33,2.1-2.78,4.05-5.72,4.87-9.16.5-2.1.25-4.17-1.96-5.44Z"/><path class="cls-1" d="m523,127.5c3.25,14.3,8.98,26.48,14.67,38.67,9.15,19.58,16.13,39.99,23.31,60.33,1.76,4.99,1.32,8.44-2.73,11.99-6.07,5.33-7.13,13.44-9.7,20.48-3.05,8.34-8.46,12.87-16.73,13.37-8.63.52-15.46,6.12-23.82,7.25-2.87.39-3.97,3.59-4.38,6.53-.76,5.52-1.25,11.1-2.5,16.51-1.86,8.04-5.16,14.34-14.58,16.98-7.3,2.05-15.65,3.2-21.17,9.91-1.64,2-4.39,1.51-6.88.88-7.41-1.85-15.06-2.99-22.26-5.46-10.73-3.68-22.02-2.06-32.82-4.52-1.91-.43-3.34.76-4.81,1.61-5.01,2.91-10.46,3.82-16.11,3.5-5.83-.33-12.31,1.31-15.34,4.85-3.91,4.56-7.01,11.64-4.06,18.37,3.63,8.27,4.84,15.87-1.62,23.33-1.95,2.25-1.81,5.08-.56,7.88,1.41,3.18,2.6,6.45,3.82,9.71,4.72,12.63.01,19.92-12.74,24.55-13.83,5.03-27.97,9.13-41.65,14.53-3.13,1.24-5.12,3.58-5.5,7.02-.68,6.19-2.34,12.36-.33,18.62.53,1.65,1.02,3.42.96,5.12-.16,4.4,1.7,10.31-2.61,12.58-5.25,2.77-7.42-3.7-10.26-6.59-29.02-29.61-57.81-59.43-86.67-89.19-.97-1-1.88-2.07-2.9-3.01-1.71-1.58-3.42-2.56-4.69.49-4.67,11.24-13.27,17.66-25.02,19.91-4.3.82-4.52,3.51-4.24,6.9.91,10.76,1.74,21.52,2.62,32.28,1.23,14.93,2.53,29.85,3.69,44.78.3,3.89,1.18,7.54,2.93,11.01.94,1.86,2.04,3.7,2.59,5.68,1.4,5.13-1.63,10.31-6.4,11.36-4.6,1.01-9.74-3.08-9.31-8.69,1.43-18.57-3-36.59-4.41-54.88-.97-12.49-2.72-24.93-3.86-37.41-.39-4.33-1.28-5.79-6.35-4.98-16.26,2.6-25.85-2.96-32.09-18.13-7.97-19.36-5.38-37.46,7.34-54.09,1.45-1.89,3.72-3.2,4.31-6.68-11.05-2.39-15.75-12.47-22.84-19.87-1.38-1.43-2.68-3.6-2.78-5.49-.55-10.85.37-21.66,1.9-32.41.09-.64.52-1.69.94-1.77,13.11-2.47,9.47-18.9,19.77-23.68.6-.28,1.55-1,1.48-1.35-1.92-9.75,8.42-11.56,11.65-17.97,1.1-2.18,3.25-3.61,5.83-4.03,1.69-.27,3.67-.22,4.29-2.25,2.71-8.74,10.59-12.71,16.9-17.95,49.28-40.98,98.73-81.75,148.02-122.71,2.46-2.04,7.42-3.39,6.19-7.25-.78-2.46-5.39-2.55-8.49-2.98-34.59-4.83-68.09-1.11-99.81,13.89-10.58,5-21.34,8-32.89,9.15-15.02,1.5-28.13,7.26-38.62,18.58-5.99,6.47-13.53,11.18-21.52,14.55-15.76,6.65-27.58,16.94-35.27,32.42-4.18,8.41-10.24,15.5-18.46,20.86-6.1,3.97-10.79,9.91-14.02,16.61-12.15,25.2-19.44,51.29-15.41,79.71,1.42,9.99.81,19.98-.86,30.11-2.76,16.81-.85,33.49,7,48.85,5.7,11.15,7.8,22.91,8.71,35.15,1.31,17.59,8.52,33.08,19.24,46.58,7.42,9.34,14.16,18.71,19.03,29.7,15.95,35.96,41.96,63.71,73.17,86.87,11.18,8.3,22.95,15.77,35.7,21.59,8.6,3.93,16.29,9.21,23.27,15.7,5.42,5.04,11.56,9.32,17.01,14.48-6.79-.97-11.94-5.01-16.46-9.57-8.75-8.82-19.37-14.54-30.2-20.24-28.62-15.08-53.82-34.49-74.57-59.6-13.84-16.75-26.32-34.18-34.08-54.66-2.25-5.94-5.82-11.08-10.03-15.79-16.39-18.3-25.69-39.51-26.17-64.26-.13-6.82-2.31-13-5.26-18.94-10.29-20.71-13.4-42.29-8.15-64.92.88-3.81,1.05-7.62.42-11.41-5.14-30.91-.23-60.23,13.42-88.31,3.9-8.03,9.02-15.18,16.19-20.14,8.64-5.99,14.72-13.76,19.35-22.82,6.79-13.29,17.18-22.61,30.58-28.73,10.54-4.81,19.95-11.01,28.3-19.24,11.11-10.94,25.33-15.7,40.66-16.81,9.58-.69,18.32-3.52,26.88-7.68,31.94-15.55,65.97-20.35,100.61-14.91,13.03,2.05,22.02.39,31.96-7.62,10.01-8.05,21.68-13.91,26.79-26.87,1.81-4.58,6.79-5.21,10.82-4.62,13.61,1.99,26.11-1.05,38.62-6.13,8.37-3.4,17.05-2.81,25.06,2.22,4.8,3.01,9.88,4.6,15.8,4.32,8.36-.39,10.21,1.11,11.95,9.68,1.47,7.24,4,14.04,6.72,20.82,1.44,3.58,3,7.2,5.69,9.92,14.34,14.47,20.99,33.5,30.08,51,4.12,7.94,8.77,13.18,17.56,15.97,32.7,10.37,61.48,27.55,86.3,51.37,11.45,10.99,20.91,23.39,27.66,37.67,5.02,10.62,11.48,19.45,21.29,26.39,16.46,11.65,26.91,28.08,32.87,47.18,3.7,11.85,9.31,22.45,17.23,31.92,9.27,11.08,14.32,23.97,14.57,38.31.31,18.04,5.07,34.96,10.78,51.84,11.64,34.41,8.86,67.14-12.48,97.39-3.21,4.55-6.32,9.2-9.78,13.56-5.39,6.78-8.24,14.47-9.01,22.98-1.36,14.84-9.23,25.95-20.18,35.24-2.91,2.47-6.08,4.74-9.43,6.54-11.52,6.18-20.95,14.09-28.31,25.37-7.03,10.78-18.87,16.19-31.26,19.51-4.02,1.08-8.15,1.94-12.29,2.38-12.14,1.29-22.96,5.78-32.34,13.41-10.34,8.41-22.63,12.78-35.12,15.29-34.49,6.94-69.41,8.02-103.37-2.08-17.1-5.09-33.89-6.4-51.34-6.24-20.21.19-39.41-5.18-56.99-14.84-12.05-6.63-24.53-11.34-37.75-14.67-5.07-1.28-10.76-1.9-14.14-7.17,16.15,5.94,33.57,7.37,48.88,16.5,20.1,11.99,42.17,17.86,65.85,16.77,14.29-.66,28.19-.15,41.91,5.77,9.76,4.22,20.83,5.61,31.63,6.19,22.96,1.24,45.98,2.28,68.72-2.17,14.38-2.81,28.41-6.87,40.2-16.33,10.64-8.53,23.05-12.55,36.43-14.33,18.95-2.52,34.29-10.91,44.2-27.89,2.87-4.92,7.03-8.55,11.97-11.4,5.12-2.96,10.22-5.99,15.13-9.28,14.7-9.82,23.89-23.05,25.12-41.15.41-6.06,2.79-11.46,6.25-16.39,4.6-6.55,9.4-12.98,13.88-19.61,18.19-26.9,22.04-56.42,12.39-86.77-6.47-20.35-12.45-40.47-13.31-61.88-.49-12.31-5.26-23.03-13.01-32.35-8.38-10.06-14.37-21.27-18.26-33.73-6.11-19.58-17.36-35.57-34.21-47.38-7.34-5.14-12.9-11.58-16.65-19.67-18.78-40.45-51.97-65.38-90.96-83.8-9.89-4.67-20.12-8.91-31.9-11.55Z"/><path class="cls-2" d="m489.18,379.12c-.32,4.4-4.1,6.3-6.77,8.76-25.41,23.39-48.17,49.32-71.73,74.49-2.63,2.81-5.01,5.8-6.59,9.35-.6,1.34-.69,2.77.3,3.9,1.24,1.43,2.98,1.79,4.75,1.22,3.48-1.12,5.63-4.01,8.06-6.47,22.25-22.58,45.05-44.59,68.21-66.23,1.73-1.62,2.99-3.94,5.7-4.28l.43.44c-4.77,8.58-12.04,15.16-18.26,22.57-14.55,17.34-29.91,34-43.63,52.03-2.52,3.31-4.77,6.86-6.79,10.49-1.04,1.86-1,4.2,1.13,5.58,1.69,1.09,3.38.35,4.74-.86,2.6-2.31,5.25-4.6,7.66-7.1,19.6-20.31,39.75-40.06,60.09-59.63,9.44-9.09,17.97-19.12,27.38-29.23,1.39,4.99-1.72,7.43-3.64,9.98-24.31,32.25-47.18,65.66-73.89,95.98-17.59,19.97-39.49,33.14-67.68,31.27-14.29-.94-26.58,3.64-37.8,12.27-23.28,17.91-44.19,38.25-63.9,59.97-34.48,37.99-64.74,79.26-94.9,120.64-11.94,16.38-25.23,31.65-41.64,43.74-15.48,11.42-32.55,18.43-52.43,17.2-16.64-1.03-22.81-8.34-21.02-25.05,2.37-22.06,12.79-39.42,29.78-53.16,24.67-19.95,50.82-37.88,76.89-55.89,16.04-11.08,32.72-21.22,48.93-32.06,32.46-21.72,63.34-45.48,92.06-71.99,3.58-3.3,6.81-6.98,10.32-10.35,11.18-10.75,16.92-23.52,15.49-39.31-1.27-14.06,4.32-25.7,13.25-36.22,16.74-19.74,34.94-37.85,56.14-52.85,19.05-13.48,37.85-27.31,56.84-40.87,2.72-1.94,5.16-4.57,10.46-5.23-6.21,6.27-11.32,11.71-16.72,16.84-23.01,21.85-44,45.63-65.97,68.46-1.69,1.75-3.37,3.6-4.59,5.68-1.26,2.13-4.73,4.43-1.69,7.06,2.48,2.15,5.19,0,7.52-1.6,6.06-4.16,11.33-9.23,16.56-14.36,22.66-22.22,46.85-42.69,71.57-62.55,1.58-1.27,2.99-3.03,5.41-2.62l-.02-.02Z"/><path class="cls-2" d="m491.1,399.86c.15-1.42.82-2.17,2.35-1.83l-.16-.16c.3,1.45-.34,2.22-1.76,2.42,0,0-.43-.44-.43-.44Z"/><path class="cls-2" d="m493.45,398.03c-.18-1.58.5-2.3,2.1-2.08l-.18-.18c.14,1.52-.53,2.25-2.08,2.1,0,0,.16.16.16.16Z"/><path class="cls-2" d="m495.55,395.95c-.19-1.58.45-2.33,2.09-2.08l-.18-.19c.11,1.5-.56,2.22-2.08,2.1,0,0,.18.17.18.17Z"/><path class="cls-2" d="m497.64,393.87c.03-1.69.67-2.47,2.41-1.65l-.23-.26c-.35,1.17-1,1.93-2.36,1.72,0,0,.18.19.18.19Z"/><path class="cls-2" d="m500.06,392.22c-.38-2.08.55-2.43,2.28-1.72l-.27-.36c-.76.6-1.51,1.2-2.26,1.81,0,.01.24.27.24.27Z"/><path class="cls-2" d="m504.4,388.26c-.79.61-1.58,1.22-2.35,1.85.02.02.25.33.27.36-.27-1.9.68-2.3,2.33-1.87l-.25-.34Z"/><path class="cls-2" d="m506.25,385.93c-.64.75-1.28,1.5-1.88,2.29.03.04.23.31.26.34-.44-1.62-.17-2.69,1.91-2.28l-.28-.35Z"/><path class="cls-2" d="m508.15,383.62c-.65.75-1.3,1.51-1.93,2.29.02.02.26.32.28.35-.27-1.51.05-2.56,1.94-2.33l-.29-.31Z"/><path class="cls-2" d="m509.63,380.8c.28,1.35-.32,2.23-1.49,2.8.01.01.28.29.29.31-.45-1.51.47-2.47,1.44-3.41l-.24.29Z"/><path class="cls-2" d="m509.87,380.51l.34.28s-.6.07-.59.04.25-.32.25-.32Z"/><path class="cls-2" d="m490.68,376.75c.72,1.56.16,2.32-1.5,2.37,0,0,.02.02.02.02-.28-1.4.56-1.92,1.72-2.2l-.24-.19Z"/><path class="cls-2" d="m493.08,374.21c-.38,1.23-.71,2.51-2.38,2.55-.01,0,.25.2.24.19.85-.97,1.71-1.93,2.58-2.89,0,0-.43.15-.43.15Z"/><path class="cls-2" d="m493.51,374.05c-.1.18-.2.36-.3.54.16-.06.31-.12.47-.18-.21-.05-.42-.1-.62-.18.01-.03.44-.18.44-.18Z"/><path class="cls-2" d="m295.19,460.29c-4.03.96-5.25-2.68-7.24-4.7-27.66-28.02-55.17-56.18-82.9-84.13-3.24-3.27-4.51-6.4-4.32-10.99.56-13.4-3.68-25.34-12.23-35.73-8.88-10.79-20.34-14.03-33.69-11.4-4.77.94-9.44,2.43-14.14,3.73-4.18,1.16-8.14.92-12.2-.85-13.7-6-15.99-15.55-6.3-27.07,1.06-1.26,2.75-2.17,2.18-4.26-6.93,2.67-7.21,2.99-12.98,14.78-4.98-6.94-5.31-9.25-.71-14.23,3.76-4.06,7.64-8.15,12.95-10.39,1.77-.75,4.11-1.02,4.14-4.54-5.98.49-10.27,3.71-14.33,7.47-1.44,1.33-3.05,3.81-5.09,1.68-2.45-2.54.23-4.38,1.93-5.99,4.31-4.06,9.91-5.95,17.12-8.59-6.65-2.72-10.16.39-13.91,2.12-1.37.63-2.7.98-3.5-.63-.7-1.41-.17-2.91,1.05-3.64,1.77-1.05,3.72-2.05,5.72-2.4,4.54-.79,6.84-2.04,4.71-7.49-1.29-3.31,6.25-12.25,11.05-13.91,3.26-1.13,6.75-1.6,10.14-2.34,2.27-.49,5.05.15,6.25-3.15-4.16-1.68-8.12-.13-12.1.55-1.44.25-2.96.28-3.69-1.1-.95-1.81.07-3.33,1.5-4.47,2.95-2.34,6.52-2.53,9.97-2.21,5.48.51,10.91,1.48,18.8,2.6-6.92-6.49-14.22-5.04-20.75-7.47,5.35-6.24,10.86-2.7,16.03-1.21,5.57,1.6,10.52,5.12,18.74,6.2-6.07-6.28-12.69-7.04-18.13-9.75-6.09-3.03-6.7-4.19-2.25-9.41,1.79-2.1,4.01-3.85,6.15-5.62,52.59-43.54,105.11-87.17,157.87-130.51,9.92-8.15,19.91-16.31,30.89-23.15,8.33-5.18,16.05-11.23,19.21-21.25,1.11-3.51,3.81-4.83,7.2-4.92,2.78-.07,5.65-.28,8.34.26,9.3,1.87,18.01.16,26.42-3.78,11.18-5.24,22.12-5.81,32.69,1.52,3.98,2.76,8.45,3.11,13.02,2.54,5.47-.68,8.61,1.34,9.53,6.96.76,4.68,1.95,9.28,2.95,13.89-2.62.56-3.96-.68-5.41-1.47-5.47-2.98-10.36-1.99-13.83,2.91-6.86,9.69-13.97,19.11-22.85,27.07-2.93,2.62-2.45,5.66-.31,8.39,4.86,6.17,7.1,13.51,9.62,20.73,1.27,3.66,2.79,7.28,5.4,10.07,15.58,16.65,23.46,37.55,32.49,57.87,6.19,13.94,12.54,27.76,20.02,41.17,9.98,17.9,17.78,36.98,18.19,58.11.05,2.66,1.24,5.94-2.86,6.62-4.39.73-5.43-2.47-5.56-5.76-.7-17.7-9.45-32.36-16.73-47.83-6.96-14.78-14.81-29.18-20.9-44.35-6.5-16.19-15.87-30.98-22.43-47.13-.89-2.18-2.54-4.21-4.26-5.88-5.8-5.63-10.76-11.82-14.48-19.03-2.1-4.06-5.26-7.34-8.66-10.39-8.3-7.45-14.25-7.88-23.35-1.66-4.4,3-7.62,7.01-10.51,11.45-3.58,5.5-3.94,10.96-1.03,16.73.78,1.55,1.39,3.28,2.49,4.58,15.77,18.67,19.11,42.25,24.85,64.68,2.85,11.16,7.12,21.79,9.95,32.93,5.74,22.57,12.37,44.92,18.74,67.34,2.66,9.38,3.47,19.2,6.94,28.38,1.12,2.96.72,4.52-3.13,4.17-8.47-.75-10.11-2.26-13.04-10.57-5.45-15.48-8.65-31.55-12.86-47.35-8.43-31.64-23.78-60.1-39.72-88.33-3.08-5.46-6.6-10.67-9.7-16.11-2.63-4.6-5.91-8.63-9.83-12.12-10.65-9.51-22.21-7.73-29.85,4.49-6.53,10.45-6.59,15.26,1.79,24.23,6.76,7.24,9.73,15.2,11.16,25.03,2.09,14.4,6.36,28.51,10,42.67,3.13,12.18,5.23,24.5,6.2,37.02.89,11.5,3.63,22.69,5.95,33.93,1.47,7.13.55,13.5-3.34,19.62-.65-.64-1.44-1.05-1.58-1.62-5.23-20.87-12.23-41.2-14.12-63-2.05-23.71-9.32-46.45-21.26-67.19-3.96-6.87-6.69-13.61-7.39-21.36-.22-2.41-.31-5.01-1.28-7.15-1.79-3.97-4.91-5.93-9.28-3.52-2.12,1.17-4.14,2.58-6.07,4.05-8.6,6.56-17.39,12.85-27.36,17.18-6.72,2.91-9.15,7.87-8.7,14.97.57,9.14,2.94,17.85,5.54,26.52,2.81,9.37,5.07,18.78,5.66,28.61.5,8.38,2.43,16.64,5.64,24.35,9.4,22.63,9.7,46.12,7.37,69.91-1.05,10.77-1.48,21.54-1.25,32.35.23,10.69,2.41,20.76,9.63,29.14,4.61,5.35,6.17,11.41,5.08,18.44-1.18,7.61-1.16,15.26.97,22.8.66,2.33.75,4.76-1.7,7.19-3.26-18.12-12.05-33.55-20.82-48.86-6.49-11.32-11.26-22.97-13.61-35.87-4.17-22.94-9.8-45.59-13.44-68.66-1.86-11.75-6.53-22.69-12.55-33.04-3.61-6.21-8.65-10.21-15.86-10.3-12.02-.16-19.14-9.3-27.97-15.05-5.15-3.36-3.37-10.84,2.71-14.81,2.29-1.49,5.02-2.35,7.61-3.31,2.49-.92,5.59.36,8.75-3.12-6.15-2.16-11.14-.16-15.9,1.74-3.56,1.42-6.9,3.44-10.87,3.23-1.3-.07-3.15-.37-3.72-1.24-1.05-1.61-.08-3.37,1.37-4.53,4.75-3.8,10.22-6.01,16.26-6.4,4.48-.29,8.99-.06,13.64-.91-3.64-3.2-8.08-3.04-12.51-2.6-4.23.42-8.36.57-12.12-1.87-1.13-.73-2.61-1.44-2.06-3.01.28-.8,1.46-1.56,2.38-1.83,5.05-1.49,10.26-1.91,15.51-1.73,2.97.1,6.03,1.12,9.76-1.35-3.62-2.78-7.19-1.89-10.35-2.1-4.27-.28-6.49-2.69-6.95-6.45-.45-3.75,2.59-5.37,5.55-6.65.95-.41,2.02-.93,2.98-.84,10.36.98,17.92-5.36,26.7-9.17,23.08-10.01,42.81-24.6,61.47-40.89,22.03-19.23,43.82-38.74,65.4-58.47,6.65-6.08,12.41-13.17,18.31-20.02,8.22-9.54,17.44-18.02,26.97-26.19,10.78-9.24,22.06-17.22,37.44-15.21.9.12,1.92-.63,3.01-1.03-9.29-4.29-19.05-3.39-29.58,3.59-12.83,8.5-24.81,18.34-34.58,30.13-30,36.23-67.43,64.41-102.37,95.24-13.72,12.11-29.02,22.89-46.88,28.9-1.63.55-3.41,1.23-4.61,2.38-5.05,4.82-10.88,6.66-17.88,6.78-6.36.11-11.81,2.44-15.63,8.67-2.94,4.79-9.21,7.1-10.65,13.55-.58,2.59-1.47,4.98.91,6.53,4.99,3.26,2.08,4.57-.87,7.06-7.39,6.24-6.86,9.21,2.37,13.34,2.67,1.2,2.78,2.69,2.45,4.76-1.12,7.1,2.93,10.95,8.47,14.07,3.02,1.7,6.17,3.42,8.62,5.79,4.27,4.13,9.3,6.27,15,6.4,8.03.19,12.71,4.49,16.13,11.22,6.06,11.9,10.35,24.34,12.18,37.58,3.34,24.18,9.92,47.7,14.39,71.65,1.24,6.62,3.76,12.7,7.43,18.27,8.46,12.88,14.05,27.19,20.78,40.94,1.07,2.18,2.25,4.36,1.9,6.94l.26-.18Z"/><path class="cls-2" d="m289.66,379.89c1.16-18.65,2.05-31.15,2.68-43.66.75-14.79-1.68-29.11-6.72-43.04-4.27-11.79-7.93-23.69-8.68-36.4-.47-7.97-2.34-15.8-4.82-23.46-1.71-5.29-3.07-10.72-4.12-16.18-2.88-14.94-2.11-16.56,11.1-23.84,8.87-4.89,16.98-10.88,25.25-16.66,4.87-3.4,7.37-2.65,7.66,3.11.61,12.01,6.7,21.41,11.73,31.74,8.99,18.47,15.66,38.16,17.35,58.78,1.49,18.23,6.4,35.57,10.88,53.05,2.67,10.4,4.78,21.03,9.54,30.82,2.09,4.3,2.37,8.6-1.06,12.67-4.86,5.75-4.54,12-1.29,18.42.78,1.55,1.38,3.19,2.01,4.81,4.49,11.45,1.21,17.49-11,20.21-1.34.3-3.05.05-3.99.81-10.61,8.48-24.61,8.36-36.14,14.38-3.78,1.97-5.05.06-7.36-2.65-12.28-14.39-14.38-31.17-13.03-42.9Z"/><path class="cls-2" d="m504.02,274.55c-1.84,5.76-4.91,12.05-5.01,19.14-.05,3.09-.88,6.18-1.56,9.23-1.44,6.51-4.83,10.67-11.61,13.22-7.54,2.84-16.31,3.07-22.35,9.91-2.29,2.6-8.98-.09-11.39-4.18-2.3-3.91-3.63-8.26-4.61-12.7-8.07-36.67-18.7-72.63-29.83-108.47-4.53-14.59-8.05-29.49-11.73-44.33-2.38-9.61-6.2-18.41-12.4-26.16-1.3-1.62-2.62-3.31-3.5-5.18-2.41-5.11-7.31-9.56-3.71-16.26,4.11-7.67,9.57-13.61,18.06-16.3,2.45-.78,4.86-.38,7.04.89,1.49.87,3.07,1.81,4.18,3.09,10.39,12.06,20.8,24.42,28.44,38.19,12.29,22.13,22.61,45.37,33.19,68.41,6.09,13.27,12.04,26.57,18.99,39.42,5.25,9.7,5.95,20.57,7.79,32.07Z"/><path class="cls-2" d="m558.34,230.02c.17,2.31-.18,3.72-1.3,4.62-6.99,5.64-8.52,14.25-11.28,21.93-2.7,7.53-7.02,11.59-14.86,12.42-3.77.4-8.5,3.12-10.98,1.67-3.39-1.98-2.04-7.57-2.7-11.59-3.3-20.11-10.46-38.61-20.8-56.24-9.48-16.16-16.31-33.74-23.66-50.99-6.28-14.75-13.54-28.94-24.42-40.93-3.11-3.43-5.31-7.34-6.69-11.68-2.13-6.65-4.27-13.3-8.55-18.92-2.77-3.64-1.56-6.12,1.4-8.86,6.4-5.92,12.08-12.45,16.86-19.82,6.2-9.56,18.66-9.6,24.04.4,4.19,7.8,10.04,14.13,15.12,21.16,8.8,12.18,15.03,25.97,20.81,39.58,15.47,36.47,31.81,72.61,44.8,110.09.91,2.62,1.65,5.3,2.23,7.16Z"/><path class="cls-2" d="m419.47,318.22c-3.43-.24-6.93.66-10.29-.93-4.15-1.96-8.25-1.37-11.82,1.35-7.83,5.94-17.72,2.13-26.16,5.7-2.69,1.13-3.08-2.9-3.52-5.22-2.83-15.04-6.45-29.97-7.4-45.29-1.04-16.83-6.16-32.78-9.97-49.02-2.3-9.81-5.48-19.4-5.99-29.6-.29-5.73-2.96-10.68-6.76-14.96-1.85-2.08-3.83-4.05-5.62-6.18-5.98-7.1-6.12-8.66-1.83-16.62,7.5-13.91,18.61-15.48,28.93-3.22,9.89,11.74,16.81,25.55,24.22,38.94,17.29,31.21,30.85,63.85,37.77,99.05,1.27,6.45,3.86,12.62,5.75,18.96,2.26,7.58,2.21,7.6-5.21,7.22-.7-.03-1.39-.12-2.08-.17Z"/><path class="cls-2" d="m197.24,358.45c.16,20.32-13.19,31.74-28.48,31.97-5.15.08-10.03,1.94-14.85,4.24-11.54,5.5-21.85,2.25-28.89-8.35-12.13-18.25-10.32-47.1,6.97-59.98,18.48-13.77,46.19-18.13,59.99,9.99,3.42,6.96,5.12,14.37,5.25,22.13Z"/><path class="cls-2" d="m169.56,488.29c-1.71-15.17-3.48-31.4-5.4-47.6-1.55-13.1-3.31-26.18-4.94-39.28-.17-1.35-.26-2.8.04-4.1.46-1.95,2.15-2.61,3.97-2.63,1.79-.02,2.17,1.53,2.39,2.84.34,2.05.44,4.14.6,6.22,1.72,22.87,3.54,45.73,5.09,68.61.45,6.65.94,13.15,4.6,18.98,1.31,2.09,2.15,4.43,1.49,6.95-.58,2.2-2.06,3.69-4.44,3.58-1.89-.09-3.02-1.46-3.65-3.2-1.11-3.11-.05-6.19.26-10.35Z"/><path class="cls-2" d="m198.15,209.68c-1.75,2.51-3.43,2.68-5.07,2.51-1.12-.12-1.7-1.19-.81-2.01.91-.84,2.2-1.53,3.4-1.69.81-.11,1.76.82,2.47,1.2Z"/><path class="cls-2" d="m294.93,460.47c.66,1.23.98-.77.57.56-.05.17-.24.45-.27.44-.62-.27-.64-.66-.05-1.16.01,0-.25.17-.25.17Z"/><path class="cls-1" d="m167.44,250.4c-1.89,4.7-5.79,4.79-8.51,6.37-11.17,6.47-13.55,16.62-6.33,27.22,2.06,3.02,4.55,4.95,8.27,5.68,10.67,2.08,19.88-.4,27.81-7.89,2.38-2.25,3.51-5.86,7.26-7.03-3.19,11.37-13.04,18.35-26.34,18.92-12.01.51-18.49-3.16-22.62-12.81-4.32-10.09-1.69-19.26,7.58-25.34,3.6-2.36,7.3-4.85,12.89-5.1Z"/><path class="cls-1" d="m126.24,289.1c2.32,2.65.85,4.52.49,6.43-1.52,8.18,2.05,12.46,10.39,12.52,4.28.03,8.04-1.89,11.99-3.13,4.8-1.5,9.57-3.99,14.86-.62-8.01,1.09-15.06,5.03-22.79,6.8-6.08,1.39-11.83.69-16.11-4.37-3.56-4.21-3.13-9.33,1.16-17.64Z"/><path class="cls-1" d="m178.58,261.19c-3.56,1.96-7.24,3.73-10.65,5.92-2.71,1.74-8.1,2.99-6.08,6.89,1.71,3.32,6.3.47,9.5-.55,2.31-.74,4.48-1.91,6.79-2.68,1.92-.65,3.96-1.26,6.98.62-7.08,2.96-13.1,6.27-19.97,7.43-2.77.47-5.76.46-7.38-2.46-1.9-3.43.07-6.1,2.46-8.22,4.98-4.42,11.17-6.47,17-9.23.46.76.92,1.52,1.38,2.28Z"/><path class="cls-1" d="m145.04,254.38q-11.24,13.74-1.52,30.6c-8.53-4.39-12.69-10.57-11.84-17.6.77-6.37,5.5-10.96,13.36-13Z"/><path class="cls-1" d="m146.96,294.29c-8.53,5.34-12.93,5.57-16,1.42-2.85-3.85-2.81-7.58,1.59-10.9q1.4,11.22,14.41,9.48Z"/><path class="cls-1" d="m126.88,258.52c3.79-11.47,11.23-14.4,21.46-17.08-3.1,5.44-7.54,5.68-10.62,7.64-3.45,2.19-5.84,5.56-10.84,9.44Z"/><path class="cls-1" d="m158.68,381.48c-4.13,5.07-8.82,6.45-16.63,2.96,7.06-1.25,11.84-2.11,16.63-2.96Z"/></svg>