<?xml version="1.0" encoding="UTF-8"?><svg id="Layer_1" xmlns="http://www.w3.org/2000/svg" viewBox="0 0 424.6 369.73"><defs><style>.cls-1,.cls-2{stroke-width:0px;}.cls-2{fill:#fff;}</style></defs><path class="cls-1" d="m415.18,205.37c.42,15.39-1.36,30.53-3.66,45.72-3.28,21.66-14.5,38.17-31.1,51.4-32.93,26.24-70.41,38.85-112.64,35.97-14.07-.96-27.13-6.04-39.77-12-7.24-3.41-14.34-7.15-21.26-11.15-3.59-2.07-6.01-1.69-9.22.89-10.58,8.51-21.33,16.82-32.27,24.87-13.05,9.61-27.5,16.37-43.44,19.66-10.68,2.21-20.79,1.18-29.69-5.91-13.62-10.86-17.13-24.65-10.65-40.96,4.28-10.77,12.29-18.45,20.7-25.83,4.2-3.68,8.34-7.36,11.58-11.97,2.91-4.15,1.26-6.35-2.92-7.62-5.14-1.56-10.25-1.1-15.46-.05-17.12,3.45-34.35,5.21-51.84,3.37-9.99-1.05-18.99-4.33-26.5-11.09-17.33-15.59-16.22-41.11,2.39-55.28,6.97-5.3,14.82-9.1,22.68-12.86,9.1-4.36,18.16-8.82,27.29-13.11,7.71-3.62,10.49-9.74,9.46-17.87-1-7.94-1.66-15.95-3.27-23.77-3.24-15.72-.17-30.42,6.27-44.67,9.16-20.25,23.87-35.96,41.78-48.54C162.14,17.53,205.04,4.66,252.19,5.28c29.21.38,56.46,7.27,81.86,21.55,24.69,13.88,43.57,33.34,55.65,59.11,17.73,37.84,25.42,77.84,25.48,119.44Z"/><path class="cls-2" d="m356.05,48.1c10.7,5.9,17.33,15.67,23.36,25.69,14.72,24.47,22.98,51.33,27.95,79.27,6.09,34.19,7.21,68.34-.19,102.59-3.3,15.27-10.51,28.07-21.94,38.25-31.37,27.96-67.89,42.91-110.32,42.11-15.27-.29-29.41-5.41-43.07-11.42-20.46-9-39.65-20.29-56.69-34.96-2.37-2.04-4.86-3.96-7.44-5.71-11.99-8.16-22.01-17.92-28.12-31.46-4.7-10.4-11.96-19.51-15.02-30.83-2.01-7.44-9.4-8.63-15.53-10.62-3.96-1.28-8.35-1.12-12.44-.18-13.21,3.05-26.37,6.27-39.52,9.58-5.11,1.29-9.85,3.55-13.83,7.07-3.23,2.86-5.88,6.26-4.59,10.92,1.16,4.19,4.79,5.47,8.64,6.61,7.82,2.32,15.16.25,22.49-2.01,5.31-1.64,10.52-3.64,15.78-5.43,9.44-3.22,19.03-3.63,28.78-1.64,9.28,1.89,17.06,5.54,20.91,15.13,1.8,4.49,4.72,8.51,6.96,12.84,4.78,9.24,5.17,18.36.06,27.83-5.23,9.69-12.8,17.3-20.37,24.99-2.19,2.23-4.78,4.14-6.04,7.1-1.58,3.69.5,6.39,4.47,5.42,5.76-1.4,11.19-3.68,16.23-6.96,11.41-7.45,22.03-15.91,31.81-25.35,3.79-3.66,6.53-3.73,10.44-.41,5.04,4.27,10.46,8.09,15.86,11.9,2.82,1.99,2.71,3.76.26,5.71-23.38,18.65-45.82,38.89-76.99,44-11.69,1.92-16.9-.89-20.66-11.97-3.29-9.69-2.62-19.12,1.49-28.45,2.97-6.74,7.03-12.78,11.11-18.86,3.29-4.91,6.68-9.81,9.38-15.05,4.64-8.99.87-16.47-8.98-18.81-6.64-1.58-13.17-.36-19.63.97-14.41,2.96-28.95,4-43.6,3.02-10.63-.71-20.48-3.58-28.46-11.3-15.22-14.71-14.08-37.03,2.97-49.72,4.99-3.72,10.57-6.74,16.14-9.56,9.31-4.71,18.75-9.2,28.28-13.44,10.37-4.61,17.76-11.1,16.55-23.74,1.03.31,1.93.3,2.22.71,19.09,26.73,46.6,39.3,77.73,44.19,54.51,8.57,105.16-2.84,151.48-32.8,17.45-11.29,32.19-25.54,42.77-43.63,12.21-20.87,16.31-42.79,7.24-65.98-2.13-5.45-5.14-10.55-7.75-15.82l-.22.23Z"/><path class="cls-2" d="m202.34,205.33c-27.8.68-54.89-2.56-80.02-15.56-4.93-2.55-9.75-5.45-14.23-8.72-31.37-22.9-39.2-58.23-20.56-92.4,9.19-16.84,22.33-30.17,37.65-41.43,29.32-21.56,62.48-33.13,98.39-37.43,30.57-3.66,60.43-1.3,89.17,10.52,8.09,3.33,15.68,7.55,22.71,12.76,30.78,22.82,38.66,57.99,20.45,91.71-7.21,13.35-16.93,24.7-28.55,34.37-33.51,27.9-72.56,41.91-115.62,45.69-3.12.27-6.26.32-9.39.48Z"/><path class="cls-2" d="m125.78,235.96c-19.48-7.4-36.28-4.45-52.77,2.42-7.18,2.99-14.51,4.85-22.34,3.9-3.45-.42-7.46-.7-8.5-4.74-1.12-4.36,2-7.09,5.29-9.26,7.73-5.08,16.77-6.57,25.47-8.84,7.72-2.02,15.67-3.18,23.36-5.3,8.13-2.24,15.15.12,21.76,4.3,5.66,3.58,4.85,10.19,7.72,17.51Z"/><path class="cls-2" d="m120.09,324.98c12.27-15.01,28.41-27.31,29.85-49.56,7.11,3.31,12.23,8.91,18.34,13.01,1.84,1.23,1.27,3.04-.21,4.36-14.42,12.88-28.38,26.45-47.98,32.19Z"/><path class="cls-2" d="m95.53,351.66c-15.01-8.11-15.46-22.37-12-33.77,2.91-9.61,9.17-17.11,16.5-23.71,5.42-4.88,11.1-9.47,16.26-15.64,1.39,3.27-.42,5.09-1.49,6.83-2.91,4.74-5.89,9.47-9.17,13.96-11.4,15.62-17.56,32.31-10.1,52.33Z"/><path class="cls-2" d="m354.18,45.37c1.2.51,1.93,1.34,1.87,2.72,0,0,.22-.23.22-.23-1.23-.3-1.8-1.2-2.16-2.31l.06-.19Z"/><path class="cls-2" d="m354.11,45.56c-.08-.21-.16-.41-.24-.62-.58.63-.48.79.31.45,0-.02-.07.17-.07.17Z"/><path class="cls-1" d="m201.18,196.04c-26.91-.91-50.07-4.75-71.16-16.89-19.4-11.17-32.33-27.17-36.15-49.69-2.43-14.37,1.58-27.61,7.88-40.25,4.69-9.4,10.8-18.02,18.65-24.99C171.29,19.07,229.55,5.64,294.91,24.84c13.47,3.96,25.47,11.3,35.33,21.53,18.68,19.38,23.73,41.91,14.43,67.26-6.8,18.53-19.27,32.95-34.65,44.88-26.82,20.8-57.47,32.13-91.04,35.87-6.9.77-13.78,2.14-17.8,1.67Z"/><path class="cls-2" d="m244.02,19.63c20.06-.04,39.51,3.09,57.89,11.4,13.53,6.12,25.42,14.45,33.81,26.99,13.78,20.61,12.9,41.84,2.08,63.26-6.37,12.62-15.37,23.35-26.45,31.92-45,34.82-95.52,46.67-151.19,34.43-19.03-4.18-35.77-13.18-49.06-27.98-13.41-14.93-17.15-32.26-12.93-51.4,4.71-21.41,17.81-37.53,34.46-50.81,32.53-25.93,70.2-37.23,111.39-37.82Z"/><path class="cls-1" d="m251.92,131.77c-7.07-1.14-13.55,2.58-20.57,2.42-7.01-.16-13.99-.11-20.34-3.5-6.28-3.34-6.74-7.56-.63-10.45,8.38-3.97,16.29-9.54,25.96-10.17,3.7-.24,3.72-1.84,2.98-4.73-.88-3.42-1.25-7.08,1.79-9.72,3.96-3.43,6.18-7.11,4.79-12.72-.61-2.47,1.85-3.34,4.23-2.83,9.68,2.07,19.58,16.51,18.04,26.46-.57,3.7-2.72,7.26-.6,11.56,4.14-1.91,4.39-5.72,4.66-9.34,1.11-14.84-9.25-29.75-23.51-34.18-2.97-.92-5.93-1.96-8.75-3.26-2.43-1.12-3.54-3.39-3.25-6.02.33-2.96,2.88-3.66,5.23-4.34.98-.28,2.08-.36,3.1-.27,32.99,3.06,55.49,30.07,46.43,57.91-.51,1.55-1.33,3.24-.46,5.01,4.79-3.07,5.88-4.42,6.21-9.82.88-14.14-2.79-27.02-12.29-37.65-13.68-15.31-31.25-21.35-51.52-20.2-2.82.16-5.47.86-7.91,2.37-1.77,1.09-3.57,2.24-5.51,2.92-4.5,1.58-10.05-.69-11.3-4.7-1.54-4.94,2.18-7.04,5.66-8.56,9.12-4,18.77-5.38,28.56-3.45,13.7,2.7,26.85,7.2,39.37,13.42,8.9,4.43,16.21,10.79,22.17,18.66,10.7,14.15,13.46,29.67,6.57,46.21-6.71,16.11-16.57,29.94-32.7,37.88-38.52,18.97-73.18,16.51-106.72-8.93-7.64-5.79-13.37-13.13-16.83-22.16-1.02-2.67-2.26-5.6.44-7.63,2.42-1.82,4.62.49,6.47,1.88,6.12,4.59,11.96,9.57,18.21,13.96,2.88,2.03,5.72,5.56,10.14,3.11,0,0-.28.17-.28.17-.77-.69-1.65-1.29-2.3-2.07-1.8-2.15-3.75-4.41-1.39-7.28,1.78-2.16,4.11-2.11,6.6-1.2,3.24,1.18,6.54,2.19,9.81,3.28,16.68,5.57,33.06,4.95,49.13-2.36.46-.35.91-.7,1.37-1.04-.36.44-.73.89-1.09,1.33Z"/><path class="cls-1" d="m234.38,107.99c-10.62-1.73-19.58,2.66-28.9,5.28-11.78,3.31-23.39,3.26-34.45-2.78-1.83-1-3.72-2-5.27-3.35-5.4-4.72-4.45-9.31,2.48-11.31,8.26-2.38,16.6-1.22,24.82.48,2.36.49,4.56,1.58,7.85.97-2.27-7.47-6.07-13.83-9.73-20.29-1.76-3.11-5.8-6.29-2.85-10.17,2.64-3.47,7.46-4.28,11.47-3.65,14.64,2.28,25.3,10.07,28.58,26.34,1.23,6.13,2.32,12.2,5.99,18.48Z"/><path class="cls-1" d="m194.61,93.12c-7.45-.73-13.67-4.49-20.78-3.58-6.89.89-13.79,1.71-20.64,2.82-7.06,1.15-13.17-.89-18.31-5.48-6.05-5.41-5.13-11.37,2.55-12.98,5.51-1.16,6.53-2.76,5.21-7.82-.81-3.12,2.1-4.77,4.59-6.22,10.01-5.83,21.31-3.37,30.67,7.03,2.06,2.28,3.97,5.01,4.97,7.87,2.44,6.97,5.48,13.4,11.73,18.36Z"/><path class="cls-2" d="m158.49,126.59c11.66,8.7,22.95,17.41,36.09,23.31,18.41,8.26,37.29,13.49,57.68,8.62,9.65-2.3,18.16-6.92,26.09-12.72,2.05-1.5,3.68-3.51,2.39-6.23-1.36-2.85-4.09-2.43-6.37-1.68-3.96,1.29-7.76,3.04-11.67,4.51-20.88,7.87-41.86,10.04-62.92.78-4.03-1.77-8.54-3.23-10.81-8.68,4.49-1.87,7.91,1.03,11.42,2.2,17.58,5.87,34.96,4.82,52.13-1.46,3.38-1.24,8.88-2.48,7.5-7.07-1.63-5.43-6.58-1.61-9.79-.85-7.45,1.76-14.76,3.92-22.54,3.86-4.25-.03-8.3-.84-12.27-2.16-1.93-.64-4.39-1.25-4.75-3.47-.42-2.59,2.24-3.44,4.03-4.03,9.33-3.07,17.31-10.84,28.5-7.8,2.62.71,3.28-2.36,1.79-4.27-4.56-5.85-3.83-10.52,2.02-15.06,2.77-2.15,2.42-6.27,3.61-9.48,12.21,6.13,15.33,11.8,13.61,24.03-.29,2.07-.76,4.16-.68,6.22.09,2.28-.39,5.17,2.9,5.88,3.18.68,5.42-.75,6.75-3.59,2.96-6.33,2.69-13.04.9-19.42-3.77-13.49-11.08-23.99-25.93-27.08-1.69-.35-3.35-.91-4.95-1.57-1.28-.53-2.61-1.41-2.54-2.95.12-2.51,2.25-2.16,3.88-2.21,21.44-.59,43.27,18.23,45.89,39.55.7,5.71-1.48,10.93-2.82,16.3-.76,3.03-1.71,6.69,2.22,8.08,3.52,1.24,5.89-1.53,7.5-4.24,4.81-8.1,3.48-17.04,2.01-25.48-3.88-22.33-25.54-41.85-48.2-44.64-10.76-1.33-21.45-3.2-31.15,3.92-.97.71-2.69.63-4.03.53-1.86-.14-3.38-1.27-3.76-3.1-.3-1.43.77-2.59,2.03-3.3,1.21-.68,2.42-1.42,3.72-1.86,3.96-1.35,7.97-2.6,12.21-2.53,23.36.37,44.75,7.34,62.87,21.87,19.92,15.97,23.44,37.24,11.5,59.78-8.29,15.65-20.43,26.96-37.27,33.28-34.48,12.95-66.23,8.87-95.16-14.36-6.88-5.53-11.8-12.37-13.63-21.41Z"/><path class="cls-2" d="m278.26,142.76c-2.98,1.72-5.97,3.43-8.94,5.18-20,11.8-40.67,11.34-61.72,3.32-.51-.2-.77-1.06-1.15-1.61l-.28.25c21.86,4.92,42.94,2.7,63.24-6.84,2.87-1.35,5.76-2.45,8.64-.01-.44-.38-.87-.75-1.31-1.13.5.28,1.01.56,1.51.85Z"/><path class="cls-2" d="m206.45,149.65c-.9,0-1.8,0-2.7,0,.03-.27.06-.54.09-.81.76.37,1.53.74,2.31,1.09.02-.02.3-.27.3-.27Z"/><path class="cls-2" d="m194.61,147.02c.23.84.67.99,1.21.33.14-.17.08-.7-.08-.87-.62-.61-1.12-.47-1.39.31.41-.35.62-.53.62-.53.24-.15.12.1-.36.76Z"/><path class="cls-2" d="m251.92,131.77c.17-.56.19-1.43.56-1.62.74-.38,1.28.14.86.59-.38.41-1.13.49-1.7.73,0,0,.29.3.29.3Z"/><path class="cls-2" d="m194.34,146.78c.22-.08.44-.16.66-.24-.51-.5-.63-.34-.37.48-.02,0-.29-.24-.29-.24Z"/><path class="cls-2" d="m189.8,141.11c.08.62.17,1.24.25,1.86-1.85-.61-.58-1.31-.01-2.01.04-.03-.24.15-.24.15Z"/><path class="cls-2" d="m278.06,143.05l-.32-.44s.48.19.5.17c.02-.01-.18.27-.18.27Z"/><path class="cls-2" d="m180.3,97.72c6.74-.26,12.97,2.48,19.5,3.24,2.35.27,5.13,1.49,6.66-1.04,1.34-2.21-1.36-3.54-2.28-5.25-3.76-7.03-7.6-14.02-11.31-21.07-2.4-4.56-1.59-6.12,3.36-6.91,8.94-1.43,20.99,5.21,25.87,14.36.97,1.82,1.8,3.79,2.28,5.79,1.22,5.05,4.07,10.7,2.8,15.11-1.41,4.91-8.67,3.24-13.16,5.1-8.38,3.47-17.05,5.91-26.3,5.19-7.09-.55-13.48-3.02-19.23-7.15-1.12-.8-2.2-1.85-2.11-3.36.13-2.13,1.94-2.85,3.57-3.09,3.42-.5,6.89-.63,10.34-.91Z"/><path class="cls-2" d="m161.52,78.9c-3.27-3.61-7.63-4.22-10.93-6.54-2.25-1.58-5.15-3.07-4.69-6.3.46-3.18,3.72-3.89,6.21-4.9,8.31-3.36,14.79.51,20.87,5.63,2.96,2.49,5.58,5.35,6.97,8.96,1.22,3.2,4.09,6.79,2.62,9.76-1.6,3.25-5.55-.23-8.56.44-6.08,1.34-12.28,2.18-18.45,3.13-6.39.98-12.51.44-17.77-3.81-1.9-1.53-3.84-3.31-2.73-6.12.92-2.35,3.29-2.25,5.32-2.42,5.68-.48,10.93,1.66,16.34,2.84,1.32.29,2.61,1.04,4.81-.66Z"/></svg>