<?xml version="1.0" encoding="UTF-8"?><svg id="Layer_1" xmlns="http://www.w3.org/2000/svg" viewBox="0 0 412.41 453.78"><defs><style>.cls-1,.cls-2,.cls-3,.cls-4,.cls-5,.cls-6,.cls-7,.cls-8,.cls-9,.cls-10,.cls-11{stroke-width:0px;}.cls-2{fill:#8a6135;}.cls-3{fill:#0d0802;}.cls-4{fill:#180f07;}.cls-5{fill:#ddb888;}.cls-6{fill:#dfdbd2;}.cls-7{fill:#bc8a45;}.cls-8{fill:#cdd0c4;}.cls-9{fill:#cf7e39;}.cls-10{fill:#fff;}.cls-11{fill:#e3ba88;}</style></defs><path class="cls-1" d="m114.33,453.19c-19.17,1.37-19.59,1.43-21.43-11.91-7.6-55.18-20.2-109.4-30.92-163.99-10.13-51.53-20.32-103.03-32.42-154.13C20.59,85.26,10.98,47.51,1.67,9.68-.54.69.25-.31,10.18.07c29.92,1.15,59.83,2.51,89.75,3.61,44.89,1.65,89.78,3.07,134.67,4.75,29.22,1.09,58.44,2.42,87.65,3.75,10.18.46,11.1,1.34,12.1,11.56,5.4,55.02,13.32,109.75,19.41,164.68,7.71,69.45,24.4,136.78,45.16,203.27,1.24,3.97,2.81,7.85,4.39,11.71,2.8,6.83,2.65,7.21-5.02,7.87-4.51.39-9.04.51-13.56.7-3.61.15-4.54,1.91-4.25,5.45.85,10.13.7,10.11-8.76,11-45.35,4.26-90.71,8.47-136.06,12.84-42.23,4.07-84.44,8.31-121.33,11.95Z"/><path class="cls-6" d="m26.01,4.02c45.2,1.86,90.39,3.81,135.59,5.53,30.61,1.17,61.22,2.01,91.84,2.98,22.96.73,45.91,1.56,68.88,2.1,5.42.13,8.01,1.76,8.62,7.64,3,28.68,6.43,57.32,9.68,85.97.91,8.03.89,8.22-7.73,8.9-27.04,2.13-54.09,4.09-81.14,6.14-16.99,1.29-34.01,2.37-50.95,4.11-5.61.58-9.17-.91-12.33-5.39-3.4-4.83-7.34-9.27-11.86-13.16-5.49-4.73-11.52-5.9-18.45-3.48-11.19,3.92-20.44,10.45-27.23,20.13-2,2.85-3.86,4.08-7.47,4.25-26.41,1.24-52.81,2.82-79.21,4.26-8.29.45-8.41.45-10.42-7.62C24.18,87.61,14.58,48.81,5.01,10c-1.47-5.95-1.11-6.31,5.34-6.38,5.22-.06,10.44-.01,15.66-.01,0,.14,0,.28,0,.41Z"/><path class="cls-5" d="m142.75,302.57c5.29-1.47,6.7-6.65,9.65-10.3,2.13-2.63,3.51-4.38,5.23.16.17.44,1.95.7,2.77.41,9.16-3.2,14.38,1.88,18.94,8.7,3.09,4.62,6.25,9.23,9.71,13.57,2.8,3.51,6.12,4.14,7.47-1.09,1.33-5.14,3.74-3.86,6.68-1.93,12.48,8.17,14.75,7.96,25.73-2.38,1.27-1.19,2.4-2.54,3.75-3.63,5.32-4.31,7.44-4.17,12.53.54,3.43,3.18,6.21,9.13,11.8,6.52,6.17-2.89,4.57-9.66,4.08-14.96-1.29-13.85-3.21-27.65-8.36-40.73-3.24-8.24-4.6-16.75-4.03-25.57.1-1.57-.7-4.04,1.41-4.35,2.7-.39,2.65,2.23,3.38,4.21,5.18,14.01,8.76,28.4,10.67,43.21.18,1.41.78,2.66,2.61,3.55,1.63-8.41-3.8-15.91-2.91-24.77,4.14.18,6.99,2.79,10.15,4.34,16.62,8.17,33.61,10.77,51.28,3.68,2.77-1.11,5.54-.55,8.23-.2,6.23.82,12.48,1.63,18.73,1.1,5.32-.46,7.39,1.45,7.76,6.84.93,13.52,2.47,27,3.62,40.51,1.17,13.78,2.18,27.58,3.34,42.52-6.43-2.31-12.25-3.67-17.33-6.38-12.75-6.8-26.29-5.58-39.82-4.92-3.81.19-7.63.74-11.37,1.5-8.54,1.75-15.9,4.93-18.32,14.66-1.2,4.81-3.89,9.73-8.49,11.4-7.45,2.69-9.22,8.97-12.98,14.69-9.3,14.16-18.47,28.66-31.29,40.14-3.77,3.38-6.67,7.13-7.44,12.17-.43,2.85-1.74,4.36-4.64,4.59-10.33.83-20.66,1.72-30.79,2.57-1.2-3.34.44-5.38,1.23-7.59,2.34-6.55.72-11.61-4.22-16.82-6.45-6.8-12.99-13.47-16.24-23.13-2.66-7.89-8.16-15.04-13.38-21.76-2.25-2.9-6.68-6.01-11.07-4.02-10.33,4.68-22.14,4.77-31.99,10.73-.11.49-.21.98-.32,1.47-.43.92-.94,1.8-1.49,2.66-.64.8-1.42,1.45-2.3,1.99-4.05,2.17-8.44,2.43-12.91,2.12-.48-.05-.95-.1-1.43-.16-6.44-6.14-5.09-14.66-6.54-22.25-.67-3.49,3.09-3.24,5.24-3.5,16.91-2.01,30.41-11.13,43.64-20.76,7.43-5.41,7.09-8.84,5.11-18.71-.82-4.08-2.7-10.32,1.63-14.83,1.65-1.72,3.51-3.44,3.6-6.13l-.34.31Z"/><path class="cls-2" d="m143.08,302.27c-5.11,1.97-7.75,6.77-11.56,10.22-2.44,2.21-6.26,5.19.57,7.03,1.16.31,1.19,1.52.54,2.45-2.79,4.01-2.22,6.06,3.09,6.5,2.64.22,1.54,2.5.81,4.01-1.75,3.6-5.25,5.51-8.12,7.96-10.46,8.92-22.15,15.66-35.76,18.42-9.96,2.02-10.41,1.63-12.29-8.11-6.84-35.46-14.81-70.69-21.42-106.2-6.1-32.77-13.49-65.29-20.31-97.93-.35-1.7-.6-3.42-.95-5.12-.62-3.1.67-4.46,3.78-4.62,4.17-.21,8.32-.74,12.48-.93,20.84-.95,41.68-1.86,62.53-2.72,10.28-.42,10.11-.35,11.04,10.46.92,10.72,2.28,21.38,2.2,32.21-.04,5.27-1.52,8.45-6.34,10.43-3.52,1.45-6.84,3.41-10.24,5.16-10.73,5.53-12.42,8.95-10.29,20.87,3.45,19.22,13.51,34.77,26.91,48.48,6.43,6.57,12.25,13.34,8.85,23.68-.49,1.5-.48,4.43.35,4.91,5.65,3.31,2.56,8.81,3.76,13.16.01-.01.35-.32.35-.32Z"/><path class="cls-2" d="m343.29,259.2c-6.02-.69-11.62-.26-17.11-1.64-2.98-.75-5.19-.04-8.19,2.16-5.71,4.18-13.25,3.3-20.17,2.56-12.43-1.32-23.23-7.17-33.87-13.09-6.21-3.45-4.54-11.01-6.61-16.6-.74-1.99.05-4.7-2.31-6.19-9.55-6.03-11.11-17.34-17.08-25.74-2.62-3.68-1.04-7.24.42-10.88,4.27-10.65,8.77-21.21,11.49-32.44,1.66-6.88,2.22-13.77,1.65-20.72-.54-6.73-2.73-8.36-9.49-7.88-5.33.38-10.04,2.77-14.8,4.84-5.74,2.5-11.55,4.98-16.94,8.13-5.28,3.09-8.18,1.42-10.32-3.56-.27-.63-.75-1.17-1.09-1.78-3.13-5.68-2.78-6.57,3.45-6.87,9.39-.45,18.76-1.03,28.14-1.75,33.99-2.62,68.02-4.78,102.04-7.01,9.73-.64,9.59-.46,10.8,9.05,3.66,28.63,7.55,57.23,11.14,85.86,1.43,11.38,2.42,22.82,3.38,34.25.77,9.16.61,9.18-8.75,9.28-2.09.02-4.18,0-5.78,0Z"/><path class="cls-11" d="m236.03,200.82c-1.54.64-2.91,1.03-4.82.79-6.92-.88-8.72,1.47-8.12,9.64q-.14,6.22,5.92,16.54c-2.8-5.22-7.59-9.73-5.9-16.55,4.4,3.96,9.03,7.08,14.41,1.77,2.83-2.79,3.34-.24,4.02,1.46,2.22,5.52,3.49,11.29,3.65,17.25.15,5.43-.28,10.88,1.4,16.64-4.02-1.33-5.35-4.48-7.76-6.41-5.56-4.44-11.48-4.78-17.54-1.6-5.96,3.12-9.5,8.13-9.53,15.05-.02,4.87,1.91,9.36,6.6,10.9,5.63,1.85,3.47-5.51,6.63-7.07,2.22,2.66,1.22,5.45.95,8.16-.24,2.46-.13,4.64,1.67,6.78,5.63,6.72,5.57,11.18.52,17.8-1.59,2.09-4.63,2.86-5.41,6.43,7.61-.14,8.69-7.29,12.69-10.94,3.81,2.56,6.12,7.31,11.68,8.21-.41-4.31-4.06-5.07-5.91-7.33-4.65-5.69-4.93-8.31-1-15.76.16-.3.33-.59.5-.88,1.85-3.19-3.56-7.55-.18-8.97,3.38-1.42,5.96-2.72,7.92-6.47,6.7,15.64,9.2,31.56,9.28,47.95.01,2.01.4,4.53-1.83,5.57-2.83,1.32-4.38-1.23-6.07-2.83-10.2-9.65-12.33-9.73-22.28-.55-.77.71-1.49,1.47-2.26,2.17-10.21,9.26-13.69,8.88-21.08-2.57-4.31-6.68-10.07-11.88-16.16-16.92-.06,4.72,3.67,6.85,6.26,9.66,3.09,3.35,6.85,6.33.21,9.99-1.11.61-.59,3.39-2.95,3.8-4.07-3.77-7.11-8.45-9.83-13.29-4.17-7.43-10.43-11.2-18.83-11.62-.33-.02-.7.26-1,.18q-8.69-2.17-13.66,4.67c-5.84-4.31-7.53-9.39-4.65-16.28,1.1-2.64,2.28-6.32-2.71-7.23-.93-.17-2.33-.93-1.68-2.08,4.74-8.31-2.13-17.95,3.41-26.36,4.18-6.33,2.68-14.92,8.06-21.29.58,5.52.27,10.94-1.36,16.39-1.21,4.05-1.78,7.44,3.45,10.2,5.97,3.15,7.72,9.19,6.26,16.06-1.02,4.81-.18,8.9,7.12,9.48-3.67-5.15-4.54-10.16-3.49-15.74.57-3.02-.75-6.07-3.28-8.41-5.92-5.46-7.67-11.94-5.14-19.8.93-2.88,1.14-6.37.48-9.31-1.7-7.54,1.74-12.78,6.78-17.44,12.67-11.71,26.74-21.12,43.67-25.56,10.22-2.68,11-2.41,17.23,6.51,2.59,3.7,4.78,7.67,7.18,11.5,1.8,2.86,2.96,6.26,6.44,7.74,0-.01.01-.01.01-.02Z"/><path class="cls-8" d="m322.14,344.23c13.91-2.83,27.31,5.84,41.61,10.86,3.44,1.21,4.51,3.62,4.95,7.1,1.7,13.43,3.67,26.83,5.63,40.23.65,4.47,1.47,8.92,2.36,13.35,1.81,8.94,1.81,9.06-7.28,9.94-21.79,2.11-43.58,4.16-65.37,6.2-24.22,2.26-48.43,4.52-72.66,6.66-2.85.25-6.84,2.15-8.25-1.51-1.12-2.9.95-6.49,3.46-8.21,11.6-7.93,17.21-20.81,26.15-30.91,2.3-2.6,4.68-5.28,6.27-8.32,4.28-8.17,7.81-16.53,17.3-20.67,4.03-1.76,5.9-6.76,7.12-11.19,1.8-6.52,6.42-9.55,12.54-11.11,7.83-2,15.8-2.34,26.16-2.42Z"/><path class="cls-8" d="m108.84,380.35c9.97-1.03,19.65-3.64,28.96-7.03,5.74-2.09,10.15-.56,12.66,3.45,5.05,8.09,11.13,15.65,14.2,24.94,2.67,8.09,9.51,13.2,14.93,19.19,3.98,4.4,5.32,8.19,3.16,13.93-2.14,5.7-4.61,9.34-11.46,9.88-21.78,1.71-43.51,4.03-65.26,6.15-4.9.48-8.57.19-9.45-6.3-2.28-16.83-5.21-33.58-7.9-50.35-.36-2.23.32-4.09,1.72-5.77,0,0-.4.24-.4.24,4.06-4.36,9.42-5.74,15.03-6.54l-.48.27c1.26-1.35,3.4-.98,4.65-2.38l-.36.33Z"/><path class="cls-7" d="m248.77,138.93c-.11,19.37-7.69,35.72-15.09,53.12-4.1-5.68-7.74-10.65-11.29-15.68-3.65-5.18-8.69-7.02-14.57-5.24-30.63,9.27-56.31,24.16-64.46,58.3-1.06,4.44-2.89,8.53-4.6,12.71-1.9,4.62-5.48,9.17-1.17,14.44.88,1.08.27,2.84-.8,3.76-1.25,1.07-2.59.39-3.63-.66-12.74-12.77-22.7-27.13-26.46-45.19-1.29-6.19,2.68-9.01,6.9-11.49,11.68-6.87,23.38-13.72,35.3-20.14,31.19-16.8,64.23-29.56,96.7-43.57.6-.26,1.35-.16,3.17-.35Z"/><path class="cls-9" d="m194.62,137.77c6.66,7.83,6.68,7.88-1.64,11.75-14.88,6.91-29.8,13.74-44.7,20.61-1.26,1.47-2.35.26-3.48-.22,1.14.5,2.23,1.67,3.51.26-3.27,3.74-7.41,6.32-11.75,8.56-2.28,1.19-4.18.57-4.11-2.4.29-12.9-.68-25.71-2.16-38.51-.5-4.35,1.54-8.17,4.05-11.58,6.4-8.69,14.99-14.43,25.14-17.83,5.68-1.9,10.96-1.26,15.35,3.35,5.74,6.03,12.21,11.47,15.45,19.47.07.39.14.78.21,1.18.5,1.97,1.3,3.75,2.98,5.02.38.11.77.22,1.15.32Z"/><path class="cls-4" d="m365.47,284.07c10.82,41.02,20.9,82.24,35.05,122.23-.76.47-1.29,1.05-1.9,1.14-23.21,3.49-19.65,3.85-22.49-15.68-5.2-35.69-9.22-71.49-10.66-107.68Z"/><path class="cls-3" d="m105.23,203.67c1.94-5.92,5.88-7.59,9.58-9.4,12.81-6.26,25.1-13.36,36.95-21.32,7.79-5.23,16.42-8.96,25.02-12.75,16.51-7.28,32.86-14.95,49.23-22.55,5.69-2.64,11.47-4.91,17.7-5.86,1.43-.22,2.87.06,3.42,1.6.8,2.21-1.33,1.96-2.37,2.41-21.32,9.28-42.67,18.48-63.98,27.76-24.88,10.84-48.14,24.72-71.44,38.49-.83.49-1.81.72-4.11,1.61Z"/><path class="cls-10" d="m228.67,204.78c.36.39,1.07.82,1.03,1.15-.14,1.07-.94,1.61-1.95,1.09-.4-.2-.49-1.01-.72-1.54.55-.23,1.1-.47,1.65-.7Z"/><path class="cls-10" d="m192.6,133.77c1.58.88,2.03,2.32,2.01,4.01,0,0,.22-.22.22-.22-2.91,1.32-3.07-.57-3.07-2.64.28-.38.56-.76.84-1.15Z"/><path class="cls-10" d="m236.02,200.84c-.29,2.21-.57,4.41-.86,6.62.65-1.23-.26.28.47-.91.18-.29.07.03-.33.98-.49-2.31-.44-4.57.72-6.7,0,0-.01.02-.01.02Z"/><path class="cls-10" d="m233.54,211.81c-.52.18-1.04.43-1.58.51-.17.02-.4-.4-.6-.62.54-.19,1.06-.44,1.61-.54.15-.03.38.42.57.66Z"/><path class="cls-10" d="m190.28,131.25c-.16,1.7,1.5,1.72,2.32,2.52,0,0,.09-.33.09-.33-2,.5-3.06.08-2.17-2.23l-.24.04Z"/><path class="cls-10" d="m235.16,207.46c.37-.05.74-.09,1.11-.14-.29.05-.57.11-.91.18-.05.02-.2-.05-.2-.05Z"/><path class="cls-1" d="m224.5,384.22c2.16-16.87,1.1-33.83,2.23-50.41,3.14-1.12,3.63.99,4.25,2.37,2.13,4.79,5.43,6.65,9.69,3.06,3.43-2.89,6.9-1.38,9.72-.39,3.32,1.16,6.38,2.38,11.79.31-3.26,4.71-6.1,5.99-8.87,4.59-7.23-3.65-14.14,1.72-21.24.18-2.69-.58-2.09,2.18-2.21,3.58-.57,6.93-.92,13.89-1.37,20.83-.36,5.49-.08,11.12-3.98,15.88Z"/><path class="cls-1" d="m180.97,389.35c-3.67-2.85-2.28-6.58-3.21-9.81-1.31-4.54-1.06-9.95-7.1-11.64-1.4-.39-2.41-1.55-2.55-3.02-.77-8.39-6.39-15.59-4.72-24.82,1.36-7.54.32-7.73-8.04-7.67.35-.56.57-1.44,1.06-1.62,10.45-3.95,12.05-3.46,10.33,7.72-1.43,9.33,5.97,15.95,4.92,24.65-.08.63,1.15,1.58,1.95,2.14,8.87,6.2,6.74,15.67,7.35,24.06Z"/><path class="cls-1" d="m281.59,300.5c2.09,13.35,7.8,25.45,13.16,37.68-8.37-11.17-14.23-23.22-13.16-37.68Z"/><path class="cls-1" d="m105.02,382.13c-5.01,2.18-10.02,4.36-15.03,6.54,3.46-5.75,8.33-8.23,15.03-6.54Z"/><path class="cls-1" d="m109.19,380.03c-.87,2.12-2.69,2.38-4.65,2.38.85-2.15,2.68-2.41,4.65-2.38Z"/><path class="cls-1" d="m176.83,223.82c-5.8,0-9.14-2.2-9.11-6.03.03-4.32,5.68-11.12,9.23-11.11,3.61.01,11.04,6.14,11.37,9.38.42,4.09-4.99,7.74-11.49,7.75Z"/><path class="cls-1" d="m223.11,211.23c-.04,7.43,5.93,12.08,7.74,18.66-5.06-5.07-10.78-9.84-7.76-18.65,0,0,.02-.01.02-.01Z"/><path class="cls-1" d="m234.39,178.28c3.7-10.8,6.01-21.64,8.07-32.56,1.31,11.94-.58,23.09-8.07,32.56Z"/><path class="cls-1" d="m228.82,170.94c2.18-7.41,5.86-14.4,6-24.08,2.91,10.49,1.86,14.58-6,24.08Z"/><path class="cls-1" d="m131.41,227.24c-5.76-4.35-10.49-9.65-12.91-17.14,4.83,5.15,9.65,10.3,14.48,15.46-.52.56-1.05,1.12-1.57,1.68Z"/><path class="cls-1" d="m227.42,153.4c2.22,6.25.39,11.32-4.56,15.49,1.52-5.16,3.04-10.33,4.56-15.49Z"/><path class="cls-1" d="m141.77,213.09c-4.5-3.52-7.52-8.22-9.52-13.6,4.9,3.23,7.78,7.91,9.52,13.6Z"/><path class="cls-1" d="m120.94,201.79c3.83,4.11,6.8,7.3,10.38,11.13-7.43-2.14-7.56-2.28-10.38-11.13Z"/><path class="cls-1" d="m117.22,223.47c5.76,2,8.16,7.87,13.17,10.73-7.26-1.32-9.17-3.04-12.96-10.95l-.22.21Z"/><path class="cls-1" d="m137.23,194.64c4.95,4.44,6.82,7.99,9.5,12.14q-5.82-3.47-9.5-12.14Z"/><path class="cls-1" d="m144.64,187.36c3.81,5.15,5.3,8.8,6.65,13.48-5.1-4.64-5.04-4.67-6.65-13.48Z"/><path class="cls-1" d="m153.37,185.45c1.66,3.51,2.87,6.06,4.33,9.15-3.26.33-3.59-2.03-4.45-3.39-.82-1.31-1.23-2.96.11-5.75Z"/><path class="cls-1" d="m179.93,175.85c-.24.61-.47,1.19-.7,1.76-.71-.99-1.48-1.95-2.11-2.99-.42-.7-.08-1.45.7-1.45,1.77,0,1.81,1.49,2.11,2.69Z"/><path class="cls-1" d="m215.28,160.52c-.19.86,0,1.93-1.21,2.15-.05,0-.43-1.1-.43-1.69,0-.91-.02-1.93,1.19-2.25.15.59.3,1.18.45,1.78Z"/><path class="cls-1" d="m162.86,186.06c-.11,1.37-.62,1.76-1.09,1.2-.65-.77-1.23-1.7-1.53-2.66-.24-.78.53-1.26,1.16-.71.7.63,1.11,1.61,1.46,2.16Z"/><path class="cls-1" d="m196.72,165.51c-.09.28-.11.75-.29.81-.74.27-1.09-.11-.88-.97.06-.23.41-.39.62-.58.18.24.36.49.54.73Z"/><path class="cls-1" d="m204.22,162.86c.12.54.3,1.07.32,1.62,0,.2-.34.42-.53.63-.12-.54-.3-1.08-.32-1.62,0-.2.34-.42.53-.63Z"/><path class="cls-1" d="m173.03,182.37c-.22.05-.57.2-.63.12-.16-.21-.33-.55-.27-.77.23-.87.63-.93.98-.18.1.22-.04.55-.08.83Z"/><path class="cls-1" d="m117.43,223.25c-.77.41-1.72-.21-1.4-.57,1.31-1.48,1.27-.25,1.18.79,0,0,.22-.21.22-.21Z"/><path class="cls-1" d="m172.04,150.5c-10.64-7.64-20.55-16.13-26.78-28.16,8.86,9.43,18.28,18.28,26.78,28.16Z"/><path class="cls-1" d="m166.59,113.99c9.3,8.57,17.2,18.14,19.48,31.08-5.63-10.88-12.97-20.66-19.48-31.08Z"/><path class="cls-1" d="m157.42,156.14c-5.48-5.67-10.96-11.34-15.15-15.67,5.09,1.97,9.04,5.54,15.15,15.67Z"/><path class="cls-1" d="m147.04,159.92c-2.57.6-3.71-1.54-5.15-2.8-1.73-1.52-4.84-1.93-4.98-4.71-.08-1.7,2.01-2.03,3.16-1.42,2.48,1.3,7.85-.68,6.48,5.34-.28,1.21,1.61,2.21.49,3.6Z"/><path class="cls-1" d="m165.44,130.63c-2.88-4.8-5.76-9.6-8.63-14.4,6.24,2.96,8.46,8.25,10.74,13.5-.7.3-1.4.6-2.11.9Z"/><path class="cls-1" d="m190.52,131.21c1.06.42,1.96.99,2.17,2.23.4,1.53-.51,3.76,2.15,4.11-.21,1.69-.43,3.38-.65,5.14q-5.77-5.65-3.67-11.48Z"/><path class="cls-1" d="m158.84,147.8c-.66-.74-1.51-1.69-2.34-2.65-.65-.75-.29-1.62.4-1.28,1.1.54,1.94,1.66,2.85,2.57.73.73.57,1.19-.91,1.36Z"/><path class="cls-1" d="m148.31,170.16c-3.29-.09-6.8.3-8.53-3.91,3.79-.52,4.8,4.72,8.49,3.87,0,0,.04.04.04.04Z"/><path class="cls-10" d="m178.03,220.37c-3.49.71-6.06.67-6.78-2.95-.1-.49.57-1.61.95-1.64,3.25-.26,3.91,2.57,5.84,4.58Z"/><path class="cls-10" d="m179.02,210.96c1.4.19,2.21.79,2.22,1.84.01,1.64-1.12,2.24-2.58,1.94-.99-.2-1.89-.97-1.37-2.09.35-.75,1.24-1.24,1.73-1.7Z"/></svg>