<?xml version="1.0" encoding="UTF-8"?><svg id="Layer_1" xmlns="http://www.w3.org/2000/svg" viewBox="0 0 598.77 1039.71"><defs><style>.cls-1,.cls-2,.cls-3,.cls-4,.cls-5,.cls-6,.cls-7,.cls-8,.cls-9{stroke-width:0px;}.cls-2{fill:#2b2b2b;}.cls-3{fill:#1d1d1d;}.cls-4{fill:#0f0f0f;}.cls-5{fill:#c6c6c6;}.cls-6{fill:#fff;}.cls-7{fill:#f68408;}.cls-8{fill:#000303;}.cls-9{fill:#020200;}</style></defs><polygon class="cls-9" points="29.64 24.22 27.22 23.14 27.22 40.43 556.12 51.19 555.9 86.45 301.1 1028.78 313.64 1028.78 570.45 91.36 573.5 59.9 569.74 42.38 552.42 29.41 530.87 25.91 29.64 24.22"/><path class="cls-6" d="m27.22,991.15c0-264.82,0-529.65,0-794.47,3.43.5,6.86,1.34,10.3,1.46,43.14,1.54,86.28,3.03,129.42,4.43,27.83.91,55.67,1.57,83.51,2.5,35.83,1.19,71.65,2.63,107.48,3.76,34.45,1.09,68.9,1.91,103.35,2.94,2.2.07,4.38.94,6.77,1.49-.71,3.15-1.19,5.51-1.77,7.85-33.04,133.33-66.11,266.66-99.14,399.99-31.02,125.23-62,250.48-93.02,375.71-.88,3.56-2.1,7.04-3.09,10.32-16.16-1.1-31.06-2.14-45.97-3.11-26.38-1.72-52.76-3.38-79.15-5.09-39.56-2.57-79.13-5.18-118.69-7.77Zm310.96-391.28c-.65-.51-1.31-1.02-1.96-1.53-10.3,11.87-20.73,23.64-30.87,35.65-10.19,12.05-20.1,24.33-30.54,37-1.28-4.45-1.98-7.88-3.25-11.09-2.27-5.69-5.99-10.21-11.92-12.46-4.52-1.72-9.07-1.71-12.77,1.63-3.61,3.27-4.99,7.65-3.19,12.36,1.85,4.85,3.87,9.69,6.38,14.22,2.7,4.86,6.31,9.2,9.01,14.06,1.21,2.18,2.21,5.4,1.52,7.58-4.12,12.89-8.39,25.69-18.14,35.9-9.37,9.82-18.1,20.25-27.15,30.37-3.38,3.79-6.89,7.46-10.66,11.53-4.66-4.42-8.33-7.91-12.32-11.69,5.47-3.89,10.15-6.86,14.42-10.32,8.54-6.92,15.44-15.1,17.98-26.19,2.37-10.29-2.54-19.88-12.15-23.78-17.94-7.29-41.44,7.17-42.43,26.49-.42,8.22,2.97,15.6,7.74,22.28,2.33,3.27,4.59,6.6,7.53,10.83-8.17,2.52-15,5.38-22.1,6.65-14.7,2.62-29.51,4.8-44.36,6.42-31.92,3.49-55.24,18.05-65.49,49.74-8.93,27.61-1.13,55.05,19.72,70.55,28.89,21.48,59.64,1.43,65.95-21.11,5.98-21.39,3.22-42.46-7.68-61.58-13.86-24.32-48.29-24.52-63.64-1.1-7.45,11.36-9.47,23.89-7.01,37.02,2.62,13.98,16.67,25.91,28.69,24.18,11.97-1.72,20.32-8.95,24.88-19.99,4.67-11.31,2.42-22.06-5.25-31.26-6.96-8.35-19.13-8.04-26.7-.01-7.17,7.61-7.14,20.86.07,27.44,4.22,3.85,9.8,4.62,14.45,1.94,4.39-2.54,6.28-6.44,5.74-11.39-.76-6.96-5.93-9.25-14.82-5.11,3.21,0,4.73-.22,6.16.04,3.59.66,5.97,3.32,5.32,6.57-.53,2.64-2.73,5.78-5.07,7.03-3.53,1.88-7.46.86-10.4-2.38-5.58-6.16-4.27-17.95,2.62-23.42,6.83-5.41,15.92-4.39,21.19,2.76,5,6.78,6.61,14.56,4.83,22.8-2.39,11.05-13.98,21.24-24.16,21.57-10.02.32-19.76-7.47-23.57-18.98-3.6-10.87-1.95-21.47,2.82-31.45,6.15-12.86,16.09-21.05,31-21.04,15.5.01,26.66,7.6,32.83,21.63,6.58,14.98,8.54,30.91,6.19,47.05-3.98,27.35-36.04,46.34-62.91,25.71-15.7-12.05-22.65-28.57-21.45-47.51,2.41-37.9,25.16-60.8,63.22-65.83,14.13-1.86,28.33-3.34,42.33-5.95,10.16-1.9,20.02-5.38,30.67-8.34,4.07,4.16,8.32,8.5,12.37,12.65-4.75,7.1-9.07,13.01-12.81,19.27-4.31,7.23-7.4,14.98-7.43,23.62-.03,10.65,4.05,19.2,13.8,23.9,9.47,4.56,19.12,3.91,27.62-2.58,8.45-6.45,11.47-15.23,9.78-25.83-1.49-9.32-6.15-16.94-11.9-24.03-4.12-5.07-8.56-9.88-13.09-15.08,15.03-16.98,29.64-33.48,44.64-50.43,1.35,4.1,2.04,7.57,3.58,10.63,3.77,7.51,12.06,8.7,16.69,1.76,2.9-4.34,4.96-10.36,4.64-15.45-.42-6.71-3.61-13.23-5.5-19.87-.83-2.91-2.54-6.18-1.88-8.79,2.11-8.35,3.85-16.91,9.76-23.9,5.61-6.64,10.36-14.01,15.94-20.67,12.08-14.41,24.48-28.56,36.68-42.87,2.1-2.47,3.89-5.21,5.82-7.82Z"/><path class="cls-2" d="m296.92,1028.78H27.22c0-11.93,0-23.74,0-35.54,11.79.89,23.58,1.81,35.37,2.67,34.35,2.51,68.71,5.01,103.07,7.48,28.46,2.04,56.91,4.15,85.38,5.98,7.52.49,15.11.07,23.49.07,65.87-266.53,131.7-532.94,197.67-799.89-10.83-.67-21.16-1.54-31.5-1.9-44.2-1.53-88.4-2.94-132.6-4.33-28.54-.9-57.09-1.59-85.63-2.53-35.15-1.16-70.29-2.56-105.44-3.69-29.94-.96-59.88-1.69-89.82-2.52,0-30.66,0-61.33,0-91.99,43.16,1.26,86.32,2.72,129.48,3.72,52.92,1.22,105.85,1.95,158.77,3.08,45.95.98,91.89,2.23,137.84,3.34,29.24.71,58.48,1.36,87.72,2.08,1.98.05,3.96.5,6.4.83-.8,3.53-1.37,6.58-2.19,9.55-7.49,27.16-15.09,54.29-22.55,81.45-59.94,218.37-119.84,436.76-179.78,655.13-15.28,55.68-30.66,111.33-46,166.99Z"/><path class="cls-3" d="m27.22,100.5c0-22.3,0-44.6,0-66.9,43.56-2.02,103.01-1.29,109.94,1.35,1.19,12.85,1.19,12.9,14.42,12.91,29.26.01,58.52-.15,87.77.04,6.07.04,11.05-1.52,14.6-6.38,4.63-6.33,10.79-7.92,18.31-7.59,16.7.72,33.42,1.17,50.13,1.29,55.03.39,110.06.51,165.09.91,17.76.13,35.52.56,53.27,1.32,14.02.6,23.47,10.93,20.92,24.24-3.18,16.61-8.09,32.89-12.32,49.58-4.58,0-8.03.07-11.47-.01-54.3-1.32-108.59-2.69-162.88-4-31.67-.76-63.35-1.48-95.03-2.14-38.29-.79-76.59-1.53-114.88-2.22-45.96-.83-91.91-1.6-137.87-2.39Zm439.39-5.07h18.48c2.81-3.8,1.61-10.16,8.21-10,.57.01,1.57-1.44,1.69-2.31,1.21-9.15,2.28-18.31,3.37-27.26q-13.09-3.28-19.38,5.76c-.39.56-.83,1.12-1.37,1.52-11.22,8.19-7.86,20.64-10.99,32.3Zm-45.54-8.68c4.45,2.34,7.17.61,9.28-2.65,2.26-3.5,4.4-7.08,6.59-10.62,5.89-9.51,5.58-11.53-3.89-21.12-3.75,5.07-7.39,10.04-11.08,14.98-3.31,4.44-4.35,10.64-11.12,12.39-2.88.75-3.43,4.23-1.61,7.05,1.98,3.06,4.06,6.08,6.44,8.82.27.31,3.43-.98,4.11-2.17.95-1.67.83-3.95,1.28-6.68Zm132.67-20.79c0-1.04.02-2.08,0-3.12-.11-5.47-2.95-9.21-7.84-11.11-4.61-1.79-8.05,1.15-10.85,4.16-8.15,8.77-11.93,19.48-11.65,31.29.12,5.09,1.5,10.81,7.62,12.38,5.38,1.37,9.25-2.15,12.41-5.91,6.69-7.96,9.74-17.4,10.31-27.69Zm-178.59-12.69c-6.79,4.99-13.87,9.9-14.42,18.78-.53,8.56-9.87,14.45-7.13,23.67,6.8,2.74,8.36-4.4,12.57-5.6,7.28-2.08,8.86-7.94,10.54-13.91.84-2.98.74-6.39,2.16-9.01,3.38-6.25.92-10.3-3.72-13.92Zm-333.15,15.23c.37.2.74.4,1.11.6.54,3.39.66,6.92,1.71,10.14,1.68,5.15,4.9,9.35,10.64,10.22,5.86.88,9.93-2.58,12.92-7.04,5.97-8.91,6.75-18.7,3.5-28.74-1.54-4.75-4.39-8.65-9.87-9.57-5.91-.99-10.57,1.77-13.1,6.45-3.02,5.59-4.67,11.92-6.91,17.93Zm266,8.57c8.16-5.87,15.15-12.66,16.24-23.41-7.28,6.46-12.3,14.52-16.24,23.41Zm-3.75,4.88q-5.14,3.05-7.01,11.86c4.9-3.6,8.46-5.86,7.01-11.86Z"/><path class="cls-4" d="m313.64,1028.78h-12.54c.47-2.37.78-4.78,1.42-7.11,17.79-64.35,35.77-128.65,53.4-193.04,68.97-251.89,137.76-503.84,206.86-755.7,7.54-27.47-7.46-39.94-29.51-39.62-38.64.55-77.31-.51-115.96-.87-49.8-.46-99.6-.87-149.4-1.37-5.92-.06-11.26,1.3-14.63,6.39-3.76,5.68-8.89,6.78-15.24,6.76-29.6-.1-59.21.17-88.81.21-2.65,0-5.3-.66-7.98-1.01-.52-4.44-.95-8.16-1.51-12.95-4.21-.37-8.22-1.01-12.24-1.02-33.43-.08-66.85-.04-100.28-.04,0-1.39,0-2.79,0-4.18,63.01.56,126.02,1.28,189.03,1.65,73.46.44,146.93.48,220.39.89,34.45.19,68.91.73,103.35,1.34,20.77.37,33.11,15.86,31.8,38.21-1.08,18.43-6.75,36.02-12.99,53.38.33-5.65.68-11.33,1.03-17.01-.74-.1-1.49-.2-2.23-.29-1.73,8.27-3.46,16.55-5.18,24.82.58.16,1.16.32,1.73.47,1.65-2.77,3.29-5.54,4.94-8.31-.61,3.42-.99,6.9-1.86,10.26-6.63,25.57-13.11,51.18-20.08,76.66-72.19,264.05-144.48,528.07-216.67,792.12-2.65,9.68-4.58,19.56-6.84,29.35Zm237.64-893.06c-4.53,7.29-6.27,15.33-6.92,23.65,4.67-7.25,6.36-15.3,6.92-23.65Z"/><path class="cls-1" d="m27.22,29.42c33.43,0,66.85-.04,100.28.04,4.02,0,8.04.65,12.24,1.02.56,4.79.99,8.51,1.51,12.95,2.68.36,5.33,1.02,7.98,1.01,29.6-.04,59.21-.32,88.81-.21,6.36.02,11.48-1.07,15.24-6.76,3.37-5.09,8.7-6.45,14.63-6.39,49.8.5,99.6.9,149.4,1.37,38.66.36,77.32,1.42,115.96.87,22.05-.31,37.04,12.15,29.51,39.62-69.1,251.86-137.89,503.8-206.86,755.7-17.63,64.39-35.61,128.69-53.4,193.04-.64,2.32-.95,4.74-1.42,7.11h-4.18c15.34-55.66,30.72-111.31,46-166.99,59.94-218.37,119.84-436.75,179.78-655.13,7.46-27.17,15.05-54.3,22.55-81.45.82-2.98,1.39-6.03,2.19-9.55-2.44-.33-4.42-.78-6.4-.83-29.24-.72-58.48-1.38-87.72-2.08-45.95-1.11-91.89-2.36-137.84-3.34-52.92-1.13-105.85-1.86-158.77-3.08-43.17-1-86.32-2.46-129.48-3.72,0-.7,0-1.39,0-2.09,45.96.79,91.91,1.55,137.87,2.39,38.29.69,76.59,1.43,114.88,2.22,31.68.65,63.35,1.38,95.03,2.14,54.3,1.31,108.59,2.67,162.88,4,3.44.08,6.89.01,11.47.01,4.23-16.68,9.14-32.96,12.32-49.58,2.55-13.31-6.9-23.63-20.92-24.24-17.74-.76-35.51-1.19-53.27-1.32-55.03-.4-110.06-.52-165.09-.91-16.71-.12-33.43-.57-50.13-1.29-7.51-.32-13.68,1.27-18.31,7.59-3.55,4.86-8.53,6.42-14.6,6.38-29.26-.19-58.51-.02-87.77-.04-13.23,0-13.23-.06-14.42-12.91-6.93-2.65-66.38-3.38-109.94-1.35v-4.18Z"/><path class="cls-8" d="m313.64,1028.78c2.26-9.79,4.19-19.67,6.84-29.35,72.19-264.05,144.48-528.07,216.67-792.12,6.97-25.48,13.45-51.09,20.08-76.66.87-3.36,1.25-6.84,1.86-10.26l-.27.29c6.21-17.33,11.89-34.92,12.96-53.35,1.31-22.35-11.03-37.84-31.8-38.21-34.45-.61-68.9-1.14-103.35-1.34-73.46-.41-146.93-.45-220.39-.89-63.01-.38-126.02-1.09-189.03-1.65,0-.7,0-1.39,0-2.09,2.76-.24,5.52-.7,8.27-.68,165.13,1.13,330.25,2.3,495.38,3.45,4.17.03,8.4-.56,12.51-.09,16.97,1.97,29.32,13.9,31.09,31.55.85,8.48.36,17.6-1.83,25.8-33.96,127.01-68.11,253.97-102.61,380.84-50.48,185.63-101.27,371.18-151.93,556.76-.73,2.68-1.57,5.34-2.36,8h-2.09Z"/><path class="cls-1" d="m27.22,194.58c29.94.83,59.89,1.55,89.82,2.52,35.15,1.13,70.29,2.53,105.44,3.69,28.54.94,57.09,1.64,85.63,2.53,44.2,1.39,88.4,2.8,132.6,4.33,10.34.36,20.67,1.23,31.5,1.9-65.97,266.95-131.81,533.36-197.67,799.89-8.39,0-15.97.41-23.49-.07-28.47-1.83-56.92-3.94-85.38-5.98-34.36-2.47-68.71-4.97-103.07-7.48-11.79-.86-23.58-1.78-35.37-2.67,0-.7,0-1.39,0-2.09,39.56,2.59,79.13,5.19,118.69,7.77,26.38,1.72,52.77,3.37,79.15,5.09,14.91.97,29.81,2.02,45.97,3.11.99-3.29,2.21-6.76,3.09-10.32,31.02-125.23,62-250.48,93.02-375.71,33.03-133.34,66.1-266.66,99.14-399.99.58-2.33,1.06-4.69,1.77-7.85-2.39-.54-4.57-1.42-6.77-1.49-34.45-1.03-68.9-1.85-103.35-2.94-35.83-1.13-71.65-2.57-107.48-3.76-27.83-.92-55.67-1.59-83.51-2.5-43.14-1.4-86.28-2.89-129.42-4.43-3.45-.12-6.87-.96-10.3-1.46,0-.7,0-1.39,0-2.09Z"/><path class="cls-1" d="m338.18,599.87c-1.93,2.61-3.72,5.35-5.82,7.82-12.2,14.31-24.6,28.46-36.68,42.87-5.58,6.66-10.33,14.03-15.94,20.67-5.91,6.99-7.64,15.55-9.76,23.9-.66,2.61,1.05,5.88,1.88,8.79,1.89,6.63,5.08,13.16,5.5,19.87.32,5.09-1.74,11.11-4.64,15.45-4.63,6.94-12.91,5.74-16.69-1.76-1.53-3.05-2.23-6.53-3.58-10.63-15.01,16.95-29.61,33.45-44.64,50.43,4.53,5.2,8.97,10.01,13.09,15.08,5.75,7.09,10.41,14.71,11.9,24.03,1.69,10.61-1.33,19.38-9.78,25.83-8.5,6.49-18.15,7.14-27.62,2.58-9.75-4.69-13.83-13.24-13.8-23.9.03-8.65,3.12-16.4,7.43-23.62,3.73-6.26,8.06-12.17,12.81-19.27-4.05-4.14-8.3-8.48-12.37-12.65-10.65,2.96-20.51,6.45-30.67,8.34-13.99,2.61-28.2,4.09-42.33,5.95-38.07,5.02-60.81,27.93-63.22,65.83-1.2,18.94,5.75,35.46,21.45,47.51,26.87,20.63,58.93,1.64,62.91-25.71,2.35-16.14.39-32.08-6.19-47.05-6.17-14.03-17.32-21.62-32.83-21.63-14.9-.01-24.85,8.18-31,21.04-4.77,9.98-6.42,20.59-2.82,31.45,3.81,11.51,13.56,19.3,23.57,18.98,10.18-.32,21.77-10.52,24.16-21.57,1.78-8.25.17-16.02-4.83-22.8-5.27-7.15-14.37-8.17-21.19-2.76-6.9,5.47-8.2,17.25-2.62,23.42,2.94,3.24,6.87,4.26,10.4,2.38,2.35-1.25,4.54-4.39,5.07-7.03.65-3.25-1.73-5.91-5.32-6.57-1.43-.26-2.95-.04-6.16-.04,8.89-4.14,14.06-1.85,14.82,5.11.54,4.96-1.35,8.86-5.74,11.39-4.65,2.69-10.23,1.92-14.45-1.94-7.21-6.58-7.24-19.83-.07-27.44,7.57-8.03,19.74-8.34,26.7.01,7.67,9.2,9.92,19.95,5.25,31.26-4.56,11.04-12.91,18.27-24.88,19.99-12.02,1.73-26.07-10.2-28.69-24.18-2.46-13.13-.43-25.66,7.01-37.02,15.35-23.41,49.78-23.22,63.64,1.1,10.9,19.12,13.66,40.19,7.68,61.58-6.31,22.55-37.05,42.6-65.95,21.11-20.85-15.5-28.65-42.94-19.72-70.55,10.26-31.69,33.57-46.25,65.49-49.74,14.85-1.62,29.66-3.8,44.36-6.42,7.11-1.27,13.93-4.13,22.1-6.65-2.93-4.23-5.19-7.55-7.53-10.83-4.76-6.68-8.16-14.06-7.74-22.28.99-19.31,24.49-33.78,42.43-26.49,9.61,3.91,14.52,13.49,12.15,23.78-2.55,11.09-9.44,19.26-17.98,26.19-4.27,3.46-8.95,6.43-14.42,10.32,3.98,3.78,7.66,7.27,12.32,11.69,3.77-4.07,7.28-7.75,10.66-11.53,9.05-10.12,17.78-20.55,27.15-30.37,9.75-10.21,14.02-23.01,18.14-35.9.7-2.18-.3-5.39-1.52-7.58-2.7-4.86-6.32-9.2-9.01-14.06-2.51-4.53-4.53-9.37-6.38-14.22-1.8-4.71-.42-9.1,3.19-12.36,3.7-3.35,8.25-3.35,12.77-1.63,5.93,2.25,9.65,6.77,11.92,12.46,1.28,3.2,1.97,6.64,3.25,11.09,10.44-12.67,20.35-24.95,30.54-37,10.15-12,20.57-23.78,30.87-35.65.65.51,1.31,1.02,1.96,1.53Zm-132.54,181.7c-10.88,9.73-19.11,24.56-20.71,36.88-1.38,10.6,4.28,20.46,13.96,24.3,9.67,3.84,20.84.56,26.84-8.02,4.73-6.76,5.28-14.15,2.86-21.89-4.1-13.1-13.03-22.52-22.95-31.26Zm-16.02-21.7c9.08-4.1,16.96-9.72,23.07-17.37,3.4-4.26,6.37-9.2,8.18-14.31,3.18-9.02-.34-17.62-8.18-21.2-11.1-5.08-21.08-1.78-30.01,5.34-8.56,6.83-11.11,16.76-7.46,27.14,2.82,8.01,7.55,14.7,14.41,20.4Zm73.6-69.26c8.99-13.84,8.96-27.16,1.36-35.65-4.25-4.75-10.81-6.43-14.8-3.78-3.49,2.31-4.65,7.08-1.62,13.19,4.24,8.52,9.43,16.56,15.06,26.24Zm3.56,12.51c-2.69,4.45-5.04,8.27-7.33,12.13-3.44,5.8-3.22,12.11-1.37,18.13.79,2.59,3.84,6.32,5.78,6.28,2.75-.06,5.75-2.82,8.03-5.06,1.32-1.29,1.79-3.76,2.04-5.77,1.16-9.3-1.19-17.67-7.15-25.72Z"/><path class="cls-1" d="m466.6,95.43c3.13-11.66-.23-24.11,10.99-32.3.54-.39.98-.96,1.37-1.52q6.29-9.04,19.38-5.76c-1.08,8.95-2.15,18.12-3.37,27.26-.11.87-1.12,2.32-1.69,2.31-6.59-.15-5.39,6.2-8.21,10h-18.48Zm16.7-3.58c1.56-8.04,4.44-15.71,3.22-23.94-10.45-1.45-11.17-1.14-13.14,7.07-1.28,5.33-2.13,10.76-3.31,16.87h13.23Zm-.55-30.55c8.38,5.17,8.34,5.16,6.91,15.16-.25,1.75-.04,3.56-.04,5.35.75.05,1.49.1,2.24.14.93-7.96,1.85-15.92,2.86-24.57-5.42-.02-10.25-2.88-11.98,3.92Z"/><path class="cls-1" d="m421.06,86.76c-.45,2.73-.33,5.01-1.28,6.68-.68,1.2-3.84,2.48-4.11,2.17-2.38-2.74-4.47-5.76-6.44-8.82-1.82-2.82-1.27-6.3,1.61-7.05,6.77-1.76,7.81-7.96,11.12-12.39,3.69-4.94,7.33-9.91,11.08-14.98,9.48,9.59,9.78,11.61,3.89,21.12-2.19,3.54-4.33,7.12-6.59,10.62-2.11,3.26-4.84,4.99-9.28,2.65Zm4.29-1.45c4.06-6.32,7.23-11.25,10.41-16.18,2.74-4.24,1.51-7.55-2.69-11.41-4.62,6.45-8.77,12.27-12.88,18.02,1.65,3.06,2.94,5.45,5.16,9.58Zm-10.41,6.06c1.12-3.65,2.42-7.41-3.33-8.52,1.31,3.34,2.32,5.93,3.33,8.52Z"/><path class="cls-1" d="m553.74,65.96c-.57,10.29-3.62,19.72-10.31,27.69-3.16,3.76-7.03,7.28-12.41,5.91-6.12-1.56-7.5-7.29-7.62-12.38-.28-11.81,3.5-22.51,11.65-31.29,2.8-3.01,6.24-5.95,10.85-4.16,4.89,1.9,7.74,5.64,7.84,11.11.02,1.04,0,2.08,0,3.12Zm-7.04-11.82c-9.57.97-13.17,7.75-16.14,14.79-3.25,7.7-5.92,15.73-2.13,24.04,1.89,4.14,5.12,4.37,9.43,1.24,10.56-7.67,15.14-27.17,8.84-40.08Z"/><path class="cls-1" d="m375.15,53.28c4.64,3.63,7.1,7.67,3.72,13.92-1.42,2.62-1.32,6.03-2.16,9.01-1.68,5.97-3.26,11.83-10.54,13.91-4.21,1.21-5.77,8.34-12.57,5.6-2.74-9.22,6.6-15.11,7.13-23.67.55-8.88,7.63-13.79,14.42-18.78Zm1.81,7.17c-6.1.02-9.58,2.22-11.28,6.98-2.91,8.17-5.76,16.35-8.63,24.53.52.32,1.05.63,1.57.95,3.3-5.38,6.6-10.76,10.06-16.39,1.19,1.78,1.84,2.76,3.23,4.84,1.81-7.48,3.31-13.71,5.05-20.91Z"/><path class="cls-1" d="m42,68.51c2.24-6.01,3.88-12.34,6.91-17.93,2.54-4.68,7.2-7.44,13.1-6.45,5.48.92,8.33,4.82,9.87,9.57,3.25,10.04,2.47,19.82-3.5,28.74-2.99,4.46-7.06,7.91-12.92,7.04-5.74-.86-8.97-5.07-10.64-10.22-1.05-3.22-1.17-6.75-1.71-10.14-.37-.2-.74-.4-1.11-.6Zm3.45.79c1.47,4.17,2.36,8.66,4.53,12.42,3.16,5.44,8.4,5.79,13.17,1.67,7.61-6.57,9.78-23.45,4.08-31.75-4.17-6.08-9.6-6.55-14.54-.91-4.52,5.15-6.32,11.43-7.24,18.57Z"/><path class="cls-1" d="m308,77.08c3.94-8.89,8.96-16.95,16.24-23.41-1.1,10.75-8.08,17.54-16.24,23.41Z"/><path class="cls-1" d="m304.25,81.95c1.45,6-2.11,8.26-7.01,11.86q1.87-8.82,7.01-11.86Z"/><path class="cls-1" d="m559.09,120.39c-1.65,2.77-3.29,5.54-4.94,8.31-.58-.16-1.16-.32-1.73-.47,1.73-8.27,3.46-16.55,5.18-24.82.74.1,1.49.2,2.23.29-.35,5.68-.7,11.36-1.03,17.01.03-.03.29-.31.29-.31Z"/><path class="cls-1" d="m551.29,135.73c-.56,8.35-2.25,16.4-6.92,23.65.65-8.32,2.39-16.36,6.92-23.65Z"/><path class="cls-6" d="m205.64,781.57c9.92,8.74,18.85,18.16,22.95,31.26,2.42,7.74,1.88,15.13-2.86,21.89-6.01,8.59-17.18,11.86-26.84,8.02-9.67-3.84-15.34-13.7-13.96-24.3,1.6-12.31,9.83-27.14,20.71-36.88Z"/><path class="cls-6" d="m189.62,759.87c-6.86-5.7-11.59-12.39-14.41-20.4-3.65-10.38-1.1-20.31,7.46-27.14,8.93-7.13,18.91-10.42,30.01-5.34,7.84,3.59,11.36,12.18,8.18,21.2-1.8,5.11-4.78,10.05-8.18,14.31-6.11,7.66-13.99,13.27-23.07,17.37Z"/><path class="cls-6" d="m263.23,690.61c-5.62-9.69-10.82-17.73-15.06-26.24-3.04-6.11-1.87-10.88,1.62-13.19,4-2.64,10.55-.97,14.8,3.78,7.6,8.49,7.63,21.81-1.36,35.65Z"/><path class="cls-6" d="m266.79,703.12c5.97,8.05,8.31,16.42,7.15,25.72-.25,2.01-.72,4.48-2.04,5.77-2.28,2.23-5.28,4.99-8.03,5.06-1.95.05-4.99-3.69-5.78-6.28-1.85-6.02-2.07-12.33,1.37-18.13,2.29-3.86,4.64-7.68,7.33-12.13Z"/><path class="cls-5" d="m483.3,91.86h-13.23c1.18-6.11,2.03-11.54,3.31-16.87,1.97-8.21,2.69-8.52,13.14-7.07,1.22,8.23-1.66,15.9-3.22,23.94Z"/><path class="cls-5" d="m482.75,61.31c1.73-6.81,6.55-3.95,11.98-3.92-1.01,8.65-1.94,16.61-2.86,24.57-.75-.05-1.49-.1-2.24-.14,0-1.78-.22-3.6.04-5.35,1.43-10,1.47-9.99-6.91-15.16Z"/><path class="cls-5" d="m425.35,85.31c-2.23-4.13-3.51-6.52-5.16-9.58,4.11-5.75,8.27-11.56,12.88-18.02,4.2,3.87,5.43,7.17,2.69,11.41-3.18,4.93-6.34,9.86-10.41,16.18Z"/><path class="cls-5" d="m414.94,91.36c-1.01-2.59-2.02-5.18-3.33-8.52,5.75,1.12,4.45,4.88,3.33,8.52Z"/><path class="cls-7" d="m546.7,54.15c6.3,12.91,1.72,32.41-8.84,40.08-4.3,3.12-7.54,2.9-9.43-1.24-3.79-8.31-1.12-16.34,2.13-24.04,2.97-7.04,6.57-13.83,16.14-14.79Z"/><path class="cls-5" d="m376.96,60.45c-1.74,7.2-3.25,13.44-5.05,20.91-1.39-2.08-2.04-3.06-3.23-4.84-3.46,5.63-6.76,11.01-10.06,16.39-.52-.32-1.05-.63-1.57-.95,2.87-8.18,5.72-16.36,8.63-24.53,1.69-4.76,5.18-6.96,11.28-6.98Z"/><path class="cls-5" d="m45.44,69.3c.92-7.14,2.72-13.42,7.24-18.57,4.95-5.64,10.37-5.17,14.54.91,5.7,8.3,3.53,25.18-4.08,31.75-4.77,4.12-10.01,3.77-13.17-1.67-2.18-3.75-3.07-8.25-4.53-12.42Zm7.49,7.36c2.53-3.96,9.18-1.31,10.37-7.28.89-4.47,3.11-8.75,2.11-13.53-13.36,1.97-8.63,13.69-12.48,20.81Z"/><path class="cls-1" d="m52.93,76.65c3.85-7.12-.87-18.84,12.48-20.81,1,4.78-1.22,9.07-2.11,13.53-1.19,5.96-7.84,3.32-10.37,7.28Z"/><path class="cls-1" d="m173.51,360.23c-.2-.05-.41-.08-.62-.09s-.39-.08-.53-.22c-.25-.14-.43-.31-.56-.49-.24-.41-.42-.89-.54-1.43,0-.09-.01-.2,0-.34,0-.13-.02-.25-.06-.34-.02-.4-.05-.81-.07-1.21-.02-.4-.06-.81-.12-1.22-.06-.41-.12-.81-.18-1.22-.06-.41-.12-.81-.18-1.22-.06-.41-.12-.81-.18-1.22-.06-.41-.09-.83-.1-1.28l-.12-.68c-.05-.32-.1-.63-.15-.95-.05-.32-.06-.63-.04-.94,0-.13-.03-.34-.09-.61l-.18-1.02c-.01-.31-.04-.63-.07-.94-.03-.32-.1-.61-.2-.88l-.14-.61c-.22-1.17-.4-2.39-.53-3.65-.03-.27-.06-.54-.11-.81-.05-.27-.1-.54-.16-.81.02-.18,0-.34-.05-.47-.05-.14-.09-.27-.12-.41-.03-.14-.12-.14-.27-.01-.08.13-.15.25-.22.36-.07.11-.14.23-.22.36-.29.48-.56.96-.81,1.45-.25.48-.51.97-.76,1.45-.21.44-.42.86-.65,1.25-.23.4-.44.79-.63,1.19-.13.31-.26.61-.38.89-.12.29-.26.56-.41.82-.04.13-.09.26-.14.36-.05.11-.11.23-.19.36-.34.66-.64,1.33-.9,2.02-.26.69-.53,1.38-.82,2.09l-.12.4c-.02.18-.06.34-.11.47-.06.13-.12.26-.2.4-.21.35-.35.75-.41,1.19-.02.18-.04.36-.08.54-.04.18-.1.36-.19.53-.17.44-.33.87-.47,1.29-.15.42-.28.83-.4,1.23s-.29.8-.52,1.19c-.13.17-.25.28-.37.32-.2.17-.33.32-.41.45-.09.18-.21.31-.36.39-.15.08-.28.17-.37.25-.05.04-.11.06-.18.06-.11,0-.19.02-.23.06-.12.04-.23.08-.33.12-.1.04-.2.08-.28.12-.11,0-.22-.02-.34-.05-.12-.03-.23-.04-.34-.05-.38-.06-.64-.14-.8-.23-.15-.09-.32-.39-.49-.89,0-.13-.01-.26-.05-.37-.04-.11-.07-.24-.1-.37-.13-.41-.16-.86-.08-1.35.15-.62.24-1.25.27-1.87.03-.63.02-1.23-.02-1.82.02-.18.03-.36.03-.54,0-.18-.02-.34-.05-.47-.04-.72-.07-1.43-.09-2.12-.03-.7-.06-1.4-.09-2.12-.02-.04-.03-.09-.01-.13s0-.09-.01-.14c-.09-.41-.16-.82-.19-1.25-.03-.43-.07-.87-.12-1.32-.03-.49-.11-1.01-.24-1.56,0-.22-.03-.43-.06-.61-.04-.18-.06-.36-.08-.54,0-.09,0-.2.02-.34.02-.13.01-.24-.03-.34-.14-.5-.22-1.04-.24-1.62-.02-.58-.08-1.15-.17-1.69l-.23-1.22c-.04-.23-.09-.45-.15-.68-.06-.23-.11-.43-.17-.61-.04-.22-.09-.42-.15-.58-.06-.16-.1-.33-.12-.51-.06-.27-.13-.53-.2-.78-.07-.25-.12-.49-.16-.71-.06-.27-.13-.53-.2-.78-.07-.25-.14-.49-.22-.71-.1-.5-.16-.97-.17-1.42.03-.22.09-.42.18-.6.18-.35.34-.69.5-1.02s.31-.65.48-.96l.24-.26c.2-.17.38-.32.54-.45.16-.13.34-.26.52-.38.17-.08.27-.12.31-.12.45-.16.85-.24,1.2-.22s.68.14.97.37c.15.1.3.21.44.35.31.28.46.65.43,1.09,0,.22.02.45.04.67.02.23.02.45-.01.67,0,.94.13,1.84.38,2.71.14.5.28,1.07.41,1.7.06.05.09.12.1.21,0,.09.02.16.05.2.12.32.21.68.27,1.09.06.41.11.79.14,1.15.05.32.08.62.08.91,0,.29.01.59.02.91.05.81.07,1.62.08,2.43,0,.81.03,1.59.05,2.36,0,.27,0,.52.05.74.04.23.06.47.05.74.02.05.04.05.05,0,.07,0,.11-.02.13-.06.28-.35.49-.68.62-.99l1.12-2.11c.15-.26.3-.53.45-.79.15-.26.31-.55.47-.86.4-.61.75-1.23,1.04-1.84.14-.35.36-.73.66-1.12.17-.22.3-.46.38-.73l.36-.66c.45-.79.91-1.58,1.36-2.37.45-.79.93-1.53,1.43-2.23.19-.26.37-.51.55-.75.18-.24.36-.47.53-.69.12-.17.26-.33.41-.45.15-.13.3-.21.45-.25.21-.22.41-.34.6-.38.19-.04.38-.12.56-.25.05-.04.14-.06.29-.06.11,0,.22.05.33.15.15.1.32.08.5-.05.23-.17.38-.12.44.15.02.18.07.33.16.44.09.12.18.22.26.31.04.09.1.18.16.28.06.09.09.21.09.34l.63,3.86c.07.36.14.73.21,1.12.06.38.11.78.13,1.18.08.23.12.48.13.75,0,.27.02.56.03.88,0,.72.09,1.44.27,2.16.03.13.06.27.09.41.03.14.04.27.04.41.02.54.06,1.08.14,1.62.07.54.13,1.11.17,1.69,0,.09.02.2.03.34.01.13.02.25.03.34,0,.58.05,1.16.13,1.72.08.56.17,1.12.26,1.66,0,.09.06.23.15.41.07,0,.11-.02.13-.06.05-.04.14-.15.26-.33.23-.4.45-.78.67-1.15s.41-.76.56-1.16c.18-.35.33-.64.47-.86.39-.7.76-1.39,1.11-2.08.35-.68.7-1.37,1.06-2.08.15-.26.31-.54.46-.82.16-.29.31-.56.46-.82.49-.92.98-1.83,1.47-2.73.49-.9.96-1.81,1.42-2.74l1.64-3.3c.15-.26.23-.53.24-.8,0-.22.07-.4.21-.53.21-.22.39-.46.54-.72.15-.26.3-.5.43-.72.24-.44.53-.92.87-1.45.07-.13.17-.26.28-.39.11-.13.21-.26.28-.39.22-.26.43-.41.62-.45.13-.08.26-.16.39-.22.13-.06.25-.11.37-.15.05-.04.1-.06.15-.06s.1-.02.15-.06c.2-.08.41-.13.61-.14.2-.01.4-.09.58-.21.27-.17.51-.14.73.1.21.28.36.53.48.76.13.27.16.68.07,1.21,0,.13-.03.27-.07.4l-.12.4c-.37.97-.81,1.92-1.34,2.84-.15.26-.31.54-.46.82-.16.29-.31.56-.46.82-.01.04-.04.1-.08.17-.04.07-.07.14-.1.23-.25.71-.55,1.41-.91,2.12-.36.7-.72,1.38-1.1,2.04-.32.57-.61,1.14-.89,1.71-.28.57-.58,1.14-.89,1.71-.06.09-.13.21-.19.36-.07.16-.15.28-.24.36-.19.26-.34.54-.46.82-.12.29-.27.59-.43.89-.09.18-.17.34-.23.49-.07.16-.16.32-.28.49-.25.48-.51.98-.77,1.48-.26.51-.5,1-.72,1.48l-1.16,2.24c-.09.18-.17.34-.23.5-.07.16-.14.32-.23.5-.04.13-.09.26-.15.4-.06.13-.13.29-.22.46-.12.26-.24.54-.38.83-.14.29-.28.58-.4.89-.13.31-.26.61-.38.89-.12.29-.26.61-.4.96-.05.18-.12.35-.19.53-.07.18-.14.38-.21.6l-.58,1.39c-.13.44-.28.86-.43,1.26-.16.4-.34.82-.54,1.26-.06.09-.11.2-.15.33l-.1.33c-.12.4-.29.71-.49.92-.08.13-.17.26-.28.39-.11.13-.22.26-.33.39l-.37.32c-.12.04-.25.11-.39.22-.14.11-.28.2-.41.29-.25.12-.51.18-.76.17Z"/><path class="cls-1" d="m208.18,362.54c-.33.03-.64.02-.91-.04-.27-.06-.5-.25-.7-.57-.04-.09-.13-.18-.24-.28-.14-.14-.2-.3-.18-.48.02-.18-.01-.33-.08-.44-.07-.11-.1-.26-.08-.44,0-.13.04-.28.1-.43.06-.15.12-.3.16-.43s.07-.27.09-.4c.02-.13.05-.27.09-.4.09-.67.19-1.35.29-2.04s.21-1.37.34-2.04c.06-.31.11-.62.17-.94.06-.31.11-.62.17-.93.14-.58.27-1.15.39-1.73.12-.58.23-1.16.33-1.74.03-.36.09-.67.17-.93.11-.35.19-.7.26-1.03.06-.33.12-.66.18-.97.04-.27-.04-.41-.25-.41l-.35-.08c-.17-.05-.35-.08-.57-.09s-.42-.04-.62-.09l-.54-.02c-.09.04-.2.06-.34.05s-.27-.02-.39-.05c-.12-.03-.27-.02-.46.02-.14,0-.28,0-.41.02-.13.02-.28,0-.45-.05-.02-.05-.08-.06-.18-.04-.1.02-.18.03-.25.02-.18,0-.37,0-.57.01-.2.02-.39.02-.57.01h-.32c-.11-.02-.22,0-.34.04-.26.04-.52.06-.78.07-.26.01-.51.01-.76,0-.34-.06-.7-.07-1.07-.04-.37.03-.74.06-1.11.09h-.16c-.21.08-.33.21-.39.38-.01.04-.03.08-.06.1-.03.02-.04.06-.06.1-.07.22-.1.4-.11.53-.06.31-.12.63-.18.97-.06.33-.13.68-.2,1.03l-.32,1.6c-.1.45-.18.88-.23,1.3-.06.42-.13.84-.21,1.24.02.05.02.1,0,.17s-.03.14-.02.23c0,.22-.03.47-.11.74l-.24.8c.06.05.01.14-.13.26-.06.09-.13.17-.19.26-.06.09-.11.18-.13.26-.24.44-.6.85-1.08,1.24-.46.34-.86.53-1.2.56-.04,0-.08,0-.12.03-.04.02-.1.03-.17.03-.5.11-.99.05-1.46-.19l-.12-.14c.02-.18-.01-.31-.09-.41-.08-.09-.14-.19-.19-.28-.03-.14-.08-.26-.13-.38-.06-.11-.08-.26-.06-.44.01-.04,0-.07-.03-.07-.08-.23-.09-.47-.05-.74.04-.27.09-.53.13-.8l.16-1.07c.08-.4.16-.81.24-1.24.07-.42.16-.86.26-1.3l.46-2.61c.06-.31.12-.63.18-.97.06-.33.12-.66.18-.97l.48-2.13c.1-.44.19-.89.29-1.33.1-.44.18-.89.24-1.34l.18-.6c.11-.35.2-.71.29-1.06.09-.36.16-.69.22-1,0-.13.03-.27.07-.4l.12-.4c.07-.22.12-.43.16-.63.04-.2.08-.41.11-.64l.26-1.4c.11-.49.2-1,.27-1.54.07-.54.11-1.05.11-1.54,0-.27,0-.55-.02-.84-.02-.29-.02-.6,0-.91.03-.36.04-.6,0-.74.03-.45.15-.87.38-1.26l.62-.98c.09-.18.24-.33.46-.45.11-.13.24-.25.38-.36s.28-.2.41-.29c.08-.04.18-.06.29-.06.09.05.24.03.45-.05l.2-.13c.39-.21.71-.2.96.04.15.1.31.19.48.29.17.1.29.26.37.49.2.05.28.26.25.62l.08,1.35c.06.77.08,1.55.05,2.36-.03.81-.14,1.65-.33,2.54-.06.31-.11.64-.16.97s-.11.68-.18,1.04l-.16.53c-.07.22-.1.38-.09.47-.06.31-.13.65-.22,1-.09.36-.19.71-.29,1.06l-.04.13c-.03.22.03.38.18.48.09.05.19.09.29.11.1.03.2.04.31.05.19-.04.35-.04.46-.01.12.03.25.04.39.05.25,0,.48,0,.71,0,.22-.01.46-.02.71,0l.64.03c.11,0,.22.02.34.05.12.03.24.02.36-.02.07,0,.14,0,.2-.03.06-.02.11-.03.14-.03.34.06.7.08,1.06.07.36,0,.72,0,1.08,0,.34.06.7.08,1.06.07.36,0,.72,0,1.08,0,.28.01.56.03.82.07.26.03.52.05.77.06s.41-.12.49-.38l.22-.73c.08-.27.13-.51.17-.73.11-.49.22-.94.33-1.37.11-.42.21-.85.31-1.3.15-.62.32-1.23.52-1.83.2-.6.35-1.19.45-1.76.11-.49.23-.98.36-1.47.13-.49.22-.96.29-1.4l.28-.93c.05-.18.11-.31.17-.4.03-.09.06-.17.1-.23.04-.07.06-.12.08-.17.07-.22.07-.36.01-.4l-.12-.14c-.16-.18-.14-.39.07-.6.16-.17.24-.37.23-.6.04-.13.08-.22.13-.26.11-.13.22-.26.33-.39.11-.13.21-.28.3-.46.25-.48.49-.71.72-.68.22.03.36.09.41.18.02.05.05.06.1.04.04-.02.07-.05.08-.1.08-.27.23-.42.46-.45.23-.03.4-.07.52-.11l.4-.25h.16c.15.1.27.21.36.32.09.12.19.22.31.31.06.05.12.14.19.28.13.41.15.93.08,1.55-.06.45-.12.87-.17,1.27-.05.4-.12.83-.22,1.27-.03.09-.05.18-.05.27,0,.09-.03.18-.05.27l-.09.47c-.16.53-.29,1.05-.39,1.57-.1.51-.21,1.04-.34,1.57.02.05.01.14-.03.27-.13.31-.23.61-.3.9-.07.29-.14.61-.21.97-.06.31-.14.66-.23,1.03-.1.38-.2.74-.3,1.1-.07.22-.13.47-.19.73-.06.27-.11.51-.14.73-.03.22-.08.45-.15.67l-.2.67c-.07.22-.12.43-.16.63-.04.2-.08.41-.11.64l-.08.27c-.12.53-.24,1.06-.34,1.57-.1.51-.21,1.03-.34,1.57.02.05.01.13-.03.27-.15.49-.26.99-.34,1.5-.08.51-.18,1.01-.29,1.5l-.54,2.33s-.03.12-.04.23c-.02.11-.04.21-.06.3,0,.09-.03.27-.11.53-.12.4-.21.8-.28,1.2-.07.4-.14.8-.23,1.2-.06.45-.14.89-.24,1.34-.1.45-.18.91-.26,1.4-.09.54-.16,1.07-.21,1.61-.05.54-.12,1.07-.21,1.61-.02.18-.05.37-.09.57-.04.2-.1.41-.16.63s-.19.44-.36.66c-.05.04-.1.12-.15.23-.05.11-.13.21-.22.29-.05.04-.08.09-.09.13s-.04.07-.07.06c-.16.04-.31.14-.47.32-.16.17-.33.3-.5.38-.2.17-.43.3-.71.38l-.49.18Z"/><path class="cls-1" d="m222.48,361.96c-.21,0-.35-.04-.41-.08-.15-.1-.31-.14-.48-.12s-.34.02-.52.01c-.04,0-.08,0-.12.03-.04.02-.08.03-.12.03-.26.03-.51.05-.74.04s-.44-.06-.63-.16c-.02-.05-.05-.07-.09-.07-.26.03-.45-.06-.56-.29-.11-.23-.23-.43-.36-.62-.11-.23-.13-.48-.05-.74v-.54c-.01-.31.04-.6.15-.87.06-.09.1-.17.11-.27,0-.09.03-.18.05-.27,0-.09,0-.19.04-.3s.04-.21.04-.3c.05-.4.13-.81.24-1.23.11-.42.24-.83.4-1.23.11-.26.38-.71.78-1.35.41-.63.65-1.02.72-1.15.17-.22.28-.39.32-.52.11-.49.25-.99.42-1.5.17-.51.33-1.01.48-1.5.09-.31.22-.55.38-.73.24-.3.35-.64.35-.99l.06-.74c-.07-.5.08-.92.43-1.26.01-.04.03-.08.06-.1s.04-.05.06-.1c.1-.08.15-.21.16-.36.01-.16.03-.28.06-.37.05-.18.14-.36.25-.56.11-.2.18-.38.2-.56l-.07-.14c0-.09.04-.27.13-.53.1-.26.15-.42.17-.46l.56-1.86c.1-.22.18-.43.24-.63s.14-.41.24-.63c.12-.26.21-.54.28-.83.07-.29.15-.59.24-.9.03-.22.08-.47.14-.73.06-.27.13-.53.21-.8,0-.09,0-.2.05-.33l.1-.33c.03-.22.07-.45.12-.67.05-.22.11-.44.17-.67.03-.09.04-.39.06-.91.01-.52.09-.95.23-1.3.06-.09.11-.2.15-.33s.04-.24,0-.34c-.06-.05-.07-.14-.03-.27l.06-.2c.27-.53.37-1.06.32-1.6-.06-.27-.04-.54.08-.8.11-.35.06-.62-.14-.81-.11-.23-.19-.5-.24-.82-.05-.32-.05-.63.01-.94.03-.22.08-.44.15-.67l.18-.6c.05-.18.1-.29.15-.33.2-.17.33-.38.4-.62s.15-.43.22-.56c.05-.04.09-.06.13-.06s.08-.02.13-.06c.15-.04.27-.19.35-.46-.02-.18,0-.34.03-.47.02-.18.12-.33.3-.46.12-.17.23-.22.31-.12.21.14.51.11.9-.1.17-.08.27-.12.31-.12h.16s.16-.05.34-.05c.2.05.42-.03.67-.24.34-.3.69-.44,1.05-.43l3.32.13c.81.08,1.63.11,2.46.1.83-.01,1.64,0,2.43.03.18,0,.33,0,.46-.01.13-.02.27-.05.43-.08.25-.12.52-.18.81-.17l1.23.05c.29.01.55.01.79,0,.24-.01.49-.04.75-.07.15-.04.3-.06.42-.05l.4.02.43.02c.14,0,.29-.01.45-.05.3-.03.61-.05.94-.06.33,0,.63,0,.92,0,.14,0,.28,0,.41-.02.13-.02.27-.05.43-.08.31-.08.61-.12.88-.13.27-.01.54-.03.81-.07.3-.03.59-.07.87-.1.28-.03.55-.07.82-.1.32.01.54.07.66.16.16.19.32.35.48.49.16.14.29.33.4.55.09.18.13.34.13.48-.02.18-.04.36-.05.54-.02.18-.04.38-.07.6l-.14.47c-.1.22-.2.45-.29.69-.09.24-.19.5-.31.76-.13.17-.26.33-.41.45l-1.32,1.16c-.4.12-.77.19-1.12.23-.35.03-.7.02-1.04-.04h-.37c-.19.02-.38.04-.55.03s-.35-.04-.52-.09c-.2-.05-.41-.07-.63-.06-.22.01-.44.02-.65,0-.14,0-.28,0-.41.02-.13.02-.26,0-.39-.05-.17-.05-.33-.07-.5-.05-.17.02-.35.04-.54.08-.14,0-.3,0-.47.02-.17.02-.34.02-.52.01-.49.07-1,.1-1.51.08s-1.04,0-1.56.07c-.31-.06-.62-.06-.92,0-.31.06-.63.1-.96.13-.3.03-.61.04-.93.03s-.64.02-.95.1c-.36-.01-.72.03-1.09.13-.37.1-.74.16-1.11.19l-.39.05c-.25,0-.49.01-.73.07-.23.06-.49.13-.77.21-.16.04-.31.07-.46.08-.15.02-.32.04-.51.08-.11,0-.25.04-.41.12-.12.04-.21.17-.28.39l-.02.6c0,.09-.07.31-.23.66s-.29.62-.37.79c-.04.13-.06.27-.07.4,0,.13,0,.27-.01.4,0,.36-.06.75-.19,1.17s-.21.81-.24,1.17c-.02.18-.06.37-.12.57s-.11.41-.14.63c-.03.09-.05.19-.06.3-.02.11-.04.23-.08.37s-.09.22-.13.26c-.16.17-.27.37-.34.59l-.2.66c.04.45,0,.9-.13,1.34s-.27.89-.4,1.33c-.04.13.04.18.23.14h.05c.12-.17.24-.3.33-.39.11,0,.25-.04.41-.12.13-.08.29-.12.47-.12.27.06.54.06.81,0,.27-.06.54-.12.82-.2,1.84-.47,3.61-1.09,5.33-1.88.46-.21.93-.38,1.4-.52.47-.14.93-.22,1.37-.25h.16c.33-.02.67-.06,1-.09.33-.03.66-.04.98-.03.44-.03.88-.08,1.32-.15.44-.07.88-.12,1.32-.15.28-.08.53-.15.77-.21.23-.06.5-.15.79-.27.53-.2.99-.3,1.38-.28.27.06.52.14.73.26.22.12.42.27.62.46.4.46.47,1.14.2,2.03-.11.35-.24.71-.4,1.06-.16.35-.29.71-.4,1.06-.03.09-.09.18-.19.26l-.26.33c-.09.18-.18.35-.27.53-.09.18-.22.31-.39.39-.28.21-.57.44-.88.67-.31.24-.61.39-.93.47-.16.04-.3.08-.44.12-.14.04-.28.06-.42.05-.57-.02-1.16,0-1.78.06-.62.07-1.24.13-1.87.2-.48.03-.95.08-1.42.15-.47.07-.94.1-1.4.08-.43-.02-.94.08-1.54.28-.38.08-.79.15-1.2.22-.42.07-.83.12-1.24.15-.3.03-.61.08-.93.13-.32.05-.63.1-.93.13l-.97.16c-.09.04-.2.06-.34.05-.28.08-.55.14-.81.17-.26.03-.53.09-.81.17-.26.03-.52.09-.78.17-.26.08-.53.16-.8.24-.19.04-.36.11-.5.22-.14.11-.27.25-.4.42-.08.13-.12.26-.12.4-.02.18-.09.36-.21.53-.1.45-.2.89-.32,1.33-.12.44-.26.89-.43,1.33-.04.36-.12.71-.24,1.07-.13.36-.26.71-.4,1.06-.23.53-.35.97-.35,1.33-.07.58-.28,1.18-.65,1.79-.15.26-.21.44-.16.53.03.14-.02.29-.14.47l-.12.4c-.14.35-.07.54.21.55h.11c.25.01.47.13.65.37.11.23.31.3.58.22l1.56-.14c.23-.03.45-.06.67-.07.22-.01.44-.02.65,0,.08-.04.18-.01.3.08.14.14.29.17.46.09.1-.09.22-.15.35-.19.14-.04.26-.1.35-.19.29-.26.59-.33.88-.23.26.1.5.09.72-.04.36-.12.68-.15.95-.1.16.05.35.04.56-.04.2-.08.4-.12.58-.11.07,0,.12.02.15.04.03.02.07.01.12-.03.07,0,.15-.02.23-.06.08-.04.14-.06.18-.06.29-.12.53-.16.74-.11h.27c.16-.03.29-.02.4.03.11.05.21.12.29.21.16.05.3.12.39.22.1.09.21.17.34.21.07,0,.12.03.14.07.12.18.3.35.53.49.23.14.33.3.32.48,0,.27-.05.53-.12.77s-.13.5-.18.77c-.04.13-.09.27-.15.4-.06.13-.13.26-.2.4-.13.17-.27.37-.42.59-.16.22-.33.41-.53.58-.1.09-.19.17-.27.26s-.17.17-.27.26c-.2.17-.4.32-.62.45-.22.12-.43.18-.65.18-.14,0-.26.01-.34.05-.17.08-.33.12-.47.12l-.48-.02c-.26.04-.51.06-.75.07-.24.01-.48,0-.71-.06-.13-.05-.25-.05-.37-.01-.4.12-.76.13-1.09.02-.36-.01-.71-.02-1.05,0-.35,0-.68,0-1,0l-.7-.03c-.11,0-.2.01-.29.06-.17.08-.35.12-.55.11s-.38-.04-.54-.09l-.54-.02s-.09,0-.17.03c-.08.02-.15,0-.2-.04-.09-.05-.19-.06-.28-.04-.1.02-.2.05-.32.09-.07,0-.14,0-.2.03-.06.02-.13.03-.2.03-.34-.06-.69-.06-1.03,0s-.7.12-1.09.19Z"/><path class="cls-1" d="m251.87,363.98c-.7.06-1.18-.23-1.42-.86-.13-.27-.24-.57-.33-.89-.09-.32-.13-.65-.13-1.01,0-.63.04-1.27.09-1.91.05-.65.12-1.28.2-1.91.04-.49.13-.96.26-1.4.11-.49.21-.97.3-1.43s.2-.94.35-1.43l.25-.83c.09-.29.15-.57.2-.83.02-.18.05-.33.09-.47l.14-.47.57-1.89c.19-.64.36-1.27.52-1.9.11-.35.18-.68.24-.97.05-.29.07-.59.06-.91,0-.49.15-1.02.43-1.6.04-.13.08-.22.13-.26.16-.31.3-.62.41-.93.11-.31.19-.62.25-.93.03-.22.08-.44.15-.67l.18-.6c.11-.49.25-.99.42-1.5.17-.51.35-1.01.53-1.49.07-.13.13-.26.17-.4l.12-.4c.11-.49.26-.95.45-1.39.19-.44.36-.88.53-1.32.23-.53.46-1.05.68-1.55.22-.51.47-1.02.74-1.55.14-.22.25-.46.33-.73l.24-.8c.07-.22.12-.44.17-.67.05-.22.1-.42.15-.6l.12-.4c.04-.13.1-.26.17-.4.08-.13.13-.26.17-.4s.08-.22.13-.26c.16-.17.3-.33.42-.49.12-.15.27-.29.45-.42.22-.13.43-.25.63-.38.2-.13.39-.23.55-.32.2-.08.38-.19.53-.32.21-.22.42-.42.64-.61.22-.19.42-.42.61-.68.24-.21.51-.46.79-.74.28-.28.58-.5.88-.67.08-.04.22-.15.42-.32.57-.47,1.17-.76,1.78-.87.12-.04.23-.07.32-.09.1-.02.2-.03.3-.02l.43-.19c.33-.12.56-.04.69.23.03.13.09.26.18.38.09.12.18.22.26.31.19.32.37.66.53,1.03.16.37.28.77.36,1.22.14.72.24,1.45.3,2.17.05.72.09,1.46.12,2.22l.1,2.9c-.05.27-.03.51.05.74.09.68.1,1.36.03,2.05-.06.69-.13,1.4-.2,2.11,0,.09,0,.18,0,.27,0,.09-.03.18-.05.27-.04.36-.08.73-.14,1.1-.06.38-.16.75-.3,1.1-.08.4-.21.79-.38,1.16-.17.38-.34.74-.52,1.09-.24.44-.49.84-.74,1.22-.26.37-.53.75-.83,1.14-.15.26-.35.5-.59.72-.25.21-.48.41-.72.58-.34.17-.7.42-1.1.76-.1.09-.2.15-.3.19-.1.04-.2.1-.3.19-.29.12-.6.26-.93.4-.33.14-.66.28-.99.4-.04,0-.06.03-.08.1s-.02.12,0,.17l1.07,1.32c.14.14.26.27.37.38.11.12.22.24.32.38l.26.21c.33.33.66.68.98,1.05.32.37.62.74.91,1.11.58.61,1.15,1.22,1.72,1.85.57.63,1.09,1.31,1.55,2.05.43.6.77,1.29,1.01,2.06.07.14.13.29.19.44.06.16.15.29.26.38l.1.21c.38.64.45,1.5.2,2.56-.04.13-.09.27-.15.4-.06.13-.11.27-.15.4-.08.27-.22.49-.41.66-.17.08-.27.19-.31.32-.2.31-.42.51-.64.61-.23.1-.46.24-.69.41-.09.04-.22.06-.39.05-.2-.05-.41-.11-.63-.16-.22-.05-.43-.08-.65-.09-.29-.01-.54-.18-.77-.5-.15-.23-.28-.45-.4-.65-.12-.21-.22-.47-.31-.79-.22-.82-.61-1.57-1.16-2.26-.25-.37-.49-.71-.72-1.04-.23-.32-.5-.63-.81-.91-.2-.19-.38-.39-.55-.59-.17-.21-.37-.41-.61-.6-.67-.79-1.35-1.57-2.06-2.33-.71-.77-1.41-1.55-2.11-2.34-.1-.14-.22-.28-.36-.42-.14-.14-.28-.28-.41-.42-.05-.09-.13-.18-.24-.28-.14,0-.23.06-.27.19-.01.04-.03.08-.06.1-.03.02-.04.06-.06.1l-.12.4c-.04.13-.06.27-.07.4-.07.36-.16.7-.26,1.03s-.2.68-.31,1.03c-.08.27-.15.52-.2.76-.06.25-.11.5-.15.77-.04.13-.07.28-.1.43-.03.16-.06.3-.1.43-.16.4-.26.8-.31,1.2-.05.4-.12.8-.2,1.2l-.2,1.74c-.02.18-.04.37-.06.57-.03.2-.05.41-.08.64-.02.18-.06.35-.12.5-.07.16-.14.32-.23.5-.01.04-.07.11-.17.19-.19.04-.36.19-.51.45-.2.31-.44.58-.71.81-.27.24-.54.46-.83.67-.05.04-.13.08-.25.12-.12.04-.22.08-.31.12Zm9.09-23.19h.11c.42-.07.85-.15,1.29-.25.44-.09.89-.22,1.33-.38.43-.12.84-.35,1.24-.69.34-.3.57-.65.69-1.05.13-.31.23-.61.3-.9.07-.29.11-.59.14-.9.1-.8.17-1.6.23-2.38.05-.78.06-1.53.03-2.25v-1.61c.02-.45.03-.88.01-1.31-.02-.43-.05-.84-.11-1.25,0-.09-.02-.19-.02-.3,0-.11,0-.21-.02-.3l-.13-.27c-.05-.18-.18-.19-.37-.01-.04,0-.1.04-.2.13-.37.39-.72.8-1.05,1.24-.33.44-.59.92-.79,1.45-.09.18-.17.35-.24.53-.07.18-.14.38-.21.6l-.86,2.86c-.22.62-.43,1.26-.61,1.93-.18.67-.4,1.31-.66,1.93-.08.13-.12.26-.15.4-.02.13-.05.27-.09.4-.04.27-.1.52-.18.77l-.23.76c-.13.44-.17.71-.11.8.06.09.28.12.65.09Z"/><path class="cls-1" d="m281.67,364.28c-.21,0-.35-.04-.41-.08-.15-.1-.31-.14-.48-.12s-.34.02-.52.01c-.04,0-.08,0-.12.03-.04.02-.08.03-.12.03-.26.03-.51.05-.74.04s-.44-.06-.63-.16c-.02-.05-.05-.07-.09-.07-.26.03-.45-.06-.56-.29-.11-.23-.23-.43-.36-.62-.11-.23-.13-.48-.05-.74v-.54c-.01-.31.04-.6.15-.87.06-.09.1-.17.11-.27,0-.09.03-.18.05-.27,0-.09,0-.19.04-.3s.04-.21.04-.3c.05-.4.13-.81.24-1.23.11-.42.24-.83.4-1.23.11-.26.38-.71.78-1.35.41-.63.65-1.02.72-1.15.17-.22.28-.39.32-.52.11-.49.25-.99.42-1.5.17-.51.33-1.01.48-1.5.09-.31.22-.55.38-.73.24-.3.35-.64.35-.99l.06-.74c-.07-.5.08-.92.43-1.26.01-.04.03-.08.06-.1s.04-.05.06-.1c.1-.08.15-.21.16-.36.01-.16.03-.28.06-.37.05-.18.14-.36.25-.56.11-.2.18-.38.2-.56l-.07-.14c0-.09.04-.27.13-.53.1-.26.15-.42.17-.46l.56-1.86c.1-.22.18-.43.24-.63s.14-.41.24-.63c.12-.26.21-.54.28-.83.07-.29.15-.59.24-.9.03-.22.08-.47.14-.73.06-.27.13-.53.21-.8,0-.09,0-.2.05-.33l.1-.33c.03-.22.07-.45.12-.67.05-.22.11-.44.17-.67.03-.09.04-.39.06-.91.01-.52.09-.95.23-1.3.06-.09.11-.2.15-.33s.04-.24,0-.34c-.06-.05-.07-.14-.03-.27l.06-.2c.27-.53.37-1.06.32-1.6-.06-.27-.04-.54.08-.8.11-.35.06-.62-.14-.81-.11-.23-.19-.5-.24-.82-.05-.32-.05-.63.01-.94.03-.22.08-.44.15-.67l.18-.6c.05-.18.1-.29.15-.33.2-.17.33-.38.4-.62s.15-.43.22-.56c.05-.04.09-.06.13-.06s.08-.02.13-.06c.15-.04.27-.19.35-.46-.02-.18,0-.34.03-.47.02-.18.12-.33.3-.46.12-.17.23-.22.31-.12.21.14.51.11.9-.1.17-.08.27-.12.31-.12h.16s.16-.05.34-.05c.2.05.42-.03.67-.24.34-.3.69-.44,1.05-.43l3.32.13c.81.08,1.63.11,2.46.1.83-.01,1.64,0,2.43.03.18,0,.33,0,.46-.01.13-.02.27-.05.43-.08.25-.12.52-.18.81-.17l1.23.05c.29.01.55.01.79,0,.24-.01.49-.04.75-.07.15-.04.3-.06.42-.05l.4.02.43.02c.14,0,.29-.01.45-.05.3-.03.61-.05.94-.06.33,0,.63,0,.92,0,.14,0,.28,0,.41-.02.13-.02.27-.05.43-.08.31-.08.61-.12.88-.13.27-.01.54-.03.81-.07.3-.03.59-.07.87-.1.28-.03.55-.07.82-.1.32.01.54.07.66.16.16.19.32.35.48.49.16.14.29.33.4.55.09.18.13.34.13.48-.02.18-.04.36-.05.54-.02.18-.04.38-.07.6l-.14.47c-.1.22-.2.45-.29.69-.09.24-.19.5-.31.76-.13.17-.26.33-.41.45l-1.32,1.16c-.4.12-.77.19-1.12.23-.35.03-.7.02-1.04-.04h-.37c-.19.02-.38.04-.55.03s-.35-.04-.52-.09c-.2-.05-.41-.07-.63-.06-.22.01-.44.02-.65,0-.14,0-.28,0-.41.02-.13.02-.26,0-.39-.05-.17-.05-.33-.07-.5-.05-.17.02-.35.04-.54.08-.14,0-.3,0-.47.02-.17.02-.34.02-.52.01-.49.07-1,.1-1.51.08s-1.04,0-1.56.07c-.31-.06-.62-.06-.92,0-.31.06-.63.1-.96.13-.3.03-.61.04-.93.03s-.64.02-.95.1c-.36-.01-.72.03-1.09.13-.37.1-.74.16-1.11.19l-.39.05c-.25,0-.49.01-.73.07-.23.06-.49.13-.77.21-.16.04-.31.07-.46.08-.15.02-.32.04-.51.08-.11,0-.25.04-.41.12-.12.04-.21.17-.28.39l-.02.6c0,.09-.07.31-.23.66s-.29.62-.37.79c-.04.13-.06.27-.07.4,0,.13,0,.27-.01.4,0,.36-.06.75-.19,1.17s-.21.81-.24,1.17c-.02.18-.06.37-.12.57s-.11.41-.14.63c-.03.09-.05.19-.06.3-.02.11-.04.23-.08.37s-.09.22-.13.26c-.16.17-.27.37-.34.59l-.2.66c.04.45,0,.9-.13,1.34l-.4,1.33c-.04.13.04.18.23.14h.05c.12-.17.24-.3.33-.39.11,0,.25-.04.41-.12.13-.08.29-.12.47-.12.27.06.54.06.81,0,.27-.06.54-.12.82-.2,1.84-.47,3.61-1.09,5.33-1.88.46-.21.93-.38,1.4-.52.47-.14.93-.22,1.37-.25h.16c.33-.02.67-.06,1-.09.33-.03.66-.04.98-.03.44-.03.88-.08,1.32-.15.44-.07.88-.12,1.32-.15.28-.08.53-.15.77-.21.23-.06.5-.15.79-.27.53-.2.99-.3,1.38-.28.27.06.52.14.73.26.22.12.42.27.62.46.4.46.47,1.14.2,2.03-.11.35-.24.71-.4,1.06-.16.35-.29.71-.4,1.06-.03.09-.09.18-.19.26l-.26.33c-.09.18-.18.35-.27.53-.09.18-.22.31-.39.39-.28.21-.57.44-.88.67-.31.24-.61.39-.93.47-.16.04-.3.08-.44.12-.14.04-.28.06-.42.05-.57-.02-1.16,0-1.78.06-.62.07-1.24.13-1.87.2-.48.03-.95.08-1.42.15-.47.07-.94.1-1.4.08-.43-.02-.94.08-1.54.28-.38.08-.79.15-1.2.22-.42.07-.83.12-1.24.15-.3.03-.61.08-.93.13-.32.05-.63.1-.93.13l-.97.16c-.09.04-.2.06-.34.05-.28.08-.55.14-.81.17-.26.03-.53.09-.81.17-.26.03-.52.09-.78.17-.26.08-.53.16-.8.24-.19.04-.36.11-.5.22-.14.11-.27.25-.4.42-.08.13-.12.26-.12.4-.02.18-.09.36-.21.53-.1.45-.2.89-.32,1.33-.12.44-.26.89-.43,1.33-.04.36-.12.71-.24,1.07-.13.36-.26.71-.4,1.06-.23.53-.35.97-.35,1.33-.07.58-.28,1.18-.65,1.79-.15.26-.21.44-.16.53.03.14-.02.29-.14.47l-.12.4c-.14.35-.07.54.21.55h.11c.25.01.47.13.65.37.11.23.31.3.58.22l1.56-.14c.23-.03.45-.06.67-.07.22-.01.44-.02.65,0,.08-.04.18-.01.3.08.14.14.29.17.46.09.1-.09.22-.15.35-.19.14-.04.26-.1.35-.19.29-.26.59-.33.88-.23.26.1.5.09.72-.04.36-.12.68-.15.95-.1.16.05.35.04.56-.04.2-.08.4-.12.58-.11.07,0,.12.02.15.04.03.02.07.01.12-.03.07,0,.15-.02.23-.06.08-.04.14-.06.18-.06.29-.12.53-.16.74-.11h.27c.16-.03.29-.02.4.03.11.05.21.12.29.21.16.05.3.12.39.22.1.09.21.17.34.21.07,0,.12.03.14.07.12.18.3.35.53.49.23.14.33.3.32.48,0,.27-.05.53-.12.77s-.13.5-.18.77c-.04.13-.09.27-.15.4-.06.13-.13.26-.2.4-.13.17-.27.37-.42.59-.16.22-.33.41-.53.58-.1.09-.19.17-.27.26s-.17.17-.27.26c-.2.17-.4.32-.62.45-.22.12-.43.18-.65.18-.14,0-.26.01-.34.05-.17.08-.33.12-.47.12l-.48-.02c-.26.04-.51.06-.75.07-.24.01-.48,0-.71-.06-.13-.05-.25-.05-.37-.01-.4.12-.76.13-1.09.02-.36-.01-.71-.02-1.05,0-.35,0-.68,0-1,0l-.7-.03c-.11,0-.2.01-.29.06-.17.08-.35.12-.55.11s-.38-.04-.54-.09l-.54-.02s-.09,0-.17.03c-.08.02-.15,0-.2-.04-.09-.05-.19-.06-.28-.04-.1.02-.2.05-.32.09-.07,0-.14,0-.2.03-.06.02-.13.03-.2.03-.34-.06-.69-.06-1.03,0s-.7.12-1.09.19Z"/><path class="cls-1" d="m335.5,366.6s-.08-.01-.12-.04c-.05-.02-.11-.04-.18-.04-.25,0-.39-.15-.42-.42-.05-.32-.11-.59-.19-.81-.08-.23-.17-.45-.28-.68-.11-.23-.19-.48-.24-.75-.05-.27-.08-.54-.11-.81-.04-.23-.03-.45.04-.67l.2-.66c.07-.22.13-.45.18-.7.05-.24.1-.48.13-.7.03-.36.09-.74.15-1.14s.12-.78.15-1.14c.03-.09.05-.19.06-.3.01-.11.04-.21.06-.3.11-.49.21-.99.29-1.5.08-.51.16-1.01.24-1.5.16-.89.31-1.77.44-2.64.13-.87.28-1.73.42-2.57l.34-2.21c.07-.36.08-.74.02-1.14-.07-.5-.07-1.03,0-1.61.04-.27.07-.52.07-.77,0-.25,0-.5.02-.77.03-.45.05-.89.08-1.34.03-.45.07-.89.13-1.34.07-.36.12-.71.16-1.07.03-.36.07-.71.11-1.07l.22-1.81c.03-.09.03-.16,0-.2.15-.62.27-1.26.36-1.9.09-.65.17-1.28.25-1.91.07-.36.16-.79.26-1.3s.21-.92.34-1.23l.2-.66c.26-.62.59-1.19,1-1.71.47-.61,1.08-1.08,1.83-1.41.2-.08.4-.14.6-.18.19-.04.36-.07.52-.11.4-.03.76.04,1.07.21.31.17.6.39.88.67.08.09.14.21.17.34.04.23.09.45.15.68.06.23.06.47.02.74,0,.27,0,.54,0,.81,0,.27.03.52.07.74.04.45.03.92-.05,1.41-.08.49-.15.98-.23,1.47-.09.67-.25,1.38-.48,2.13l-.1.33c-.06.45-.16.88-.28,1.3l-.39,1.3c-.18.71-.33,1.41-.47,2.1-.14.69-.28,1.41-.44,2.17l-.62,3.14-.04.13c-.08.49-.15.99-.21,1.51-.06.51-.15,1.01-.26,1.5-.12.76-.23,1.53-.34,2.31-.11.78-.24,1.55-.4,2.3l-.52,2.81c-.06.45-.13.89-.21,1.34-.08.45-.15.89-.21,1.34-.06.45-.13.88-.2,1.3s-.14.86-.2,1.3c-.02.18-.04.35-.07.5-.03.16-.07.32-.12.5-.16.67-.45,1.31-.85,1.92-.09.18-.23.35-.43.52-.22.26-.4.43-.53.52-.39.34-.72.71-.98,1.11-.01.04-.06.11-.14.2-.08.09-.17.17-.27.26-.2.17-.42.25-.67.24Z"/><path class="cls-1" d="m125.89,439.35c-.25,0-.52-.13-.81-.37-.14-.14-.23-.32-.27-.55,0-.13-.09-.14-.27-.01-.13.08-.22.08-.27-.01-.07-.14-.15-.23-.24-.28-.14,0-.19-.08-.15-.21s.05-.24.05-.33c.04-.13.04-.24,0-.34-.19-.1-.26-.32-.23-.68,0-.13,0-.26,0-.37,0-.11-.02-.24-.05-.37-.02-.18,0-.34.03-.47,0-.13.01-.26.03-.37.01-.11,0-.24-.02-.37.06-.31.07-.6.05-.87s-.03-.56,0-.88c-.02-.18.02-.42.11-.73.24-.8.57-1.53.98-2.18.3-.39.47-.79.52-1.19.02-.18.08-.35.19-.53s.17-.35.19-.53c.02-.18.04-.33.06-.47.02-.13.06-.29.11-.47,0-.09,0-.2.05-.33l.25-.83c.09-.29.14-.59.16-.9,0-.13.05-.33.13-.6l.74-2.46c.14-.58.26-1.16.36-1.73.1-.58.19-1.16.25-1.74.04-.13.07-.27.09-.4.02-.13.05-.27.09-.4.29-.97.45-1.93.49-2.87l.18-.6c.22-.48.3-.86.23-1.13.02-.18.07-.42.17-.73l.02-.07c.13-.44.26-.89.37-1.33.11-.44.26-.89.43-1.33.31-.8.56-1.64.76-2.53l.32-1.06c.11-.35.19-.69.25-1l.12-.4c.14-.22.23-.42.29-.59l.16-.53c.16-.53.31-1.05.44-1.56.13-.51.24-1.01.32-1.5l.13-.43c.05-.16.07-.3.08-.43.09-.31.08-.58-.03-.81l-.25-.41c-.28-.28-.38-.71-.32-1.29,0-.09,0-.17.02-.23s.02-.14.02-.23c0-.22.09-.42.29-.59.16-.17.28-.35.37-.52.04-.13.09-.24.15-.33.11-.13.2-.26.28-.39.07-.13.16-.28.25-.46.11-.13.18-.17.2-.13.25,0,.44-.03.58-.11.32-.21.6-.25.84-.1.06.05.17.03.34-.05.03,0,.06-.02.07-.06.24-.21.48-.33.7-.34.22-.01.45,0,.69.06.03,0,.07.01.1.04.03.03.06.04.1.04.26.1.51.19.76.27.25.08.5.1.77.06.18,0,.36.04.54.09.18.05.36.08.54.09.14,0,.27.03.38.08.11.05.21.1.31.15.13.05.24.11.32.18.09.07.2.11.34.11.16.05.3.1.41.15.11.05.23.12.34.21.37.33.75.63,1.13.92.17.14.32.33.43.55.18.23.36.37.52.42.04,0,.07.01.1.04.03.02.06.04.1.04.02.05.05.07.09.07s.06.03.09.07c.11.23.28.4.52.53.23.12.41.3.52.53.04.09.12.18.24.28.25.14.44.35.57.63.04.09.08.14.12.14.14,0,.27.12.38.35l.68,1.51c.09.18.15.34.18.48.08.32.19.61.33.89.13.27.27.55.4.82.04.09.09.2.15.31.06.11.08.24.08.37,0,.09.04.17.09.24.05.07.08.15.09.24.23.55.45,1.12.65,1.71.2.59.37,1.2.5,1.84.08.32.15.66.18,1.02.04.36.05.72.06,1.08.01.31.04.63.07.95.03.32.05.63.07.94-.04.49-.05.94-.03,1.34-.03.58-.05,1.14-.07,1.68-.02.54-.07,1.12-.15,1.74l-.1.87c-.11.35-.21.72-.3,1.1-.1.38-.2.77-.32,1.17-.05.18-.11.33-.17.46-.06.13-.15.29-.27.46-.15.26-.26.51-.33.73-.17.44-.38.86-.62,1.25-.25.39-.49.77-.74,1.11-.53.7-1.03,1.4-1.5,2.09-.13.17-.24.34-.34.49-.1.15-.21.32-.34.49l-.56.78c-.44.61-.91,1.21-1.43,1.79-.52.59-1.05,1.14-1.61,1.65-.21.22-.44.42-.7.61-.26.19-.51.4-.75.61-.48.39-.95.76-1.42,1.12-.47.36-.96.71-1.45,1.05-.45.3-.9.57-1.36.82s-.92.46-1.4.62c-.23.04-.48.16-.76.37-.27.17-.54.34-.83.51-.29.17-.59.36-.9.57-.12.04-.24.09-.37.15-.13.06-.27.11-.43.15-.12.04-.25.08-.39.12-.14.04-.27.08-.39.12-.16.04-.31.1-.46.18-.15.08-.3.19-.45.32-.32.21-.64.39-.97.53-.33.14-.67.32-1.03.53-.09.04-.22.06-.39.05-.12.04-.23.05-.33.02s-.2-.04-.31-.05l-.02.07h-.32Zm4.38-7.36c.36.01.69-.06.99-.23.32-.12.64-.27.94-.43.3-.17.59-.36.88-.57l.88-.77c.46-.34.91-.7,1.33-1.09.42-.39.86-.73,1.31-1.02l.15-.13c.2-.17.38-.33.55-.48s.34-.31.5-.49c.1-.09.22-.19.37-.32.15-.13.25-.24.31-.32.24-.3.51-.56.83-.77.22-.13.37-.25.44-.39.14-.22.3-.43.49-.65.19-.22.38-.41.58-.58.26-.26.56-.65.9-1.18l.41-.66c.4-.61.68-1.18.84-1.72.08-.13.15-.33.23-.6.24-.66.41-1.37.53-2.13.03-.22.06-.45.09-.67.03-.22.07-.42.13-.6.02-.18.04-.35.07-.5.03-.16.03-.3,0-.44-.02-.18-.02-.36,0-.54.02-.18.03-.36.05-.54.09-.31.14-.59.14-.84,0-.25,0-.5.02-.77-.03-.27-.05-.55-.07-.84-.02-.29-.02-.59,0-.91l.03-.27c-.05-.18-.08-.37-.07-.57,0-.2,0-.39-.02-.57-.02-.4-.04-.81-.04-1.21,0-.4-.04-.79-.11-1.15-.06-.41-.13-.81-.2-1.22-.08-.41-.21-.77-.4-1.09-.49-1.14-1.13-2.17-1.94-3.1-.47-.6-1-1-1.59-1.21-.22-.1-.49-.19-.79-.27-.3-.08-.59-.15-.86-.2-.11,0-.21.04-.31.12-.23.17-.39.39-.47.65-.09.31-.2.63-.32.96-.12.33-.23.68-.34,1.03-.12.62-.29,1.13-.51,1.53-.09.18-.17.35-.24.53-.07.18-.12.38-.15.6,0,.27-.1.51-.27.73-.19.26-.27.55-.26.86.04.36-.06.8-.29,1.33-.27.53-.43,1.06-.48,1.59-.02.18-.05.36-.08.54-.04.18-.1.38-.21.6-.15.49-.27.98-.36,1.47-.09.49-.2.98-.31,1.47-.03.09-.03.22-.01.4l-.32,1.06c-.03.09-.07.19-.12.3-.05.11-.07.21-.06.3-.04.36-.08.73-.14,1.1-.06.38-.11.75-.14,1.1-.03.09-.04.19-.04.3,0,.11-.02.23-.06.37-.09.31-.17.62-.23.93-.06.31-.12.65-.19,1-.27,1.25-.49,2.52-.66,3.81-.05.54-.17,1.09-.34,1.67l-.13.43c-.05.16-.07.3-.08.43-.02.31-.08.63-.17.93l-.28.93c-.03.09-.07.2-.13.33-.06.13-.08.24-.07.33,0,.22-.02.44-.08.64l-.19.63c-.05.18-.09.4-.09.67-.07.22,0,.34.22.34Z"/><path class="cls-1" d="m152.9,440.82c-.7.06-1.18-.23-1.42-.86-.13-.27-.24-.57-.33-.89-.09-.32-.13-.65-.13-1.01,0-.63.04-1.27.09-1.91.05-.65.12-1.28.2-1.91.04-.49.13-.96.26-1.4.11-.49.21-.97.3-1.43s.2-.94.35-1.43l.25-.83c.09-.29.15-.57.2-.83.02-.18.05-.33.09-.47l.14-.47c.19-.62.38-1.25.57-1.89s.36-1.27.52-1.9c.11-.35.18-.68.24-.97.05-.29.07-.59.06-.91,0-.49.15-1.02.43-1.6.04-.13.08-.22.13-.26.16-.31.3-.62.41-.93.11-.31.19-.62.25-.93.03-.22.08-.44.15-.67l.18-.6c.11-.49.25-.99.42-1.5.17-.51.35-1.01.53-1.49.07-.13.13-.26.17-.4l.12-.4c.11-.49.26-.95.45-1.39.19-.44.36-.88.53-1.32.23-.53.46-1.05.68-1.55.22-.51.47-1.02.74-1.55.14-.22.25-.46.33-.73l.24-.8c.07-.22.12-.44.17-.67.05-.22.1-.42.15-.6l.12-.4c.04-.13.1-.26.17-.4.08-.13.13-.26.17-.4s.08-.22.13-.26c.16-.17.3-.33.42-.49.12-.15.27-.29.45-.42.22-.13.43-.25.63-.38.2-.13.39-.23.55-.32.2-.08.38-.19.53-.32.21-.22.42-.42.64-.61.22-.19.42-.42.61-.68.24-.21.51-.46.79-.74.28-.28.58-.5.88-.67.08-.04.22-.15.42-.32.57-.47,1.17-.76,1.78-.87.12-.04.23-.07.32-.09.1-.02.2-.03.3-.02l.43-.19c.33-.12.56-.04.69.23.03.13.09.26.18.38.09.12.18.22.26.31.19.32.37.66.53,1.03.16.37.28.77.36,1.22.14.72.24,1.45.3,2.17.05.72.09,1.46.12,2.22l.1,2.9c-.05.27-.03.51.05.74.09.68.1,1.36.03,2.05-.06.69-.13,1.4-.2,2.11,0,.09,0,.18,0,.27,0,.09-.03.18-.05.27-.04.36-.08.73-.14,1.1-.06.38-.16.75-.3,1.1-.08.4-.21.79-.38,1.16-.17.38-.34.74-.52,1.09-.24.44-.49.84-.74,1.22-.26.37-.53.75-.83,1.14-.15.26-.35.5-.59.72-.25.21-.48.41-.72.58-.34.17-.7.42-1.1.76-.1.09-.2.15-.3.19-.1.04-.2.1-.3.19-.29.12-.6.26-.93.4-.33.14-.66.28-.99.4-.04,0-.06.03-.08.1s-.02.12,0,.17l1.07,1.32c.14.14.26.27.37.38.11.12.22.24.32.38l.26.21c.33.33.66.68.98,1.05.32.37.62.74.91,1.11.58.61,1.15,1.22,1.72,1.85.57.63,1.09,1.31,1.55,2.05.43.6.77,1.29,1.01,2.06.07.14.13.29.19.44.06.16.15.29.26.38l.1.21c.38.64.45,1.5.2,2.56-.04.13-.09.27-.15.4-.06.13-.11.27-.15.4-.08.27-.22.49-.41.66-.17.08-.27.19-.31.32-.2.31-.42.51-.64.61-.23.1-.46.24-.69.41-.09.04-.22.06-.39.05-.2-.05-.41-.11-.63-.16-.22-.05-.43-.08-.65-.09-.29-.01-.54-.18-.77-.5-.15-.23-.28-.45-.4-.65-.12-.21-.22-.47-.31-.79-.22-.82-.61-1.57-1.16-2.26-.25-.37-.49-.71-.72-1.04-.23-.32-.5-.63-.81-.91-.2-.19-.38-.39-.55-.59-.17-.21-.37-.41-.61-.6-.67-.79-1.35-1.57-2.06-2.33-.71-.77-1.41-1.55-2.11-2.34-.1-.14-.22-.28-.36-.42-.14-.14-.28-.28-.41-.42-.05-.09-.13-.18-.24-.28-.14,0-.23.06-.27.19-.01.04-.03.08-.06.1-.03.02-.04.06-.06.1l-.12.4c-.04.13-.06.27-.07.4-.07.36-.16.7-.26,1.03l-.31,1.03c-.08.27-.15.52-.2.76-.06.25-.11.5-.15.77-.04.13-.07.28-.1.43-.03.16-.06.3-.1.43-.16.4-.26.8-.31,1.2-.05.4-.12.8-.2,1.2l-.2,1.74c-.02.18-.04.37-.06.57-.03.2-.05.41-.08.64-.02.18-.06.35-.12.5-.07.16-.14.32-.23.5-.01.04-.07.11-.17.19-.19.04-.36.19-.51.45-.2.31-.44.58-.71.81-.27.24-.54.46-.83.67-.05.04-.13.08-.25.12-.12.04-.22.08-.31.12Zm9.09-23.19h.11c.42-.07.85-.15,1.29-.25.44-.09.89-.22,1.33-.38.43-.12.84-.35,1.24-.69.34-.3.57-.65.69-1.05.13-.31.23-.61.3-.9.07-.29.11-.59.14-.9.1-.8.17-1.6.23-2.38.05-.78.06-1.53.03-2.25v-1.61c.02-.45.03-.88.01-1.31-.02-.43-.05-.84-.11-1.25,0-.09-.02-.19-.02-.3,0-.11,0-.21-.02-.3l-.13-.27c-.05-.18-.18-.19-.37-.01-.04,0-.1.04-.2.13-.37.39-.72.8-1.05,1.24-.33.44-.59.92-.79,1.45-.09.18-.17.35-.24.53-.07.18-.14.38-.21.6l-.86,2.86c-.22.62-.43,1.26-.61,1.93-.18.67-.4,1.31-.66,1.93-.08.13-.12.26-.15.4-.02.13-.05.27-.09.4-.04.27-.1.52-.18.77l-.23.76c-.13.44-.17.71-.11.8.06.09.28.12.65.09Z"/><path class="cls-1" d="m197.38,446.13c-.32-.01-.56-.18-.72-.5-.03-.14-.06-.27-.09-.41-.03-.13-.06-.27-.09-.41-.04-.94.09-1.93.4-2.94l.32-1.6c.08-.62.18-1.25.29-1.87.11-.62.17-1.23.17-1.81l.02-1.14c.03-.09.04-.18.05-.27,0-.09,0-.18,0-.27l.26-3.56c0-.09,0-.2.02-.34.02-.13.01-.25-.03-.34-.03-.27-.02-.55,0-.84.03-.29.06-.59.08-.91.03-.22.06-.43.08-.64.02-.2.03-.41.03-.64,0-.27-.01-.44-.06-.51-.05-.07-.22-.06-.49.01-.19.04-.39.06-.59.08-.2.02-.41.06-.61.14-.16.04-.34.07-.54.08-.2.02-.4.04-.59.08l-.81.17c-.19.04-.4.09-.61.14-.22.06-.41.08-.59.08l-1.02.16c-.31.08-.64.15-.99.23-.35.08-.68.15-.99.23-.94.23-1.85.4-2.75.5-.31.08-.52.23-.62.45-.04,0-.06.02-.07.06-.43.7-.88,1.39-1.35,2.07s-.96,1.36-1.46,2.06c-.13.17-.24.34-.34.49-.1.15-.21.32-.34.49-.06.09-.13.19-.2.29-.07.11-.14.21-.2.3-.31.3-.53.67-.66,1.12-.12.26-.26.52-.44.76s-.36.47-.53.69c-.08.13-.17.19-.27.19-.16.04-.32.1-.49.18-.17.08-.36.17-.56.25-.12.04-.23.04-.32-.01-.06-.05-.12-.11-.19-.18-.07-.07-.14-.11-.21-.11-.38-.06-.58-.36-.6-.9-.07-.72-.05-1.44.05-2.15.02-.18.07-.33.17-.46s.18-.26.25-.39c.27-.17.45-.36.55-.58l.02-.07c.17-.58.43-1.12.78-1.62.35-.5.67-.99.96-1.48.15-.26.32-.53.51-.79.19-.26.37-.52.56-.79.24-.3.44-.6.62-.88.17-.28.34-.58.51-.89.21-.35.31-.68.3-1,0-.27.05-.52.12-.77s.17-.5.28-.76c.15-.49.42-.9.81-1.25.21-.22.42-.4.62-.55.21-.15.41-.31.61-.48.44-.39.85-.91,1.23-1.57.32-.57.61-1.15.88-1.75.27-.59.54-1.18.82-1.75.24-.57.49-1.14.75-1.69.26-.55.52-1.09.78-1.62.1-.22.21-.43.32-.63.11-.2.21-.38.3-.56.21-.35.42-.69.63-1.02.21-.33.38-.67.52-1.02.12-.17.17-.33.14-.47.03-.22.1-.42.21-.6.11-.17.2-.35.29-.53.2-.31.37-.61.52-.92.15-.31.32-.61.52-.92.35-.57.65-1.04.89-1.41.24-.37.48-.8.74-1.28.15-.26.31-.51.47-.75.16-.24.3-.49.42-.76.23-.4.44-.8.64-1.22.2-.42.36-.83.48-1.23.18-.35.32-.59.43-.72.31-.44.65-.8,1.01-1.1.36-.3.71-.6,1.06-.9.22-.13.43-.22.63-.28.2-.06.37-.02.5.12.12.09.19.14.23.14.33-.03.58.07.72.3s.25.5.3.82c.04.09.06.2.06.34,0,.13,0,.25,0,.34.07.36.05.72-.05,1.07-.05.18-.09.37-.12.57-.02.2-.05.41-.08.64.03.27.15.41.36.42.05-.04.08-.04.11,0,.02.05.03.09.01.14.1.27.07.56-.1.87-.18.35-.29.7-.34,1.03s-.09.68-.12,1.04c0,.45.02.9.03,1.35,0,.45.02.9.03,1.35.03.5.06.99.1,1.48.03.5.05.99.04,1.48,0,.63,0,1.26,0,1.88,0,.63.05,1.26.11,1.89l-.06.74c-.02.18-.03.36-.03.54,0,.18,0,.36-.03.54.03.13.05.27.07.41s.04.25.09.34c.08.32.09.66.02,1.01-.03.45.01.85.12,1.22.03.14.12.21.26.21.56-.07,1.12-.12,1.68-.17.56-.04,1.13-.15,1.72-.3.43-.12.83-.17,1.18-.15.68.03,1.22.34,1.61.94.48.69.58,1.55.31,2.57-.07.22-.1.4-.11.53-.09.31-.24.55-.43.72-.08.13-.18.26-.31.39-.13.13-.25.26-.36.39-.13.17-.24.3-.33.39l-.42.32c-.06.09-.15.19-.25.29-.11.11-.22.18-.34.22-.16.04-.32.09-.48.15-.16.06-.33.09-.51.08-.67.06-1.23.02-1.69-.13l-.86-.03c-.07,0-.19.04-.36.12-.17.08-.27.19-.31.32l-.08.27c-.01.4-.06.82-.13,1.24-.07.42-.09.82-.06,1.17-.05.18-.07.36-.05.54.06.41.08.82.06,1.25-.02.43-.06.86-.12,1.31-.03.09-.04.27-.05.54.01.31,0,.64-.02.97-.03.33-.08.68-.15,1.04-.08.27-.1.51-.06.74.02.4,0,.81-.04,1.21-.05.4-.12.83-.22,1.27.02.05.02.13-.02.23s-.05.21-.04.3c.03.5,0,1.02-.1,1.58-.1.56-.17,1.1-.22,1.64,0,.27-.05.55-.12.84-.07.29-.15.59-.24.9-.07.22-.19.46-.38.72l-.22.19c-.23.03-.4.19-.51.45l-.28.39c-.13.17-.27.28-.42.32-.14,0-.29.06-.43.18-.2.17-.42.25-.67.24l-.51-.02c-.2,0-.39,0-.58.04Zm-5.64-24.64c.23-.03.46-.07.71-.11.25-.04.52-.07.82-.1.19-.04.44-.07.74-.11.3-.03.58-.07.84-.1.28-.08.54-.12.8-.14.26-.01.52-.04.78-.07.24-.08.47-.13.69-.14s.44-.04.67-.08c.35-.08.54-.29.57-.65.07-.36.12-.72.14-1.1.02-.38-.05-.71-.22-.98-.05-.09-.04-.22.01-.4l.06-.2c.03-.36.06-.7.07-1.04.01-.34,0-.66,0-.98.03-.36.05-.68.05-.97,0-.29-.01-.59-.02-.91l.08-2.42c-.01-.31-.02-.63-.01-.94,0-.31.02-.63.04-.94l-.08-.27h-.16s-.17.19-.17.19c-.38.66-.78,1.31-1.22,1.97-.43.66-.85,1.36-1.26,2.1-.03.09-.08.2-.15.33-.08.13-.15.26-.23.39-.28.44-.56.92-.84,1.45-.29.53-.54,1.05-.77,1.58-.13.31-.26.61-.38.89-.12.29-.27.58-.43.89l-1.26,2.57s-.05.1,0,.17c.05.07.09.1.13.11Z"/><path class="cls-1" d="m236.8,443.44c-.2-.05-.41-.08-.62-.09s-.39-.08-.53-.22c-.25-.14-.43-.31-.56-.49-.24-.41-.42-.89-.54-1.43,0-.09-.01-.2,0-.34,0-.13-.02-.25-.06-.34-.02-.4-.05-.81-.07-1.21-.02-.4-.06-.81-.12-1.22-.06-.41-.12-.81-.18-1.22-.06-.41-.12-.81-.18-1.22-.06-.41-.12-.81-.18-1.22-.06-.41-.09-.83-.1-1.28l-.12-.68c-.05-.32-.1-.63-.15-.95-.05-.32-.06-.63-.04-.94,0-.13-.03-.34-.09-.61l-.18-1.02c-.01-.31-.04-.63-.07-.94-.03-.32-.1-.61-.2-.88l-.14-.61c-.22-1.17-.4-2.39-.53-3.65-.03-.27-.06-.54-.11-.81-.05-.27-.1-.54-.16-.81.02-.18,0-.34-.05-.47-.05-.14-.09-.27-.12-.41-.03-.14-.12-.14-.27-.01-.08.13-.15.25-.22.36-.07.11-.14.23-.22.36-.29.48-.56.96-.81,1.45-.25.48-.51.97-.76,1.45-.21.44-.42.86-.65,1.25-.23.4-.44.79-.63,1.19-.13.31-.26.61-.38.89-.12.29-.26.56-.41.82-.04.13-.09.26-.14.36-.05.11-.11.23-.19.36-.34.66-.64,1.33-.9,2.02-.26.69-.53,1.38-.82,2.09l-.12.4c-.02.18-.06.34-.11.47-.06.13-.12.26-.2.4-.21.35-.35.75-.41,1.19-.02.18-.04.36-.08.54-.04.18-.1.36-.19.53-.17.44-.33.87-.47,1.29-.15.42-.28.83-.4,1.23s-.29.8-.52,1.19c-.13.17-.25.28-.37.32-.2.17-.33.32-.41.45-.09.18-.21.31-.36.39-.15.08-.28.17-.37.25-.05.04-.11.06-.18.06-.11,0-.19.02-.23.06-.12.04-.23.08-.33.12-.1.04-.2.08-.28.12-.11,0-.22-.02-.34-.05-.12-.03-.23-.04-.34-.05-.38-.06-.64-.14-.8-.23-.15-.09-.32-.39-.49-.89,0-.13-.01-.26-.05-.37-.04-.11-.07-.24-.1-.37-.13-.41-.16-.86-.08-1.35.15-.62.24-1.25.27-1.87.03-.63.02-1.23-.02-1.82.02-.18.03-.36.03-.54,0-.18-.02-.34-.05-.47-.04-.72-.07-1.43-.09-2.12-.03-.7-.06-1.4-.09-2.12-.02-.04-.03-.09-.01-.13s0-.09-.01-.14c-.09-.41-.16-.82-.19-1.25-.03-.43-.07-.87-.12-1.32-.03-.49-.11-1.01-.24-1.56,0-.22-.03-.43-.06-.61-.04-.18-.06-.36-.08-.54,0-.09,0-.2.02-.34.02-.13.01-.24-.03-.34-.14-.5-.22-1.04-.24-1.62-.02-.58-.08-1.15-.17-1.69l-.23-1.22c-.04-.23-.09-.45-.15-.68-.06-.23-.11-.43-.17-.61-.04-.22-.09-.42-.15-.58-.06-.16-.1-.33-.12-.51-.06-.27-.13-.53-.2-.78-.07-.25-.12-.49-.16-.71-.06-.27-.13-.53-.2-.78-.07-.25-.14-.49-.22-.71-.1-.5-.16-.97-.17-1.42.03-.22.09-.42.18-.6.18-.35.34-.69.5-1.02s.31-.65.48-.96l.24-.26c.2-.17.38-.32.54-.45.16-.13.34-.26.52-.38.17-.08.27-.12.31-.12.45-.16.85-.24,1.2-.22s.68.14.97.37c.15.1.3.21.44.35.31.28.46.65.43,1.09,0,.22.02.45.04.67.02.23.02.45-.01.67,0,.94.13,1.84.38,2.71.14.5.28,1.07.41,1.7.06.05.09.12.1.21,0,.09.02.16.05.2.12.32.21.68.27,1.09.06.41.11.79.14,1.15.05.32.08.62.08.91,0,.29.01.59.02.91.05.81.07,1.62.08,2.43,0,.81.03,1.59.05,2.36,0,.27,0,.52.05.74.04.23.06.47.05.74.02.05.04.05.05,0,.07,0,.11-.02.13-.06.28-.35.49-.68.62-.99l1.12-2.11c.15-.26.3-.53.45-.79.15-.26.31-.55.47-.86.4-.61.75-1.23,1.04-1.84.14-.35.36-.73.66-1.12.17-.22.3-.46.38-.73l.36-.66c.45-.79.91-1.58,1.36-2.37.45-.79.93-1.53,1.43-2.23.19-.26.37-.51.55-.75.18-.24.36-.47.53-.69.12-.17.26-.33.41-.45.15-.13.3-.21.45-.25.21-.22.41-.34.6-.38.19-.04.38-.12.56-.25.05-.04.14-.06.29-.06.11,0,.22.05.33.15.15.1.32.08.5-.05.23-.17.38-.12.44.15.02.18.07.33.16.44.09.12.18.22.26.31.04.09.1.18.16.28.06.09.09.21.09.34l.63,3.86c.07.36.14.73.21,1.12.06.38.11.78.13,1.18.08.23.12.48.13.75,0,.27.02.56.03.88,0,.72.09,1.44.27,2.16.03.13.06.27.09.41.03.14.04.27.04.41.02.54.06,1.08.14,1.62.07.54.13,1.11.17,1.69,0,.09.02.2.03.34.01.13.02.25.03.34,0,.58.05,1.16.13,1.72.08.56.17,1.12.26,1.66,0,.09.06.23.15.41.07,0,.11-.02.13-.06.05-.04.14-.15.26-.33.23-.4.45-.78.67-1.15s.41-.76.56-1.16c.18-.35.33-.64.47-.86.39-.7.76-1.39,1.11-2.08.35-.68.7-1.37,1.06-2.08.15-.26.31-.54.46-.82.16-.29.31-.56.46-.82.49-.92.98-1.83,1.47-2.73.49-.9.96-1.81,1.42-2.74l1.64-3.3c.15-.26.23-.53.24-.8,0-.22.07-.4.21-.53.21-.22.39-.46.54-.72.15-.26.3-.5.43-.72.24-.44.53-.92.87-1.45.07-.13.17-.26.28-.39.11-.13.21-.26.28-.39.22-.26.43-.41.62-.45.13-.08.26-.16.39-.22.13-.06.25-.11.37-.15.05-.04.1-.06.15-.06s.1-.02.15-.06c.2-.08.41-.13.61-.14.2-.01.4-.09.58-.21.27-.17.51-.14.73.1.21.28.36.53.48.76.13.27.16.68.07,1.21,0,.13-.03.27-.07.4l-.12.4c-.37.97-.81,1.92-1.34,2.84-.15.26-.31.54-.46.82-.16.29-.31.56-.46.82-.01.04-.04.1-.08.17-.04.07-.07.14-.1.23-.25.71-.55,1.41-.91,2.12-.36.7-.72,1.38-1.1,2.04-.32.57-.61,1.14-.89,1.71-.28.57-.58,1.14-.89,1.71-.06.09-.13.21-.19.36-.07.16-.15.28-.24.36-.19.26-.34.54-.46.82-.12.29-.27.59-.43.89-.09.18-.17.34-.23.49-.07.16-.16.32-.28.49-.25.48-.51.98-.77,1.48-.26.51-.5,1-.72,1.48l-1.16,2.24c-.09.18-.17.34-.23.5-.07.16-.14.32-.23.5-.04.13-.09.26-.15.4-.06.13-.13.29-.22.46-.12.26-.24.54-.38.83-.14.29-.28.58-.4.89-.13.31-.26.61-.38.89-.12.29-.26.61-.4.96-.05.18-.12.35-.19.53-.07.18-.14.38-.21.6l-.58,1.39c-.13.44-.28.86-.43,1.26-.16.4-.34.82-.54,1.26-.06.09-.11.2-.15.33l-.1.33c-.12.4-.29.71-.49.92-.08.13-.17.26-.28.39-.11.13-.22.26-.33.39l-.37.32c-.12.04-.25.11-.39.22-.14.11-.28.2-.41.29-.25.12-.51.18-.76.17Z"/><path class="cls-1" d="m291.37,448.88h-.27c-.11-.01-.22-.03-.34-.06-.12-.03-.25-.04-.39-.05-.26.03-.45-.03-.57-.19-.11-.16-.23-.36-.34-.58-.04-.09-.1-.2-.15-.31-.06-.11-.13-.2-.22-.24-.06-.05-.1-.16-.11-.34l-.03-.34c-.01-.14-.04-.27-.07-.41,0-.22.05-.47.17-.73.07-.13.14-.25.19-.36.05-.11.1-.23.14-.36l.39-1.3c.13-.42.22-.85.28-1.3,0-.13.03-.28.08-.43s.08-.32.1-.5c.09-.31.15-.55.17-.73.07-.22.12-.42.15-.6.03-.18.08-.35.13-.53.06-.31.13-.6.21-.87s.13-.56.15-.87l.06-.2c.17-.58.32-1.14.43-1.7.11-.56.26-1.12.43-1.7.08-.27.12-.47.13-.6.08-.4.18-.81.29-1.23.11-.42.23-.85.36-1.3l.37-1.23c.13-.42.21-.83.26-1.23,0-.09,0-.2.05-.34l.1-.33c.55-1.82,1.09-3.63,1.64-5.45.55-1.82,1.1-3.61,1.67-5.38.07-.22.14-.44.23-.66.08-.22.16-.44.23-.66.04-.13.09-.27.15-.4.06-.13.1-.24.13-.33.15-.49.31-.99.48-1.5.17-.51.35-1.01.53-1.49.11-.13.16-.31.16-.53-.02-.05-.07-.07-.14-.07l-.22.19c-.11.13-.24.26-.39.39-.15.13-.28.26-.39.39-.22.26-.46.53-.7.81-.25.28-.51.57-.78.88-.41.52-.84,1.06-1.29,1.6-.45.54-.84,1.12-1.17,1.74-.06.09-.13.19-.2.29-.07.11-.14.21-.2.3-.28.44-.56.86-.85,1.28-.29.41-.58.86-.86,1.34-.39.57-.85,1.09-1.39,1.56-.1.09-.18.13-.25.12-.22.13-.45.24-.7.34-.25.1-.49.13-.73.07h-.32c-.35.06-.59-.04-.72-.31-.22-.1-.38-.26-.48-.49-.09-.23-.19-.48-.29-.75-.08-.23-.11-.5-.11-.81,0-.31.05-.63.15-.94,0-.09,0-.2.05-.34l.1-.33c0-.09-.02-.19-.02-.3,0-.11,0-.19.02-.23.03-.09.03-.22.01-.4-.02-.18-.05-.54-.11-1.08-.05-.54-.09-.79-.1-.74-.04-.22-.07-.47-.1-.74-.03-.27-.08-.52-.15-.75l-.1-.74c-.07,0-.12-.03-.14-.07l-.07.07-.12.4c-.04.13-.06.27-.07.4-.08.49-.19.98-.33,1.47s-.33.97-.55,1.46c-.08.27-.13.49-.15.67,0,.09-.02.25-.09.47-.08.27-.15.53-.21.8-.06.27-.15.53-.27.8-.1.22-.18.45-.24.7-.06.25-.1.48-.13.7l-.2.66c-.15.26-.24.55-.26.86-.03.22-.09.46-.18.7-.09.24-.15.48-.18.7-.07.22-.19.51-.37.86-.53,1.06-.79,2.08-.76,3.06-.02.18-.03.35-.04.5-.01.16-.06.32-.15.5l-.12.4c-.04.13-.06.27-.07.4.02.18,0,.36-.05.54-.11.49-.2.87-.26,1.13-.06.27-.1.47-.1.6-.08.49-.15.99-.24,1.5-.08.51-.16,1.01-.24,1.5-.1.58-.19,1.15-.27,1.71-.08.56-.2,1.13-.38,1.7-.05.18-.08.31-.07.4-.04.36-.11.72-.22,1.1s-.21.74-.28,1.1c-.15.49-.35.86-.61,1.12-.13.17-.19.28-.21.33-.57.83-1.29,1.29-2.15,1.39-.12.04-.23.06-.34.05h-.32c-.42.06-.68-.04-.78-.31-.05-.09-.1-.14-.17-.14-.19.04-.33-.1-.42-.42-.04-.23-.14-.43-.3-.62-.07-.14-.09-.36-.07-.68,0-.09,0-.18,0-.27,0-.09.03-.18.05-.27.15-.62.28-1.23.39-1.84.11-.6.23-1.19.37-1.77l.15-.67c.02-.18.05-.34.09-.47s.07-.29.09-.47l.12-.4c.08-.62.22-1.26.41-1.9s.4-1.27.62-1.89c.15-.4.3-.81.42-1.23s.27-.83.42-1.23l.46-1.53.21-.7c.07-.24.12-.48.16-.7.04-.27.11-.53.19-.8l.24-.8.92-3.06c.07-.36.16-.72.28-1.1l.33-1.1.13-.43c.05-.15.07-.3.08-.43.07-.22.12-.43.16-.63.04-.2.07-.39.09-.57l.14-.47c.05-.4.13-.79.24-1.17l.35-1.16.33-1.1c.11-.38.18-.72.2-1.03,0-.13.03-.27.07-.4l.12-.4.27-.9c.09-.29.14-.59.16-.9,0-.09.02-.24.09-.47l1-3.32.19-.63c.06-.2.08-.39.06-.57.03-.45.2-.96.51-1.53.14-.22.26-.37.35-.46.11-.13.22-.26.33-.39.11-.13.2-.26.28-.39.11-.13.18-.19.22-.19.16-.04.29-.1.41-.19.12-.08.22-.17.32-.26l.38-.19c.08-.04.2-.06.34-.05.16.05.34.09.53.12.19.03.37.07.53.12.21,0,.34.13.38.35.08.32.17.64.26.95.08.32.13.66.13,1.01.01.31.08.59.19.81.11.36.21.73.32,1.09.11.36.23.73.38,1.09.07.14.12.3.15.48.03.18.06.36.08.54.08.32.16.62.24.92.07.3.15.6.24.92l.32,1.63c.02.18.04.35.06.51.02.16.05.31.08.44,0,.22.1.25.3.08.21-.22.43-.44.67-.68.23-.24.46-.46.66-.68.47-.47.94-.97,1.42-1.49.48-.52.97-1.02,1.48-1.49l.5-.59c.38-.43.75-.86,1.11-1.27.36-.41.71-.83,1.06-1.27.4-.48.77-.96,1.11-1.44.34-.48.66-.96.95-1.44l1.18-1.77c.37-.52.81-.95,1.31-1.29.69-.51,1.34-.69,1.95-.53.24.06.44.14.63.26.18.12.36.23.55.32.19.1.27.3.25.62.03.14.04.27.04.41,0,.13-.03.27-.07.4-.06.31-.09.59-.09.84,0,.25-.03.53-.09.84l-.15.67c-.05.4-.09.8-.12,1.21-.03.4-.07.81-.12,1.21l-.04.13c-.1.45-.18.88-.26,1.3-.07.42-.19.86-.36,1.3l-.46,1.53-.2.66c-.07.22-.15.44-.25.66-.13.31-.24.61-.32.9l-.27.9c-.09.18-.16.35-.21.53s-.13.35-.21.53c-.09.18-.16.34-.2.5l-.17.56-.56,1.86c-.09.31-.19.6-.29.86-.1.27-.21.55-.34.86-.09.18-.16.34-.2.5l-.15.5-1.22,4.06c-.09.31-.18.62-.25.93-.08.31-.14.62-.2.93-.03.22-.08.46-.16.7l-.21.7c-.06.31-.13.61-.22.9s-.17.61-.24.97l-.22.73c-.07.36-.16.72-.28,1.1l-.33,1.1-.26.86c-.02.31-.09.65-.19,1s-.2.71-.27,1.07l-.14.47c0,.27-.05.54-.13.8s-.14.53-.19.8l-.56,2.4c-.02.18-.04.35-.07.5-.03.16-.07.32-.12.5-.02.18-.05.35-.1.5s-.08.32-.1.5c-.01.04-.03.11-.03.2,0,.09-.03.18-.05.27-.09.31-.17.64-.22,1-.05.36-.12.71-.19,1.07l-.35,1.87c-.08.27-.15.44-.21.53-.12.26-.27.52-.47.76-.2.24-.37.47-.5.69-.01.04-.04.07-.07.06-.33.26-.65.48-.96.67-.31.19-.62.32-.93.4Z"/><path class="cls-1" d="m313.06,450.2c-.12.04-.23.05-.33.02-.1-.03-.19-.04-.26-.04-.35-.15-.61-.43-.78-.84-.14-.37-.25-.79-.32-1.29.02-.18.03-.36.03-.54,0-.18.03-.36.08-.54l.14-.47c.07-.49.18-.98.31-1.47.13-.49.27-.98.41-1.46.19-.62.38-1.24.59-1.86.2-.62.4-1.24.59-1.86.09-.31.18-.55.27-.73.29-.84.56-1.73.8-2.66.03-.22.08-.47.14-.73.06-.27.13-.53.21-.8.18-.49.33-.97.44-1.46.11-.49.2-.98.28-1.47l.18-1.14c.03-.09.05-.19.06-.3.01-.11.03-.19.04-.23.11-1.34.08-2.55-.1-3.64-.06-.41-.12-.82-.19-1.25-.07-.43-.13-.87-.17-1.32-.05-.45-.04-.91,0-1.38.05-.47.11-.93.17-1.37.03-.09.07-.2.13-.33.06-.13.11-.27.15-.4.08-.27.17-.54.28-.83.1-.29.2-.59.3-.9s.09-.56,0-.74l-.16-.54c-.08-.23-.13-.46-.16-.71-.03-.25-.09-.49-.16-.71l-.29-1.02c-.06-.27-.14-.54-.24-.82-.1-.27-.19-.57-.28-.89-.05-.09-.09-.19-.12-.31-.04-.11-.1-.19-.2-.24-.13-.05-.2-.16-.22-.34-.07-.14-.13-.34-.19-.61-.08-.45-.17-.92-.26-1.39-.09-.47-.18-.94-.26-1.39l-.08-.27c-.07-.85-.12-1.72-.17-2.6-.04-.88-.06-1.74-.06-2.59-.02-.4,0-.85.08-1.34.04-.27.07-.53.08-.8,0-.27,0-.51-.05-.74-.04-.22-.04-.45.01-.67.05-.22.11-.44.17-.67.04-.13.11-.26.2-.4s.18-.26.25-.39c.17-.22.35-.42.54-.62.18-.19.37-.38.57-.55.24-.21.47-.32.69-.31.11,0,.18-.01.23-.06.34-.17.65-.2.92-.1.28.1.52.22.73.36.09.05.16.13.2.24.04.11.08.22.12.31l.23,1.22c.04.09.05.2,0,.34,0,.13,0,.26,0,.37,0,.11,0,.24,0,.37.05.68.09,1.34.13,1.99.04.65.07,1.31.08,1.99,0,.58.02,1.16.05,1.72.03.56.09,1.11.18,1.65.02.54.08,1.06.18,1.55.1.5.21,1,.31,1.49.09.18.15.39.19.61.04.23.1.45.17.68l.15.41c.18.37.3.55.38.55s.29-.19.66-.58c.21-.22.41-.44.61-.68.2-.24.39-.44.59-.62.42-.43.82-.84,1.21-1.23.39-.39.77-.78,1.14-1.17.56-.56,1.24-1.12,2.02-1.67.33-.26.65-.54.96-.84.37-.39.74-.67,1.12-.83.3-.17.59-.35.87-.54.27-.19.54-.37.81-.54.29-.26.59-.47.9-.64.18-.13.36-.27.53-.42s.34-.31.5-.48c.11-.13.23-.25.35-.36.12-.11.25-.2.38-.29l.93-.57c.08-.04.15-.07.19-.09.04-.02.09-.05.14-.1.07,0,.13,0,.17-.03.04-.02.08-.03.12-.03.2-.08.39-.14.57-.18.17-.04.35-.05.53-.05.17.14.35.28.52.42.17.14.3.33.37.55.06.05.11.07.17.07s.09.03.11.07c.02.05.03.09.01.14s-.06.12-.12.23c-.07.11-.11.19-.12.23s.01.07.09.07.12.03.14.07c.02.05.05.07.09.07s.04.05.01.14c-.14.35-.22.73-.23,1.13.03.14.03.27-.01.4s-.1.27-.17.4l-1.18,1.57c-.09.18-.22.31-.39.39-.71.56-1.38.98-2.01,1.27-.72.24-1.36.57-1.93,1-.23.17-.46.33-.68.48-.23.15-.46.33-.71.54-.1.09-.23.17-.4.25l-.42.32c-.55.52-1.09,1.02-1.62,1.52s-1.07,1-1.62,1.52c-.13.18-.24.26-.35.26-.22.13-.43.3-.64.51-.29.35-.58.68-.9,1.01-.31.32-.59.71-.83,1.14l-.52.65s-.1.1-.16.16c-.06.07-.12.14-.18.23-.24.3-.35.64-.35,1,.04.09.07.2.09.34s.02.27.01.4c.04.23-.05.45-.25.66-.09.04-.15.15-.21.33.02.18.01.31-.01.4,0,.27-.1.51-.27.73-.13.17-.19.28-.21.33-.12.26-.17.51-.17.73.02.18.03.39.05.64.01.25.06.49.14.71.05.45.1.88.15,1.28.06.41.09.83.1,1.28l-.14,2.62c-.05.4-.12.81-.21,1.24-.09.42-.18.83-.26,1.23-.04.27-.09.52-.12.77-.04.25-.11.5-.23.77-.22.98-.49,1.94-.79,2.89-.31.95-.6,1.92-.9,2.89-.03.09-.07.18-.13.26-.18.49-.35.99-.51,1.53s-.33,1.04-.51,1.53c-.09.31-.18.62-.25.93-.08.31-.17.64-.27,1-.04.13-.05.22-.03.27,0,.22-.01.46-.05.7-.04.24-.07.48-.1.7-.02.18-.05.35-.1.5s-.13.32-.26.49c-.2.31-.3.64-.3,1-.01.04-.09.11-.22.19-.07,0-.15.02-.23.06-.04,0-.1.04-.2.13-.03.09-.06.15-.11.2-.1.22-.33.48-.67.78-.21.22-.45.39-.72.51-.27.12-.53.22-.77.31Z"/><path class="cls-1" d="m104.29,521.58l-.85-.24c-.44-.11-.88-.21-1.34-.32s-.93-.19-1.41-.26c-.5-.02-.95-.22-1.34-.59-.37-.33-.55-.83-.52-1.5.03-.22.05-.45.07-.67.01-.22.03-.45.07-.67.16-.53.37-.93.63-1.19.24-.21.46-.43.65-.65.19-.22.38-.41.58-.58.1-.09.19-.15.27-.19.08-.04.17-.08.25-.12.22-.13.43-.22.62-.28.2-.06.39-.11.59-.14.08-.04.15-.05.2-.03.05.02.09.04.12.04.16.05.35.09.56.12.21.03.39.09.54.19l2.13.49c.47.11.94.04,1.42-.21.17-.08.33-.17.48-.25.15-.08.29-.17.43-.25.96-.54,1.82-1.12,2.57-1.72.57-.47,1.13-.94,1.67-1.41.54-.47,1.06-.99,1.55-1.55.37-.39.65-.79.85-1.21.2-.42.35-.85.44-1.29v-.54c.03-.22.01-.4-.05-.54s-.13-.3-.18-.48c-.15-.23-.28-.48-.4-.76-.12-.27-.26-.5-.42-.69-.38-.55-.75-1.08-1.12-1.59-.37-.51-.75-1.01-1.14-1.52,0-.09-.09-.18-.24-.28-.24-.28-.46-.59-.67-.93-.2-.35-.4-.68-.59-1-.22-.46-.49-.89-.8-1.31-.17-.14-.3-.37-.39-.69-.08-.23-.22-.46-.44-.69-.2-.19-.37-.41-.51-.66-.14-.25-.28-.49-.43-.72l-.46-.83c-.08-.23-.16-.44-.26-.65-.1-.21-.21-.42-.32-.65,0-.22-.05-.41-.13-.54-.09-.14-.15-.3-.21-.48,0-.09-.03-.19-.07-.3-.04-.11-.06-.24-.05-.37-.05-.54-.12-1.08-.19-1.62-.07-.54-.11-1.1-.12-1.69,0-.36,0-.71.02-1.04.01-.34.03-.66.05-.97.07-.36.1-.68.1-.97,0-.29,0-.59.03-.91.07-.49.14-.97.19-1.44.05-.47.11-.93.17-1.37l.05-.54c.11-.49.25-.95.42-1.4.26-.62.53-1.17.82-1.65.3-.53.66-.94,1.08-1.24.46-.34.93-.68,1.39-1.02.46-.34.92-.61,1.38-.82.07,0,.13-.02.18-.06.46-.34.93-.58,1.41-.72.47-.14.95-.27,1.41-.38,1.9-.55,3.8-.95,5.72-1.19l.54.02,1.02.04c.32.01.67,0,1.04-.03.43.02.84.09,1.23.22.4.13.75.31,1.08.55.23.19.46.39.69.6.23.21.43.43.61.66.21.28.3.57.28.89l.02.47c.06.41.03.82-.08,1.24-.11.42-.27.85-.47,1.29-.04.13-.09.28-.16.43-.07.16-.12.3-.16.43-.4.97-1,1.71-1.8,2.22-.53.43-1.1.59-1.71.47-.12-.09-.2-.05-.25.12s-.17.26-.35.26h-.32c-.21-.02-.39-.16-.52-.44-.11-.23-.15-.41-.11-.54.05-.18.16-.31.33-.39,0-.22-.02-.43-.03-.61-.02-.18-.05-.32-.09-.41-.04-.23-.15-.39-.34-.48-.17-.05-.33-.1-.49-.15-.17-.05-.33-.1-.5-.15-.14,0-.3-.02-.47-.05-.17-.03-.34-.07-.51-.12-.09-.05-.26-.03-.5.05-.12.04-.24.07-.35.09-.11.02-.24,0-.36-.05h-.35c-.13-.02-.27.02-.44.1l-1.08.16c-.61.11-1.24.36-1.9.73-.12.04-.24.08-.36.12-.12.04-.23.04-.32-.01-.2-.05-.4,0-.6.18-.06.09-.16.14-.29.16-.13.02-.25.07-.34.16-.2.17-.32.35-.37.52,0,.09-.01.23-.07.4l-.1,4.1c0,.72.08,1.38.24,1.99.16.61.35,1.21.57,1.81.34.91.74,1.69,1.19,2.33l1.17,1.86c.24.41.5.8.78,1.17.29.37.55.74.8,1.11.39.51.77,1.03,1.16,1.56.38.53.76,1.07,1.14,1.63.29.46.58.91.87,1.35.28.44.53.91.74,1.41.14.36.29.73.43,1.09.14.36.24.77.28,1.22.1.5.14,1.08.12,1.75-.04.85-.19,1.65-.45,2.4-.06.09-.12.22-.17.4-.16.53-.36,1.03-.58,1.49-.23.46-.51.93-.83,1.41-.31.44-.64.88-.97,1.34-.34.46-.7.9-1.08,1.34-.53.56-1.06,1.09-1.59,1.59-.53.5-1.1.98-1.71,1.45-.33.26-.66.52-1,.8-.34.28-.68.52-1.03.73-.23.17-.46.33-.69.48-.23.15-.45.31-.69.48-.17.08-.35.19-.53.32-.18.13-.37.25-.55.38-.2.17-.41.31-.64.41-.23.1-.45.19-.65.28l-1.79.74c-.36.12-.71.2-1.04.23-.33.03-.67.02-1.02-.04Z"/><path class="cls-1" d="m132.04,519.71h-.37c-.11-.02-.23-.05-.36-.1-.07,0-.15-.02-.23-.04-.08-.03-.16-.04-.23-.04-.56-.07-1.05-.22-1.49-.46-.43-.24-.85-.53-1.26-.86-.04,0-.06-.01-.07-.04-.01-.02-.04-.04-.07-.04-.29-.24-.52-.51-.7-.83-.17-.32-.34-.64-.5-.96-.15-.45-.22-.88-.21-1.29-.04-.36-.1-.74-.2-1.15-.21-.5-.29-1.13-.24-1.89,0-.36,0-.72,0-1.08,0-.36.02-.74.07-1.14,0-.13.01-.28.02-.44.01-.16,0-.32-.01-.5,0-.22,0-.47.03-.74s.04-.54.05-.8c.02-.18.06-.48.14-.9.07-.42.12-.68.15-.77l.86-2.86c.12-.26.23-.52.34-.76.11-.24.22-.5.34-.76l.07-.06s-.01.07,0,.07.02.02,0,.07c.04,0,.05.02.03.07.02.05.05.03.07-.06.08-.27.13-.49.15-.67.03-.09.04-.18.05-.27,0-.09.09-.15.25-.19.04,0,.07-.06.11-.2l1.36-2.91c.1-.22.2-.43.3-.63.09-.2.19-.38.28-.56l.33-.73c-.06.09.01-.07.22-.46.21-.4.35-.66.43-.79.14-.22.3-.44.49-.65.19-.22.32-.37.38-.46.41-.39.84-.93,1.3-1.63l1.62-1.95c.2-.17.33-.39.41-.66.03-.22.16-.46.38-.73.19-.26.38-.52.59-.78.2-.26.42-.52.64-.78.28-.35.6-.7.95-1.07.34-.37.67-.7.98-1,.11-.13.23-.26.36-.39.13-.13.27-.21.43-.25.07,0,.13-.02.18-.06.05-.04.1-.08.15-.13.99-.9,2.06-1.73,3.19-2.5.1-.08.2-.17.29-.26.1-.08.19-.15.27-.19.22-.13.43-.18.65-.18.18,0,.33,0,.45-.05.11,0,.28-.03.52-.11.28-.08.46-.03.55.16.13.27.46.38.99.31.33-.03.54.2.6.7.03.13.05.27.07.41s.06.25.14.34c.03.27.1.52.23.75.13.23.23.46.31.69l.34,1.22c.03.13.07.28.11.44.04.16.08.31.11.44.11.23.15.45.12.68,0,.22.02.37.06.44s.01.28-.06.64c-.02.18-.04.28-.06.3-.03.02.03.04.18.04s.18.12.11.34c-.15.49-.35.91-.59,1.25-.11.13-.19.19-.25.19s-.13.04-.23.13c-.17.22-.36.43-.55.65-.19.22-.4.46-.62.72-.17.22-.37.41-.58.58-.21.17-.44.34-.67.51-.39.34-.77.46-1.14.36-.32-.01-.55-.04-.68-.09-.09-.05-.18-.11-.24-.18-.07-.07-.15-.13-.24-.18-.07,0-.13-.05-.17-.14,0-.09-.02-.17-.04-.24-.02-.07-.05-.12-.11-.17-.14-.14-.23-.31-.28-.52-.05-.2-.08-.4-.1-.58,0-.13.03-.27.07-.4l.1-.33c.04-.27.1-.53.16-.8.06-.27.1-.53.11-.8.03-.09-.05-.14-.23-.14-.27.17-.54.34-.8.51-.27.17-.53.38-.79.64l-2.4,2.4c-.15.13-.29.27-.42.42-.14.15-.26.29-.37.42-.21.22-.41.44-.61.68-.2.24-.42.47-.67.68-.1.09-.18.17-.24.26-.2.31-.4.59-.61.85-.21.26-.41.57-.63.92-.31.44-.61.91-.88,1.41-.28.51-.53,1.02-.76,1.55-.24.66-.54,1.32-.92,1.98-.1.22-.21.46-.33.73-.12.26-.23.53-.35.79-.16.4-.33.8-.52,1.19-.19.4-.34.82-.43,1.26-.2.89-.34,1.74-.44,2.54-.03.45-.06.88-.1,1.31-.04.42-.07.86-.1,1.31,0,.13,0,.27-.01.4,0,.13,0,.27-.01.4.03.63.27,1.13.74,1.51.17.14.39.22.64.23.21,0,.42.03.63.06.21.03.42.03.65,0,1.04-.09,2.03-.26,2.96-.49.42-.07.83-.19,1.24-.36.41-.16.82-.33,1.23-.49.32-.12.65-.31.98-.57.37-.25.74-.52,1.13-.8.39-.28.77-.56,1.15-.86.38-.3.76-.6,1.14-.9.38-.3.75-.62,1.1-.97.15-.13.35-.28.62-.45.13-.08.27-.17.4-.25.13-.08.25-.17.35-.26.22-.13.43-.25.63-.38.2-.13.41-.19.62-.18.13-.08.27-.13.4-.15.13-.02.26-.04.38-.09.36-.12.65-.11.86.03.09.05.19.1.28.15.09.05.18.12.26.21.22.23.38.6.48,1.1.02.54-.03,1.01-.15,1.41l-.12.4c-.17.58-.51,1.08-1,1.51-.58.61-1.14,1.08-1.67,1.41-.3.17-.63.4-.97.7-.46.34-.94.7-1.44,1.09-.49.38-.99.75-1.49,1.08l-.29.26c-.13.08-.27.19-.42.32s-.31.24-.47.32c-.34.3-.71.57-1.11.8-.39.23-.79.45-1.17.66-.37.16-.76.42-1.15.76-.15.13-.29.26-.44.39-.15.13-.31.24-.47.32-.56.29-1.19.58-1.89.87-.05.04-.12.09-.2.13-.09.04-.17.08-.25.12-.25.12-.51.22-.76.27-.25.06-.49.1-.72.14-.3.03-.59.05-.89.07-.29.01-.59.05-.91.13Z"/><path class="cls-1" d="m170.98,525.82c-.32-.01-.56-.18-.72-.5-.03-.14-.06-.27-.09-.41-.03-.13-.06-.27-.09-.41-.04-.94.09-1.93.4-2.94l.32-1.6c.08-.62.18-1.25.29-1.87.11-.62.17-1.23.17-1.81l.02-1.14c.03-.09.04-.18.05-.27,0-.09,0-.18,0-.27l.26-3.56c0-.09,0-.2.02-.34.02-.13.01-.25-.03-.34-.03-.27-.02-.55,0-.84.03-.29.06-.59.08-.91.03-.22.06-.43.08-.64.02-.2.03-.41.03-.64,0-.27-.01-.44-.06-.51-.05-.07-.22-.06-.49.01-.19.04-.39.06-.59.08-.2.02-.41.06-.61.14-.16.04-.34.07-.54.08-.2.02-.4.04-.59.08l-.81.17c-.19.04-.4.09-.61.14-.22.06-.41.08-.59.08l-1.02.16c-.31.08-.64.15-.99.23-.35.08-.68.15-.99.23-.94.23-1.85.4-2.75.5-.31.08-.52.23-.62.45-.04,0-.06.02-.07.06-.43.7-.88,1.39-1.35,2.07s-.96,1.36-1.46,2.06c-.13.17-.24.34-.34.49-.1.15-.21.32-.34.49-.06.09-.13.19-.2.29-.07.11-.14.21-.2.3-.31.3-.53.67-.66,1.12-.12.26-.26.52-.44.76s-.36.47-.53.69c-.08.13-.17.19-.27.19-.16.04-.32.1-.49.18-.17.08-.36.17-.56.25-.12.04-.23.04-.32-.01-.06-.05-.12-.11-.19-.18-.07-.07-.14-.11-.21-.11-.38-.06-.58-.36-.6-.9-.07-.72-.05-1.44.05-2.15.02-.18.07-.33.17-.46s.18-.26.25-.39c.27-.17.45-.36.55-.58l.02-.07c.17-.58.43-1.12.78-1.62.35-.5.67-.99.96-1.48.15-.26.32-.53.51-.79.19-.26.37-.52.56-.79.24-.3.44-.6.62-.88.17-.28.34-.58.51-.89.21-.35.31-.68.3-1,0-.27.05-.52.12-.77s.17-.5.28-.76c.15-.49.42-.9.81-1.25.21-.22.42-.4.62-.55.21-.15.41-.31.61-.48.44-.39.85-.91,1.23-1.57.32-.57.61-1.15.88-1.75.27-.59.54-1.18.82-1.75.24-.57.49-1.14.75-1.69.26-.55.52-1.09.78-1.62.1-.22.21-.43.32-.63.11-.2.21-.38.3-.56.21-.35.42-.69.63-1.02.21-.33.38-.67.52-1.02.12-.17.17-.33.14-.47.03-.22.1-.42.21-.6.11-.17.2-.35.29-.53.2-.31.37-.61.52-.92.15-.31.32-.61.52-.92.35-.57.65-1.04.89-1.41.24-.37.48-.8.74-1.28.15-.26.31-.51.47-.75.16-.24.3-.49.42-.76.23-.4.44-.8.64-1.22.2-.42.36-.83.48-1.23.18-.35.32-.59.43-.72.31-.44.65-.8,1.01-1.1.36-.3.71-.6,1.06-.9.22-.13.43-.22.63-.28.2-.06.37-.02.5.12.12.09.19.14.23.14.33-.03.58.07.72.3s.25.5.3.82c.04.09.06.2.06.34,0,.13,0,.25,0,.34.07.36.05.72-.05,1.07-.05.18-.09.37-.12.57-.02.2-.05.41-.08.64.03.27.15.41.36.42.05-.04.08-.04.11,0,.02.05.03.09.01.14.1.27.07.56-.1.87-.18.35-.29.7-.34,1.03s-.09.68-.12,1.04c0,.45.02.9.03,1.35,0,.45.02.9.03,1.35.03.5.06.99.1,1.48.03.5.05.99.04,1.48,0,.63,0,1.26,0,1.88,0,.63.05,1.26.11,1.89l-.06.74c-.02.18-.03.36-.03.54,0,.18,0,.36-.03.54.03.13.05.27.07.41s.04.25.09.34c.08.32.09.66.02,1.01-.03.45.01.85.12,1.22.03.14.12.21.26.21.56-.07,1.12-.12,1.68-.17.56-.04,1.13-.15,1.72-.3.43-.12.83-.17,1.18-.15.68.03,1.22.34,1.61.94.48.69.58,1.55.31,2.57-.07.22-.1.4-.11.53-.09.31-.24.55-.43.72-.08.13-.18.26-.31.39-.13.13-.25.26-.36.39-.13.17-.24.3-.33.39l-.42.32c-.06.09-.15.19-.25.29-.11.11-.22.18-.34.22-.16.04-.32.09-.48.15-.16.06-.33.09-.51.08-.67.06-1.23.02-1.69-.13l-.86-.03c-.07,0-.19.04-.36.12-.17.08-.27.19-.31.32l-.08.27c-.01.4-.06.82-.13,1.24-.07.42-.09.82-.06,1.17-.05.18-.07.36-.05.54.06.41.08.82.06,1.25-.02.43-.06.86-.12,1.31-.03.09-.04.27-.05.54.01.31,0,.64-.02.97-.03.33-.08.68-.15,1.04-.08.27-.1.51-.06.74.02.4,0,.81-.04,1.21-.05.4-.12.83-.22,1.27.02.05.02.13-.02.23s-.05.21-.04.3c.03.5,0,1.02-.1,1.58-.1.56-.17,1.1-.22,1.64,0,.27-.05.55-.12.84-.07.29-.15.59-.24.9-.07.22-.19.46-.38.72l-.22.19c-.23.03-.4.19-.51.45l-.28.39c-.13.17-.27.28-.42.32-.14,0-.29.06-.43.18-.2.17-.42.25-.67.24l-.51-.02c-.2,0-.39,0-.58.04Zm-5.64-24.64c.23-.03.46-.07.71-.11.25-.04.52-.07.82-.1.19-.04.44-.07.74-.11.3-.03.58-.07.84-.1.28-.08.54-.12.8-.14.26-.01.52-.04.78-.07.24-.08.47-.13.69-.14s.44-.04.67-.08c.35-.08.54-.29.57-.65.07-.36.12-.72.14-1.1.02-.38-.05-.71-.22-.98-.05-.09-.04-.22.01-.4l.06-.2c.03-.36.06-.7.07-1.04.01-.34,0-.66,0-.98.03-.36.05-.68.05-.97,0-.29-.01-.59-.02-.91l.08-2.42c-.01-.31-.02-.63-.01-.94,0-.31.02-.63.04-.94l-.08-.27h-.16s-.17.19-.17.19c-.38.66-.78,1.31-1.22,1.97-.43.66-.85,1.36-1.26,2.1-.03.09-.08.2-.15.33-.08.13-.15.26-.23.39-.28.44-.56.92-.84,1.45-.29.53-.54,1.05-.77,1.58-.13.31-.26.61-.38.89-.12.29-.27.58-.43.89l-1.26,2.57s-.05.1,0,.17c.05.07.09.1.13.11Z"/><path class="cls-1" d="m202.62,526.12h-.27c-.11-.01-.22-.03-.34-.06-.12-.03-.25-.04-.39-.05-.26.03-.45-.03-.57-.19-.11-.16-.23-.36-.34-.58-.04-.09-.1-.2-.15-.31-.06-.11-.13-.2-.22-.24-.06-.05-.1-.16-.11-.34l-.03-.34c-.01-.14-.04-.27-.07-.41,0-.22.05-.47.17-.73.07-.13.14-.25.19-.36.05-.11.1-.23.14-.36l.39-1.3c.13-.42.22-.85.28-1.3,0-.13.03-.28.08-.43s.08-.32.1-.5c.09-.31.15-.55.17-.73.07-.22.12-.42.15-.6.03-.18.08-.35.13-.53.06-.31.13-.6.21-.87s.13-.56.15-.87l.06-.2c.17-.58.32-1.14.43-1.7.11-.56.26-1.12.43-1.7.08-.27.12-.47.13-.6.08-.4.18-.81.29-1.23.11-.42.23-.85.36-1.3l.37-1.23c.13-.42.21-.83.26-1.23,0-.09,0-.2.05-.34l.1-.33c.55-1.82,1.09-3.63,1.64-5.45.55-1.82,1.1-3.61,1.67-5.38.07-.22.14-.44.23-.66.08-.22.16-.44.23-.66.04-.13.09-.27.15-.4.06-.13.1-.24.13-.33.15-.49.31-.99.48-1.5.17-.51.35-1.01.53-1.49.11-.13.16-.31.16-.53-.02-.05-.07-.07-.14-.07l-.22.19c-.11.13-.24.26-.39.39-.15.13-.28.26-.39.39-.22.26-.46.53-.7.81-.25.28-.51.57-.78.88-.41.52-.84,1.06-1.29,1.6-.45.54-.84,1.12-1.17,1.74-.06.09-.13.19-.2.29-.07.11-.14.21-.2.3-.28.44-.56.86-.85,1.28-.29.41-.58.86-.86,1.34-.39.57-.85,1.09-1.39,1.56-.1.09-.18.13-.25.12-.22.13-.45.24-.7.34-.25.1-.49.13-.73.07h-.32c-.35.06-.59-.04-.72-.31-.22-.1-.38-.26-.48-.49-.09-.23-.19-.48-.29-.75-.08-.23-.11-.5-.11-.81,0-.31.05-.63.15-.94,0-.09,0-.2.05-.34l.1-.33c0-.09-.02-.19-.02-.3,0-.11,0-.19.02-.23.03-.09.03-.22.01-.4-.02-.18-.05-.54-.11-1.08-.05-.54-.09-.79-.1-.74-.04-.22-.07-.47-.1-.74-.03-.27-.08-.52-.15-.75l-.1-.74c-.07,0-.12-.03-.14-.07l-.07.07-.12.4c-.04.13-.06.27-.07.4-.08.49-.19.98-.33,1.47s-.33.97-.55,1.46c-.08.27-.13.49-.15.67,0,.09-.02.25-.09.47-.08.27-.15.53-.21.8-.06.27-.15.53-.27.8-.1.22-.18.45-.24.7-.06.25-.1.48-.13.7l-.2.66c-.15.26-.24.55-.26.86-.03.22-.09.46-.18.7-.09.24-.15.48-.18.7-.07.22-.19.51-.37.86-.53,1.06-.79,2.08-.76,3.06-.02.18-.03.35-.04.5-.01.16-.06.32-.15.5l-.12.4c-.04.13-.06.27-.07.4.02.18,0,.36-.05.54-.11.49-.2.87-.26,1.13-.06.27-.1.47-.1.6-.08.49-.15.99-.24,1.5-.08.51-.16,1.01-.24,1.5-.1.58-.19,1.15-.27,1.71-.08.56-.2,1.13-.38,1.7-.05.18-.08.31-.07.4-.04.36-.11.72-.22,1.1s-.21.74-.28,1.1c-.15.49-.35.86-.61,1.12-.13.17-.19.28-.21.33-.57.83-1.29,1.29-2.15,1.39-.12.04-.23.06-.34.05h-.32c-.42.06-.68-.04-.78-.31-.05-.09-.1-.14-.17-.14-.19.04-.33-.1-.42-.42-.04-.23-.14-.43-.3-.62-.07-.14-.09-.36-.07-.68,0-.09,0-.18,0-.27,0-.09.03-.18.05-.27.15-.62.28-1.23.39-1.84.11-.6.23-1.19.37-1.77l.15-.67c.02-.18.05-.34.09-.47s.07-.29.09-.47l.12-.4c.08-.62.22-1.26.41-1.9s.4-1.27.62-1.89c.15-.4.3-.81.42-1.23s.27-.83.42-1.23l.46-1.53.21-.7c.07-.24.12-.48.16-.7.04-.27.11-.53.19-.8l.24-.8.92-3.06c.07-.36.16-.72.28-1.1l.33-1.1.13-.43c.05-.15.07-.3.08-.43.07-.22.12-.43.16-.63.04-.2.07-.39.09-.57l.14-.47c.05-.4.13-.79.24-1.17l.35-1.16.33-1.1c.11-.38.18-.72.2-1.03,0-.13.03-.27.07-.4l.12-.4.27-.9c.09-.29.14-.59.16-.9,0-.09.02-.24.09-.47l1-3.32.19-.63c.06-.2.08-.39.06-.57.03-.45.2-.96.51-1.53.14-.22.26-.37.35-.46.11-.13.22-.26.33-.39.11-.13.2-.26.28-.39.11-.13.18-.19.22-.19.16-.04.29-.1.41-.19.12-.08.22-.17.32-.26l.38-.19c.08-.04.2-.06.34-.05.16.05.34.09.53.12.19.03.37.07.53.12.21,0,.34.13.38.35.08.32.17.64.26.95.08.32.13.66.13,1.01.01.31.08.59.19.81.11.36.21.73.32,1.09.11.36.23.73.38,1.09.07.14.12.3.15.48.03.18.06.36.08.54.08.32.16.62.24.92.07.3.15.6.24.92l.32,1.63c.02.18.04.35.06.51.02.16.05.31.08.44,0,.22.1.25.3.08.21-.22.43-.44.67-.68.23-.24.46-.46.66-.68.47-.47.94-.97,1.42-1.49.48-.52.97-1.02,1.48-1.49l.5-.59c.38-.43.75-.86,1.11-1.27.36-.41.71-.83,1.06-1.27.4-.48.77-.96,1.11-1.44.34-.48.66-.96.95-1.44l1.18-1.77c.37-.52.81-.95,1.31-1.29.69-.51,1.34-.69,1.95-.53.24.06.44.14.63.26.18.12.36.23.55.32.19.1.27.3.25.62.03.14.04.27.04.41,0,.13-.03.27-.07.4-.06.31-.09.59-.09.84,0,.25-.03.53-.09.84l-.15.67c-.05.4-.09.8-.12,1.21-.03.4-.07.81-.12,1.21l-.04.13c-.1.45-.18.88-.26,1.3-.07.42-.19.86-.36,1.3l-.46,1.53-.2.66c-.07.22-.15.44-.25.66-.13.31-.24.61-.32.9l-.27.9c-.09.18-.16.35-.21.53s-.13.35-.21.53c-.09.18-.16.34-.2.5l-.17.56-.56,1.86c-.09.31-.19.6-.29.86-.1.27-.21.55-.34.86-.09.18-.16.34-.2.5l-.15.5-1.22,4.06c-.09.31-.18.62-.25.93-.08.31-.14.62-.2.93-.03.22-.08.46-.16.7l-.21.7c-.06.31-.13.61-.22.9s-.17.61-.24.97l-.22.73c-.07.36-.16.72-.28,1.1l-.33,1.1-.26.86c-.02.31-.09.65-.19,1s-.2.71-.27,1.07l-.14.47c0,.27-.05.54-.13.8s-.14.53-.19.8l-.56,2.4c-.02.18-.04.35-.07.5-.03.16-.07.32-.12.5-.02.18-.05.35-.1.5s-.08.32-.1.5c-.01.04-.03.11-.03.2,0,.09-.03.18-.05.27-.09.31-.17.64-.22,1-.05.36-.12.71-.19,1.07l-.35,1.87c-.08.27-.15.44-.21.53-.12.26-.27.52-.47.76-.2.24-.37.47-.5.69-.01.04-.04.07-.07.06-.33.26-.65.48-.96.67-.31.19-.62.32-.93.4Z"/><path class="cls-1" d="m219.07,525.42c-.84.15-1.44-.19-1.81-1.01-.07-.14-.12-.3-.15-.48-.04-.18-.08-.36-.13-.54v-.54c0-.94.04-1.89.13-2.85.09-.96.23-1.93.41-2.91.09-.67.23-1.29.4-1.87.14-.58.27-1.16.39-1.73.12-.58.27-1.15.44-1.73l.25-.83c.09-.29.14-.59.16-.9l.04-.13c.11-.49.23-.99.37-1.5.13-.51.24-1.01.32-1.5l.76-3.07c.1-.44.19-.87.27-1.27.08-.4.16-.82.22-1.27.05-.18.09-.34.12-.5.03-.16.07-.32.12-.5l.32-1.06c.11-.35.19-.69.25-1,.02-.18.07-.42.17-.73l.64-2.13c.22-.62.39-1.24.51-1.86.11-.62.22-1.22.33-1.8l.6-3.61c0-.09,0-.2.05-.34l.1-.33.1-.33c.04-.13.05-.24.05-.33.04-.49.16-.95.36-1.37.2-.42.42-.85.66-1.29.05-.04.14-.15.26-.33.24-.21.47-.42.67-.61.2-.19.43-.35.68-.48.24-.08.46-.27.66-.58l.3-.46c.6-.78,1.32-1.32,2.16-1.6.05-.04.1-.06.15-.06s.1-.02.15-.06c.54-.25,1.03-.25,1.47-.01.16.05.33.11.49.19.16.07.3.16.41.25.21.14.4.3.57.46.17.16.36.32.57.46.52.42,1.05.84,1.58,1.24.53.4,1.06.79,1.6,1.17l1.15.85c.17.14.35.27.53.39.18.12.36.25.53.39l.37.22c.16.19.32.36.49.52.17.16.35.34.55.53.29.24.54.54.76.9.21.37.39.73.54,1.1.13.27.18.52.15.75,0,.36,0,.73,0,1.11s-.05.75-.12,1.11c.02.18-.04.38-.18.6-.2.31-.4.62-.58.95-.19.33-.37.67-.55,1.02-.5.83-1.12,1.57-1.86,2.21-.64.56-1.22,1.01-1.76,1.34-.22.13-.44.26-.66.41-.23.15-.45.29-.67.41-.49.3-.98.57-1.49.82-.51.25-1.02.45-1.54.61-.11,0-.21.04-.31.12-.41.16-.8.33-1.18.49-.37.16-.76.35-1.14.56-.39.21-.7.51-.92.91-.01.05-.03.08-.06.1-.03.02-.05.08-.08.16-.14.35-.35.66-.63.92-.28.26-.55.54-.82.84-.01.04-.04.07-.07.06s-.08.02-.13.06l-.76.37c-.21.08-.35.28-.45.59l-.17.56c-.06.2-.1.39-.12.57l-.23,1.47c-.05.18-.09.34-.12.5-.03.16-.09.34-.2.56-.11.35-.21.73-.31,1.13-.1.4-.19.78-.26,1.13-.02.18-.05.35-.1.5l-.15.5c-.07.22-.13.46-.18.7-.06.25-.1.48-.13.7-.01.04-.02.1-.02.17,0,.07-.02.15-.04.23-.2.53-.35,1.07-.46,1.63-.11.56-.23,1.1-.36,1.63l-.08.27c-.14.35-.26.72-.36,1.1-.1.38-.2.77-.32,1.16-.17.58-.25,1.07-.23,1.47.03.27-.02.54-.13.8-.12.26-.25.53-.4.79-.08.13-.16.27-.26.43-.1.15-.21.3-.32.42-.5.7-1.04,1.24-1.62,1.62-.27.17-.49.25-.67.24Zm9.38-29.03l.38-.19c.75-.46,1.5-.88,2.25-1.26.74-.37,1.5-.75,2.26-1.12l1.22-.63c.27-.17.52-.32.76-.44.24-.13.47-.27.7-.44.05-.04.13-.15.26-.33.04,0,.06-.02.07-.06s0-.07-.03-.07l-.1-.21c-.14-.14-.29-.29-.46-.45s-.34-.32-.51-.46c-.15-.09-.31-.21-.49-.36-.17-.14-.35-.28-.52-.42-.71-.52-1.4-1.04-2.08-1.56-.21-.14-.41-.27-.61-.39-.2-.12-.4-.25-.61-.39l-.17-.14c-.14,0-.23.06-.27.19-.09.18-.18.34-.26.49-.08.15-.17.32-.26.49l-.66,2.19c-.12.4-.23.8-.33,1.2-.1.4-.17.78-.21,1.14-.09.31-.17.63-.24.97-.06.33-.13.68-.2,1.03l-.16,1.07c.02.18.11.23.28.15Z"/><path class="cls-1" d="m245.95,527.15l-.85-.24c-.44-.11-.88-.21-1.34-.32s-.93-.19-1.41-.26c-.5-.02-.95-.22-1.34-.59-.37-.33-.55-.83-.52-1.5.03-.22.05-.45.07-.67.01-.22.03-.45.07-.67.16-.53.37-.93.63-1.19.24-.21.46-.43.65-.65.19-.22.38-.41.58-.58.1-.09.19-.15.27-.19.08-.04.17-.08.25-.12.22-.13.43-.22.62-.28.2-.06.39-.11.59-.14.08-.04.15-.05.2-.03.05.02.09.04.12.04.16.05.35.09.56.12.21.03.39.09.54.19l2.13.49c.47.11.94.04,1.42-.21.17-.08.33-.17.48-.25.15-.08.29-.17.43-.25.96-.54,1.82-1.12,2.57-1.72.57-.47,1.13-.94,1.67-1.41.54-.47,1.06-.99,1.55-1.55.37-.39.65-.79.85-1.21.2-.42.35-.85.44-1.29v-.54c.03-.22.01-.4-.05-.54s-.13-.3-.18-.48c-.15-.23-.28-.48-.4-.76-.12-.27-.26-.5-.42-.69-.38-.55-.75-1.08-1.12-1.59-.37-.51-.75-1.01-1.14-1.52,0-.09-.09-.18-.24-.28-.24-.28-.46-.59-.67-.93-.2-.35-.4-.68-.59-1-.22-.46-.49-.89-.8-1.31-.17-.14-.3-.37-.39-.69-.08-.23-.22-.46-.44-.69-.2-.19-.37-.41-.51-.66-.14-.25-.28-.49-.43-.72l-.46-.83c-.08-.23-.16-.44-.26-.65-.1-.21-.21-.42-.32-.65,0-.22-.05-.41-.13-.54-.09-.14-.15-.3-.21-.48,0-.09-.03-.19-.07-.3-.04-.11-.06-.24-.05-.37-.05-.54-.12-1.08-.19-1.62-.07-.54-.11-1.1-.12-1.69,0-.36,0-.71.02-1.04.01-.34.03-.66.05-.97.07-.36.1-.68.1-.97,0-.29,0-.59.03-.91.07-.49.14-.97.19-1.44.05-.47.11-.93.17-1.37l.05-.54c.11-.49.25-.95.42-1.4.26-.62.53-1.17.82-1.65.3-.53.66-.94,1.08-1.24.46-.34.93-.68,1.39-1.02.46-.34.92-.61,1.38-.82.07,0,.13-.02.18-.06.46-.34.93-.58,1.41-.72.47-.14.95-.27,1.41-.38,1.9-.55,3.8-.95,5.72-1.19l.54.02,1.02.04c.32.01.67,0,1.04-.03.43.02.84.09,1.23.22.4.13.75.31,1.08.55.23.19.46.39.69.6.23.21.43.43.61.66.21.28.3.57.28.89l.02.47c.06.41.03.82-.08,1.24-.11.42-.27.85-.47,1.29-.04.13-.09.28-.16.43-.07.16-.12.3-.16.43-.4.97-1,1.71-1.8,2.22-.53.43-1.1.59-1.71.47-.12-.09-.2-.05-.25.12s-.17.26-.35.26h-.32c-.21-.02-.39-.16-.52-.44-.11-.23-.15-.41-.11-.54.05-.18.16-.31.33-.39,0-.22-.02-.43-.03-.61-.02-.18-.05-.32-.09-.41-.04-.23-.15-.39-.34-.48-.17-.05-.33-.1-.49-.15-.17-.05-.33-.1-.5-.15-.14,0-.3-.02-.47-.05-.17-.03-.34-.07-.51-.12-.09-.05-.26-.03-.5.05-.12.04-.24.07-.35.09-.11.02-.24,0-.36-.05h-.35c-.13-.02-.27.02-.44.1l-1.08.16c-.61.11-1.24.36-1.9.73-.12.04-.24.08-.36.12-.12.04-.23.04-.32-.01-.2-.05-.4,0-.6.18-.06.09-.16.14-.29.16-.13.02-.25.07-.34.16-.2.17-.32.35-.37.52,0,.09-.01.23-.07.4l-.1,4.1c0,.72.08,1.38.24,1.99.16.61.35,1.21.57,1.81.34.91.74,1.69,1.19,2.33l1.17,1.86c.24.41.5.8.78,1.17.29.37.55.74.8,1.11.39.51.77,1.03,1.16,1.56.38.53.76,1.07,1.14,1.63.29.46.58.91.87,1.35.28.44.53.91.74,1.41.14.36.29.73.43,1.09.14.36.24.77.28,1.22.1.5.14,1.08.12,1.75-.04.85-.19,1.65-.45,2.4-.06.09-.12.22-.17.4-.16.53-.36,1.03-.58,1.49-.23.46-.51.93-.83,1.41-.31.44-.64.88-.97,1.34-.34.46-.7.9-1.08,1.34-.53.56-1.06,1.09-1.59,1.59-.53.5-1.1.98-1.71,1.45-.33.26-.66.52-1,.8-.34.28-.68.52-1.03.73-.23.17-.46.33-.69.48-.23.15-.45.31-.69.48-.17.08-.35.19-.53.32-.18.13-.37.25-.55.38-.2.17-.41.31-.64.41-.23.1-.45.19-.65.28l-1.79.74c-.36.12-.71.2-1.04.23-.33.03-.67.02-1.02-.04Z"/></svg>