<?xml version="1.0" encoding="UTF-8" standalone="no"?>
<!DOCTYPE svg PUBLIC "-//W3C//DTD SVG 1.1//EN" "http://www.w3.org/Graphics/SVG/1.1/DTD/svg11.dtd">
<svg width="100%" height="100%" viewBox="0 0 596 1040" version="1.1" xmlns="http://www.w3.org/2000/svg" xmlns:xlink="http://www.w3.org/1999/xlink" xml:space="preserve" xmlns:serif="http://www.serif.com/" style="fill-rule:evenodd;clip-rule:evenodd;stroke-linejoin:round;stroke-miterlimit:2;">
    <path d="M293.05,1022.34L23.35,1022.34L23.35,27.18C66.96,25.15 126.36,25.89 133.29,28.54C134.48,41.38 134.48,41.44 147.72,41.44C176.98,41.45 206.24,41.29 235.49,41.48C241.56,41.52 246.53,39.95 250.09,35.1C254.72,28.77 260.89,27.19 268.4,27.52C285.1,28.24 301.82,28.69 318.53,28.81C373.56,29.2 428.6,29.32 483.63,29.72C501.39,29.85 519.16,30.26 536.9,31.04C551.77,31.7 560.13,42.65 557.55,57.38C556.59,62.86 555.43,68.32 553.97,73.69C543.57,111.95 533.16,150.21 522.59,188.43C475.71,358.06 428.69,527.66 381.89,697.32C363.86,762.68 346.37,828.2 328.52,893.61C316.8,936.55 304.87,979.44 293.04,1022.35L293.05,1022.34Z" style="fill:white;fill-rule:nonzero;"/>
    <path d="M309.77,1022.34L297.23,1022.34C297.46,1020.63 297.51,1018.86 297.95,1017.2C310.7,969.87 323.3,922.5 336.31,875.25C403.33,631.86 470.45,388.49 537.6,145.14C538.77,140.89 540.72,136.85 542.31,132.71C542.41,139.56 537.49,146.13 540.97,155.08C543.27,151.06 544.7,148.57 546.13,146.07C545.6,149.49 545.38,152.99 544.5,156.31C541.02,169.42 537.3,182.46 533.74,195.54C461.11,462.37 388.48,729.2 315.91,996.05C313.55,1004.73 311.8,1013.58 309.77,1022.35L309.77,1022.34Z" style="fill:white;fill-rule:nonzero;"/>
    <path d="M542.32,132.71C540.73,136.85 538.78,140.89 537.61,145.14C470.46,388.5 403.34,631.86 336.32,875.25C323.31,922.51 310.71,969.87 297.96,1017.2C297.51,1018.86 297.47,1020.62 297.24,1022.34L293.06,1022.34C304.9,979.43 316.82,936.54 328.54,893.6C346.39,828.19 363.88,762.68 381.91,697.31C428.7,527.65 475.72,358.05 522.61,188.42C533.17,150.2 543.59,111.95 553.99,73.68C555.45,68.32 556.6,62.85 557.57,57.37C560.15,42.65 551.79,31.69 536.92,31.03C519.18,30.24 501.41,29.84 483.65,29.71C428.62,29.31 373.58,29.19 318.55,28.8C301.84,28.68 285.12,28.23 268.42,27.51C260.91,27.19 254.74,28.76 250.11,35.09C246.56,39.95 241.59,41.51 235.51,41.47C206.25,41.28 176.99,41.45 147.74,41.43C134.5,41.43 134.5,41.37 133.31,28.53C126.38,25.88 66.98,25.15 23.37,27.17L23.37,22.99C26.84,23.11 30.31,23.33 33.79,23.32C63.71,23.23 93.64,23.06 123.56,23.03C127.59,23.03 131.62,23.63 135.79,23.97C136.48,29.02 137.03,33.01 137.59,37.08C139.47,37.46 140.8,37.97 142.13,37.96C174.14,37.89 206.15,37.69 238.16,37.72C242.49,37.72 245.63,36.1 247.87,32.77C252.53,25.86 259.15,24.56 266.95,24.64C348.36,25.51 429.77,26.19 511.18,26.93C518.83,27 526.49,26.98 534.14,27.24C553.44,27.89 563.41,39.79 560.6,58.86C560.1,62.28 558.9,65.6 558.19,68.99C556.77,75.76 555.46,82.55 554.11,89.34C552.14,96.09 550.16,102.85 548.19,109.6C546.75,115.28 545.31,120.96 543.88,126.64C543.37,128.66 542.85,130.68 542.34,132.71L542.32,132.71Z" style="fill-rule:nonzero;"/>
    <path d="M309.77,1022.34C311.8,1013.57 313.55,1004.72 315.91,996.04C388.48,729.19 461.11,462.36 533.74,195.53C537.3,182.45 541.02,169.4 544.5,156.3C545.38,152.97 545.61,149.48 546.13,146.06L545.87,146.57C547.35,141.55 548.83,136.52 550.31,131.5L550.08,131.96C552.25,123.43 554.41,114.9 556.58,106.38L556.32,106.88C557.79,101.85 559.26,96.83 560.74,91.8L560.45,92.07C565.56,83.11 566.45,73.13 567.63,63.17C570.42,39.63 557.93,24.34 534.19,22.59C532.11,22.44 530.04,22.13 527.96,22.11C489.65,21.81 451.35,21.5 413.04,21.27C285.23,20.52 157.41,19.81 29.6,19.07C27.51,19.06 25.43,18.91 23.34,18.83L23.34,16.74C26.1,16.5 28.86,16.04 31.61,16.06C196.74,17.19 361.86,18.36 526.99,19.51C531.16,19.54 535.39,18.95 539.5,19.43C556.47,21.41 568.76,33.34 570.59,50.98C571.44,59.12 570.92,67.83 568.97,75.77C560.82,108.85 552.15,141.81 543.18,174.67C512.48,287.08 481.41,399.38 450.78,511.81C405.05,679.63 359.58,847.52 313.99,1015.37C313.35,1017.72 312.57,1020.03 311.86,1022.35L309.77,1022.35L309.77,1022.34Z" style="fill-rule:nonzero;"/>
    <path d="M23.35,18.82C25.44,18.9 27.52,19.05 29.61,19.06C157.42,19.8 285.24,20.51 413.05,21.26C451.36,21.48 489.67,21.8 527.97,22.1C530.05,22.12 532.12,22.42 534.2,22.58C557.94,24.33 570.43,39.62 567.64,63.16C566.46,73.13 565.57,83.1 560.46,92.06C560.28,89.47 560.11,86.88 559.93,84.29C559.26,84.24 558.59,84.19 557.92,84.14C556.64,85.88 555.37,87.61 554.09,89.35C555.44,82.57 556.75,75.77 558.17,69C558.88,65.6 560.08,62.29 560.58,58.87C563.38,39.81 553.42,27.9 534.12,27.25C526.47,26.99 518.81,27.01 511.16,26.94C429.75,26.2 348.34,25.52 266.93,24.65C259.12,24.57 252.51,25.87 247.85,32.78C245.61,36.1 242.47,37.73 238.14,37.73C206.13,37.71 174.12,37.9 142.11,37.97C140.78,37.97 139.45,37.47 137.57,37.09C137.01,33.02 136.47,29.03 135.77,23.98C131.6,23.65 127.57,23.04 123.54,23.04C93.62,23.08 63.69,23.24 33.77,23.33C30.3,23.34 26.83,23.11 23.35,23L23.35,18.82Z" style="fill:white;fill-rule:nonzero;"/>
    <path d="M542.32,132.71C542.83,130.69 543.35,128.67 543.86,126.64C545.29,124.71 546.73,122.79 548.16,120.87C548.81,121.04 549.45,121.21 550.1,121.38L550.1,131.96L550.33,131.5C548.85,136.52 547.37,141.55 545.89,146.57L546.15,146.06C544.72,148.56 543.29,151.06 540.98,155.07C537.5,146.12 542.41,139.55 542.32,132.7L542.32,132.71Z" style="fill-rule:nonzero;"/>
    <path d="M554.09,89.34C555.37,87.6 556.64,85.87 557.92,84.13C558.59,84.18 559.26,84.23 559.93,84.28C560.11,86.87 560.28,89.46 560.46,92.05L560.75,91.78C559.28,96.81 557.81,101.83 556.33,106.86L556.59,106.36C554.76,109.65 552.93,112.94 549.99,118.23C549.07,113.86 548.62,111.73 548.17,109.59C550.14,102.84 552.12,96.08 554.09,89.33L554.09,89.34Z" style="fill-rule:nonzero;"/>
    <path d="M548.17,109.6C548.62,111.74 549.07,113.87 549.99,118.24C552.93,112.95 554.76,109.66 556.59,106.37C554.42,114.9 552.26,123.43 550.09,131.95L550.09,121.37C549.44,121.2 548.8,121.03 548.15,120.86C546.72,122.78 545.28,124.71 543.85,126.63C545.29,120.95 546.73,115.27 548.16,109.59L548.17,109.6Z" style="fill:white;fill-rule:nonzero;"/>
    <path d="M545.89,146.57C547.37,141.55 548.85,136.52 550.33,131.5C548.85,136.52 547.37,141.55 545.89,146.57Z" style="fill:white;fill-rule:nonzero;"/>
    <path d="M556.34,106.87C557.81,101.84 559.28,96.82 560.76,91.79C559.29,96.82 557.82,101.84 556.34,106.87Z" style="fill:white;fill-rule:nonzero;"/>
</svg>
