<?xml version="1.0" encoding="UTF-8"?><svg id="Layer_1" xmlns="http://www.w3.org/2000/svg" viewBox="0 0 240.62 667.95"><defs><style>.cls-1,.cls-2{stroke-width:0px;}.cls-2{fill:#f2f2f2;}</style></defs><path class="cls-1" d="m215.87,13.47c-1.37,19.84,3.19,39.91-1.62,59.36-13.25,53.61-27.47,106.99-41.41,160.43-34.12,130.9-68.39,261.76-102.27,392.72-2.43,9.4-6.72,16.69-14.26,22.3-8.16,6.07-17.08,6.95-23.43,2.55-7.05-4.89-10.4-13.92-8.02-23.32,3.26-12.88,6.92-25.65,10.43-38.46,36.87-134.87,73.75-269.75,110.63-404.62,10.6-38.77,21.09-77.58,31.96-116.28,1.76-6.28,4.82-12.32,8.07-18.02,6.06-10.63,12.61-20.98,19.16-31.32,1.92-3.03,3.37-7.32,10.75-5.34Zm-1.73,44.3c-.23-.08-.47-.16-.7-.25-.37-4.52-.69-9.05-1.13-13.57-.35-3.59-2.42-6.15-5.97-6.15-3.24,0-8.17.1-9.43,2.04-6,9.33-13.18,18.71-16.05,29.14-45.24,164.13-89.89,328.42-134.66,492.67-6.16,22.6-12.18,45.24-18.43,67.81-2.07,7.48.97,13.27,6.09,17.76,5.41,4.74,11.9,3.44,17.66.18,7.58-4.29,12.66-10.49,14.95-19.29,25.12-96.77,50.41-193.5,75.65-290.24,22.5-86.25,45.02-172.5,67.46-258.77,1.83-7.03,3.05-14.22,4.56-21.34Zm-2.08-22.11v-17.84c-.51-.28-1.01-.57-1.52-.85-3.22,4.97-6.44,9.95-10.06,15.55,3.88,1.05,6.8,1.84,11.59,3.14Z"/><path class="cls-2" d="m214.14,57.76c-1.51,7.12-2.73,14.3-4.56,21.34-22.43,86.27-44.95,172.52-67.46,258.77-25.24,96.74-50.53,193.47-75.65,290.24-2.28,8.8-7.37,15-14.95,19.29-5.76,3.26-12.25,4.56-17.66-.18-5.12-4.49-8.16-10.28-6.09-17.76,6.25-22.57,12.27-45.21,18.43-67.81,44.77-164.26,89.42-328.55,134.66-492.67,2.88-10.43,10.05-19.81,16.05-29.14,1.25-1.94,6.19-2.04,9.43-2.04,3.55,0,5.62,2.56,5.97,6.15.44,4.52.76,9.04,1.13,13.57.23.08.47.16.7.25ZM56.38,639.07c-11.33-5.33-16.17-5.16-22.14,0h22.14Z"/><path class="cls-2" d="m212.06,35.65c-4.78-1.3-7.7-2.09-11.59-3.14,3.63-5.61,6.85-10.58,10.06-15.55.51.28,1.01.57,1.52.85v17.84Z"/><path class="cls-1" d="m56.38,639.07h-22.14c5.97-5.16,10.81-5.33,22.14,0Z"/></svg>