<?xml version="1.0" encoding="UTF-8"?><svg id="Layer_1" xmlns="http://www.w3.org/2000/svg" viewBox="0 0 466.24 537.48"><defs><style>.cls-1{font-family:SFProDisplay-Bold, 'SF Pro Display';font-size:17.04px;font-weight:700;}.cls-2,.cls-3,.cls-4,.cls-5,.cls-6,.cls-7,.cls-8,.cls-9,.cls-10,.cls-11{stroke-width:0px;}.cls-3{fill:#f9f9f9;}.cls-4{fill:#f6ffdd;}.cls-5{fill:#1b1b1b;}.cls-6{fill:#440020;}.cls-7{fill:#ff7c4c;}.cls-8{fill:#fff;}.cls-9{fill:#ffb5db;}.cls-10{fill:#fca839;}.cls-11{fill:#fc9341;}</style></defs><polygon class="cls-7" points="100.2 164.22 78.09 286.44 404.2 235.71 425.36 51.46 137.04 117.33 100.2 164.22"/><path class="cls-11" d="m53.18,392.63s111.91-137.08,187.03-130.1,144.27,30.1,157.78,53.39-19.82,197.69-19.82,197.69H33.34l19.84-120.98Z"/><path class="cls-10" d="m78.09,286.44s89-102.43,174.74-100.11,141.81,41.41,151.36,49.38-11.31,278.43-11.31,278.43H24.92l53.17-227.7Z"/><path class="cls-6" d="m118.78,53.96l21.56-24.34,255.62-4.81,29.41,26.65s-37.3,57.37-176.17,53.94-164.24,104.98-164.24,104.98L118.78,53.96Z"/><path class="cls-8" d="m36.09,512.71h-8.36c-2.46-13.13,2.82-25.34,5.11-37.76,13.45-72.81,26.7-145.66,40.59-218.4,1.69-8.85-.89-17.81,1.73-26.74,2.61-8.92,2.43-18.59,7.62-26.86,1.66-2.65,1.91-6.03,2.14-9.1,3.29-44.08,15.58-86.45,25.75-129.09,6.57-27.57,29.97-42.31,58.73-42.32,72.09-.02,144.18-.02,216.28,0,31.91,0,49.59,19.96,46.19,51.54-2.82,26.22-6.49,52.64-6.03,78.81.37,21.19.8,42.31-1.8,63.2-3.08,24.68-7,49.23-9.2,74.04-6.21,70.17-12.84,140.31-19.11,210.48-.37,4.13-.59,8.27-2.1,12.2h-12.55c1.35-32.96,5.1-65.72,7.82-98.57,4.93-59.49,10.13-118.96,15.29-178.43,4.32-49.79,8.32-99.6,13.02-149.36.78-8.29,1.63-16.59,2.32-24.87,1.33-16.07-13.99-31.71-30.58-31.68-57.07.1-114.12,1.99-171.19,2.36-18.41.12-36.9,1.16-55.29.49-16.8-.61-27.46,7.49-36.14,20.36-9.77,14.48-10.36,31.55-13.36,47.82-10.55,57.08-21.03,114.19-31.44,171.3-14.04,76.95-28.18,153.88-42.25,230.83-.63,3.44-.91,6.9-3.19,9.76Z"/><path class="cls-2" d="m271.12,50.85c-5.19-.26-10.39-.43-15.57-.84-1.77-.14-3.44-1.25-3.68-3.12-.31-2.5,1.57-3.94,3.68-4.21,10.36-1.31,20.78-.83,31.18-.51,1.97.06,3.34,1.53,3.3,3.33-.05,2.6-1.37,4.81-4.33,4.91-4.85.16-9.72.04-14.58.04,0,.13,0,.27-.01.4Z"/><path class="cls-2" d="m302.85,50.56c-2.02-.1-3.25-1.19-3.25-3.08,0-1.35.85-2.54,2.41-2.8,1.96-.32,3.35.54,3.64,2.46.3,2-1.07,2.98-2.8,3.42Z"/><path class="cls-8" d="m283.94,46.5h-26.84c-.01-.38-.03-.76-.04-1.14h26.87c0,.38.01.76.02,1.14Z"/><path class="cls-5" d="m33.33,514.14h-8.41c5.23-28.88,10.38-57.78,15.7-86.65,10.26-55.69,20.73-111.34,30.78-167.06,1.65-9.17.84-18.77,2.45-27.95,3.57-20.42,12.14-39.93,11.06-61.21-.02-.33.2-.67.3-1,2.9-10.01,6.34-19.91,8.55-30.07,2.9-13.31,4.44-26.91,7.26-40.24,2.88-13.63,5.09-27.7,10.3-40.47,9.19-22.53,26.48-36.21,51.64-36.39,74.93-.54,149.87-.68,224.81-.64,26.86.01,44.69,20.99,42.61,47.57-2.61,33.26-8.28,66.26-5.83,99.98,1.3,18-1.6,36.3-2.73,54.46-.17,2.77-.98,5.5-1.55,8.24-1.33,6.43-3.16,12.8-3.94,19.3-1.33,11.1-1.94,22.29-2.97,33.44-4.09,44.21-8.22,88.41-12.37,132.61-1.73,18.44-3.7,36.86-5.29,55.31-1.17,13.57-1.89,27.18-2.81,40.77h-12.62c.53-1.65,1.4-3.28,1.55-4.97,3.65-42.53,7.23-85.06,10.79-127.59,2.4-28.59,4.65-57.2,7.14-85.78,3.83-43.91,7.84-87.81,11.7-131.72,2.79-31.72,5.55-63.44,8.11-95.18.47-5.86,1-12.07-.35-17.67-3.58-14.86-16.97-24.74-32.5-24.51-75.67,1.15-151.34,2.83-227.01,3.4-18.17.14-29.67,8.11-38.27,22.71-5.61,9.53-7.69,20.06-9.61,30.8-9.21,51.66-18.74,103.26-28.21,154.87-11.56,62.97-23.21,125.91-34.74,188.89-5.29,28.9-10.37,57.84-15.54,86.76Z"/><path class="cls-2" d="m33.33,514.14c5.17-28.92,10.25-57.86,15.54-86.76,11.52-62.97,23.18-125.92,34.74-188.89,9.47-51.61,19-103.21,28.21-154.87,1.92-10.75,3.99-21.27,9.61-30.8,8.6-14.6,20.1-22.57,38.27-22.71,75.68-.56,151.34-2.25,227.01-3.4,15.52-.24,28.92,9.65,32.5,24.51,1.35,5.6.82,11.8.35,17.67-2.56,31.74-5.32,63.46-8.11,95.18-3.86,43.91-7.87,87.8-11.7,131.72-2.49,28.58-4.74,57.19-7.14,85.78-3.56,42.53-7.15,85.07-10.79,127.59-.14,1.69-1.02,3.31-1.55,4.97h-2.1c2.55-29.97,5.11-59.94,7.64-89.91,2.48-29.29,4.86-58.59,7.41-87.88,3.85-44.26,7.86-88.5,11.71-132.76,2.39-27.54,4.6-55.09,6.92-82.64,1.59-18.83,3.09-37.67,4.91-56.48,1.9-19.64-10.77-34.48-30.21-34.25-58.51.67-117.01,1.6-175.52,2.36-17.17.22-34.34.42-51.51.22-13.81-.16-24.27,5.54-32.08,16.65-5.94,8.45-9.68,17.85-11.52,27.94-6.33,34.75-12.43,69.54-18.74,104.29-12.13,66.77-24.34,133.52-36.55,200.27-7.36,40.26-14.82,80.5-22.13,120.77-.68,3.74-.65,7.6-.95,11.4h-4.21Z"/><path class="cls-2" d="m392.88,514.14c.92-13.59,1.64-27.2,2.81-40.77,1.59-18.45,3.56-36.87,5.29-55.31,4.15-44.2,8.27-88.4,12.37-132.61,1.03-11.14,1.64-22.33,2.97-33.44.78-6.5,2.61-12.87,3.94-19.3.57-2.74,1.38-5.47,1.55-8.24,1.13-18.16,4.04-36.47,2.73-54.46-2.45-33.72,3.22-66.72,5.83-99.98,2.09-26.58-15.75-47.56-42.61-47.57-74.94-.04-149.88.1-224.81.64-25.16.18-42.45,13.86-51.64,36.39-5.21,12.77-7.42,26.85-10.3,40.47-2.82,13.33-4.37,26.93-7.26,40.24-2.21,10.16-5.65,20.06-8.55,30.07-.1.34-.31.67-.3,1,1.09,21.28-7.49,40.79-11.06,61.21-1.6,9.18-.79,18.79-2.45,27.95-10.05,55.73-20.53,111.37-30.78,167.06-5.32,28.87-10.47,57.77-15.7,86.65h-4.21c4.18-21.62,8.47-43.22,12.53-64.86,11.86-63.24,23.77-126.47,35.31-189.77,1.78-9.75,1.07-19.93,2.6-29.74,1.44-9.22,2.19-18.71,7.45-27.11,1.9-3.03,2.65-7.51,2.25-11.15-1.73-15.76,2.32-30.2,7.72-44.78,3.23-8.73,3.9-18.41,5.67-27.67,2.89-15.11,4.98-30.43,8.87-45.27,2.53-9.65,6.52-19.35,11.89-27.72,10.89-16.97,26.93-25.91,47.58-25.97,74.97-.23,149.94-.67,224.9-.82,16.03-.03,29.18,6.66,38.78,19.64,5.41,7.31,7.52,15.74,6.87,24.79-1.73,24.08-3.49,48.16-5.35,72.23-.75,9.69-2.61,19.19.31,29.06,1.52,5.13.4,11.14.01,16.72-1.06,15.35-2.04,30.72-3.7,46.02-.89,8.16-3.77,16.1-4.62,24.26-3.03,29.22-5.56,58.49-8.32,87.74-3.9,41.43-7.84,82.85-11.76,124.28-1.58,16.71-3.17,33.42-4.75,50.13h-2.1Z"/><path class="cls-2" d="m185.09,154.42c5.36-2.14,9.17-2.86,13.75.08,7.01,4.5,9.38,3.58,16.05-4.39-4.59,0-8.54.17-12.47-.04-6.57-.34-12.59-2.1-15.43-8.8-2.75-6.49.03-16.3,5.57-21.13,7.89-6.86,22.88-7.93,31.48-1.91,2.18,1.53,4.45,3.87,5.22,6.3,3.47,11.07,3.76,22.39-3.03,32.2-6.33,9.15-16.32,11.54-27.04,10.54-7.31-.68-12.18-4.46-14.11-12.85Zm5.34,1.99c-.23.67-.46,1.35-.69,2.02,1.49,1.35,2.76,3.15,4.5,3.97,8.79,4.16,22.43.81,28.77-6.84,5.72-6.89,6.96-25.43,2.14-31.97-.41-.56-.86-1.11-1.37-1.58-8.45-7.76-25.79-5.58-31.89,4.11-2.73,4.34-3.93,9.2-1.68,14,2.34,5.02,7.05,6.63,12.28,6.32,5.79-.34,11.56-1.06,17.41-1.62-2.7,14.69-10.57,18.65-23.76,12.43-1.67-.79-3.79-.59-5.71-.86Z"/><path class="cls-2" d="m291.64,117.62c0,8.25-.11,15.51.04,22.76.08,3.92-1.2,7.93,3.64,10.97,3.21,2.02,1.77,8.58-1.94,9.05-5.09.65-5.89,3.89-6.96,7.97-3.22.21-6.25.42-9.73.65-1.12-3.18-2.1-6-3.46-9.87h-21.86c-3-5.86-.79-9.74,2.04-13.39,6.63-8.55,13.35-17.03,20.02-25.55,5-6.39,11.23-3.42,18.22-2.6Zm-11.7,48.31c5.32-4.66,9.01-7.89,12.65-11.08-10.32-9.57-1.38-22.3-3.7-33.36-9.46-2.98-9.52-3.03-14.59,3.11-6.23,7.55-12.46,15.1-18.42,22.86-1.43,1.86-1.77,4.56-3.05,8.09,8.96.43,16.19.78,23.17,1.12,1.42,3.34,2.63,6.18,3.94,9.25Z"/><path class="cls-2" d="m322.49,168.99c-3.17-.17-6.5-.35-10.14-.55-3.5-12.74,1.39-24.78.2-37.69-4.45,1.58-8.47,3.02-14.67,5.22,1.36-4.77,1.4-8.44,3.22-10.61,5.46-6.52,14.9-8.93,24.61-7.25,1.9,7.13-.13,40.82-3.22,50.88Zm1.98-47.4c-10.41-2.51-15.69,2.57-21.16,7.26,2.23.2,4.01-.67,5.85-1.4,1.79-.71,3.63-1.28,6.61-2.31,2.11,13.89-3.31,26.96.18,40.27,1.69-.5,3.95-.75,4.01-1.25,1.63-14.02,3.03-28.07,4.52-42.56Z"/><path class="cls-2" d="m400.15,52.26c-2.74,8.48-3.71,8.79-18.05,6.19-.59-9.04,1.94-9.98,18.05-6.19Zm-6.17,3.05c0-.27,0-.53,0-.8h-6.77c0,.27,0,.53,0,.8h6.76Z"/><path class="cls-2" d="m242.86,137.53c-2.96-3.36-5.65-5.2-6.52-7.69-1.12-3.17,3.52-7.09,7.49-6.81,3.58.26,6.56,2.42,5.74,5.85-.66,2.76-3.71,4.96-6.7,8.64Zm4.38-8.48c-2.16-1.11-3.28-2.17-4.14-2-1.08.22-1.94,1.46-2.9,2.25.91.75,1.79,2.04,2.75,2.1.99.06,2.07-1.06,4.29-2.36Z"/><path class="cls-2" d="m250.03,154.35c-4.22,2.84-6.37,5.17-8.94,5.79-3.37.81-7.07-3.16-6-6.47.67-2.09,3.61-5.09,5.14-4.89,2.8.38,5.31,2.85,9.79,5.57Zm-8.95,3.35c1.07-1.63,1.94-2.51,2.15-3.52.09-.44-1.27-1.71-1.84-1.63-1.05.14-2.02.99-3.02,1.54.71.95,1.43,1.9,2.71,3.6Z"/><path class="cls-2" d="m363.35,50.06c4.76-.36,7.95-.6,13.15-.98-2.62,3.84-4.18,6.13-6.34,9.29-2.24-2.73-3.96-4.83-6.81-8.31Z"/><path class="cls-2" d="m357.02,50.03c.19,3.31.3,5.25.45,7.76-2.31.19-4.35.36-6.29.52-3.07-6.64,2.67-5.46,5.84-8.29Z"/><path class="cls-2" d="m349.31,53.17c-.9,7.32-4.28,4.49-7.06,3.56,1.85-.93,3.7-1.87,7.06-3.56Z"/><path class="cls-9" d="m190.43,156.42c1.91.26,4.04.07,5.71.86,13.19,6.22,21.06,2.26,23.76-12.43-5.85.56-11.62,1.27-17.41,1.62-5.23.31-9.94-1.3-12.28-6.32-2.24-4.8-1.04-9.67,1.68-14,6.09-9.68,23.43-11.86,31.89-4.11.51.47.95,1.02,1.37,1.58,4.82,6.53,3.58,25.07-2.14,31.97-6.34,7.65-19.97,11-28.77,6.84-1.74-.82-3.01-2.62-4.5-3.97.23-.67.46-1.35.69-2.02Zm16.79-14.29c5.37-.18,11.36-3.74,12.17-8.16.43-2.37-.26-5.73-1.77-7.51-3.66-4.29-8.72-3.21-13.52-1.88-.33.09-.66.23-.97.37-4.82,2.2-7.45,6.51-6.47,10.61.98,4.12,5.22,6.76,10.56,6.58Z"/><path class="cls-9" d="m279.95,165.93c-1.31-3.08-2.52-5.91-3.94-9.25-6.99-.34-14.21-.68-23.17-1.12,1.28-3.54,1.62-6.23,3.05-8.09,5.96-7.76,12.19-15.31,18.42-22.86,5.07-6.14,5.13-6.09,14.59-3.11,2.32,11.05-6.63,23.79,3.7,33.36-3.63,3.18-7.32,6.41-12.65,11.08Zm.55-14.81c3.55-10.76,3.66-17.69.18-25.76-7.19,7.8-14.21,15.22-20.39,24.29,7.63,3.7,13.97,2.88,20.21,1.48Z"/><path class="cls-9" d="m324.47,121.59c-1.49,14.49-2.89,28.54-4.52,42.56-.06.5-2.32.75-4.01,1.25-3.49-13.31,1.93-26.37-.18-40.27-2.97,1.03-4.82,1.6-6.61,2.31-1.84.73-3.62,1.6-5.85,1.4,5.46-4.69,10.75-9.77,21.16-7.26Z"/><path class="cls-8" d="m393.98,55.31h-6.76c0-.27,0-.53,0-.8h6.77c0,.27,0,.53,0,.8Z"/><path class="cls-9" d="m247.24,129.05c-2.22,1.3-3.3,2.42-4.29,2.36-.96-.06-1.83-1.35-2.75-2.1.96-.8,1.83-2.04,2.9-2.25.86-.17,1.97.89,4.14,2Z"/><path class="cls-9" d="m241.08,157.7c-1.28-1.71-2-2.66-2.71-3.6,1-.55,1.96-1.41,3.02-1.54.58-.07,1.93,1.19,1.84,1.63-.21,1.01-1.08,1.88-2.15,3.52Z"/><path class="cls-2" d="m207.22,142.13c-5.34.18-9.58-2.46-10.56-6.58-.98-4.1,1.64-8.4,6.47-10.61.32-.14.64-.28.97-.37,4.8-1.32,9.86-2.41,13.52,1.88,1.52,1.78,2.21,5.14,1.77,7.51-.81,4.43-6.8,7.98-12.17,8.16Zm9.24-9.1c-.38-5.05-4.72-7.21-9.24-6.26-4.9,1.03-8.59,5.51-6.84,8.59,2.11,3.71,5.9,3.87,9.17,2.58,2.83-1.12,5.13-3.59,6.91-4.91Z"/><path class="cls-2" d="m280.5,151.12c-6.24,1.41-12.58,2.23-20.21-1.48,6.18-9.07,13.2-16.49,20.39-24.29,3.48,8.07,3.37,15-.18,25.76Zm-.89-16.22c-.72-.31-1.45-.62-2.17-.93-3.75,4.21-7.5,8.43-12.37,13.9h13.78c.28-4.8.52-8.89.76-12.97Z"/><path class="cls-4" d="m100.23,398.83c5.97-.02,11.59,3.66,12.61,7.94,1.14,4.78.82,9.17-5.31,10.51-.94.21-1.81.92-2.61,1.54-6.13,4.77-11.8,4.46-15.52-.88-3.36-4.82-1.97-11.74,3.56-15.61,2.5-1.75,5.56-2.71,7.27-3.51Z"/><path class="cls-7" d="m216.46,133.03c-1.78,1.32-4.08,3.79-6.91,4.91-3.27,1.29-7.07,1.13-9.17-2.58-1.75-3.08,1.94-7.56,6.84-8.59,4.53-.95,8.86,1.21,9.24,6.26Z"/><path class="cls-7" d="m279.61,134.9c-.24,4.09-.48,8.17-.76,12.97h-13.78c4.87-5.47,8.62-9.68,12.37-13.9.72.31,1.45.62,2.17.93Z"/><path class="cls-2" d="m116.13,415.63c-.03-.55.01.47.08,1.48.74,11.23-1.37,13.03-11.98,10.36-2.67-.67-5.42-1.04-8.13-1.57-5.62-1.1-9.48-4.32-11.3-9.75-1.87-5.57.05-10.32,3.73-14.46,4.6-5.16,13.01-7.14,19.26-4.71,6.31,2.45,8.91,7.73,8.34,18.65Zm-15.9-16.79c-1.72.81-4.77,1.76-7.27,3.51-5.52,3.87-6.92,10.78-3.56,15.61,3.72,5.34,9.39,5.64,15.52.88.8-.62,1.67-1.34,2.61-1.54,6.13-1.35,6.45-5.74,5.31-10.51-1.02-4.28-6.64-7.96-12.61-7.94Z"/><text class="cls-1" transform="translate(90.68 416.55)"><tspan x="0" y="0">ET</tspan></text><path class="cls-2" d="m310.68,493.2c-54.93-1.57-109.86-3.16-164.79-4.71-19.58-.55-39.17-.96-58.75-1.56-3.11-.09-6.36-.34-9.28-1.31-8.23-2.74-11.68-7.47-11.24-16.7.52-11.16,1.64-22.32,2.92-33.43,3.21-27.77,6.65-55.52,10.04-83.28,1.63-13.3,6.71-18.43,20.21-19.33,7.65-.51,15.37,0,23.06.16,42.7.92,85.41,1.78,128.11,2.83,35.34.87,70.67,1.93,106,3.06,3.78.12,7.69.85,11.24,2.13,9.43,3.39,12.76,8.36,11.96,18.33-1.43,17.77-3.24,35.51-4.93,53.26-1.69,17.74-3.41,35.49-5.18,53.22-.35,3.47-.7,6.98-1.53,10.36-2.59,10.53-9.08,16.22-20.03,16.59-12.59.43-25.2.1-37.81.1,0,.09,0,.18,0,.27Zm19.36-2.53v-.28c5.24-.36,10.47-.81,15.72-1.08,13.94-.7,18.66-4.53,20.16-18.81,3.9-37.19,7.25-74.44,10.99-111.65.65-6.51-1.89-11.04-7.5-13.55-3.74-1.67-7.96-3.01-12.01-3.15-26.93-.93-53.87-1.54-80.81-2.18-35.69-.84-71.38-1.56-107.07-2.44-18.19-.44-36.37-1.13-54.56-1.66-4.9-.14-9.83-.42-14.7-.04-10.84.83-15.58,5.46-16.97,15.95-1.7,12.81-3.52,25.61-5.07,38.44-2.96,24.63-5.91,49.27-8.58,73.94-1.48,13.65,4.04,19.23,18.11,19.14,5.95-.04,11.9-.35,17.84-.13,27.97,1.01,55.92,2.26,83.89,3.21,29.37,1,58.76,1.75,88.13,2.63,17.48.53,34.96,1.1,52.44,1.65Z"/><path class="cls-3" d="m330.04,490.67c-17.48-.55-34.96-1.12-52.44-1.65-29.38-.88-58.76-1.63-88.13-2.63-27.97-.95-55.92-2.21-83.89-3.21-5.94-.21-11.89.1-17.84.13-14.06.08-19.58-5.5-18.11-19.14,2.67-24.67,5.62-49.3,8.58-73.94,1.54-12.83,3.37-25.63,5.07-38.44,1.39-10.49,6.13-15.12,16.97-15.95,4.87-.37,9.8-.1,14.7.04,18.19.52,36.37,1.21,54.56,1.66,35.69.87,71.38,1.59,107.07,2.44,26.94.64,53.88,1.24,80.81,2.18,4.05.14,8.26,1.48,12.01,3.15,5.61,2.51,8.16,7.04,7.5,13.55-3.73,37.21-7.09,74.46-10.99,111.65-1.5,14.28-6.22,18.1-20.16,18.81-5.24.26-10.48.71-15.71,1.08v.28Zm-213.92-75.04c.57-10.92-2.03-16.2-8.34-18.65-6.25-2.43-14.66-.45-19.26,4.71-3.69,4.14-5.61,8.89-3.73,14.46,1.83,5.43,5.69,8.65,11.3,9.75,2.71.53,5.46.9,8.13,1.57,10.61,2.67,12.72.87,11.98-10.36-.07-1.01-.11-2.03-.08-1.48Z"/><path class="cls-2" d="m134.32,372.99c.97-6.95,5.06-11.34,10.42-11.2,4.26.11,7.1,3.13,7.1,7.57l-2.47-.07c-.22-2.92-2.19-4.88-4.99-4.96-3.83-.1-6.8,3.33-7.56,8.72s1.21,8.97,5.08,9.07c2.88.08,5.16-1.43,6.24-4.11l2.47.07c-1.51,4.35-4.75,6.71-9.09,6.6-5.4-.15-8.2-4.67-7.22-11.68Z"/><path class="cls-2" d="m152.66,376.6c.71-5.09,3.79-8.19,7.7-8.08,3.9.1,6.09,3.34,5.37,8.43-.71,5.08-3.79,8.19-7.69,8.08-3.91-.1-6.1-3.35-5.39-8.43Zm10.67.29c.53-3.76-.8-5.95-3.3-6.02s-4.44,2.04-4.97,5.8.82,5.95,3.31,6.02,4.43-2.04,4.95-5.8Z"/><path class="cls-2" d="m178.59,385.3l-2.24-.06.36-2.59h-.05c-1.1,1.82-2.71,2.81-4.88,2.75-3.08-.08-4.57-2.39-4.06-6.01l1.45-10.36,2.36.06-1.38,9.88c-.36,2.59.51,4.02,2.7,4.08,2.29.06,3.93-1.68,4.31-4.4l1.31-9.38,2.36.06-2.23,15.96Z"/><path class="cls-2" d="m184.86,363.24l2.36.06-3.1,22.14-2.36-.06,3.1-22.14Z"/><path class="cls-2" d="m187.74,377.54c.7-5,3.59-8.19,7.14-8.1,2.02.05,3.5,1.22,4.09,2.99h.05s1.23-8.78,1.23-8.78l2.36.06-3.1,22.14-2.25-.06.38-2.7h-.04c-1.17,1.82-2.94,2.91-4.98,2.85-3.6-.1-5.59-3.42-4.89-8.42Zm2.42.06c-.51,3.62.75,5.95,3.25,6.02s4.39-2.22,4.89-5.8-.8-5.95-3.23-6.02-4.39,2.19-4.9,5.8Z"/><path class="cls-2" d="m214.31,366.38l-.54,3.85,2.74.07-.31,2.19-2.74-.07-1.33,9.48c-.2,1.46.25,2.13,1.45,2.16.27,0,.82-.02.99-.05l-.31,2.24c-.3.07-.95.1-1.51.08-2.59-.07-3.43-1.29-3-4.36l1.35-9.62-2.1-.06.31-2.19,2.1.06.54-3.85,2.36.06Z"/><path class="cls-2" d="m228.71,382.06c-.8,2.78-3.48,4.77-6.56,4.69-4.05-.11-6.06-3.35-5.36-8.37.69-4.96,3.66-8.25,7.56-8.15,3.81.1,5.73,3.3,5.05,8.13l-.14,1.01-10.13-.27-.02.15c-.43,3.05.88,5.11,3.42,5.17,1.79.05,3.25-.94,3.86-2.44l2.32.06Zm-9.27-5.04l7.67.21c.32-2.67-.89-4.61-3.12-4.67s-4.03,1.82-4.55,4.47Z"/><path class="cls-2" d="m233.84,364.56l2.36.06-3.1,22.14-2.36-.06,3.1-22.14Z"/><path class="cls-2" d="m239.52,364.71l2.36.06-3.1,22.14-2.36-.06,3.1-22.14Z"/><path class="cls-2" d="m247,393.04l.31-2.24c.25.07.61.09.91.1,1.32.04,2.15-.67,2.95-2.51l.48-1.11-2.98-16.11,2.53.07,2.05,13.39h.04s5.77-13.18,5.77-13.18l2.48.07-7.94,16.93c-1.73,3.7-3.05,4.79-5.61,4.72-.29,0-.76-.05-1.01-.12Z"/><path class="cls-2" d="m261.2,379.51c.71-5.09,3.79-8.19,7.7-8.08,3.9.1,6.09,3.34,5.37,8.43s-3.79,8.19-7.69,8.08c-3.91-.1-6.1-3.35-5.39-8.43Zm10.67.29c.53-3.76-.8-5.95-3.3-6.02-2.5-.07-4.44,2.04-4.97,5.8s.82,5.95,3.31,6.02,4.43-2.04,4.95-5.8Z"/><path class="cls-2" d="m287.12,388.22l-2.24-.06.36-2.59h-.05c-1.1,1.82-2.71,2.81-4.88,2.75-3.08-.08-4.57-2.39-4.06-6.01l1.45-10.36,2.36.06-1.38,9.88c-.36,2.59.51,4.02,2.7,4.08,2.29.06,3.93-1.68,4.31-4.4l1.31-9.38,2.36.06-2.23,15.96Z"/><path class="cls-2" d="m308.21,384.19c-.8,2.78-3.48,4.77-6.56,4.69-4.05-.11-6.06-3.35-5.36-8.37s3.66-8.25,7.56-8.15c3.81.1,5.73,3.3,5.05,8.13l-.14,1.01-10.13-.27-.02.15c-.43,3.05.88,5.11,3.42,5.17,1.79.05,3.25-.94,3.86-2.44l2.32.06Zm-9.27-5.04l7.67.21c.32-2.67-.89-4.61-3.12-4.67-2.21-.06-4.03,1.82-4.55,4.47Z"/><path class="cls-2" d="m316.52,389l-2.42-.06-2.97-16.1,2.48.07,2.06,13.22h.05s5.75-13.01,5.75-13.01l2.46.07-7.42,15.82Z"/><path class="cls-2" d="m335.47,384.92c-.8,2.78-3.48,4.77-6.56,4.69-4.05-.11-6.06-3.35-5.36-8.37.69-4.96,3.66-8.25,7.56-8.15,3.81.1,5.73,3.3,5.05,8.13l-.14,1.01-10.13-.27-.02.15c-.43,3.05.88,5.11,3.42,5.17,1.79.05,3.25-.94,3.86-2.44l2.32.06Zm-9.27-5.04l7.67.21c.32-2.67-.89-4.61-3.12-4.67s-4.03,1.82-4.55,4.47Z"/><path class="cls-2" d="m339.62,373.61l2.23.06-.37,2.61h.05c.71-1.75,2.17-2.84,3.82-2.79.41.01.75.1.94.13l-.36,2.59c-.18-.08-.67-.17-1.24-.19-1.83-.05-3.24,1.41-3.55,3.66l-1.39,9.94-2.36-.06,2.23-15.96Z"/><path class="cls-2" d="m345.27,395.68l.31-2.24c.25.07.61.09.91.1,1.32.04,2.15-.67,2.95-2.51l.48-1.11-2.98-16.11,2.53.07,2.05,13.39h.04s5.77-13.18,5.77-13.18l2.48.07-7.94,16.93c-1.73,3.7-3.05,4.79-5.61,4.72-.29,0-.76-.05-1.01-.12Z"/><path class="cls-2" d="m133.2,421.94l2.75-19.66-6.18-.17.35-2.49,14.8.4-.35,2.49-6.18-.17-2.75,19.66-2.44-.07Z"/><path class="cls-2" d="m146.04,401.9c.13-.92.9-1.64,1.7-1.62s1.38.78,1.25,1.7-.9,1.64-1.71,1.62-1.36-.79-1.23-1.7Zm-.32,4.35l2.36.06-2.23,15.96-2.36-.06,2.23-15.96Z"/><path class="cls-2" d="m160,406.64l2.86.08-7.09,6.73,5.04,9.24-2.74-.07-4.2-7.57-1.51,1.38-.84,6.02-2.36-.06,3.1-22.14,2.36.06-1.86,13.27,7.24-6.92Z"/><path class="cls-2" d="m168.42,403l-.54,3.85,2.74.07-.31,2.19-2.74-.07-1.33,9.48c-.2,1.46.25,2.13,1.45,2.16.27,0,.82-.02.99-.05l-.31,2.24c-.3.07-.95.1-1.51.08-2.59-.07-3.43-1.29-3-4.36l1.35-9.62-2.1-.06.31-2.19,2.1.06.54-3.85,2.36.06Z"/><path class="cls-2" d="m170.92,414.94c.71-5.09,3.79-8.19,7.7-8.08s6.09,3.34,5.37,8.43-3.79,8.19-7.69,8.08-6.1-3.35-5.39-8.43Zm10.67.29c.53-3.76-.8-5.95-3.3-6.02-2.5-.07-4.44,2.04-4.97,5.8s.82,5.95,3.31,6.02,4.43-2.04,4.95-5.8Z"/><path class="cls-2" d="m196.22,407.61l2.86.08-7.09,6.73,5.04,9.24-2.74-.07-4.2-7.57-1.51,1.38-.84,6.02-2.36-.06,3.1-22.14,2.36.06-1.86,13.27,7.24-6.92Z"/><path class="cls-2" d="m210.35,404.12l-.54,3.85,2.74.07-.31,2.19-2.74-.07-1.33,9.48c-.2,1.46.25,2.13,1.45,2.16.27,0,.82-.02.99-.05l-.31,2.24c-.3.07-.95.1-1.51.08-2.59-.07-3.43-1.29-3-4.36l1.35-9.62-2.1-.06.31-2.19,2.1.06.54-3.85,2.36.06Z"/><path class="cls-2" d="m215.06,408.12l2.23.06-.37,2.61h.05c.71-1.75,2.17-2.84,3.82-2.79.41.01.75.1.94.13l-.36,2.59c-.18-.08-.67-.17-1.24-.19-1.83-.05-3.24,1.41-3.55,3.66l-1.39,9.94-2.36-.06,2.23-15.96Z"/><path class="cls-2" d="m233.04,420.03c-.8,2.78-3.48,4.77-6.56,4.69-4.05-.11-6.06-3.35-5.36-8.37.69-4.96,3.66-8.25,7.56-8.15,3.81.1,5.73,3.3,5.05,8.13l-.14,1.01-10.13-.27-.02.15c-.43,3.05.88,5.11,3.42,5.17,1.79.05,3.25-.94,3.86-2.44l2.32.06Zm-9.27-5.04l7.67.21c.32-2.67-.89-4.61-3.12-4.67s-4.03,1.82-4.55,4.47Z"/><path class="cls-2" d="m237.19,408.71l2.23.06-.36,2.55h.05c1.03-1.7,2.69-2.76,4.88-2.7,3.1.08,4.57,2.39,4.06,6.01l-1.45,10.36-2.36-.06,1.38-9.88c.36-2.58-.51-4.02-2.69-4.08s-3.93,1.68-4.31,4.38l-1.31,9.39-2.36-.06,2.23-15.96Z"/><path class="cls-2" d="m250.03,417.06c.7-5,3.59-8.19,7.14-8.1,2.02.05,3.5,1.22,4.09,2.99h.05s1.23-8.78,1.23-8.78l2.36.06-3.1,22.14-2.25-.06.38-2.7h-.04c-1.17,1.82-2.94,2.91-4.98,2.85-3.6-.1-5.59-3.42-4.89-8.42Zm2.42.06c-.51,3.62.75,5.95,3.25,6.02,2.43.07,4.39-2.22,4.89-5.8s-.8-5.95-3.23-6.02c-2.5-.07-4.39,2.19-4.9,5.8Z"/><path class="cls-2" d="m276.6,405.9l-.54,3.85,2.74.07-.31,2.19-2.74-.07-1.33,9.48c-.2,1.46.25,2.13,1.45,2.16.27,0,.82-.02.99-.05l-.31,2.24c-.3.07-.95.1-1.51.08-2.59-.07-3.43-1.29-3-4.36l1.35-9.62-2.1-.06.31-2.19,2.1.06.54-3.85,2.36.06Z"/><path class="cls-2" d="m282.3,403.71l2.36.06-1.22,8.73h.05c1.04-1.76,2.73-2.76,4.88-2.7,3.1.08,4.64,2.5,4.14,6.06l-1.44,10.31-2.36-.06,1.37-9.82c.35-2.53-.56-4.08-2.77-4.14-2.35-.06-4.05,1.71-4.44,4.47l-1.3,9.3-2.36-.06,3.1-22.14Z"/><path class="cls-2" d="m294.12,421.73c.38-2.73,2.48-4.4,5.77-4.53l4.08-.15.19-1.34c.27-1.95-.7-3.15-2.66-3.2-1.82-.05-3.09.89-3.61,2.44l-2.28-.06c.55-2.76,2.94-4.82,6.28-4.73,3.31.09,5.12,2.17,4.67,5.35l-1.54,11.03-2.24-.06.38-2.75h-.05c-1.1,1.8-3.06,2.95-4.96,2.9-2.81-.08-4.43-2.04-4.03-4.91Zm9.38-1.3l.18-1.3-3.81.16c-1.92.09-3.14,1.01-3.35,2.51s.77,2.55,2.47,2.59c2.23.06,4.18-1.66,4.51-3.96Z"/><path class="cls-2" d="m313.91,406.9l-.54,3.85,2.74.07-.31,2.19-2.74-.07-1.33,9.48c-.2,1.46.25,2.13,1.45,2.16.27,0,.82-.02.99-.05l-.31,2.24c-.3.07-.95.1-1.51.08-2.59-.07-3.43-1.29-3-4.36l1.35-9.62-2.1-.06.31-2.19,2.1.06.54-3.85,2.36.06Z"/><path class="cls-2" d="m318.2,412.52l2.41-7.78,2.51.07-2.95,7.76-1.97-.05Z"/><path class="cls-2" d="m328.55,410.89c2.92.08,4.79,2.1,4.52,4.8l-2.25-.06c.05-1.54-.91-2.52-2.65-2.57s-3,.89-3.2,2.29c-.15,1.1.49,1.86,2.03,2.36l2.1.66c2.74.89,3.61,2.08,3.28,4.43-.39,2.78-2.99,4.68-6.28,4.59-3.1-.08-4.99-2.04-4.84-4.87l2.36.06c.03,1.66,1.01,2.58,2.93,2.64s3.22-.84,3.43-2.28c.16-1.14-.34-1.77-1.86-2.28l-2.38-.79c-2.38-.79-3.4-2.26-3.1-4.44.38-2.73,2.81-4.62,5.92-4.54Z"/><path class="cls-2" d="m122.28,460.82l2.43.07c.26,1.47,1.52,2.47,3.29,2.52,2.44.07,4.15-1.49,4.48-3.87l.35-2.52h-.05c-1.11,1.71-2.94,2.8-4.92,2.75-3.6-.1-5.51-3.37-4.82-8.32.7-5,3.51-8.13,7.16-8.03,2,.05,3.5,1.2,4.17,3.08h.04s.38-2.68.38-2.68l2.25.06-2.19,15.64c-.53,3.81-3.37,6.27-7.27,6.17-3.11-.08-5.29-2.13-5.3-4.86Zm11.29-9.09c.49-3.51-.82-5.89-3.28-5.96s-4.34,2.16-4.84,5.74.77,5.86,3.2,5.92c2.46.07,4.42-2.19,4.91-5.71Z"/><path class="cls-2" d="m138.3,451.92c.71-5.09,3.79-8.19,7.7-8.08s6.09,3.34,5.37,8.43-3.79,8.19-7.69,8.08-6.1-3.35-5.39-8.43Zm10.67.29c.53-3.76-.8-5.95-3.3-6.02-2.5-.07-4.44,2.04-4.97,5.8s.82,5.95,3.31,6.02,4.43-2.04,4.95-5.8Z"/><path class="cls-2" d="m154.87,444.35l2.23.06-.36,2.55h.05c1.03-1.7,2.69-2.76,4.88-2.7,3.1.08,4.57,2.39,4.06,6.01l-1.45,10.36-2.36-.06,1.38-9.88c.36-2.58-.51-4.02-2.69-4.08s-3.93,1.68-4.31,4.38l-1.31,9.39-2.36-.06,2.23-15.96Z"/><path class="cls-2" d="m179.61,456.45c-.8,2.78-3.48,4.77-6.56,4.69-4.05-.11-6.06-3.35-5.36-8.37.69-4.96,3.66-8.25,7.56-8.15s5.73,3.3,5.05,8.13l-.14,1.01-10.13-.27-.02.15c-.43,3.05.88,5.11,3.42,5.17,1.79.05,3.25-.94,3.86-2.44l2.32.06Zm-9.27-5.04l7.67.21c.32-2.67-.89-4.61-3.12-4.67s-4.03,1.82-4.55,4.47Z"/><path class="cls-2" d="m193.62,461.41l-2.42-.06-2.97-16.1,2.48.07,2.06,13.22h.05s5.75-13.01,5.75-13.01l2.46.07-7.42,15.82Z"/><path class="cls-2" d="m203.33,441.3c.13-.92.9-1.64,1.7-1.62s1.38.78,1.25,1.7-.9,1.64-1.71,1.62-1.36-.79-1.23-1.7Zm-.32,4.35l2.36.06-2.23,15.96-2.36-.06,2.23-15.96Z"/><path class="cls-2" d="m208.56,445.8l2.23.06-.37,2.61h.05c.71-1.75,2.17-2.84,3.82-2.79.41.01.75.1.94.13l-.36,2.59c-.18-.08-.67-.17-1.24-.19-1.83-.05-3.24,1.41-3.55,3.66l-1.39,9.94-2.36-.06,2.23-15.96Z"/><path class="cls-2" d="m214.68,457.45c.38-2.73,2.48-4.4,5.77-4.53l4.08-.15.19-1.34c.27-1.95-.7-3.15-2.66-3.2-1.82-.05-3.09.89-3.61,2.44l-2.28-.06c.55-2.76,2.94-4.82,6.28-4.73s5.12,2.17,4.67,5.35l-1.54,11.03-2.24-.06.38-2.75h-.05c-1.1,1.8-3.06,2.95-4.96,2.9-2.81-.08-4.43-2.04-4.03-4.91Zm9.38-1.3l.18-1.3-3.81.16c-1.92.09-3.14,1.01-3.35,2.51s.77,2.55,2.47,2.59c2.23.06,4.18-1.66,4.51-3.96Z"/><path class="cls-2" d="m231.8,440.21l2.36.06-3.1,22.14-2.36-.06,3.1-22.14Z"/><path class="cls-2" d="m245.85,442.93l-.54,3.85,2.74.07-.31,2.19-2.74-.07-1.33,9.48c-.2,1.46.25,2.13,1.45,2.16.27,0,.82-.02.99-.05l-.31,2.24c-.3.07-.95.1-1.51.08-2.59-.07-3.43-1.29-3-4.36l1.35-9.62-2.1-.06.31-2.19,2.1.06.54-3.85,2.36.06Z"/><path class="cls-2" d="m251.55,440.74l2.36.06-1.22,8.73h.05c1.04-1.76,2.73-2.76,4.88-2.7,3.1.08,4.64,2.5,4.14,6.06l-1.44,10.31-2.36-.06,1.37-9.82c.35-2.53-.56-4.08-2.77-4.14-2.35-.06-4.05,1.71-4.44,4.47l-1.3,9.3-2.36-.06,3.1-22.14Z"/><path class="cls-2" d="m266,442.98c.13-.92.9-1.64,1.7-1.62s1.38.78,1.25,1.7-.9,1.64-1.71,1.62-1.36-.79-1.23-1.7Zm-.32,4.35l2.36.06-2.23,15.96-2.36-.06,2.23-15.96Z"/><path class="cls-2" d="m276.29,447.34c2.92.08,4.79,2.1,4.52,4.8l-2.25-.06c.05-1.54-.91-2.52-2.65-2.57s-3,.89-3.2,2.29c-.15,1.1.49,1.86,2.03,2.36l2.1.66c2.74.89,3.61,2.08,3.28,4.43-.39,2.78-2.99,4.68-6.28,4.59-3.1-.08-4.99-2.04-4.84-4.87l2.36.06c.03,1.66,1.01,2.58,2.93,2.64,1.91.05,3.22-.84,3.43-2.28.16-1.14-.34-1.77-1.86-2.28l-2.38-.79c-2.38-.79-3.4-2.26-3.1-4.44.38-2.73,2.81-4.62,5.92-4.54Z"/><path class="cls-2" d="m301.65,464.31l-2.4-.06-1.46-12.44h-.05s-4.91,12.27-4.91,12.27l-2.4-.06-1.72-16.07,2.35.06,1.01,13.06h.05s5.01-12.89,5.01-12.89l2.28.06,1.39,13.07h.05s4.64-12.9,4.64-12.9l2.34.06-6.17,15.85Z"/><path class="cls-2" d="m319.85,460.21c-.8,2.78-3.48,4.77-6.56,4.69-4.05-.11-6.06-3.35-5.36-8.37s3.66-8.25,7.56-8.15c3.81.1,5.73,3.3,5.05,8.13l-.14,1.01-10.13-.27-.02.15c-.43,3.05.88,5.11,3.42,5.17,1.79.05,3.25-.94,3.86-2.44l2.32.06Zm-9.27-5.04l7.67.21c.32-2.67-.89-4.61-3.12-4.67s-4.03,1.82-4.55,4.47Z"/><path class="cls-2" d="m334.09,460.59c-.8,2.78-3.48,4.77-6.56,4.69-4.05-.11-6.06-3.35-5.36-8.37s3.66-8.25,7.56-8.15c3.81.1,5.73,3.3,5.05,8.13l-.14,1.01-10.13-.27-.02.15c-.43,3.05.88,5.11,3.42,5.17,1.79.05,3.25-.94,3.86-2.44l2.32.06Zm-9.27-5.04l7.67.21c.32-2.67-.89-4.61-3.12-4.67s-4.03,1.82-4.55,4.47Z"/><path class="cls-2" d="m346.96,449.51l2.86.08-7.09,6.73,5.04,9.24-2.74-.07-4.2-7.57-1.51,1.38-.84,6.02-2.36-.06,3.1-22.14,2.36.06-1.86,13.27,7.24-6.92Z"/></svg>