<?xml version="1.0" encoding="UTF-8"?><svg id="Layer_1" xmlns="http://www.w3.org/2000/svg" viewBox="0 0 466.24 537.48"><defs><style>.cls-1,.cls-2{stroke-width:0px;}.cls-2{fill:#fff;}</style></defs><path class="cls-2" d="m378.99,512.71H40.27c-4.54-4.74-3.09-10.33-2.18-15.81,7.31-43.87,16.35-87.43,23.9-131.26,7.19-41.78,15.87-83.29,22.82-125.12,6.99-42.11,16.24-83.8,23.24-125.91,2.87-17.28,3.96-34.9,10.84-51.52,8.14-19.68,20.59-33.31,47.63-32.52,73.11,2.13,146.19-3.08,219.32-1.92,23.71.38,36.81,14.67,35.16,38.49-2.8,40.39-7.6,80.6-10.66,120.96-3.09,40.81-7.53,81.49-10.58,122.29-3.02,40.47-7.36,80.82-10.44,121.27-1.56,20.43-4.19,40.76-5.11,61.25-.31,6.83-.56,13.98-5.22,19.81Z"/><path class="cls-2" d="m36.09,512.71h-8.36c-2.46-13.13,2.82-25.34,5.11-37.76,13.45-72.81,26.7-145.66,40.59-218.4,1.69-8.85-.89-17.81,1.73-26.74,2.61-8.92,2.43-18.59,7.62-26.86,1.66-2.65,1.91-6.03,2.14-9.1,3.29-44.08,15.58-86.45,25.75-129.09,6.57-27.57,29.97-42.31,58.73-42.32,72.09-.02,144.18-.02,216.28,0,31.91,0,49.59,19.96,46.19,51.54-2.82,26.22-6.49,52.64-6.03,78.81.37,21.19.8,42.31-1.8,63.2-3.08,24.68-7,49.23-9.2,74.04-6.21,70.17-12.84,140.31-19.11,210.48-.37,4.13-.59,8.27-2.1,12.2h-12.55c1.35-32.96,5.1-65.72,7.82-98.57,4.93-59.49,10.13-118.96,15.29-178.43,4.32-49.79,8.32-99.6,13.02-149.36.78-8.29,1.63-16.59,2.32-24.87,1.33-16.07-13.99-31.71-30.58-31.68-57.07.1-114.12,1.99-171.19,2.36-18.41.12-36.9,1.16-55.29.49-16.8-.61-27.46,7.49-36.14,20.36-9.77,14.48-10.36,31.55-13.36,47.82-10.55,57.08-21.03,114.19-31.44,171.3-14.04,76.95-28.18,153.88-42.25,230.83-.63,3.44-.91,6.9-3.19,9.76Z"/><path class="cls-1" d="m36.09,512.71c5.92-32.86,11.78-65.73,17.78-98.57,12.82-70.15,25.71-140.28,38.58-210.41,7.34-40.03,14.95-80.01,21.9-120.11,1.99-11.48,4.63-22.46,10.98-32.28,8.27-12.79,19.12-19.7,35.37-19.85,74.9-.68,149.8-2.32,224.7-3.42,23.03-.34,36.88,14.74,34.97,37.75-4.81,58.25-9.72,116.5-14.69,174.74-3.34,39.17-6.91,78.31-10.28,117.48-4.29,49.91-8.48,99.83-12.78,149.74-.14,1.68-1.01,3.29-1.54,4.94h-2.09c2.78-33.27,5.48-66.55,8.36-99.81,4.65-53.72,9.49-107.42,14.12-161.13,3.17-36.74,6.11-73.5,9.22-110.25,2.14-25.31,4.27-50.62,6.67-75.9,1.86-19.54-10.71-34.29-30.04-34.06-59.92.69-119.84,1.64-179.77,2.42-15.33.2-30.67.36-45.99.15-13.73-.19-24.13,5.5-31.9,16.55-5.91,8.4-9.83,17.73-11.43,27.79-7.23,45.69-16.4,91.03-24.59,136.55-12.69,70.52-25.78,140.97-38.71,211.45-4.58,24.97-9.2,49.94-13.78,74.91-.69,3.75-1.78,7.47-.91,11.35h-4.18Z"/><path class="cls-1" d="m393.63,512.71c-.2-16.73,2.43-33.25,3.93-49.84,4.66-51.58,9.55-103.14,14.33-154.7,1.51-16.27,3.05-32.53,4.37-48.82.78-9.68,1.93-19.13,4.77-28.59,3.5-11.67,2.3-24.17,3.31-36.28,1.01-11.97,1.42-23.93-.51-36.2-1.68-10.7,1-22.11,1.97-33.19,1.63-18.7,3.77-37.36,5.05-56.07,1.76-25.7-16.34-45.19-42.31-45.2-74.52-.03-149.04.11-223.56.64-25.02.18-41.46,14.08-51.64,36.06-5.92,12.77-7.53,26.69-10.03,40.35-2.44,13.33-4.48,26.74-7.07,40.05-1.98,10.19-8,19.26-8.58,29.88-.02.34-.3.67-.29,1,1.08,21.16-7.5,40.55-11.01,60.86-2.29,13.25-1.75,26.8-4.31,40.18-14.92,78.18-29.32,156.45-43.86,234.7-.32,1.7-.32,3.46-.47,5.19h-4.18c4.16-21.5,8.42-42.98,12.46-64.5,11.8-62.88,23.37-125.8,35.4-188.64,1.9-9.91-1.09-19.87,2.01-29.69,2.8-8.86,2.47-18.54,7.7-26.89,1.89-3.02,2.63-7.47,2.24-11.08-1.71-15.67,2.73-29.91,7.6-44.55,4.13-12.42,5.34-25.81,7.78-38.78,2.64-14,4.27-28.26,8.81-41.81,7.4-22.1,21.01-38.22,44.66-44.12,4.49-1.12,8.98-1.11,13.47-1.13,74.2-.36,148.4-.8,222.6-.82,17.51,0,31.58,7.61,40.78,23.01,4.48,7.5,5.15,15.77,4.5,24.25-2.1,27.05-3.9,54.13-6.5,81.13-.92,9.53,2.93,18.36,1.93,27.87-1.86,17.63-.86,35.76-4.43,52.98-9.2,44.37-9.69,89.54-14.44,134.3-4.84,45.64-8.51,91.4-12.75,137.1-.35,3.8-1.09,7.57-1.65,11.35h-2.09Z"/><path class="cls-1" d="m271.12,50.85c-5.19-.26-10.39-.43-15.57-.84-1.77-.14-3.44-1.25-3.68-3.12-.31-2.5,1.57-3.94,3.68-4.21,10.36-1.31,20.78-.83,31.18-.51,1.97.06,3.34,1.53,3.3,3.33-.05,2.6-1.37,4.81-4.33,4.91-4.85.16-9.72.04-14.58.04,0,.13,0,.27-.01.4Z"/><path class="cls-1" d="m302.85,50.56c-2.02-.1-3.25-1.19-3.25-3.08,0-1.35.85-2.54,2.41-2.8,1.96-.32,3.35.54,3.64,2.46.3,2-1.07,2.98-2.8,3.42Z"/><path class="cls-2" d="m283.94,46.5h-26.84c-.01-.38-.03-.76-.04-1.14h26.87c0,.38.01.76.02,1.14Z"/></svg>