<?xml version="1.0" encoding="UTF-8"?><svg id="Layer_1" xmlns="http://www.w3.org/2000/svg" viewBox="0 0 843.07 963.71"><defs><style>.cls-1,.cls-2,.cls-3,.cls-4{stroke-width:0px;}.cls-2{fill:#221f20;}.cls-3{fill:#fff;}.cls-4{fill:#fffaf7;}</style></defs><path class="cls-4" d="m819,723.85c-23.03-38.84-47.1-77.06-69.77-116.1-2.05-3.54-4.16-5.86-7.09-7.42,3.26,4.57,5.57,8.87,6.31,14.62.69,5.41-6.68,5.99-9,1.93-.51-.1-1.04-.3-1.57-.62-17.75-10.53-27.32-29.72-32.12-49.16-.68-2.76.9-4.79,2.95-5.6-1-1.41-2.03-2.8-3.13-4.14-3.91-4.76,2.88-11.61,6.82-6.82,2.51,3.05,4.76,6.24,6.85,9.53-.89-3.78-2.54-7.51-5.09-11.5-30.2-47.08-58.29-95.48-87.26-143.33-40.51-66.92-80.36-134.23-120.93-201.12-34.42-56.75-68.44-113.73-102.65-170.61-1.27-2.11-2.34-4.85-5.2-4.34-12.53,2.22-23.19,9.99-35.78,12.33-1.55.29-2.03,5.4-4.94,4.1-8.21-3.68-12.17,5.01-18.73,6.49-2.78.62-8.47-.74-9.63,2.67-2.22,6.51-5.33,5.98-9.93,3.1-.83-.52-2.2-.18-2.9.6-6.18,6.89-12.94,12.07-23.12,9.73-1.71-.39-2.74,1.77-3.02,3.64-.3,2.03-1.63,3.44-3.53,2.83-7.35-2.39-13.06,3.75-18.02,6.02-9.65,4.42-19.98,7.77-29.59,12.49-6.84,3.36-13.84,9.3-21.61,9.04-7.6-.25-11.7,5.87-18.63,7.05-4.82.82-12.2,3.13-15.61,7.01-5.13,5.83-14.41,1.17-17.75,8.85-4.89-3.13-7.52-1.39-8.86,3.87-.34,1.35-1.96,2.17-3.4,1.44-8.63-4.38-11.03,7.7-18.69,7.35-1.24-.06-5.22,2.42-8.38,3.5-6.03,2.05-14.97-1.85-18.25,7.21-.89,2.45-3.18,2.37-5.31,1.66-2.86-.95-5.67-1.38-7.13,1.97-1.68,3.85-3.96,4.12-7.43,2.29-2.25-1.18-4.17.02-4.62,2.5-.69,3.74-2.64,4.52-5.97,3.23-3-1.16-5.54-.71-6.78,2.65-1.44,3.89-3.91,4.33-7.42,2.67-2.81-1.32-4.56-.34-5.19,2.87-.63,3.16-2.92,2.88-5.63,2.83-8.92-.17-14.61,9.46-10.85,17.72,24.91,54.79,50.48,109.28,75.62,163.96,41.12,89.45,82.53,178.75,123.76,268.15,28.56,61.92,57.32,123.73,85.97,185.61,18.85,40.71,37.97,81.31,56.37,122.22,2.2,4.89,4.7,9.26,10.49,10.44h2.09c5.87-3.19,13.43-4.09,17.53-9.46,5.96-7.8,20.03-1.73,22.75-14.16.18-.82,1.75-.88,2.83-.61,6.52,1.6,8.57-10.36,16.22-5.35,5.51-9.69,16.64-9.17,25.07-13.51,3.09-1.59,1.29-6.76,5.75-6.26,9.73,1.08,17.35-4.96,24.35-9.54,3.98-2.6,5.21-4.43,9.14-1.36,3.62,2.82,5.82,3.84,7.57-2.63,1.17-4.34,6.8-11,10.49-10.09,10.05,2.47,14.62-3.41,19.86-9.25.94-1.05,1.7-2.53,3.15-2.34,11.54,1.52,18.8-6.51,27.17-12.03,1.7-1.12,3.43-.86,4.88.14,5.33,3.69,9.51,4.8,10.34-3.8.13-1.36,1.78-3.32,2.64-2.69,7.62,5.53,10.21-6.15,16.88-4.72,2.97.64,1.56-6.54,4.72-5.53,8.52,2.73,12.38-4.56,18.46-6.97,4.43-1.76,10.74,2.04,14.25-4.22.2-.36,1.84.59,2.65,1.27,3.58,3.04,6.09,3.61,6.3-2.44.07-2.01,1.54-2.27,3.67-2.32,9.25-.24,15.86-8.02,25.23-8.81,7.62-.64,9.83-10.01,17.45-12.62,3.46-1.19,7.73,1.1,9-1.24,4.94-9.1,17.63-7.13,22.23-16.32.43-.85,1.7-1.18,2.79-.67,7.86,3.67,11.77-3.09,16.78-6.59,1.32-.92,2.02-2.9,4.04-2.57,9.87,1.61,16.92-6.2,24.23-9.83,5.88-2.91,12.4-6.21,18.65-9.06,12.41-5.64,13.47-7.59,6.21-19.84Z"/><path class="cls-1" d="m828.87,737.18c-1.07-2.18-2.39-4.24-3.65-6.32-20.85-34.6-41.71-69.19-62.54-103.8-4.64-7.71-9.18-15.47-14-23.61.06-.02.12-.04.18-.05-.06-.15-.11-.29-.15-.45-.11-.38-.25-.75-.41-1.11-.52-.89-1.04-1.79-1.57-2.67-.98-1.4-2.07-2.76-2.86-4.21-.46-.85-.88-1.72-1.29-2.59-3.42-5.53-6.91-11.01-10.21-16.62-3.2-5.44-5.84-11.25-9-16.72-.42-.34-.79-.75-1.05-1.25-.37-.7-.79-1.38-1.26-2.01-.08-.09-.37-.44-.45-.54-.22-.26-.44-.52-.66-.78-1.22-1.43-2.43-2.9-3.43-4.5-.04-.06-.06-.13-.09-.2-2.99-3.66-4.9-7.67-7.15-11.4-102.17-169.36-204.3-338.74-306.44-508.11-1.26-2.08-2.53-4.18-4.02-6.09-.8-1.03-3.17-2.13-3.37-.91-1.12,6.81-5.53,5.7-10.12,4.94-.42-.07-1.42,1.46-1.62,2.36-1.53,7.07-5.39.72-8.06,1.28-4.36.91-.87,7.37-5.75,7.17-.98-.04-2.02-.59-2.9-1.13-3.37-2.07-5.99-2.16-6.68,2.53-.61,4.16-2.61,4.32-5.67,2.29-3.77-2.5-6.41-2.32-7.1,2.94-.46,3.56-2.49,3.61-5.15,1.99-1.46-.89-4.15-2.01-4.5-.18-1.19,6.3-4.26,5.64-8.62,3.4-1.39-.72-2.72.63-2.77,2.18-.17,5.52-2.73,5.53-6.63,3.14-3.45-2.1-5.8-1.69-6.55,2.87-.54,3.29-2.01,5.12-5.62,2.63-2.87-1.98-5.47-1.91-5.68,2.38-.21,4.25-1.96,4.66-5.24,2.74-4.33-2.54-7.97-3.45-8.27,3.58-.07,1.59-1.35,2.68-2.87,1.78-4.9-2.9-7.32-1.97-8.21,3.98-.4,2.69-3.01,1.85-5.08.89-2.42-1.12-5.57-3.11-6.46,1.45-.93,4.75-3.18,4.39-6.64,2.74-7.64-3.65-4.26,4.99-7.13,6.51-3.51,1.85-7.01-6.02-10.77-.26-.36.55-.33,1.34-.52,2.01-1.79,6.26-5.77.3-8.54,1.51-3.35,1.46-1.58,7.06-6.08,7.3-.9.05-1.94-.74-2.75-1.37-3.6-2.78-5.75-1.45-6.77,2.45-.92,3.52-2.74,3.16-5.23,1.71-3.84-2.24-5.45-.57-6.49,3.37-1.89,7.11-6.08.52-9.17,1.16-4.33.9-.95,8.34-6.78,7.42-.64-.1-1.21-.66-1.79-1.05-3.17-2.11-5.48-1.14-6.14,2.36-.91,4.86-3.45,4.45-6.63,2.55-3.32-1.98-5.42-.74-6.26,2.55-.9,3.55-2.38,4.98-5.68,2.57-3.95-2.88-5.58-.72-6.45,2.91-.65,2.7-1.5,4.97-4.72,2.67-5.95-4.26-6.7.48-8.29,4.45-2.14,5.32-8.72-5.64-10.31,2.65-.2,1.02-.48,2.04-.87,3.01-.25.61-.64,1.41-1.17,1.63-3.83,1.59-5.94-3.5-9.49-2.61-3.03.76-1.72,7.64-7.2,5.33-.64-.27-1.26-.63-1.93-.8-6.45-1.66-3.93,5.33-6.84,7.12-3.6,2.21-7.53-5.59-10.96.4-.17.3-.3.64-.37.98-1.52,7.19-5.45,2.21-8.53,1.72-5.66-.89-1.33,7.67-6.66,7.08-.66-.07-1.31-.46-1.92-.78-3.77-1.95-6.52-1.81-7.66,3.09-.82,3.56-2.89,4.4-6.09,2.16-3.31-2.32-5.9-2.22-6.4,2.6-.5,4.88-2.92,4.8-6.35,2.6-3.72-2.39-5.79-1.3-6.3,3.09-.33,2.83-1.32,4.85-4.71,2.94-1.47-.82-3.26-2.46-4.67-1.2-1.76,1.56-.79,3.95.07,5.84,4.19,9.18,8.48,18.32,12.71,27.48,111.42,241.09,222.84,482.17,334.23,723.28,1.44,3.11,3.68,5.97,3.61,9.66h8.36c-5.01-3.38-7.75-8.32-10.17-13.72-9.67-21.61-19.41-43.18-29.43-64.63C249.76,637.62,146.84,413.67,43.56,189.89c-.88-1.9-1.89-3.74-2.65-5.68-.45-1.16-.94-3.29,1.11-2.83,4.73,1.07,4.29-2.13,4.48-4.81.3-4.38,1.95-5.53,5.99-3.2,3.41,1.96,6.02,1.24,6.68-3.18.62-4.15,2.98-2.84,5.19-1.51,3.54,2.13,6.16,1.52,6.89-2.72,1.01-5.9,3.97-5.44,8.1-3.15,2.78,1.54,4.85.6,4.99-2.73.22-5.36,2.84-4.4,5.98-2.52,2.76,1.65,5.44,2.46,5.99-1.97.56-4.53,2.71-5.09,6.4-3.27,3.6,1.78,6,.99,6.67-3.34.15-.99.46-2.21,1.15-2.82,3.12-2.73,5.58,1.38,8.7,1.02,3.22-.37,1.4-7.53,6.26-4.46,5.07,3.21,8.13,2.92,9.56-3.56,1.5-6.84,9.81,4.02,11.11-4.04.06-.34.22-.66.28-1,.65-4.17,2.81-4.31,5.69-2.04,3.91,3.09,5.44.99,6.28-2.75.77-3.44,2.14-4.87,5.61-2.35,2.78,2.02,5.34,1.77,6.12-2.21.79-4.01,2.57-5.49,6.39-3.03,3.24,2.09,5.72,2.21,6.71-2.44.73-3.42,2.49-4.78,5.81-2.16,2.92,2.31,5.31,1.71,5.93-2.16.72-4.54,2.31-6.35,6.75-3.35,3.13,2.11,5.41,1.08,5.88-2.66.6-4.8,2.73-4.68,6.33-2.74,5.51,2.97,4.41-3.78,6.96-4.99,3.27-1.55,5.54,4.73,9.29,1.75.74-.59,1.19-1.76,1.41-2.75.89-3.99,2.3-6.53,7.02-3.91,1.93,1.07,4.23.86,4.68-2.08.72-4.76,3.41-4.56,6.7-2.77,6.23,3.39,5.21-2.42,7.09-5.16,3.05-4.46,7.12,4.97,10.53-.3.36-.55.46-1.32.53-2.01.43-4.21,2.45-4.4,5.56-2.34,3.85,2.55,6.41,2.16,6.97-3.08.4-3.81,2.56-3.43,5.11-1.89,2.56,1.55,4.97,1.54,5.28-2,.52-5.96,3.07-5.97,7.39-3.3,2.42,1.49,5.82,2.67,6.51-1.53.85-5.22,3.15-4.03,6.36-2.53,2.28,1.07,4.33.21,4.42-2.51.2-6.27,3.13-5.96,7.18-3.23,4.11,2.77,6.37,2.18,6.32-3.21-.02-2.17.94-3.23,3.18-2.14.94.46,1.79,1.09,2.75,1.5,6.51,2.84,3.23-4.42,5.77-5.61,3.04-1.43,5.59,5.44,8.74.68.89-1.34.33-3.67,1.25-4.98,3.32-4.77,6.54,2.59,10.15.27,2.62-1.68,0-9.26,6.88-6.01,1.54.73,3.33,1.76,4.85,1.54,3.82-.54,1.37-6.15,5-6.98,2.88-.66,6.63,4.64,8.74-.88,1.14-2.98,2.1-3.97,4.99-2.13,1.54.98,3.77,1.22,4.84-.22,2.25-3.02,3.74-2.1,5.3.39,1.11,1.77,2.11,3.6,3.19,5.39,101.59,168.91,203.11,337.87,304.97,506.61,1.02,1.69,1.94,3.35,2.74,5,7.96,9.77,13.36,20.95,19.11,32.08,2.92,5.64,5.92,11.29,9.7,16.41,1.94,2.63,3.57,5.14,4.8,7.84.84.98,1.62,2.11,2.39,3.39,23.6,39.45,47.45,78.75,71.17,118.13,1.33,2.2,3.22,4.26,3.43,7.17-3.44,1.03-8.56-3.29-9.06,3.59-.14,1.85-1.41,2.18-2.89,1.26-7.65-4.73-4.41,5.05-7.4,5.54-3.3.54-8.24-4.81-9.07,3.09-.04.34-.14.69-.29,1-.65,1.35-1.63,2.42-3.2,1.63-3.85-1.93-6.73-2.11-7.16,3.28-.11,1.43-1.39,1.79-2.16,1.27-3.83-2.56-5.97-2.58-6.54,2.87-.31,2.95-2.82,2.28-4.81,1.15-3.17-1.8-5.57-1.28-5.85,2.64-.41,5.62-3.17,3.16-6.21,2.52-4.8-1.01-1.13,5.86-4.89,5.99-1.21.04-2.44-1.13-3.69-1.68-1.25-.54-2.57-1.5-3.79-1.4-5.08.42-.89,8.62-5.54,7.89-3.98-.62-7.26-3.56-8,3.02-.28,2.45-1.36,2.8-3.3,1.31-3.84-2.94-4.69-.54-5,2.85-.14,1.6-.75,4.79-1.44,4.21-5.28-4.4-8.62-3.87-10.45,2.97-1-.28-2.04-.46-2.99-.84-3.48-1.41-4.32.61-4.56,3.43-.14,1.66-.26,3.33-.38,4.87-.75.15-1.1.28-1.44.28-2.67,0-8.35-9.59-7.35,2.47.23,2.77-2.38,1-3.78.34-1.73-.82-4.75-3.42-5.15-1.3-1.16,6.03-2.95,7.15-8.19,3.71-1.69-1.11-2.71,1.23-2.7,3.18,0,3.83-1.49,2.95-3.46,1.13-3.55-3.29-4.6-1.16-5.11,2.38-.28,1.93.6,4.13-1.24,5.8-4.33-.69-5.28-6.67-10.12-6.54-2.4,2.21.06,6.21-2.02,7.7-3.35,2.4-5.13-3.56-9.12-2.64-3.62.83.91,8.87-5.6,5.8-4.55-2.15-4.55.78-6.17,3.78-2.23,4.15-5.55-4.05-8.62-.27-.61.76-.87,1.85-1.12,2.84-.67,2.6-1.58,3.71-4.09,1.41-4.07-3.73-5.22-1.03-5.69,2.81-.2,1.67-.01,3.45-1.41,4.77-11.86-4.64-8.48-5.15-12.67,7.47-2.69.5-4.55-1.43-6.77-2.31-3.66-1.45-7.47-3.49-8.58,2.86-.48,2.78-1.92,2.01-3.47.81-3.23-2.52-5.09-1.61-5.41,2.38-.39,4.83-2.22,5.48-5.65,2.14-.79-.77-2.44-1.26-2.68-.56-1.79,5.26-4.62,3.5-8,1.78-1.32-.67-1.96,1.47-2.65,2.65-1.58,2.67-.37,6.23-2.72,8.67q-8.53-6.07-9.68,3.49c-.1.82-.61,1.19-1.48,1.09q-6.48-3.93-10.61,2c-.39.55-1.07,1.59-1.18,1.54-7.37-3.65-5.27,2.47-5.52,5.56-.41,5.2-2.4,3.48-5.23,1.78-2.68-1.61-6.8-8.13-8.51-2.35-2.84,9.58-6.3-1.5-8.44,1.31-.58.76-.73,1.91-.86,2.91-.28,2.16.51,4.58-1.04,6.61-5.91-3.61-5.96-3.64-9.61,2.21-1.06,1.7-2.4,1.37-3.4.51-4.6-3.97-6.41-3.88-7.29,3.01-.62,4.83-4.02-.96-6.37.04-3.22,1.37.13,7.93-3.75,6.47-4.58-1.72-7-3.87-8.63,2.77-.42,1.73-5.48-3.95-7.09,1.46-.62,2.09.87,4.87-2.16,6.58-1.39-1.05-2.74-2.1-4.12-3.11-3.61-2.68-4.8-1.01-5.07,2.73-.13,1.85.82,4.15-1.57,5.34q-8.59-3.87-8.55,5.22c0,.97.21,2.07-1.5,2.67-2.8-.58-6.87-10.16-9.17.84-.4,1.93-2.15.17-3.08-.54-1.15-.88-3.25-1.94-3.58-.91-1.34,4.07-1.81,8.53-7.9,4.83-.75-.45-1.44,1.16-1.64,2.2-.41,2.14.71,4.68-1.18,6.59-1.07-.58-1.67-.86-2.23-1.23q-6.06-4.02-7.04,2.74c-.15,1.03-.22,2.08-.33,3.11h4.18c1.39-1.28,2.79-1.28,4.18,0h6.27c.62-3.08-1.99-10.14,5.68-4.56.85.62,2.46-.05,2.49-1.01.13-4.3,1.21-6.16,5.72-3.46,1.2.72,2.38-1.08,2.5-2.54.45-5.56,2.56-3.23,4.84-1.14,3.46,3.17,5.48,2.56,5.67-2.36.15-3.66-1.97-9.33,5.83-5.68,2.62,1.23,3.2-1.87,3.28-3.96.19-4.44,1.86-4.79,4.94-2.01,4.28,3.87,6.66,3.23,6.83-2.87.06-2.21.35-4.57,3.4-2.15,3.21,2.55,5.04,2.01,5.21-2.24.12-2.87.99-3.88,3.54-1.77,2.63,2.17,5.07,3.16,5.48-1.64.25-2.86.19-5.15,4.01-2.64,4.07,2.67,4.82.03,4.48-3.33-.42-4.13.6-5.4,4.35-2.68,2.82,2.04,5.29,2.39,5.66-2.07.29-3.48,1.32-4.51,4.27-1.99,1.52,1.31,2.69,3.26,4.8,3.11,2.97-2.02,1.34-7.68,2.24-7.27,8.39,3.84,6.73-3.69,8.2-7.09,2.39.1,3.46,1.6,4.83,2.63,5.74,4.32,5.79,4.33,9.21-2.68.44-.9.59-2.37,1.69-2.01,8.65,2.89,4.71-5.22,7.06-8.04.91.39,2.05.55,2.7,1.21,4.22,4.3,6.99,3.97,8.32-2.28.25-1.18.9-3.36,2.57-2,7.24,5.86,7.94.84,8.31-4.79.37-5.57,2.32-3.79,4.7-1.14.64.72,2.41,1.59,2.54,1.44,3.87-4.61,14.15-1.05,12.94-11.48q8.83,6.09,10.14-4.85,12.69,4.33,17.15-6.97c1.74,1.31,3.35,2.58,5.03,3.76,2.06,1.45,4.04,1.65,4.64-1.34.87-4.36,2.07-6.86,6.77-3.1,1.09.87,2.23-.96,2.81-2.28.79-1.81.02-4.26,2.23-5.48.66.24,1.46.31,1.9.74,3.49,3.47,6.77,6.69,7.27-1.83.21-3.55,2.18-2.82,4.04-1.3,3.77,3.09,6.2,3.35,6.2-2.58,0-6.1,2.67-2.98,4.69-1.24,2.88,2.48,5.14,2.63,5.6-1.7.55-5.19,2.44-4.89,5.62-1.91,2.05,1.92,5.67,2.18,6.29.07,1.46-4.98,2.36-5.58,7.33-2.89,4.75,2.58,2.07-4.72,4.81-5.72,2.38-.87,5.95,4.85,7.35-.87.87-3.58,1.46-5.22,5.17-2.81,2.22,1.44,4.62,2.22,5.56-1.54.7-2.81,2.4-1.72,3.94-.96,3.47,1.7,4.23-.54,4.76-3.2.4-1.99-.71-4.18.83-6.03.67.07,1.44-.05,2.01.24,3.36,1.68,7.15,5.1,7.32-2.58.05-2.06,1.63-1.73,2.88-.81,4.16,3.08,6.16,1.73,6.97-3.07.92-5.45,7.96,3.96,8.04-3.05.07-5.82,1.77-6.31,6.38-3.38,1.86,1.19,2.69-1.11,3.43-2.74.91-1.99-.25-4.97,2.74-6.17,2.16,1.3,4.11,2.88,6.34,3.72,4.65,1.76,3.57-2.77,4.86-4.73.29-.45,1.26-.92,1.66-.75,4.73,1.93,6.41-.23,6.61-4.67.07-1.51.95-3.12,2.46-2.02,4.65,3.39,7.2,2.57,8.81-3.04.42-1.47,2.28.28,3.42.78,1.38.61,3.14.85,3.42-.84.79-4.94,2.21-7.89,7.87-4.6.93.54,2.51-1.04,2.76-2.55.73-4.33,2.18-6.61,6.5-2.84.65.57,1.92.44,2.9.63,1.03-6.81,5.73-6.94,11.01-6.08.15.02.57-.51.55-.77-.52-7.43,3.89-5.1,7.93-4.23,3.13.67,4.92-.61,3.24-4.05Z"/><path class="cls-3" d="m399.89,939.3c1.39-4.04,2.79-.71,4.18,0h-4.18Z"/><path class="cls-1" d="m312.81,299.97c-1.01.66-1.78-.47-2.41-1.1-3.6-3.62-7.16-7.3-10.7-11-2.08-2.17-4.01-4.54-6.16-6.59-4.97-4.74-9.7-9.73-13.93-15.35-3.47-4.61-7.39-8.7-11.43-12.61-1.74-1.69-3.71-3.1-5.66-4.39-4.84-3.21-8.99-2.83-12.63-.43-4.64,3.07-7.57,7.86-9.37,13.73-.68,2.24-1.17,4.6-1.74,6.88-1.03-.25-.89-.93-.82-1.47.98-7.9,3.82-14.39,8.95-18.87,3.68-3.22,8.07-5.11,13.89-2.39,1.98-4.09,3.32-13.53,2.65-18.72-2.03.12-2.78,1.89-3.79,3.22-2.38,3.13-4.38,6.69-7.06,9.45-6.59,6.79-12.58,14.33-20.24,19.78-1.83,1.3-3.75,2.44-5.61,3.7-5.03,3.4-7.41,8.83-6.8,16.42.25,3.17,1.15,6.38,3.09,9.35,3.38,5.17,8.88,7.91,13.33,6.5,2.01-.64,3.8-1.79,5.84-2.79-.51-1.42-.97-2.53-1.29-3.64-.23-.8-.4-1.67-.37-2.42.05-1.21,1.13-1.76,2.15-1.15,2.41,1.44,4.8,2.94,7.2,4.45.41.26.84.62,1.16,1.03,3.87,4.97,8.95,7.52,13.49,11.14,1.23.98,2.57,1.33,3.87,1.09,1.61-.3,3.3-.37,4.87-.75,3.02-.73,5.99-1.57,8.96-2.43,2.65-.77,3.41-3.23,3.3-6.35-.03-.97-.19-1.99-.44-2.99-1.44-5.53-3.03-11.04-5.62-16.41-1.49-3.1-3.22-5.98-5.74-8.02-2.53-.41-2.82,1.74-3.39,3.55-1.18-.39-2.16-.71-3.88-1.27.4-.67.58-1.03.81-1.36,1.16-1.65,3.08-1.95,5.1-2.34-.27-1.93-1.46-3.45-2.56-5.33-2.17.64-3.98,1.56-5.18,3.52-.16.27-.94.34-1.1.15-.39-.46-.82-1.2-.82-1.71-.02-2.46,1.55-3.2,3.29-3.67,1.11-.3,2.26-.51,3.61-.8.53.88,1.22,2.12,2,3.31,1.27,1.95,2.42,4.07,3.92,5.76,3.31,3.73,5.46,8,7.11,12.49,1.51,4.13,2.71,8.31,4.09,12.59,4,4.2,9.23,5.92,13.23,10.35-.08,1.03-.78.5-1.24.18-3.73-2.65-7.44-5.34-11.39-8.18-.16.64-.4,1.12-.41,1.68-.06,3.8-2,5.68-4.86,6.53-3.21.96-6.49,1.75-9.74,2.65-.34.09-.61.34-1.2.69,1.99,1.54,3.75,2.84,5.46,4.24,6.77,5.55,10.46,12.4,10.5,20.7,0,.38-.3.67-.55,1.21-1.02-1.58-.8-2.87-.91-4.09-.59-6.61-4.05-11.8-9-16.18-1.95-1.72-4.06-3.17-6.15-4.6-1.08-.74-2.27-1.19-3.41-1.72-1.02-.48-2.17-.64-3.04-1.37-4.5-3.73-9.65-6.1-13.59-11-.33-.41-.72-.84-1.13-1.09-2.38-1.44-4.77-2.84-7.18-4.26-.57,1.89.34,3.33,1.67,4.67,2.15,2.18,4.54,3.72,7.03,4.93,1.72.83,3.46,1.53,5.14,2.26.4,1.25-.38,1.03-.86.91-1.41-.37-2.83-.86-4.48-1.38.63,2.13,1.74,3.51,2.85,4.84,5.24,6.32,10.49,12.63,15.76,18.91,3,3.57,5.87,7.22,7.75,11.57.22.5.18,1.08.03,1.68-4.46-8.72-11.31-15.18-17.15-22.53-3.45-4.33-6.89-8.68-10.34-13-1.23-1.53-2.47-3.06-3.76-4.53-.56-.64-1.25-1.15-2.01-1.84-.96.67-1.81,1.25-2.66,1.84-1.53,1.07-3.27,1.63-5.2,1.94-5.51.91-13.3-2.8-16.52-13.77-1.43-4.85-1.07-9.23.24-13.23.41-1.24.91-2.4,1.45-3.8-1.21-1.57-2.44-3.07-3.57-4.65-3.37-4.71-6.36-9.6-7.92-15.1-.38-1.33-.72-2.69-.87-4-.68-6.01,1.15-10.08,5.6-12,1.46-.63,3-1.12,4.48-1.69,1.9-.74,3.36-1.94,4.31-3.99,1.21-2.62,2.63-2.98,5.63-1.43,2.74,1.42,5.44,3.13,8.1,4.9,4.21,2.79,8.36,5.74,12.54,8.6.68.47,1.39.85,2.22,1.37,2.48-2.54,4.45-5.48,6.51-8.33,1.11-1.53,2.39-2.89,3.6-4.32.59-.7,1.4-.74,2.32-.05.93.69,1.26,1.71,1.25,2.73,0,1.12-.02,2.26-.17,3.32-.53,3.82-1.09,7.63-1.69,11.42-.17,1.05-.52,2.02-.82,3.17,1.08.92,1.81,1.61,2.59,2.21,4.94,3.82,9.3,8.52,13.3,13.55,5.37,6.74,10.92,13.2,17.12,18.91.77.71,1.47,1.53,2.19,2.3,4.94,5.3,9.88,10.61,15.02,16.12Zm-62.26-59.98c-6.85-4.64-13.09-8.91-19.36-13.11-1.11-.74-2.29-1.28-3.46-1.78-1.44-.62-2.71-.48-3.24.89-1.53,3.91-4.7,5.34-8.32,6.24-1.27.32-2.5.94-3.45,1.8-3.17,2.85-3.49,7.3-2.1,12.45,1.96,7.28,6.02,13.47,10.94,18.9,11.26-6.34,20.27-15.26,28.99-25.39Z"/><path class="cls-1" d="m374.41,227.52c2.35,1.64,3.18-.26,4.56-1.1,1.78,1.94,2.64,4.26,3.3,6.54.3,1.05.1,2.28-.21,3.2-1.53,4.49-6.45,6.59-11.27,4.95-3.42-1.16-5.84-3.66-7.34-7.49-1.86-4.77-3.76-9.54-5.67-14.31-.85-2.11-1.75-4.21-2.72-6.54-2.73.69-4.91,1.79-7.12,3.38,2.41,6.32,4.9,12.52,7.61,18.68.33.76.95,1.43,1.57,2.35.75-.13,1.41-.21,2.04-.36.51-.11.99-.3,1.39-.42.43.34.78.5.93.76.62,1.09,1.15,2.22,1.77,3.31,1.69,2.99,1.25,5.1-.38,6.89-1.58,1.73-3.49,2.86-5.81,3.23-4,.64-8.82-2.75-11.01-7.79-2.19-5.05-4.23-10.15-6.29-15.24-.8-1.96-1.62-3.89-2.68-5.71-1.06-.14-1.89-.25-2.7-.36-1.42-1.68-1.82-3.54-2.36-5.37-.74-2.47,1.54-2.38,2.08-3.94-.95-2.34-1.92-4.76-2.95-7.3,2.46-3.06,5.95-4.1,9-6.11,1.99,2,2.46,4.52,3.83,6.83,2.93-.07,4.9-1.73,7.13-3.3-.46-1.24-.86-2.37-1.29-3.49-1.06-2.74-1.01-3.3.7-4.35,2.24-1.37,4.53-2.68,7-4.13.49.61,1.13,1.19,1.48,1.89.8,1.58,1.47,3.21,2.3,5.07,1.6-.52,3.08-1,4.72-1.53,2.04,2.89,3.09,5.76,3.76,8.98-1.2.81-2.37,1.6-3.71,2.5.61,3.51,2.47,6.84,3.88,10.18,1.43,3.4,2.34,7.01,4.49,10.06Zm-23.62-31.17c-.34,2.93,2.08,5.24,1.32,7.65-2.59,1.31-5.09,3.03-8.35,3.53-1.25-2.28-2.42-4.43-3.69-6.76-1.65.17-2.76,1.13-3.94,1.92-1.18.8-2.3,1.71-3.43,2.56.79,2.9,2.36,5.45,2.76,8.17-.83.9-1.61,1.75-2.47,2.68l2.11,3.87c.93.08,1.75.15,2.67.23,1.57,3.72,3.07,7.31,4.6,10.9,1.67,3.92,3.21,7.9,5.07,11.75,2.13,4.42,5.35,6.42,9.19,6.27,3.41-.13,5.05-2.55,6.59-5.38-.79-1.69-1.52-3.27-2.27-4.9-.59-.08-1-.17-1.41-.2-3.37-.21-4.15-.79-5.69-4.4-.84-1.96-1.66-3.93-2.37-5.92-1.53-4.27-3.64-8.44-4.82-13.16,2.85-1.32,5.17-3.5,8.34-4.17,1.52,1.49,1.94,3.2,2.59,4.81,2.39,5.91,4.76,11.84,7.24,17.73,1.77,4.2,3.95,5.94,7.62,6.52,2.62.41,4.64-.56,6.44-1.93,2.43-1.86,2.64-3.88.98-7.88-.18-.44-.54-.83-.84-1.28-.48.1-.88.16-1.26.25-3.26.8-4.35.11-5.94-3.8-2.2-5.42-4.4-10.84-6.56-16.27-.37-.94-.56-1.92-.84-2.92,1.39-1.01,2.63-1.92,3.87-2.83-.91-2-1.34-3.83-2.41-5.46-1.81.43-3.35.8-4.79,1.14-2.04-2.04-1.99-4.5-3.35-6.6-2.9.45-4.95,2.31-6.96,3.87Z"/><path class="cls-1" d="m312.78,270.33c-2.44,2.53-6.04,4.41-9.8,5.12-3.06-7.13-5.2-14.45-7.83-21.67-2.64-7.25-5.02-14.55-7.86-22.19-4.39,1.62-8.12,3.85-12.32,5.5-1.86-3.06-2.13-5.97-2.85-9.13,10.05-5.41,20.06-10.67,30.53-15.47,2.52,3.23,3.05,6.49,3.73,9.74-2.15,2.46-5.53,2.71-8.04,4.85.21.96.35,2.11.73,3.22,4.3,12.44,8.64,24.87,12.96,37.3.29.82.46,1.66.75,2.72Zm-16.05-44.5l8.22-3.9c-.16-2.67-1.05-4.88-2.17-7.07-3.52.97-26.61,12.19-29.29,14.27.79,1.65.48,3.63,2.14,5.65,1.05-.39,2.06-.7,3-1.13,2.28-1.06,4.51-2.22,6.82-3.23.67-.3,1.52-.25,2.48-.39,2.88,7.36,5.15,14.5,7.73,21.57,2.64,7.23,4.85,14.55,7.93,21.96.97-.33,1.75-.51,2.45-.84,1.78-.84,3.53-1.74,5.37-2.66-.61-1.94-1.09-3.59-1.65-5.23-4.03-11.79-8.09-23.57-12.12-35.36-.38-1.12-.57-2.27-.91-3.65Z"/><path class="cls-1" d="m387.69,184.39c.64,1.17,1.06,1.77,1.3,2.41.71,1.96,1.36,3.93,2.01,5.84-1.01,1.53-2.69,1.4-4.07,1.77-1.61.43-2.92,1.27-3.93,2.57-.81,1.04-.36,2.84.87,3.99,1.59,1.48,3.32,2.31,5.11,2.82,1.47.42,2.94.67,4.41,1.17,5.84,1.99,9.9,7.88,9.89,14.26,0,2.81-.62,5.29-2.14,7.07-1.38,1.62-2.94,3.1-4.67,4.27-2.2,1.5-7.95,2.49-11.64,2.38-1.69-2.52-3.43-5.11-3.85-8.44,2.16-.27,4.19-.49,6.19-.78,1.93-.28,4.14-.66,3.74-3.46-.35-2.47-2.76-3.5-4.55-4.62-1.55-.97-3.18-1.68-4.78-2.4-6.44-2.91-10.8-10.91-8.52-18.12,1.68-5.3,5.33-8.25,10.02-9.84,1.37-.46,2.9-.57,4.61-.9Zm-2.67,46.79c.52.2,1,.53,1.37.5,3.75-.37,7.29-1.25,10.3-3.22,2.58-1.68,4.59-4.03,5.11-7.74,1-7.15-3.51-13.03-9.14-14.56-1.62-.44-3.26-.65-4.84-1.35-1.57-.69-3.22-1.62-4.6-2.86-2.1-1.89-2.52-4.35-1.24-6.18.53-.76,1.3-1.32,2.07-1.8.78-.49,1.66-.81,2.54-1.14.84-.32,1.72-.55,2.61-.83-.25-2.22-.79-4.13-2.45-5.96-3.28.58-6.19,1.84-8.61,3.91-2.14,1.83-3.66,4.31-4.17,7.6-.89,5.73,1.87,11.05,7.32,14.05,1,.55,2.05.91,3.06,1.46,1.44.78,2.89,1.56,4.27,2.53.94.67,1.85,1.59,2.61,2.55,1.67,2.12,1.79,4.46.11,5.48-1.44.88-3.14,1.38-4.81,1.84-1.13.31-2.42.23-3.89.35.59,2,1.32,3.72,2.41,5.36Z"/><path class="cls-1" d="m329.38,216.22c.55,1.09,1.11,2.01,1.48,2.97,4.73,12.17,9.43,24.35,14.08,36.39-2.51,2.46-7.03,4.53-10.23,4.69-.66-1.32-1.36-2.71-2.03-4.07-1.15-.38-1.12.62-1.28,1.24-.66,2.47-1.66,4.64-3.2,6.36-3.86,4.3-10.08,2.84-14.57-3.43-2.12-2.96-3.73-6.17-4.79-9.53-1.93-6.13-2.4-11.99-1.47-17.56.84-5.04,3.1-8.83,6.96-10.87,4.43-2.35,9.13-4.22,13.72-6.28.22-.1.56.03,1.34.08Zm13.78,38.98c-.3-1.16-.46-2.16-.83-3.12-4.38-11.33-8.79-22.66-13.28-34.23-1.17.36-2.07.58-2.92.92-2.23.87-4.51,1.66-6.64,2.72-2.24,1.12-4.45,2.33-6.42,3.86-1.88,1.46-3.17,3.61-3.86,6.28-1.53,5.96-1.32,12.36,1,19.24.77,2.3,1.72,4.68,2.99,6.79,4.9,8.14,11.65,9.42,15.32,3.03,1.26-2.2,1.9-4.8,2.24-7.59.09-.74.05-1.63,1.09-1.63,1.33,2.21,1.82,4.89,3.81,7.21,2.75-.64,5.12-1.94,7.5-3.49Z"/><path class="cls-1" d="m281.37,286.3c.96,4.95.63,6.23-2.24,7.34-1.44.56-3.1.68-4.85,1.03-.16-3.6,2.42-5.77.5-9.84,1.27,1.02,2.16,1.8,3.37,1.29.86-.36,2.15.09,3.22.18Z"/><path class="cls-1" d="m257.73,269.14c-1.6.81-2.97,1.57-4.39,2.21-4.43,2.01-4.44,1.99-6.76,5.48-.19-.89-.45-1.51-.42-2.01.19-2.63,1.3-4.58,3.05-5.81,1.6-1.12,3.49-1.81,5.32-2.57.42-.17,1.22-.02,1.64.35.56.49.91,1.34,1.56,2.35Z"/><path class="cls-1" d="m259.88,274.76q-1.82,1.65-2.39,4.89c-2-.43-3.95-.25-5.79.38,2.17-2.37,3.18-6.4,8.19-5.27Zm-4.18,3.03c.08.11.17.29.24.31.12.03.23-.05.35-.09-.12-.16-.24-.33-.36-.49-.08.09-.16.18-.23.27Z"/><path class="cls-1" d="m265.27,270.02c1.38,1.25,2.75,2.53,4.15,3.75,1.29,1.12,2.65,2.12,3.93,3.27.75.68,1.53,1.52.77,2.71-2.59-3.73-6.89-4.97-8.85-9.73Z"/><path class="cls-1" d="m267.59,281.78l1.87,3.43c-1.76-.95-2.2-1.98-1.87-3.43Z"/><path class="cls-1" d="m270.88,282.78c-.15-.25-.31-.5-.46-.75.15-.09.29-.17.44-.26.11.29.24.57.32.86.01.04-.19.1-.29.15Z"/><path class="cls-1" d="m249.74,293.41c-.08.38-.13.63-.18.87-.34-.27-.68-.52-1-.83-.07-.06-.02-.31-.02-.47.39.14.78.28,1.2.43Z"/><path class="cls-4" d="m250.55,239.99c-8.73,10.13-17.73,19.05-28.99,25.39-4.92-5.44-8.98-11.62-10.94-18.9-1.39-5.15-1.07-9.59,2.1-12.45.96-.86,2.18-1.48,3.45-1.8,3.62-.9,6.79-2.33,8.32-6.24.53-1.37,1.8-1.51,3.24-.89,1.16.5,2.35,1.04,3.46,1.78,6.27,4.2,12.51,8.46,19.36,13.11Z"/><path class="cls-4" d="m350.79,196.36c2.01-1.56,4.06-3.42,6.96-3.87,1.37,2.1,1.31,4.56,3.35,6.6,1.44-.34,2.97-.71,4.79-1.14,1.07,1.63,1.5,3.46,2.41,5.46-1.25.91-2.49,1.82-3.87,2.83.28,1,.46,1.98.84,2.92,2.16,5.43,4.36,10.85,6.56,16.27,1.59,3.91,2.68,4.6,5.94,3.8.38-.09.77-.16,1.26-.25.3.45.66.84.84,1.28,1.66,4,1.45,6.02-.98,7.88-1.8,1.38-3.81,2.34-6.44,1.93-3.68-.57-5.85-2.31-7.62-6.52-2.48-5.89-4.85-11.81-7.24-17.73-.65-1.62-1.07-3.32-2.59-4.81-3.17.67-5.49,2.85-8.34,4.17,1.18,4.72,3.3,8.89,4.82,13.16.71,1.99,1.53,3.96,2.37,5.92,1.54,3.61,2.32,4.19,5.69,4.4.41.03.83.11,1.41.2.75,1.62,1.49,3.21,2.27,4.9-1.54,2.83-3.18,5.25-6.59,5.38-3.84.15-7.06-1.86-9.19-6.27-1.86-3.86-3.4-7.83-5.07-11.75-1.53-3.59-3.03-7.19-4.6-10.9-.92-.08-1.74-.15-2.67-.23l-2.11-3.87c.85-.93,1.64-1.78,2.47-2.68-.41-2.72-1.97-5.26-2.76-8.17,1.14-.86,2.25-1.76,3.43-2.56,1.18-.8,2.29-1.75,3.94-1.92,1.27,2.33,2.44,4.48,3.69,6.76,3.27-.5,5.76-2.22,8.35-3.53.76-2.4-1.66-4.72-1.32-7.65Z"/><path class="cls-4" d="m296.73,225.83c.34,1.38.53,2.53.91,3.65,4.02,11.79,8.08,23.57,12.12,35.36.56,1.64,1.04,3.28,1.65,5.23-1.85.92-3.59,1.82-5.37,2.66-.7.33-1.47.51-2.45.84-3.08-7.41-5.3-14.73-7.93-21.96-2.58-7.08-4.85-14.21-7.73-21.57-.96.14-1.81.09-2.48.39-2.3,1.02-4.53,2.18-6.82,3.23-.94.43-1.95.74-3,1.13-1.65-2.02-1.35-3.99-2.14-5.65,2.67-2.08,25.77-13.3,29.29-14.27,1.12,2.19,2.01,4.39,2.17,7.07l-8.22,3.9Z"/><path class="cls-4" d="m385.02,231.17c-1.09-1.64-1.82-3.36-2.41-5.36,1.47-.12,2.76-.04,3.89-.35,1.68-.45,3.37-.96,4.81-1.84,1.68-1.03,1.56-3.37-.11-5.48-.76-.96-1.67-1.88-2.61-2.55-1.37-.98-2.83-1.75-4.27-2.53-1.01-.55-2.05-.91-3.06-1.46-5.45-3-8.21-8.32-7.32-14.05.51-3.29,2.04-5.78,4.17-7.6,2.42-2.07,5.33-3.33,8.61-3.91,1.66,1.82,2.2,3.74,2.45,5.96-.89.28-1.77.51-2.61.83-.87.33-1.76.65-2.54,1.14-.77.48-1.54,1.04-2.07,1.8-1.27,1.82-.86,4.29,1.24,6.18,1.38,1.24,3.03,2.17,4.6,2.86,1.59.69,3.23.91,4.84,1.35,5.64,1.53,10.14,7.41,9.14,14.56-.52,3.71-2.52,6.06-5.11,7.74-3.01,1.96-6.55,2.85-10.3,3.22-.37.04-.85-.3-1.37-.5Z"/><path class="cls-4" d="m343.16,255.21c-2.37,1.55-4.75,2.85-7.5,3.49-2-2.32-2.48-5-3.81-7.21-1.05,0-1,.89-1.09,1.63-.34,2.79-.97,5.4-2.24,7.59-3.67,6.38-10.42,5.1-15.32-3.03-1.27-2.11-2.22-4.49-2.99-6.79-2.32-6.88-2.54-13.28-1-19.24.69-2.67,1.97-4.82,3.86-6.28,1.97-1.53,4.19-2.74,6.42-3.86,2.12-1.06,4.4-1.85,6.64-2.72.85-.33,1.75-.55,2.92-.92,4.49,11.57,8.9,22.9,13.28,34.23.37.96.53,1.96.83,3.12Zm-24.35-3.87c1.97,3.54,4.48,4.33,6.13,2.32.34-.41.64-.89.87-1.41,1.06-2.36,1.76-4.94,1.64-7.93-.18-4.43-1.02-8.93-2.28-13.47-.18-.66-.44-1.34-.74-1.98-1.03-2.2-3.18-3.27-4.44-1.99-1,1.02-1.88,2.35-2.32,3.86-1.59,5.35-1.62,11.25.16,17.64.32,1.16.77,2.32.98,2.95Z"/><path class="cls-3" d="m255.47,277.28c.12-.17.23-.35.35-.52.25.38.49.75.74,1.13-.2.05-.38.19-.6.1-.13-.05-.33-.46-.49-.71Z"/><path class="cls-1" d="m318.81,251.34c-.21-.63-.66-1.79-.98-2.95-1.79-6.4-1.75-12.29-.16-17.64.45-1.5,1.32-2.84,2.32-3.86,1.27-1.28,3.41-.21,4.44,1.99.3.64.55,1.31.74,1.98,1.26,4.54,2.1,9.04,2.28,13.47.12,2.99-.57,5.57-1.64,7.93-.23.52-.53.99-.87,1.41-1.65,2.01-4.16,1.22-6.13-2.32Zm1.14-.72c1.43,2.61,2.78,3.04,3.92,1.71.43-.5.8-1.1,1.05-1.77.81-2.18,1.48-4.5,1.15-7.18-.47-3.79-1.15-7.62-1.91-11.45-.25-1.25-.57-2.75-1.9-3.61-.96-.62-2.16.25-2.97,2.1-.11.26-.24.51-.32.79-1.5,5.07-1.46,10.64-.04,16.62.27,1.15.85,2.29,1.04,2.78Z"/><path class="cls-4" d="m319.95,250.62c-.19-.49-.77-1.64-1.04-2.78-1.42-5.98-1.46-11.55.04-16.62.08-.28.21-.53.32-.79.81-1.85,2.01-2.72,2.97-2.1,1.34.87,1.66,2.37,1.9,3.61.76,3.82,1.44,7.66,1.91,11.45.33,2.68-.35,5-1.15,7.18-.25.66-.61,1.27-1.05,1.77-1.14,1.32-2.48.89-3.92-1.71Z"/><path class="cls-2" d="m333.81,418.04l-2.03.96,5.54,10.15-1.22.58-5.54-10.15-2.03.96-.87-1.6,5.27-2.5.87,1.6Z"/><path class="cls-2" d="m345.44,425.3l-1.22.58-1.46-2.67-2.84,1.35,1.46,2.67-1.22.58-2.33-4.28-.29-.53-.58-1.07.41-.19-.58-1.07.41-.19-.58-1.07.41-.19-.58-1.07.41-.19-.58-1.07.41-.19-.58-1.07.41-.19-.29-.53.41-.19.29.53.41-.19.58,1.07.41-.19.58,1.07.41-.19.58,1.07.41-.19.58,1.07.41-.19.58,1.07.41-.19.58,1.07.29.53,2.33,4.28Zm-3.55-3.7l-.29-.53-.29-.53-.41.19-.58-1.07-.41.19-.58-1.07-.41.19-.58-1.07-.41.19.58,1.07-.41.19.58,1.07-.41.19.58,1.07-.41.19.29.53.29.53,2.84-1.35Z"/><path class="cls-2" d="m351.52,422.42l-1.22.58-.58-1.07-.41.19-.58-1.07-.41.19-.58-1.07-.41.19-.58-1.07-.41.19-.58-1.07-.81.38.29.53-.41.19,2.62,4.81-1.22.58-6.41-11.76,1.22-.58,2.62,4.81.41-.19-.29-.53.41-.19-.29-.53.41-.19-.29-.53.41-.19-.29-.53.41-.19-.29-.53.41-.19-.3-.55.41-.19-.28-.52.41-.19-.29-.53.41-.19-.29-.53.41-.19,1.17,2.14-.41.19.29.53-.41.19.29.53-.41.19.28.52-.41.19.3.55-.41.19.29.53-.41.19.29.53.41-.19.29.53.41-.19.58,1.07.41-.19.58,1.07.41-.19.58,1.07.41-.19.58,1.07.41-.19.87,1.6Z"/><path class="cls-2" d="m357.61,419.53l-5.27,2.5-6.41-11.76,5.27-2.5.87,1.6-4.06,1.92,1.75,3.21,3.25-1.54.87,1.6-3.25,1.54,2.04,3.74,4.06-1.92.87,1.6Z"/><path class="cls-2" d="m369.79,413.76l-1.22.58-1.46-2.67-2.84,1.35,1.46,2.67-1.22.58-2.33-4.28-.29-.53-.58-1.07.41-.19-.58-1.07.41-.19-.58-1.07.41-.19-.58-1.07.41-.19-.58-1.07.41-.19-.58-1.07.41-.19-.29-.53.41-.19.29.53.41-.19.58,1.07.41-.19.58,1.07.41-.19.58,1.07.41-.19.58,1.07.41-.19.58,1.07.41-.19.58,1.07.29.53,2.33,4.28Zm-3.55-3.7l-.29-.53-.29-.53-.41.19-.58-1.07-.41.19-.58-1.07-.41.19-.58-1.07-.41.19.58,1.07-.41.19.58,1.07-.41.19.58,1.07-.41.19.29.53.29.53,2.84-1.35Z"/><path class="cls-2" d="m381.38,406.91l-.41.19.29.53-.41.19.29.53-2.84,1.35-.29-.53-.41.19-.29-.53-.41.19-.29-.53-.41.19-.29-.53-.41.19-4.08-7.48.41-.19-.29-.53.41-.19-.29-.53.41-.19-.29-.53.41-.19-.29-.53,2.84-1.35.29.53.41-.19.29.53.41-.19.58,1.07-1.22.58-.29-.53-2.03.96.29.53-.41.19.29.53-.41.19,3.5,6.41.41-.19.29.53.41-.19.29.53,2.03-.96-1.75-3.21-.41.19.29.53-1.22.58-1.17-2.14,2.84-1.35,2.92,5.34Z"/><path class="cls-2" d="m388.05,405.1l-1.22.58-1.46-2.67-2.84,1.35,1.46,2.67-1.22.58-2.33-4.28-.29-.53-.58-1.07.41-.19-.58-1.07.41-.19-.58-1.07.41-.19-.58-1.07.41-.19-.58-1.07.41-.19-.58-1.07.41-.19-.29-.53.41-.19.29.53.41-.19.58,1.07.41-.19.58,1.07.41-.19.58,1.07.41-.19.58,1.07.41-.19.58,1.07.41-.19.58,1.07.29.53,2.33,4.28Zm-3.55-3.7l-.29-.53-.29-.53-.41.19-.58-1.07-.41.19-.58-1.07-.41.19-.58-1.07-.41.19.58,1.07-.41.19.58,1.07-.41.19.58,1.07-.41.19.29.53.29.53,2.84-1.35Z"/><path class="cls-2" d="m394.14,402.21l-1.22.58-3.21-5.88-.41.19.58,1.07-.41.19.58,1.07-.41.19.58,1.07-.41.19-.58-1.07-.41.19-.58-1.07-.41.19-.58-1.07-.41.19,3.21,5.88-1.22.58-6.41-11.76.41-.19.58,1.07.41-.19.58,1.07.41-.19.58,1.07.41-.19.58,1.07.41-.19.58,1.07.41-.19.58,1.07.41-.19-.58-1.07.41-.19-.58-1.07.41-.19-.58-1.07.41-.19-.58-1.07.41-.19-.58-1.07.41-.19-.58-1.07.41-.19,6.41,11.76Z"/><path class="cls-2" d="m399.35,397.72l-.41.19.29.53-.41.19.29.53-.41.19.29.53-4.06,1.92-6.41-11.76,4.06-1.92.29.53.41-.19.29.53.41-.19.29.53.41-.19,1.46,2.67-.41.19.29.53-.41.19.29.53-.41.19.29.53.41-.19.29.53.41-.19.29.53.41-.19,1.75,3.21Zm-4.72-5.84l-.87-1.6-.41.19-.29-.53-2.43,1.15,1.75,3.21,2.03-.96-.29-.53.41-.19-.29-.53.41-.19Zm3.21,5.88l-1.17-2.14-.41.19-.29-.53-.41.19-.29-.53-2.03.96,2.04,3.74,2.43-1.15-.29-.53.41-.19Z"/><path class="cls-2" d="m406.32,396.44l-5.27,2.5-6.41-11.76,1.22-.58,5.54,10.16,4.06-1.92.87,1.6Z"/><path class="cls-2" d="m412.4,393.55l-5.27,2.5-6.41-11.76,5.27-2.5.87,1.6-4.06,1.92,1.75,3.21,3.25-1.54.87,1.6-3.25,1.54,2.04,3.74,4.06-1.92.87,1.6Z"/><path class="cls-2" d="m423.41,385.64l-.41.19.29.53-.41.19.29.53-.41.19.29.53-.41.19.29.53-2.03.96-.29-.53-.41.19-.29-.53-.41.19-.29-.53-.41.19-.29-.53-.41.19-4.08-7.48.41-.19-.29-.53.41-.19-.29-.53.41-.19-.29-.53.41-.19-.29-.53,2.03-.96.29.53.41-.19.29.53.41-.19.29.53.41-.19.29.53.41-.19,4.08,7.48Zm-1.51.04l-3.5-6.41-.41.19-.29-.53-.41.19-.29-.53-1.22.58.29.53-.41.19.29.53-.41.19,3.5,6.41.41-.19.29.53.41-.19.29.53,1.22-.58-.29-.53.41-.19-.29-.53.41-.19Z"/><path class="cls-2" d="m430.67,384.89l-1.22.58-.29-.53-.41.19-.58-1.07-.41.19-.58-1.07-.41.19-.58-1.07-.41.19-.58-1.07-.41.19-.58-1.07-.41.19-.58-1.07-.41.19,3.79,6.95-1.22.58-6.41-11.76.81-.38.58,1.07.41-.19.58,1.07.41-.19.58,1.07.41-.19.58,1.07.41-.19.58,1.07.41-.19.58,1.07.41-.19.58,1.07.41-.19.58,1.07.41-.19-4.66-8.55,1.22-.58,6.41,11.76Z"/><path class="cls-2" d="m442.85,379.11l-1.22.58-3.21-5.88-.41.19.58,1.07-.41.19.58,1.07-.41.19.58,1.07-.41.19-.58-1.07-.41.19-.58-1.07-.41.19-.58-1.07-.41.19,3.21,5.88-1.22.58-6.41-11.76.41-.19.58,1.07.41-.19.58,1.07.41-.19.58,1.07.41-.19.58,1.07.41-.19.58,1.07.41-.19.58,1.07.41-.19-.58-1.07.41-.19-.58-1.07.41-.19-.58-1.07.41-.19-.58-1.07.41-.19-.58-1.07.41-.19-.58-1.07.41-.19,6.41,11.76Z"/><path class="cls-2" d="m448.93,376.23l-5.27,2.5-6.41-11.76,5.27-2.5.87,1.6-4.06,1.92,1.75,3.21,3.25-1.54.87,1.6-3.25,1.54,2.04,3.74,4.06-1.92.87,1.6Z"/><path class="cls-2" d="m447.86,363.96l-.41.19,3.79,6.95-1.22.58-3.79-6.95-.41.19-.87-1.6,2.03-.96.87,1.6Zm5.13,10.35l-1.22.58-.87-1.6,1.22-.58.87,1.6Z"/><path class="cls-2" d="m276.89,540.06l-2.03.96,5.54,10.15-1.22.58-5.54-10.15-2.03.96-.87-1.6,5.27-2.5.87,1.6Z"/><path class="cls-2" d="m289.19,547l-5.27,2.5-.87-1.6,2.03-.96-2.92-5.34-.81.38-.87-1.6,2.03-.96,3.79,6.95,2.03-.96.87,1.6Zm-7.57-9.19l-1.22.58-.87-1.6,1.22-.58.87,1.6Z"/><path class="cls-2" d="m295.08,542.19l-.41.19.29.53-.41.19.29.53-.41.19.29.53-2.43,1.15-.29-.53-.41.19-.29-.53-.41.19-.29-.53-.41.19-.29-.53-.41.19-2.33-4.28.41-.19-.29-.53.41-.19-.29-.53.41-.19-.29-.53.41-.19-.29-.53,2.43-1.15.29.53.41-.19.29.53.41-.19.29.53.41-.19.58,1.07-1.22.58-.29-.53-.41.19-.29-.53-1.62.77.29.53-.41.19.29.53-.41.19,1.75,3.21.41-.19.29.53.41-.19.29.53,1.62-.77-.29-.53.41-.19-.29-.53,1.22-.58.58,1.07Z"/><path class="cls-2" d="m302.72,540.59l-1.22.58-.29-.53-.41.19-.58-1.07-.41.19-.58-1.07-.41.19-.58-1.07-.41.19.29.53-.41.19.29.53-.41.19.29.53-.41.19,1.17,2.14-1.22.58-6.41-11.76,1.22-.58,4.08,7.48.41-.19-.29-.53.41-.19-.29-.53.41-.19-.29-.53.41-.19-.29-.53.41-.19-.29-.53.41-.19-.3-.55.41-.19-.28-.52.41-.19-.29-.53.81-.38.87,1.6-.41.19.29.53-.41.19.29.53-.41.19.29.53-.41.19.58,1.07.41-.19.58,1.07.41-.19.58,1.07.41-.19.58,1.07.41-.19.58,1.07Z"/><path class="cls-2" d="m307.15,533.1l-.41.19.29.53-.41.19.29.53-3.25,1.54.58,1.07.41-.19.29.53,3.25-1.54.87,1.6-3.65,1.73-.29-.53-.41.19-.29-.53-.41.19-.29-.53-.41.19-2.92-5.34.41-.19-.29-.53.41-.19-.29-.53.41-.19-.29-.53,2.84-1.35.29.53.41-.19.29.53.41-.19.29.53.41-.19,1.46,2.67Zm-1.51.04l-.87-1.6-.41.19-.29-.53-2.03.96.29.53-.41.19.87,1.6,2.84-1.35Z"/><path class="cls-2" d="m315.38,532.57l-.41.19.29.53-.41.19.29.53-.41.19.29.53-2.43,1.15-.29-.53-.41.19-.29-.53-.41.19-.29-.53-.41.19-.29-.53-.41.19-4.08-7.48,1.22-.58,1.17,2.14,3.65-1.73.87,1.6-3.65,1.73,1.75,3.21.41-.19.29.53.41-.19.29.53,1.62-.77-.29-.53.41-.19-.29-.53,1.22-.58.58,1.07Z"/><path class="cls-2" d="m329.78,527.76l-1.22.58-.29-.53-.41.19-.58-1.07-.41.19-.58-1.07-.41.19-.58-1.07-.41.19-.58-1.07-.41.19-.58-1.07-.41.19-.58-1.07-.41.19,3.79,6.95-1.22.58-6.41-11.76.81-.38.58,1.07.41-.19.58,1.07.41-.19.58,1.07.41-.19.58,1.07.41-.19.58,1.07.41-.19.58,1.07.41-.19.58,1.07.41-.19.58,1.07.41-.19-4.66-8.55,1.22-.58,6.41,11.76Z"/><path class="cls-2" d="m336.54,524.55l-1.22.58-.58-1.07-.41.19.29.53-.41.19.29.53-2.03.96-.29-.53-.41.19-.29-.53-.41.19-.29-.53-.41.19-3.79-6.95,1.22-.58,3.5,6.41.41-.19.29.53,1.62-.77-.29-.53.41-.19-.29-.53.41-.19-3.21-5.88,1.22-.58,4.66,8.55Z"/><path class="cls-2" d="m343.31,521.34l-1.22.58-3.5-6.41-.41.19-.29-.53-.41.19,2.04,3.74-1.22.58-1.75-3.21-.41.19-.29-.53-.41.19,3.79,6.95-1.22.58-4.66-8.55,1.22-.58.29.53.41-.19-.29-.53.81-.38.29.53.41-.19.29.53.41-.19-.29-.53.41-.19-.29-.53.81-.38.29.53.41-.19.29.53.41-.19,4.08,7.48Z"/><path class="cls-2" d="m350.01,516.15l-.41.19.29.53-.41.19.29.53-.41.19.29.53-2.03.96-.29-.53-.41.19-.29-.53-.41.19.58,1.07-1.22.58-6.41-11.76,1.22-.58,2.33,4.28.41-.19-.29-.53.41-.19-.29-.53,2.03-.96.29.53.41-.19.29.53.41-.19.29.53.41-.19,2.92,5.34Zm-1.51.04l-2.33-4.28-.41.19-.29-.53-1.62.77.29.53-.41.19.29.53-.41.19,1.75,3.21.41-.19.29.53.41-.19.29.53,1.62-.77-.29-.53.41-.19Z"/><path class="cls-2" d="m355.32,510.27l-.41.19.29.53-.41.19.29.53-3.25,1.54.58,1.07.41-.19.29.53,3.25-1.54.87,1.6-3.65,1.73-.29-.53-.41.19-.29-.53-.41.19-.29-.53-.41.19-2.92-5.34.41-.19-.29-.53.41-.19-.29-.53.41-.19-.29-.53,2.84-1.35.29.53.41-.19.29.53.41-.19.29.53.41-.19,1.46,2.67Zm-1.51.04l-.87-1.6-.41.19-.29-.53-2.03.96.29.53-.41.19.87,1.6,2.84-1.35Z"/><path class="cls-2" d="m360.92,504.92l-.81.38-.29-.53-2.84,1.35.29.53-.41.19,3.5,6.41-1.22.58-3.79-6.95.41-.19-.29-.53.41-.19-.29-.53.41-.19-.29-.53,3.65-1.73.29.53.41-.19.87,1.6Z"/><path class="cls-2" d="m366.82,504.81l-1.62.77-1.17-2.14,1.62-.77,1.17,2.14Zm2.33,4.28l-1.62.77-1.17-2.14,1.62-.77,1.17,2.14Z"/><path class="cls-2" d="m306.04,591.4l-.41.19.29.54-.41.19.29.53-.41.19.29.53-2.84,1.35,2.62,4.81-1.22.58-6.41-11.76,4.06-1.92.29.53.41-.19.29.54.41-.19.29.53.41-.19,2.04,3.74Zm-1.51.04l-1.46-2.67-.41.19-.29-.53-2.43,1.15,2.04,3.74,2.43-1.15-.29-.53.41-.19Z"/><path class="cls-2" d="m312.8,588.2l-.81.38-.29-.53-2.84,1.35.29.53-.41.19,3.5,6.41-1.22.58-3.79-6.95.41-.19-.29-.53.41-.19-.29-.53.41-.19-.29-.54,3.65-1.73.29.54.41-.19.87,1.6Z"/><path class="cls-2" d="m321.9,589.26l-.41.19.29.53-.41.19.29.54-.41.19.29.53-.41.19.29.53-2.03.96-.29-.53-.41.19-.29-.53-.41.19-.29-.54-.41.19-.29-.53-.41.19-2.33-4.28.41-.19-.29-.53.41-.19-.29-.53.41-.19-.29-.53.41-.19-.29-.54,2.03-.96.29.54.41-.19.29.53.41-.19.29.53.41-.19.29.53.41-.19,2.33,4.28Zm-1.51.04l-1.75-3.21-.41.19-.29-.54-.41.19-.29-.53-1.22.58.29.53-.41.19.29.54-.41.19,1.75,3.21.41-.19.29.53.41-.19.29.53,1.22-.58-.29-.53.41-.19-.29-.53.41-.19Z"/><path class="cls-2" d="m329.83,588.2l-1.22.58-.58-1.07-.41.19.29.53-.41.19.29.53-2.03.96-.29-.53-.41.19-.29-.53-.41.19-.29-.54-.41.19-2.92-5.34.41-.19-.29-.53.41-.19-.29-.53.41-.19-.29-.54,2.03-.96.29.54.41-.19.29.53.41-.19-2.33-4.28,1.22-.58,6.41,11.76Zm-2.68-2.09l-1.75-3.21-.41.19-.29-.54-.41.19-.29-.53-1.62.77.29.53-.41.19,2.33,4.28.41-.19.29.53,1.62-.77-.29-.53.41-.19-.29-.53.41-.19Z"/><path class="cls-2" d="m336.6,584.99l-1.22.58-.58-1.07-.41.19.29.53-.41.19.29.53-2.03.96-.29-.53-.41.19-.29-.53-.41.19-.29-.54-.41.19-3.79-6.95,1.22-.58,3.5,6.41.41-.19.29.53,1.62-.77-.29-.53.41-.19-.29-.53.41-.19-3.21-5.88,1.22-.58,4.67,8.55Z"/><path class="cls-2" d="m342.49,580.18l-.41.19.29.54-.41.19.29.53-.41.19.29.53-2.43,1.15-.29-.53-.41.19-.29-.53-.41.19-.29-.54-.41.19-.29-.53-.41.19-2.33-4.28.41-.19-.29-.53.41-.19-.29-.53.41-.19-.29-.53.41-.19-.29-.54,2.43-1.15.29.54.41-.19.29.53.41-.19.29.53.41-.19.58,1.07-1.22.58-.29-.54-.41.19-.29-.53-1.62.77.29.53-.41.19.29.54-.41.19,1.75,3.21.41-.19.29.53.41-.19.29.53,1.62-.77-.29-.53.41-.19-.29-.53,1.22-.58.58,1.07Z"/><path class="cls-2" d="m349.25,576.97l-.41.19.29.54-.41.19.29.53-.41.19.29.53-2.43,1.15-.29-.53-.41.19-.29-.53-.41.19-.29-.54-.41.19-.29-.53-.41.19-4.08-7.48,1.22-.58,1.17,2.14,3.65-1.73.87,1.6-3.65,1.73,1.75,3.21.41-.19.29.53.41-.19.29.53,1.62-.77-.29-.53.41-.19-.29-.53,1.22-.58.58,1.07Z"/><path class="cls-2" d="m352.53,572.05l-1.62.77-1.17-2.14,1.62-.77,1.17,2.14Zm2.33,4.28l-1.62.77-1.17-2.14,1.62-.77,1.17,2.14Z"/><path class="cls-2" d="m321.94,620.13l-.41.19.29.53-.41.19.29.53-.41.19.29.54-.41.19.29.53-.42.2.29.53-3.23,1.53-6.41-11.76,3.25-1.54.29.53.41-.19.29.54.41-.19.29.53.41-.19.29.53.41-.19.29.53.41-.19,3.5,6.41Zm-1.51.04l-2.92-5.34-.41.19-.29-.54-.41.19-.29-.53-.41.19-.29-.53-1.62.77,4.66,8.55,1.62-.77-.29-.53.41-.19-.29-.53.41-.19-.29-.53.41-.19Z"/><path class="cls-2" d="m326.67,613.18l-.81.38-.29-.53-2.84,1.35.29.53-.41.19,3.5,6.41-1.22.58-3.79-6.95.41-.19-.29-.53.41-.19-.29-.53.41-.19-.29-.53,3.65-1.73.29.53.41-.19.87,1.6Z"/><path class="cls-2" d="m336.93,616.39l-1.22.58-.58-1.07-.41.19.29.53-.41.19.29.53-2.03.96-.29-.53-.41.19-.29-.53-.41.19-.29-.54-.41.19-2.92-5.34.41-.19-.29-.53.41-.19-.29-.53.41-.19-.29-.53,2.03-.96.29.53.41-.19.29.53.41-.19-.58-1.07,1.22-.58,4.66,8.55Zm-2.68-2.09l-1.75-3.21-.41.19-.29-.54-.41.19-.29-.53-1.62.77.29.53-.41.19,2.33,4.28.41-.19.29.53,1.62-.77-.29-.53.41-.19-.29-.53.41-.19Z"/><path class="cls-2" d="m343.11,612.12l-.41.19.29.53-.41.19.29.53-1.22.58-.29-.53-.41.19-.29-.53-.41.19.29.53-.41.19.29.53-1.22.58-.29-.53-.41.19-.29-.53-.41.19-4.08-7.48,1.22-.58,3.5,6.41.41-.19.29.53.41-.19-2.04-3.74,1.22-.58,2.04,3.74.41-.19-.29-.53.41-.19-3.5-6.41,1.22-.58,4.08,7.48Z"/><path class="cls-2" d="m355.77,604.1l-.41.19.29.53-.41.19.29.53-.41.19.29.54-.41.19.29.53-.42.2.29.53-3.23,1.53-6.41-11.76,3.25-1.54.29.53.41-.19.29.54.41-.19.29.53.41-.19.29.53.41-.19.29.53.41-.19,3.5,6.41Zm-1.51.04l-2.92-5.34-.41.19-.29-.54-.41.19-.29-.53-.41.19-.29-.53-1.62.77,4.66,8.55,1.62-.77-.29-.53.41-.19-.29-.53.41-.19-.29-.53.41-.19Z"/><path class="cls-2" d="m363.99,603.56l-1.22.58-.58-1.07-.41.19.29.53-.41.19.29.53-2.03.96-.29-.53-.41.19-.29-.53-.41.19-.29-.54-.41.19-2.92-5.34.41-.19-.29-.53.41-.19-.29-.53.41-.19-.29-.53,2.03-.96.29.53.41-.19.29.53.41-.19-.58-1.07,1.22-.58,4.66,8.55Zm-2.68-2.09l-1.75-3.21-.41.19-.29-.54-.41.19-.29-.53-1.62.77.29.53-.41.19,2.33,4.28.41-.19.29.53,1.62-.77-.29-.53.41-.19-.29-.53.41-.19Z"/><path class="cls-2" d="m369.88,598.75l-.41.19.29.54-.41.19.29.53-.41.19.29.53-2.43,1.15-.29-.53-.41.19-.29-.53-.41.19-.29-.54-.41.19-.29-.53-.41.19-4.08-7.48,1.22-.58,1.17,2.14,3.65-1.73.87,1.6-3.65,1.73,1.75,3.21.41-.19.29.53.41-.19.29.53,1.62-.77-.29-.53.41-.19-.29-.53,1.22-.58.58,1.07Z"/><path class="cls-2" d="m375.19,592.87l-.41.19.29.53-.41.19.29.54-3.25,1.54.58,1.07.41-.19.29.53,3.25-1.54.87,1.6-3.65,1.73-.29-.53-.41.19-.29-.53-.41.19-.29-.54-.41.19-2.92-5.34.41-.19-.29-.53.41-.19-.29-.53.41-.19-.29-.53,2.84-1.35.29.53.41-.19.29.53.41-.19.29.53.41-.19,1.46,2.67Zm-1.51.04l-.87-1.6-.41.19-.29-.53-2.03.96.29.53-.41.19.87,1.6,2.84-1.35Z"/><path class="cls-2" d="m379.92,590.62l-1.62.77-1.17-2.14,1.62-.77,1.17,2.14Zm2.33,4.28l-1.62.77-1.17-2.14,1.62-.77,1.17,2.14Z"/><path class="cls-2" d="m335.37,645.59l-.41.19.29.53-.41.19.29.53-.41.19.29.54-.41.19.29.53-.42.2.29.53-3.23,1.53-6.41-11.76,3.25-1.54.29.53.41-.19.29.54.41-.19.29.53.41-.19.29.53.41-.19.29.53.41-.19,3.5,6.41Zm-1.51.04l-2.92-5.34-.41.19-.29-.54-.41.19-.29-.53-.41.19-.29-.53-1.62.77,4.66,8.55,1.62-.77-.29-.53.41-.19-.29-.53.41-.19-.29-.53.41-.19Z"/><path class="cls-2" d="m340.1,638.64l-.81.38-.29-.53-2.84,1.35.29.53-.41.19,3.5,6.41-1.22.58-3.79-6.95.41-.19-.29-.53.41-.19-.29-.53.41-.19-.29-.53,3.65-1.73.29.53.41-.19.87,1.6Z"/><path class="cls-2" d="m350.36,641.84l-1.22.58-.58-1.07-.41.19.29.53-.41.19.29.53-2.03.96-.29-.53-.41.19-.29-.53-.41.19-.29-.54-.41.19-2.92-5.34.41-.19-.29-.53.41-.19-.29-.53.41-.19-.29-.53,2.03-.96.29.53.41-.19.29.53.41-.19-.58-1.07,1.22-.58,4.66,8.55Zm-2.68-2.09l-1.75-3.21-.41.19-.29-.54-.41.19-.29-.53-1.62.77.29.53-.41.19,2.33,4.28.41-.19.29.53,1.62-.77-.29-.53.41-.19-.29-.53.41-.19Z"/><path class="cls-2" d="m356.54,637.57l-.41.19.29.53-.41.19.29.53-1.22.58-.29-.53-.41.19-.29-.53-.41.19.29.53-.41.19.29.53-1.22.58-.29-.53-.41.19-.29-.53-.41.19-4.08-7.48,1.22-.58,3.5,6.41.41-.19.29.53.41-.19-2.04-3.74,1.22-.58,2.04,3.74.41-.19-.29-.53.41-.19-3.5-6.41,1.22-.58,4.08,7.48Z"/><path class="cls-2" d="m369.2,629.55l-.41.19.29.53-.41.19.29.53-.41.19.29.54-.41.19.29.53-.42.2.29.53-3.23,1.53-6.41-11.76,3.25-1.54.29.53.41-.19.29.54.41-.19.29.53.41-.19.29.53.41-.19.29.53.41-.19,3.5,6.41Zm-1.51.04l-2.92-5.34-.41.19-.29-.54-.41.19-.29-.53-.41.19-.29-.53-1.62.77,4.66,8.55,1.62-.77-.29-.53.41-.19-.29-.53.41-.19-.29-.53.41-.19Z"/><path class="cls-2" d="m375.09,624.74l-.41.19.29.53-.41.19.29.54-3.25,1.54.58,1.07.41-.19.29.53,3.25-1.54.87,1.6-3.65,1.73-.29-.53-.41.19-.29-.53-.41.19-.29-.54-.41.19-2.92-5.34.41-.19-.29-.53.41-.19-.29-.53.41-.19-.29-.53,2.84-1.35.29.53.41-.19.29.53.41-.19.29.53.41-.19,1.46,2.67Zm-1.51.04l-.87-1.6-.41.19-.29-.53-2.03.96.29.53-.41.19.87,1.6,2.84-1.35Z"/><path class="cls-2" d="m383.31,624.2l-.41.19.29.54-.41.19.29.53-.41.19.29.53-2.43,1.15-.29-.53-.41.19-.29-.53-.41.19-.29-.54-.41.19-.29-.53-.41.19-4.08-7.48,1.22-.58,1.17,2.14,3.65-1.73.87,1.6-3.65,1.73,1.75,3.21.41-.19.29.53.41-.19.29.53,1.62-.77-.29-.53.41-.19-.29-.53,1.22-.58.58,1.07Z"/><path class="cls-2" d="m390.95,622.6l-1.22.58-.58-1.07-.41.19.29.53-.41.19.29.53-2.03.96-.29-.53-.41.19-.29-.53-.41.19-.29-.54-.41.19-2.92-5.34.41-.19-.29-.53.41-.19-.29-.53.41-.19-.29-.53,2.03-.96.29.53.41-.19.29.53.41-.19-.58-1.07,1.22-.58,4.66,8.55Zm-2.68-2.09l-1.75-3.21-.41.19-.29-.54-.41.19-.29-.53-1.62.77.29.53-.41.19,2.33,4.28.41-.19.29.53,1.62-.77-.29-.53.41-.19-.29-.53.41-.19Z"/><path class="cls-2" d="m397.71,619.39l-5.27,2.5-.87-1.6,2.03-.96-2.92-5.34-.81.38-.87-1.6,2.03-.96,3.79,6.95,2.03-.96.87,1.6Zm-7.57-9.19l-1.22.58-.87-1.6,1.22-.58.87,1.6Z"/><path class="cls-2" d="m404.48,616.18l-2.84,1.35-.29-.53-.41.19-.29-.53-.41.19-.29-.54-.41.19-4.66-8.55-1.22.58-.87-1.6,2.43-1.15,5.25,9.62.41-.19.29.53,2.43-1.15.87,1.6Z"/><path class="cls-2" d="m410.37,611.37l-.41.19.29.54-.41.19.29.53-.41.19.29.53-2.84,1.35-.29-.53-.41.19-.29-.53-.41.19-.29-.54-.41.19-.58-1.07,1.22-.58.29.53.41-.19.29.53,2.03-.96-.29-.53.41-.19-.58-1.07-.41.19-.29-.54-2.43,1.15-.29-.53-.41.19-.29-.53-.41.19-.29-.53-.41.19-.87-1.6.41-.19-.29-.53.41-.19-.29-.53.41-.19-.29-.53,3.25-1.54.29.53.41-.19.29.53.41-.19.58,1.07-1.22.58-.29-.53-2.43,1.15.29.53-.41.19.29.54.41-.19.29.53,2.43-1.15.29.53.41-.19.29.53.41-.19.29.53.41-.19,1.17,2.14Z"/><path class="cls-2" d="m413.65,606.45l-1.62.77-1.17-2.14,1.62-.77,1.17,2.14Zm2.33,4.28l-1.62.77-1.17-2.14,1.62-.77,1.17,2.14Z"/><path class="cls-2" d="m492.25,508.49l-.41.19.29.53-.41.19.29.54-.41.19.29.53-.41.19.29.53-2.43,1.15-.29-.53-.41.19-.29-.53-.41.19-.29-.54-.41.19-1.17-2.14,1.22-.58.87,1.6.41-.19.29.53,1.62-.77-.29-.53.41-.19-.29-.53.41-.19-4.08-7.48-2.43,1.15-.87-1.6,3.65-1.73,5.25,9.62Z"/><path class="cls-2" d="m500.18,507.42l-1.22.58-.58-1.07-.41.19.29.53-.41.19.29.53-2.03.96-.29-.53-.41.19-.29-.53-.41.19-.29-.54-.41.19-3.79-6.95,1.22-.58,3.5,6.41.41-.19.29.53,1.62-.77-.29-.53.41-.19-.29-.53.41-.19-3.21-5.88,1.22-.58,4.67,8.55Z"/><path class="cls-2" d="m506.94,504.21l-1.22.58-3.5-6.41-.41.19-.29-.53-1.62.77.29.53-.41.19.29.54-.41.19,3.21,5.88-1.22.58-4.67-8.55,1.22-.58.58,1.07.41-.19-.29-.53.41-.19-.29-.54,2.03-.96.29.54.41-.19.29.53.41-.19.29.53.41-.19,3.79,6.95Z"/><path class="cls-2" d="m513.71,501.01l-5.27,2.5-.87-1.6,2.03-.96-2.92-5.34-.81.38-.87-1.6,2.03-.96,3.79,6.95,2.03-.96.87,1.6Zm-7.57-9.19l-1.22.58-.87-1.6,1.22-.58.87,1.6Z"/><path class="cls-2" d="m519.3,495.66l-.41.19.29.53-.41.19.29.54-.41.19.29.53-.41.19.29.53-2.03.96-.29-.53-.41.19-.29-.53-.41.19-.29-.54-.41.19-.29-.53-.41.19-2.33-4.28.41-.19-.29-.53.41-.19-.29-.53.41-.19-.29-.53.41-.19-.29-.54,2.03-.96.29.54.41-.19.29.53.41-.19.29.53.41-.19.29.53.41-.19,2.33,4.28Zm-1.51.04l-1.75-3.21-.41.19-.29-.54-.41.19-.29-.53-1.22.58.29.53-.41.19.29.54-.41.19,1.75,3.21.41-.19.29.53.41-.19.29.53,1.22-.58-.29-.53.41-.19-.29-.53.41-.19Z"/><path class="cls-2" d="m523.74,488.18l-.81.38-.29-.53-2.84,1.35.29.53-.41.19,3.5,6.41-1.22.58-3.79-6.95.41-.19-.29-.53.41-.19-.29-.53.41-.19-.29-.54,3.65-1.73.29.54.41-.19.87,1.6Z"/><path class="cls-2" d="m540.77,488.18l-1.22.58-1.46-2.67-2.84,1.35,1.46,2.67-1.22.58-2.33-4.28-.29-.53-.58-1.07.41-.19-.58-1.07.41-.19-.58-1.07.41-.19-.58-1.07.41-.19-.58-1.07.41-.19-.58-1.07.41-.19-.29-.53.41-.19.29.53.41-.19.58,1.07.41-.19.58,1.07.41-.19.58,1.07.41-.19.58,1.07.41-.19.58,1.07.41-.19.58,1.07.29.53,2.33,4.28Zm-3.55-3.7l-.29-.53-.29-.53-.41.19-.58-1.07-.41.19-.58-1.07-.41.19-.58-1.07-.41.19.58,1.07-.41.19.58,1.07-.41.19.58,1.07-.41.19.29.53.29.53,2.84-1.35Z"/><path class="cls-2" d="m544.03,478.55l-.81.38-.29-.53-2.84,1.35.29.53-.41.19,3.5,6.41-1.22.58-3.79-6.95.41-.19-.29-.53.41-.19-.29-.53.41-.19-.29-.54,3.65-1.73.29.54.41-.19.87,1.6Z"/><path class="cls-2" d="m553.42,480.16l-.41.19.29.54-.41.19.29.53-.41.19.29.53-2.43,1.15-.29-.53-.41.19-.29-.53-.41.19-.29-.54-.41.19-.29-.53-.41.19-4.08-7.48,1.22-.58,1.17,2.14,3.65-1.73.87,1.6-3.65,1.73,1.75,3.21.41-.19.29.53.41-.19.29.53,1.62-.77-.29-.53.41-.19-.29-.53,1.22-.58.58,1.07Z"/><path class="cls-2" d="m566.37,472.67l-.41.19.29.53-.41.19.29.53-.41.19.29.54-.41.19.29.53-.42.2.29.53-3.23,1.53-6.41-11.76,3.25-1.54.29.53.41-.19.29.54.41-.19.29.53.41-.19.29.53.41-.19.29.53.41-.19,3.5,6.41Zm-1.51.04l-2.92-5.35-.41.19-.29-.53-.41.19-.29-.53-.41.19-.29-.53-1.62.77,4.66,8.55,1.62-.77-.29-.53.41-.19-.29-.53.41-.19-.29-.53.41-.19Z"/><path class="cls-2" d="m574.59,472.14l-5.27,2.5-.87-1.6,2.03-.96-2.92-5.34-.81.38-.87-1.6,2.03-.96,3.79,6.95,2.03-.96.87,1.6Zm-7.57-9.19l-1.22.58-.87-1.6,1.22-.58.87,1.6Z"/><path class="cls-2" d="m577.85,462.52l-.81.38-.29-.53-2.84,1.35.29.53-.41.19,3.5,6.41-1.22.58-3.79-6.95.41-.19-.29-.53.41-.19-.29-.53.41-.19-.29-.54,3.65-1.73.29.54.41-.19.87,1.6Z"/><path class="cls-2" d="m585.79,461.45l-.41.19.29.53-.41.19.29.54-3.25,1.54.58,1.07.41-.19.29.53,3.25-1.54.87,1.6-3.65,1.73-.29-.53-.41.19-.29-.53-.41.19-.29-.54-.41.19-2.92-5.34.41-.19-.29-.53.41-.19-.29-.53.41-.19-.29-.54,2.84-1.35.29.54.41-.19.29.53.41-.19.29.53.41-.19,1.46,2.67Zm-1.51.04l-.87-1.6-.41.19-.29-.53-2.03.96.29.53-.41.19.87,1.6,2.84-1.35Z"/><path class="cls-2" d="m594.01,460.91l-.41.19.29.54-.41.19.29.53-.41.19.29.53-2.43,1.15-.29-.53-.41.19-.29-.53-.41.19-.29-.54-.41.19-.29-.53-.41.19-2.33-4.28.41-.19-.29-.53.41-.19-.29-.53.41-.19-.29-.53.41-.19-.29-.54,2.43-1.15.29.54.41-.19.29.53.41-.19.29.53.41-.19.58,1.07-1.22.58-.29-.54-.41.19-.29-.53-1.62.77.29.53-.41.19.29.54-.41.19,1.75,3.21.41-.19.29.53.41-.19.29.53,1.62-.77-.29-.53.41-.19-.29-.53,1.22-.58.58,1.07Z"/><path class="cls-2" d="m600.77,457.7l-.41.19.29.54-.41.19.29.53-.41.19.29.53-2.43,1.15-.29-.53-.41.19-.29-.53-.41.19-.29-.54-.41.19-.29-.53-.41.19-4.08-7.48,1.22-.58,1.17,2.14,3.65-1.73.87,1.6-3.65,1.73,1.75,3.21.41-.19.29.53.41-.19.29.53,1.62-.77-.29-.53.41-.19-.29-.53,1.22-.58.58,1.07Z"/><path class="cls-2" d="m607.25,453.96l-.41.19.29.53-.41.19.29.54-.41.19.29.53-.41.19.29.53-2.03.96-.29-.53-.41.19-.29-.53-.41.19-.29-.54-.41.19-.29-.53-.41.19-2.33-4.28.41-.19-.29-.53.41-.19-.29-.53.41-.19-.29-.53.41-.19-.29-.54,2.03-.96.29.54.41-.19.29.53.41-.19.29.53.41-.19.29.53.41-.19,2.33,4.28Zm-1.51.04l-1.75-3.21-.41.19-.29-.54-.41.19-.29-.53-1.22.58.29.53-.41.19.29.54-.41.19,1.75,3.21.41-.19.29.53.41-.19.29.53,1.22-.58-.29-.53.41-.19-.29-.53.41-.19Z"/><path class="cls-2" d="m611.68,446.48l-.81.38-.29-.53-2.84,1.35.29.53-.41.19,3.5,6.41-1.22.58-3.79-6.95.41-.19-.29-.53.41-.19-.29-.53.41-.19-.29-.54,3.65-1.73.29.54.41-.19.87,1.6Z"/><path class="cls-2" d="m519.12,527.31l-.41.19.29.53-.41.19.29.54-.41.19.29.53-.41.19.29.53-2.03.96-.29-.53-.41.19-.29-.53-.41.19-.29-.54-.41.19-.29-.53-.41.19-4.08-7.48.41-.19-.29-.53.41-.19-.29-.53.41-.19-.29-.54.41-.19-.29-.53,2.03-.96.29.53.41-.19.29.54.41-.19.29.53.41-.19.29.53.41-.19,4.08,7.48Zm-1.51.04l-3.5-6.41-.41.19-.29-.53-.41.19-.29-.53-1.22.58.29.53-.41.19.29.53-.41.19,3.5,6.41.41-.19.29.53.41-.19.29.53,1.22-.58-.29-.53.41-.19-.29-.53.41-.19Z"/><path class="cls-2" d="m525,522.5l-.41.19.29.54-.41.19.29.53-.41.19.29.53-2.03.96-.29-.53-.41.19-.29-.53-.41.19,1.75,3.21-1.22.58-4.66-8.55,1.22-.58.58,1.07.41-.19-.29-.53.41-.19-.29-.53,2.03-.96.29.53.41-.19.29.53.41-.19.29.53.41-.19,1.75,3.21Zm-1.51.04l-1.17-2.14-.41.19-.29-.53-1.62.77.29.53-.41.19.29.54-.41.19.58,1.07.41-.19.29.53.41-.19.29.53,1.62-.77-.29-.53.41-.19Z"/><path class="cls-2" d="m531.48,518.76l-.41.19.29.53-.41.19.29.54-3.25,1.54.58,1.07.41-.19.29.53,3.25-1.54.87,1.6-3.65,1.73-.29-.53-.41.19-.29-.53-.41.19-.29-.54-.41.19-2.92-5.34.41-.19-.29-.53.41-.19-.29-.53.41-.19-.29-.53,2.84-1.35.29.53.41-.19.29.53.41-.19.29.53.41-.19,1.46,2.67Zm-1.51.04l-.87-1.6-.41.19-.29-.53-2.03.96.29.53-.41.19.87,1.6,2.84-1.35Z"/><path class="cls-2" d="m540.58,519.83l-1.22.58-3.5-6.41-.41.19-.29-.53-1.62.77.29.53-.41.19.29.54-.41.19,3.21,5.88-1.22.58-4.66-8.55,1.22-.58.58,1.07.41-.19-.29-.53.41-.19-.29-.53,2.03-.96.29.53.41-.19.29.53.41-.19.29.53.41-.19,3.79,6.95Z"/><path class="cls-2" d="m553.23,511.81l-.41.19.29.54-.41.19.29.53-.41.19.29.53-2.43,1.15-.29-.53-.41.19-.29-.53-.41.19-.29-.54-.41.19-.29-.53-.41.19-4.08-7.48,1.22-.58,1.17,2.14,3.65-1.73.87,1.6-3.65,1.73,1.75,3.21.41-.19.29.53.41-.19.29.53,1.62-.77-.29-.53.41-.19-.29-.53,1.22-.58.58,1.07Z"/><path class="cls-2" d="m559.7,508.07l-.41.19.29.53-.41.19.29.54-.41.19.29.53-.41.19.29.53-2.03.96-.29-.53-.41.19-.29-.53-.41.19-.29-.54-.41.19-.29-.53-.41.19-2.33-4.28.41-.19-.29-.53.41-.19-.29-.53.41-.19-.29-.53.41-.19-.29-.53,2.03-.96.29.53.41-.19.29.53.41-.19.29.53.41-.19.29.53.41-.19,2.33,4.28Zm-1.51.04l-1.75-3.21-.41.19-.29-.54-.41.19-.29-.53-1.22.58.29.53-.41.19.29.54-.41.19,1.75,3.21.41-.19.29.53.41-.19.29.53,1.22-.58-.29-.53.41-.19-.29-.53.41-.19Z"/><path class="cls-2" d="m573.82,502.72l-.41.19.29.53-.41.19.29.53-1.22.58-.29-.53-.41.19-.29-.53-.41.19.29.53-.41.19.29.53-1.22.58-.29-.53-.41.19-.29-.53-.41.19-4.08-7.48,1.22-.58,3.5,6.41.41-.19.29.53.41-.19-2.04-3.74,1.22-.58,2.04,3.74.41-.19-.29-.53.41-.19-3.5-6.41,1.22-.58,4.08,7.48Z"/><path class="cls-2" d="m580,498.44l-.41.19.29.53-.41.19.29.54-.41.19.29.53-.41.19.29.53-2.03.96-.29-.53-.41.19-.29-.53-.41.19-.29-.54-.41.19-.29-.53-.41.19-2.33-4.28.41-.19-.29-.53.41-.19-.29-.53.41-.19-.29-.53.41-.19-.29-.53,2.03-.96.29.53.41-.19.29.53.41-.19.29.53.41-.19.29.53.41-.19,2.33,4.28Zm-1.51.04l-1.75-3.21-.41.19-.29-.54-.41.19-.29-.53-1.22.58.29.53-.41.19.29.54-.41.19,1.75,3.21.41-.19.29.53.41-.19.29.53,1.22-.58-.29-.53.41-.19-.29-.53.41-.19Z"/><path class="cls-2" d="m584.43,490.96l-.81.38-.29-.53-2.84,1.35.29.53-.41.19,3.5,6.41-1.22.58-3.79-6.95.41-.19-.29-.53.41-.19-.29-.53.41-.19-.29-.53,3.65-1.73.29.53.41-.19.87,1.6Z"/><path class="cls-2" d="m594.69,494.17l-1.22.58-.29-.53-.41.19-.58-1.07-.41.19-.58-1.07-.41.19-.58-1.07-.41.19.29.54-.41.19.29.53-.41.19.29.53-.41.19,1.17,2.14-1.22.58-6.41-11.76,1.22-.58,4.08,7.48.41-.19-.29-.53.41-.19-.29-.53.41-.19-.29-.53.41-.19-.29-.54.41-.19-.29-.53.41-.19-.3-.55.41-.19-.28-.52.41-.19-.29-.53.81-.38.87,1.6-.41.19.29.53-.41.19.29.54-.41.19.29.53-.41.19.58,1.07.41-.19.58,1.07.41-.19.58,1.07.41-.19.58,1.07.41-.19.58,1.07Z"/><path class="cls-2" d="m608.22,487.75l-1.22.58-1.46-2.67-2.84,1.35,1.46,2.67-1.22.58-2.33-4.28-.29-.53-.58-1.07.41-.19-.58-1.07.41-.19-.58-1.07.41-.19-.58-1.07.41-.19-.58-1.07.41-.19-.58-1.07.41-.19-.29-.53.41-.19.29.53.41-.19.58,1.07.41-.19.58,1.07.41-.19.58,1.07.41-.19.58,1.07.41-.19.58,1.07.41-.19.58,1.07.29.53,2.33,4.28Zm-3.55-3.7l-.29-.53-.29-.53-.41.19-.58-1.07-.41.19-.58-1.07-.41.19-.58-1.07-.41.19.58,1.07-.41.19.58,1.07-.41.19.58,1.07-.41.19.29.53.29.53,2.84-1.35Z"/><path class="cls-2" d="m614.11,482.94l-.41.19.29.54-.41.19.29.53-.41.19.29.53-2.84,1.35-.29-.53-.41.19-.29-.53-.41.19-.29-.54-.41.19-.87-1.6,1.22-.58.58,1.07.41-.19.29.53,2.03-.96-.29-.53.41-.19-1.46-2.67-.41.19-.29-.53-2.43,1.15-.29-.53-.41.19-.29-.54-.41.19-.29-.53-.41.19-1.75-3.21.41-.19-.29-.53.41-.19-.29-.54.41-.19-.29-.53,2.84-1.35.29.53.41-.19.29.54.41-.19.29.53.41-.19.87,1.6-1.22.58-.58-1.07-.41.19-.29-.53-2.03.96.29.53-.41.19,1.17,2.14.41-.19.29.53,2.43-1.15.29.53.41-.19.29.54.41-.19.29.53.41-.19,2.04,3.74Z"/><path class="cls-2" d="m621.75,481.34l-1.22.58-1.46-2.67-2.84,1.35,1.46,2.67-1.22.58-2.33-4.28-.29-.53-.58-1.07.41-.19-.58-1.07.41-.19-.58-1.07.41-.19-.58-1.07.41-.19-.58-1.07.41-.19-.58-1.07.41-.19-.29-.53.41-.19.29.53.41-.19.58,1.07.41-.19.58,1.07.41-.19.58,1.07.41-.19.58,1.07.41-.19.58,1.07.41-.19.58,1.07.29.53,2.33,4.28Zm-3.55-3.7l-.29-.53-.29-.53-.41.19-.58-1.07-.41.19-.58-1.07-.41.19-.58-1.07-.41.19.58,1.07-.41.19.58,1.07-.41.19.58,1.07-.41.19.29.53.29.53,2.84-1.35Z"/><path class="cls-2" d="m625.02,471.71l-.41.19.29.54-.41.19.29.53-.41.19.29.53-2.84,1.35,2.62,4.81-1.22.58-6.41-11.76,4.06-1.92.29.53.41-.19.29.54.41-.19.29.53.41-.19,2.04,3.74Zm-1.51.04l-1.46-2.67-.41.19-.29-.53-2.43,1.15,2.04,3.74,2.43-1.15-.29-.53.41-.19Z"/><path class="cls-2" d="m462.09,583.48l-.41.19.29.53-.41.19.29.54-3.25,1.54.58,1.07.41-.19.29.53,3.25-1.54.87,1.6-3.65,1.73-.29-.53-.41.19-.29-.53-.41.19-.29-.54-.41.19-2.92-5.34.41-.19-.29-.53.41-.19-.29-.53.41-.19-.29-.53,2.84-1.35.29.53.41-.19.29.53.41-.19.29.53.41-.19,1.46,2.67Zm-1.51.04l-.87-1.6-.41.19-.29-.53-2.03.96.29.53-.41.19.87,1.6,2.84-1.35Z"/><path class="cls-2" d="m471.18,584.55l-2.84,1.35-.29-.53-.41.19-.29-.53-.41.19-.29-.54-.41.19-4.66-8.55-1.22.58-.87-1.6,2.43-1.15,5.25,9.62.41-.19.29.53,2.43-1.15.87,1.6Z"/><path class="cls-2" d="m475.62,577.07l-.41.19.29.53-.41.19.29.54-3.25,1.54.58,1.07.41-.19.29.53,3.25-1.54.87,1.6-3.65,1.73-.29-.53-.41.19-.29-.53-.41.19-.29-.54-.41.19-2.92-5.34.41-.19-.29-.53.41-.19-.29-.53.41-.19-.29-.53,2.84-1.35.29.53.41-.19.29.53.41-.19.29.53.41-.19,1.46,2.67Zm-1.51.04l-.87-1.6-.41.19-.29-.53-2.03.96.29.53-.41.19.87,1.6,2.84-1.35Z"/><path class="cls-2" d="m484.71,578.14l-1.22.58-.58-1.07-.41.19.29.53-.41.19.29.53-2.03.96-.29-.53-.41.19-.29-.53-.41.19-.29-.54-.41.19-2.92-5.34.41-.19-.29-.53.41-.19-.29-.53.41-.19-.29-.53,2.03-.96.29.53.41-.19.29.53.41-.19-.58-1.07,1.22-.58,4.66,8.55Zm-2.68-2.09l-1.75-3.21-.41.19-.29-.54-.41.19-.29-.53-1.62.77.29.53-.41.19,2.33,4.28.41-.19.29.53,1.62-.77-.29-.53.41-.19-.29-.53.41-.19Z"/><path class="cls-2" d="m491.48,574.93l-1.22.58-3.5-6.41-.41.19-.29-.53-1.62.77.29.53-.41.19.29.54-.41.19,3.21,5.88-1.22.58-4.66-8.55,1.22-.58.58,1.07.41-.19-.29-.53.41-.19-.29-.53,2.03-.96.29.53.41-.19.29.53.41-.19.29.53.41-.19,3.79,6.95Z"/><path class="cls-2" d="m497.08,569.58l-.41.19.29.53-.41.19.29.54-.41.19.29.53-.41.19.29.53-2.03.96-.29-.53-.41.19-.29-.53-.41.19-.29-.54-.41.19-.29-.53-.41.19-2.33-4.28.41-.19-.29-.53.41-.19-.29-.53.41-.19-.29-.53.41-.19-.29-.53,2.03-.96.29.53.41-.19.29.53.41-.19.29.53.41-.19.29.53.41-.19,2.33,4.28Zm-1.51.04l-1.75-3.21-.41.19-.29-.54-.41.19-.29-.53-1.22.58.29.53-.41.19.29.54-.41.19,1.75,3.21.41-.19.29.53.41-.19.29.53,1.22-.58-.29-.53.41-.19-.29-.53.41-.19Z"/><path class="cls-2" d="m501.51,562.1l-.81.38-.29-.53-2.84,1.35.29.53-.41.19,3.5,6.41-1.22.58-3.79-6.95.41-.19-.29-.53.41-.19-.29-.53.41-.19-.29-.53,3.65-1.73.29.53.41-.19.87,1.6Z"/><path class="cls-2" d="m510.9,563.7l-.41.19.29.54-.41.19.29.53-.41.19.29.53-2.43,1.15-.29-.53-.41.19-.29-.53-.41.19-.29-.54-.41.19-.29-.53-.41.19-4.08-7.48,1.22-.58,1.17,2.14,3.65-1.73.87,1.6-3.65,1.73,1.75,3.21.41-.19.29.53.41-.19.29.53,1.62-.77-.29-.53.41-.19-.29-.53,1.22-.58.58,1.07Z"/><path class="cls-2" d="m518.54,562.1l-1.22.58-.58-1.07-.41.19.29.53-.41.19.29.53-2.03.96-.29-.53-.41.19-.29-.53-.41.19-.29-.54-.41.19-2.92-5.34.41-.19-.29-.53.41-.19-.29-.53.41-.19-.29-.53,2.03-.96.29.53.41-.19.29.53.41-.19-.58-1.07,1.22-.58,4.66,8.55Zm-2.68-2.09l-1.75-3.21-.41.19-.29-.54-.41.19-.29-.53-1.62.77.29.53-.41.19,2.33,4.28.41-.19.29.53,1.62-.77-.29-.53.41-.19-.29-.53.41-.19Z"/><path class="cls-2" d="m524.43,557.29l-.41.19.29.54-.41.19.29.53-.41.19.29.53-2.43,1.15-.29-.53-.41.19-.29-.53-.41.19-.29-.54-.41.19-.29-.53-.41.19-4.08-7.48,1.22-.58,1.17,2.14,3.65-1.73.87,1.6-3.65,1.73,1.75,3.21.41-.19.29.53.41-.19.29.53,1.62-.77-.29-.53.41-.19-.29-.53,1.22-.58.58,1.07Z"/><path class="cls-2" d="m531.19,554.08l-.41.19.29.54-.41.19.29.53-.41.19.29.53-2.43,1.15-.29-.53-.41.19-.29-.53-.41.19-.29-.54-.41.19-.29-.53-.41.19-4.08-7.48,1.22-.58,1.17,2.14,3.65-1.73.87,1.6-3.65,1.73,1.75,3.21.41-.19.29.53.41-.19.29.53,1.62-.77-.29-.53.41-.19-.29-.53,1.22-.58.58,1.07Z"/><path class="cls-2" d="m536.5,548.2l-.41.19.29.53-.41.19.29.54-3.25,1.54.58,1.07.41-.19.29.53,3.25-1.54.87,1.6-3.65,1.73-.29-.53-.41.19-.29-.53-.41.19-.29-.54-.41.19-2.92-5.34.41-.19-.29-.53.41-.19-.29-.53.41-.19-.29-.53,2.84-1.35.29.53.41-.19.29.53.41-.19.29.53.41-.19,1.46,2.67Zm-1.51.04l-.87-1.6-.41.19-.29-.53-2.03.96.29.53-.41.19.87,1.6,2.84-1.35Z"/><path class="cls-2" d="m542.1,542.85l-.81.38-.29-.53-2.84,1.35.29.53-.41.19,3.5,6.41-1.22.58-3.79-6.95.41-.19-.29-.53.41-.19-.29-.53.41-.19-.29-.53,3.65-1.73.29.53.41-.19.87,1.6Z"/><path class="cls-2" d="m551.49,544.46l-.41.19.29.54-.41.19.29.53-.41.19.29.53-2.84,1.35-.29-.53-.41.19-.29-.53-.41.19-.29-.54-.41.19-.58-1.07,1.22-.58.29.53.41-.19.29.53,2.03-.96-.29-.53.41-.19-.58-1.07-.41.19-.29-.54-2.43,1.15-.29-.53-.41.19-.29-.53-.41.19-.29-.53-.41.19-.87-1.6.41-.19-.29-.53.41-.19-.29-.53.41-.19-.29-.53,3.25-1.54.29.53.41-.19.29.53.41-.19.58,1.07-1.22.58-.29-.53-2.43,1.15.29.53-.41.19.29.54.41-.19.29.53,2.43-1.15.29.53.41-.19.29.53.41-.19.29.53.41-.19,1.17,2.14Z"/><path class="cls-2" d="m559.13,542.85l-1.22.58-.58-1.07-.41.19.29.53-.41.19.29.53-2.03.96-.29-.53-.41.19-.29-.53-.41.19-.29-.54-.41.19-2.92-5.34.41-.19-.29-.53.41-.19-.29-.53.41-.19-.29-.53,2.03-.96.29.53.41-.19.29.53.41-.19-.58-1.07,1.22-.58,4.66,8.55Zm-2.68-2.09l-1.75-3.21-.41.19-.29-.54-.41.19-.29-.53-1.62.77.29.53-.41.19,2.33,4.28.41-.19.29.53,1.62-.77-.29-.53.41-.19-.29-.53.41-.19Z"/><path class="cls-2" d="m565.89,539.65l-2.84,1.35-.29-.53-.41.19-.29-.53-.41.19-.29-.54-.41.19-4.66-8.55-1.22.58-.87-1.6,2.43-1.15,5.25,9.62.41-.19.29.53,2.43-1.15.87,1.6Z"/><path class="cls-2" d="m572.65,536.44l-2.84,1.35-.29-.53-.41.19-.29-.53-.41.19-.29-.54-.41.19-4.66-8.55-1.22.58-.87-1.6,2.43-1.15,5.25,9.62.41-.19.29.53,2.43-1.15.87,1.6Z"/><path class="cls-2" d="m577.67,530.02l-.81.38-.58-1.07-.41.19.29.53-.41.19.29.54-1.22.58-.29-.54-.41.19-.29-.53-.41.19-2.04-3.74.41-.19-.29-.53.41-.19-.29-.54,1.22-.58.29.54.41-.19.29.53.41-.19-.58-1.07-.41.19-.29-.53-.41.19-.29-.53-1.22.58.29.53-.81.38.29.53-.41.19.58,1.07-.41.19,2.04,3.74.41-.19.58,1.07.41-.19.29.53.81-.38.29.53,1.22-.58-.29-.53.81-.38.58,1.07-.41.19.29.54-2.03.96-.29-.54-.81.38-.29-.53-.41.19-.29-.53-.41.19-.58-1.07-.41.19-2.62-4.81.41-.19-.58-1.07.41-.19-.29-.53.41-.19-.29-.53.81-.38-.29-.54,2.03-.96.29.54.41-.19.29.53.41-.19.58,1.07.41-.19,3.21,5.88Zm-1.98-1.75l-.87-1.6-.41.19-.29-.53-.41.19-.29-.53-.81.38.29.53-.41.19,1.46,2.67.41-.19.29.53.81-.38-.29-.53.41-.19-.29-.53.41-.19Z"/><path class="cls-2" d="m581.25,530.34l2.43-1.15-.29-.53.41-.19-.58-1.07-2.84,1.35-.29-.54-.41.19-.29-.53-.41.19-.29-.53-.41.19-1.17-2.14.41-.19-.29-.53.41-.19-.29-.53.41-.19-.29-.53,4.06-1.92,3.79,6.95-.41.19.29.54-.41.19.29.53-.41.19.29.53-2.84,1.35-.87-1.6Zm1.09-4.55l-1.17-2.14-2.43,1.15.29.53-.41.19.58,1.07.41-.19.29.53,2.43-1.15Z"/><path class="cls-2" d="m592.95,526.82l-1.22.58-3.5-6.41-.41.19-.29-.53-.41.19,2.04,3.74-1.22.58-1.75-3.21-.41.19-.29-.53-.41.19,3.79,6.95-1.22.58-4.66-8.55,1.22-.58.29.53.41-.19-.29-.53.81-.38.29.53.41-.19.29.53.41-.19-.29-.53.41-.19-.29-.53.81-.38.29.53.41-.19.29.53.41-.19,4.08,7.48Z"/><path class="cls-2" d="m600.52,523.22l-1.22.58-.58-1.07-.41.19.29.53-.41.19.29.53-2.03.96-.29-.53-.41.19-.29-.53-.41.19-.29-.54-.41.19-2.92-5.34.41-.19-.29-.53.41-.19-.29-.53.41-.19-.29-.53,2.03-.96.29.53.41-.19.29.53.41-.19-.58-1.07,1.22-.58,4.66,8.55Zm-2.68-2.09l-1.75-3.21-.41.19-.29-.54-.41.19-.29-.53-1.62.77.29.53-.41.19,2.33,4.28.41-.19.29.53,1.62-.77-.29-.53.41-.19-.29-.53.41-.19Z"/><path class="cls-2" d="m607.29,520.02l-5.27,2.5-.87-1.6,2.03-.96-2.92-5.34-.81.38-.87-1.6,2.03-.96,3.79,6.95,2.03-.96.87,1.6Zm-7.57-9.19l-1.22.58-.87-1.6,1.22-.58.87,1.6Z"/><path class="cls-2" d="m614.05,516.81l-2.84,1.35-.29-.53-.41.19-.29-.53-.41.19-.29-.54-.41.19-4.66-8.55-1.22.58-.87-1.6,2.43-1.15,5.25,9.62.41-.19.29.53,2.43-1.15.87,1.6Z"/><path class="cls-2" d="m618.79,514.56l-1.62.77-1.17-2.14,1.62-.77,1.17,2.14Z"/><path class="cls-2" d="m626.71,508.79l-.41.19.29.54-.41.19.29.53-.41.19.29.53-2.43,1.15-.29-.53-.41.19-.29-.53-.41.19-.29-.54-.41.19-.29-.53-.41.19-2.33-4.28.41-.19-.29-.53.41-.19-.29-.53.41-.19-.29-.53.41-.19-.29-.53,2.43-1.15.29.53.41-.19.29.53.41-.19.29.53.41-.19.58,1.07-1.22.58-.29-.54-.41.19-.29-.53-1.62.77.29.53-.41.19.29.54-.41.19,1.75,3.21.41-.19.29.53.41-.19.29.53,1.62-.77-.29-.53.41-.19-.29-.53,1.22-.58.58,1.07Z"/><path class="cls-2" d="m633.18,505.05l-.41.19.29.53-.41.19.29.54-.41.19.29.53-.41.19.29.53-2.03.96-.29-.53-.41.19-.29-.53-.41.19-.29-.54-.41.19-.29-.53-.41.19-2.33-4.28.41-.19-.29-.53.41-.19-.29-.53.41-.19-.29-.53.41-.19-.29-.53,2.03-.96.29.53.41-.19.29.53.41-.19.29.53.41-.19.29.53.41-.19,2.33,4.28Zm-1.51.04l-1.75-3.21-.41.19-.29-.54-.41.19-.29-.53-1.22.58.29.53-.41.19.29.54-.41.19,1.75,3.21.41-.19.29.53.41-.19.29.53,1.22-.58-.29-.53.41-.19-.29-.53.41-.19Z"/><path class="cls-2" d="m641.11,503.98l-1.22.58-3.5-6.41-.41.19-.29-.53-.41.19,2.04,3.74-1.22.58-1.75-3.21-.41.19-.29-.53-.41.19,3.79,6.95-1.22.58-4.66-8.55,1.22-.58.29.53.41-.19-.29-.53.81-.38.29.53.41-.19.29.53.41-.19-.29-.53.41-.19-.29-.53.81-.38.29.53.41-.19.29.53.41-.19,4.08,7.48Z"/><path class="cls-2" d="m272.59,198.22l-6.87,3.26.78,1.44,4.6-2.18,3.36,6.17-4.6,2.18.85,1.55,6.9-3.27,3.74,6.85-12.58,5.97-12.36-22.66,12.56-5.96,3.63,6.66Z"/><path class="cls-2" d="m284.23,212.85l-12.36-22.66,5.66-2.68,8.28,15.17,5.65-2.68,4.09,7.49-11.31,5.36Z"/><path class="cls-2" d="m298.41,206.12l-12.36-22.66,5.66-2.68,8.28,15.17,5.65-2.68,4.09,7.49-11.31,5.36Z"/><path class="cls-2" d="m316.43,177.43l-6.87,3.26.78,1.44,4.6-2.18,3.36,6.17-4.6,2.18.85,1.55,6.9-3.27,3.74,6.85-12.58,5.97-12.36-22.66,12.56-5.96,3.63,6.66Z"/><path class="cls-2" d="m225.42,409.45l-1.52.72-1.46-2.67-.51.24-.73-1.34-.51.24-.73-1.34-.51.24-.73-1.34-2.03.96,3.65,6.68-1.52.72-8.02-14.71,5.07-2.41.36.67.51-.24.36.67.51-.24.36.67.51-.24,2.19,4.01-.51.24.36.67-.51.24.36.67-.51.24.73,1.34.51-.24.73,1.34.51-.24.73,1.34.51-.24,1.82,3.34Zm-6.63-8.64l-1.46-2.67-.51.24-.36-.67-3.04,1.44,2.19,4.01,3.04-1.44-.36-.67.51-.24Z"/><path class="cls-2" d="m233.03,405.85l-6.6,3.13-8.02-14.71,6.6-3.13,1.09,2.01-5.07,2.41,2.19,4.01,4.06-1.92,1.09,2.01-4.06,1.92,2.55,4.68,5.07-2.41,1.09,2.01Z"/><path class="cls-2" d="m240.64,402.24l-1.52.72-1.82-3.34-3.55,1.68,1.82,3.34-1.52.72-2.92-5.35-.36-.67-.73-1.34.51-.24-.73-1.34.51-.24-.73-1.34.51-.24-.73-1.34.51-.24-.73-1.34.51-.24-.73-1.34.51-.24-.36-.67.51-.24.36.67.51-.24.73,1.34.51-.24.73,1.34.51-.24.73,1.34.51-.24.73,1.34.51-.24.73,1.34.51-.24.73,1.34.36.67,2.92,5.35Zm-4.44-4.63l-.36-.67-.36-.67-.51.24-.73-1.34-.51.24-.73-1.34-.51.24-.73-1.34-.51.24.73,1.34-.51.24.73,1.34-.51.24.73,1.34-.51.24.36.67.36.67,3.55-1.68Z"/><path class="cls-2" d="m246.43,395.29l-.51.24.36.67-.51.24.36.67-.51.24.36.67-.51.24.36.67-.52.25.36.67-4.04,1.92-8.02-14.71,4.06-1.92.36.67.51-.24.36.67.51-.24.36.67.51-.24.36.67.51-.24.36.67.51-.24,4.38,8.02Zm-1.89.05l-3.65-6.68-.51.24-.36-.67-.51.24-.36-.67-.51.24-.36-.67-2.03.96,5.83,10.69,2.03-.96-.36-.67.51-.24-.36-.67.51-.24-.36-.67.51-.24Z"/><path class="cls-2" d="m248.94,382.32l-.51.24.73,1.34-.51.24.73,1.34-.51.24.73,1.34-.51.24.73,1.34-.51.24,4.01,7.35-1.52.72-4.01-7.35-.51.24-.73-1.34-.51.24-.73-1.34-.51.24-.73-1.34-.51.24-.73-1.34-.51.24-1.09-2.01,1.52-.72.73,1.34.51-.24.73,1.34.51-.24.73,1.34.51-.24.73,1.34.51-.24-.73-1.34.51-.24-.73-1.34.51-.24-.73-1.34.51-.24-.73-1.34,1.52-.72,1.09,2.01Z"/><path class="cls-2" d="m264.16,375.1l-2.54,1.2,6.93,12.7-1.52.72-6.93-12.7-2.54,1.2-1.09-2.01,6.6-3.13,1.09,2.01Z"/><path class="cls-2" d="m277.24,381.52l-.51.24.36.67-.51.24.36.67-.51.24.36.67-.51.24.36.67-2.54,1.2-.36-.67-.51.24-.36-.67-.51.24-.36-.67-.51.24-.36-.67-.51.24-5.1-9.36.51-.24-.36-.67.51-.24-.36-.67.51-.24-.36-.67.51-.24-.36-.67,2.54-1.2.36.67.51-.24.36.67.51-.24.36.67.51-.24.36.67.51-.24,5.1,9.36Zm-1.89.05l-4.38-8.02-.51.24-.36-.67-.51.24-.36-.67-1.52.72.36.67-.51.24.36.67-.51.24,4.38,8.02.51-.24.36.67.51-.24.36.67,1.52-.72-.36-.67.51-.24-.36-.67.51-.24Z"/><path class="cls-2" d="m292.09,373.64l-.51.24.36.67-.51.24.36.67-.51.24.36.67-.51.24.36.67-.52.25.36.67-4.04,1.92-8.02-14.71,4.06-1.92.36.67.51-.24.36.67.51-.24.36.67.51-.24.36.67.51-.24.36.67.51-.24,4.38,8.02Zm-1.89.05l-3.65-6.68-.51.24-.36-.67-.51.24-.36-.67-.51.24-.36-.67-2.03.96,5.83,10.69,2.03-.96-.36-.67.51-.24-.36-.67.51-.24-.36-.67.51-.24Z"/><path class="cls-2" d="m301.53,373.37l-6.6,3.13-1.09-2.01,2.54-1.2-5.83-10.69-1.01.48-1.09-2.01,3.55-1.68,1.09,2.01-1.01.48,5.83,10.69,2.54-1.2,1.09,2.01Z"/><path class="cls-2" d="m304.76,361.74l-.51.24.73,1.34-.51.24.73,1.34-.51.24.73,1.34-.51.24.73,1.34-.51.24.73,1.34-.51.24.73,1.34-.51.24-.73-1.34-.51.24-.73-1.34-.51.24-.73-1.34-.51.24-.73-1.34-.51.24-.73-1.34-.51.24-.73-1.34-.51.24-3.65-6.68,1.52-.72,3.28,6.02.51-.24.73,1.34.51-.24.73,1.34.51-.24.73,1.34.51-.24-.73-1.34.51-.24-.73-1.34.51-.24-.73-1.34.51-.24-3.28-6.02,1.52-.72,3.65,6.68Z"/><path class="cls-2" d="m316.75,366.15l-6.6,3.13-8.02-14.71,6.6-3.13,1.09,2.01-5.07,2.41,2.19,4.01,4.06-1.92,1.09,2.01-4.06,1.92,2.55,4.68,5.07-2.41,1.09,2.01Z"/><path class="cls-2" d="m331.97,358.93l-6.6,3.13-1.09-2.01,2.54-1.2-5.83-10.69-1.01.48-1.09-2.01,3.55-1.68,1.09,2.01-1.01.48,5.83,10.69,2.54-1.2,1.09,2.01Z"/><path class="cls-2" d="m339.58,355.33l-1.52.72-.36-.67-.51.24-.73-1.34-.51.24-.73-1.34-.51.24-.73-1.34-.51.24-.73-1.34-.51.24-.73-1.34-.51.24-.73-1.34-.51.24,4.74,8.69-1.52.72-8.02-14.71,1.01-.48.73,1.34.51-.24.73,1.34.51-.24.73,1.34.51-.24.73,1.34.51-.24.73,1.34.51-.24.73,1.34.51-.24.73,1.34.51-.24.73,1.34.51-.24-5.83-10.69,1.52-.72,8.02,14.71Z"/><path class="cls-2" d="m347.87,335.41l-2.54,1.2,6.93,12.7-1.52.72-6.93-12.7-2.54,1.2-1.09-2.01,6.6-3.13,1.09,2.01Z"/><path class="cls-2" d="m362.41,344.5l-1.52.72-3.65-6.68-3.55,1.68,3.65,6.68-1.52.72-8.02-14.71,1.52-.72,3.28,6.02,3.55-1.68-3.28-6.02,1.52-.72,8.02,14.71Z"/><path class="cls-2" d="m370.02,340.89l-6.6,3.13-8.02-14.71,6.6-3.13,1.09,2.01-5.07,2.41,2.19,4.01,4.06-1.92,1.09,2.01-4.06,1.92,2.55,4.68,5.07-2.41,1.09,2.01Z"/><path class="cls-2" d="m383.41,330.33l-.51.24.36.67-.51.24.36.67-.51.24.36.67-.51.24.36.67-.52.25.36.67-4.04,1.92-8.02-14.71,4.06-1.92.36.67.51-.24.36.67.51-.24.36.67.51-.24.36.67.51-.24.36.67.51-.24,4.38,8.02Zm-1.89.05l-3.65-6.68-.51.24-.36-.67-.51.24-.36-.67-.51.24-.36-.67-2.03.96,5.83,10.69,2.03-.96-.36-.67.51-.24-.36-.67.51-.24-.36-.67.51-.24Z"/><path class="cls-2" d="m392.85,330.07l-6.6,3.13-8.02-14.71,6.6-3.13,1.09,2.01-5.07,2.41,2.19,4.01,4.06-1.92,1.09,2.01-4.06,1.92,2.55,4.68,5.07-2.41,1.09,2.01Z"/><path class="cls-2" d="m400.46,326.46l-6.6,3.13-8.02-14.71,6.6-3.13,1.09,2.01-5.07,2.41,2.19,4.01,4.06-1.92,1.09,2.01-4.06,1.92,2.55,4.68,5.07-2.41,1.09,2.01Z"/><path class="cls-2" d="m403.69,314.83l-.51.24.36.67-.51.24.36.67-.51.24.36.67-3.55,1.68,3.28,6.02-1.52.72-8.02-14.71,5.07-2.41.36.67.51-.24.36.67.51-.24.36.67.51-.24,2.55,4.68Zm-1.89.05l-1.82-3.34-.51.24-.36-.67-3.04,1.44,2.55,4.68,3.04-1.44-.36-.67.51-.24Z"/><path class="cls-2" d="m423.29,315.63l-6.6,3.13-8.02-14.71,6.6-3.13,1.09,2.01-5.07,2.41,2.19,4.01,4.06-1.92,1.09,2.01-4.06,1.92,2.55,4.68,5.07-2.41,1.09,2.01Z"/><path class="cls-2" d="m430.9,312.02l-1.52.72-.36-.67-.51.24-.73-1.34-.51.24-.73-1.34-.51.24-.73-1.34-.51.24-.73-1.34-.51.24-.73-1.34-.51.24-.73-1.34-.51.24,4.74,8.69-1.52.72-8.02-14.71,1.01-.48.73,1.34.51-.24.73,1.34.51-.24.73,1.34.51-.24.73,1.34.51-.24.73,1.34.51-.24.73,1.34.51-.24.73,1.34.51-.24.73,1.34.51-.24-5.83-10.69,1.52-.72,8.02,14.71Z"/><path class="cls-2" d="m436.69,305.07l-.51.24.36.67-.51.24.36.67-.51.24.36.67-.51.24.36.67-.52.25.36.67-4.04,1.92-8.02-14.71,4.06-1.92.36.67.51-.24.36.67.51-.24.36.67.51-.24.36.67.51-.24.36.67.51-.24,4.38,8.02Zm-1.89.05l-3.65-6.68-.51.24-.36-.67-.51.24-.36-.67-.51.24-.36-.67-2.03.96,5.83,10.69,2.03-.96-.36-.67.51-.24-.36-.67.51-.24-.36-.67.51-.24Z"/><path class="cls-2" d="m453.73,301.2l-1.52.72-1.82-3.34-3.55,1.68,1.82,3.34-1.52.72-2.92-5.35-.36-.67-.73-1.34.51-.24-.73-1.34.51-.24-.73-1.34.51-.24-.73-1.34.51-.24-.73-1.34.51-.24-.73-1.34.51-.24-.36-.67.51-.24.36.67.51-.24.73,1.34.51-.24.73,1.34.51-.24.73,1.34.51-.24.73,1.34.51-.24.73,1.34.51-.24.73,1.34.36.67,2.92,5.35Zm-4.44-4.63l-.36-.67-.36-.67-.51.24-.73-1.34-.51.24-.73-1.34-.51.24-.73-1.34-.51.24.73,1.34-.51.24.73,1.34-.51.24.73,1.34-.51.24.36.67.36.67,3.55-1.68Z"/><path class="cls-2" d="m461.34,297.59l-1.52.72-.36-.67-.51.24-.73-1.34-.51.24-.73-1.34-.51.24-.73-1.34-.51.24-.73-1.34-.51.24-.73-1.34-.51.24-.73-1.34-.51.24,4.74,8.69-1.52.72-8.02-14.71,1.01-.48.73,1.34.51-.24.73,1.34.51-.24.73,1.34.51-.24.73,1.34.51-.24.73,1.34.51-.24.73,1.34.51-.24.73,1.34.51-.24.73,1.34.51-.24-5.83-10.69,1.52-.72,8.02,14.71Z"/><path class="cls-2" d="m467.13,290.64l-.51.24.36.67-.51.24.36.67-.51.24.36.67-.51.24.36.67-.52.25.36.67-4.04,1.92-8.02-14.71,4.06-1.92.36.67.51-.24.36.67.51-.24.36.67.51-.24.36.67.51-.24.36.67.51-.24,4.38,8.02Zm-1.89.05l-3.65-6.68-.51.24-.36-.67-.51.24-.36-.67-.51.24-.36-.67-2.03.96,5.83,10.69,2.03-.96-.36-.67.51-.24-.36-.67.51-.24-.36-.67.51-.24Z"/><path class="cls-2" d="m483.44,285.43l-.51.24.36.67-.51.24.36.67-3.55,1.68-.36-.67-.51.24-.36-.67-.51.24-.36-.67-.51.24-.36-.67-.51.24-5.1-9.36.51-.24-.36-.67.51-.24-.36-.67.51-.24-.36-.67.51-.24-.36-.67,3.55-1.68.36.67.51-.24.36.67.51-.24.73,1.34-1.52.72-.36-.67-2.54,1.2.36.67-.51.24.36.67-.51.24,4.38,8.02.51-.24.36.67.51-.24.36.67,2.54-1.2-2.19-4.01-.51.24.36.67-1.52.72-1.46-2.67,3.55-1.68,3.65,6.68Z"/><path class="cls-2" d="m491.78,283.15l-6.6,3.13-8.02-14.71,6.6-3.13,1.09,2.01-5.07,2.41,2.19,4.01,4.06-1.92,1.09,2.01-4.06,1.92,2.55,4.68,5.07-2.41,1.09,2.01Z"/><path class="cls-2" d="m492.46,266.85l-2.54,1.2,6.93,12.7-1.52.72-6.93-12.7-2.54,1.2-1.09-2.01,6.6-3.13,1.09,2.01Z"/><path class="cls-2" d="m312.3,401.91l-1.52.72-4.01-7.35-.51.24.73,1.34-.51.24.73,1.34-.51.24.73,1.34-.51.24-.73-1.34-.51.24-.73-1.34-.51.24-.73-1.34-.51.24,4.01,7.35-1.52.72-8.02-14.71.51-.24.73,1.34.51-.24.73,1.34.51-.24.73,1.34.51-.24.73,1.34.51-.24.73,1.34.51-.24.73,1.34.51-.24-.73-1.34.51-.24-.73-1.34.51-.24-.73-1.34.51-.24-.73-1.34.51-.24-.73-1.34.51-.24-.73-1.34.51-.24,8.02,14.71Z"/><path class="cls-2" d="m312.99,385.6l-.51.24.73,1.34-.51.24.73,1.34-.51.24.73,1.34-.51.24.73,1.34-.51.24,4.01,7.35-1.52.72-4.01-7.35-.51.24-.73-1.34-.51.24-.73-1.34-.51.24-.73-1.34-.51.24-.73-1.34-.51.24-1.09-2,1.52-.72.73,1.34.51-.24.73,1.34.51-.24.73,1.34.51-.24.73,1.34.51-.24-.73-1.34.51-.24-.73-1.34.51-.24-.73-1.34.51-.24-.73-1.34,1.52-.72,1.09,2Z"/><path class="cls-2" d="m328.21,378.38l-5.07,2.41,2.19,4.01,3.55-1.68,1.09,2-3.55,1.68,3.65,6.68-1.52.72-8.02-14.71,6.6-3.13,1.09,2Z"/><path class="cls-2" d="m341.29,384.8l-.51.24.36.67-.51.24.36.67-.51.24.36.67-.51.24.36.67-2.54,1.2-.36-.67-.51.24-.36-.67-.51.24-.36-.67-.51.24-.36-.67-.51.24-5.1-9.36.51-.24-.36-.67.51-.24-.36-.67.51-.24-.36-.67.51-.24-.36-.67,2.54-1.2.36.67.51-.24.36.67.51-.24.36.67.51-.24.36.67.51-.24,5.1,9.36Zm-1.89.05l-4.38-8.02-.51.24-.36-.67-.51.24-.36-.67-1.52.72.36.67-.51.24.36.67-.51.24,4.38,8.02.51-.24.36.67.51-.24.36.67,1.52-.72-.36-.67.51-.24-.36-.67.51-.24Z"/><path class="cls-2" d="m348.9,381.19l-.51.24.36.67-.51.24.36.67-.51.24.36.67-.51.24.36.67-2.54,1.2-.36-.67-.51.24-.36-.67-.51.24-.36-.67-.51.24-.36-.67-.51.24-5.1-9.36.51-.24-.36-.67.51-.24-.36-.67.51-.24-.36-.67.51-.24-.36-.67,2.54-1.2.36.67.51-.24.36.67.51-.24.36.67.51-.24.36.67.51-.24,5.1,9.36Zm-1.89.05l-4.38-8.02-.51.24-.36-.67-.51.24-.36-.67-1.52.72.36.67-.51.24.36.67-.51.24,4.38,8.02.51-.24.36.67.51-.24.36.67,1.52-.72-.36-.67.51-.24-.36-.67.51-.24Z"/><path class="cls-2" d="m351.04,367.56l-2.54,1.2,6.93,12.7-1.52.72-6.93-12.7-2.54,1.2-1.09-2,6.6-3.13,1.09,2Z"/><path class="cls-2" d="m373.19,373.04l-6.6,3.13-1.09-2.01,2.54-1.2-5.83-10.69-1.01.48-1.09-2,3.55-1.68,1.09,2-1.01.48,5.83,10.69,2.54-1.2,1.09,2.01Z"/><path class="cls-2" d="m380.8,369.43l-1.52.72-.36-.67-.51.24-.73-1.34-.51.24-.73-1.34-.51.24-.73-1.34-.51.24-.73-1.34-.51.24-.73-1.34-.51.24-.73-1.34-.51.24,4.74,8.69-1.52.72-8.02-14.71,1.01-.48.73,1.34.51-.24.73,1.34.51-.24.73,1.34.51-.24.73,1.34.51-.24.73,1.34.51-.24.73,1.34.51-.24.73,1.34.51-.24.73,1.34.51-.24-5.83-10.69,1.52-.72,8.02,14.71Z"/><path class="cls-2" d="m389.09,349.51l-2.54,1.2,6.93,12.7-1.52.72-6.93-12.7-2.54,1.2-1.09-2,6.6-3.13,1.09,2Z"/><path class="cls-2" d="m403.63,358.6l-1.52.72-3.65-6.68-3.55,1.68,3.65,6.68-1.52.72-8.02-14.71,1.52-.72,3.28,6.02,3.55-1.68-3.28-6.02,1.52-.72,8.02,14.71Z"/><path class="cls-2" d="m411.24,355l-6.6,3.13-8.02-14.71,6.6-3.13,1.09,2-5.07,2.41,2.19,4.01,4.06-1.92,1.09,2-4.06,1.92,2.55,4.68,5.07-2.41,1.09,2.01Z"/><path class="cls-2" d="m424.63,344.44l-.51.24.36.67-.51.24.36.67-.51.24.36.67-.51.24.36.67-.52.25.36.67-4.04,1.92-8.02-14.71,4.06-1.92.36.67.51-.24.36.67.51-.24.36.67.51-.24.36.67.51-.24.36.67.51-.24,4.38,8.02Zm-1.89.05l-3.65-6.68-.51.24-.36-.67-.51.24-.36-.67-.51.24-.36-.67-2.03.96,5.83,10.69,2.03-.96-.36-.67.51-.24-.36-.67.51-.24-.36-.67.51-.24Z"/><path class="cls-2" d="m432.61,341.5l-.51.24.36.67-.51.24.36.67-.51.24.36.67-.51.24.36.67-2.54,1.2-.36-.67-.51.24-.36-.67-.51.24-.36-.67-.51.24-.36-.67-.51.24-5.1-9.36.51-.24-.36-.67.51-.24-.36-.67.51-.24-.36-.67.51-.24-.36-.67,2.54-1.2.36.67.51-.24.36.67.51-.24.36.67.51-.24.36.67.51-.24,5.1,9.36Zm-1.89.05l-4.38-8.02-.51.24-.36-.67-.51.24-.36-.67-1.52.72.36.67-.51.24.36.67-.51.24,4.38,8.02.51-.24.36.67.51-.24.36.67,1.52-.72-.36-.67.51-.24-.36-.67.51-.24Z"/><path class="cls-2" d="m440.22,337.89l-.51.24.36.67-.51.24.36.67-.51.24.36.67-.51.24.36.67-2.54,1.2-.36-.67-.51.24-.36-.67-.51.24-.36-.67-.51.24-.36-.67-.51.24-5.1-9.36.51-.24-.36-.67.51-.24-.36-.67.51-.24-.36-.67.51-.24-.36-.67,2.54-1.2.36.67.51-.24.36.67.51-.24.36.67.51-.24.36.67.51-.24,5.1,9.36Zm-1.89.05l-4.38-8.02-.51.24-.36-.67-.51.24-.36-.67-1.52.72.36.67-.51.24.36.67-.51.24,4.38,8.02.51-.24.36.67.51-.24.36.67,1.52-.72-.36-.67.51-.24-.36-.67.51-.24Z"/><path class="cls-2" d="m449.29,336.95l-1.52.72-1.46-2.67-.51.24-.73-1.34-.51.24-.73-1.34-.51.24-.73-1.34-2.03.96,3.65,6.68-1.52.72-8.02-14.71,5.07-2.41.36.67.51-.24.36.67.51-.24.36.67.51-.24,2.19,4.01-.51.24.36.67-.51.24.36.67-.51.24.73,1.34.51-.24.73,1.34.51-.24.73,1.34.51-.24,1.82,3.34Zm-6.63-8.64l-1.46-2.67-.51.24-.36-.67-3.04,1.44,2.19,4.01,3.04-1.44-.36-.67.51-.24Z"/><path class="cls-2" d="m501.84,758.94l-.41.19-.58-1.07-.41.19-.58-1.07-.41.19-.58-1.07-.41.19-.58-1.07-.41.19-.58-1.07-.41.19-.58-1.07-.41.19.58,1.07-.41.19.58,1.07-.41.19.58,1.07-.41.19.58,1.07-.41.19.58,1.07-.41.19.58,1.07-.41.19-6.41-11.76,1.22-.58,3.21,5.88.41-.19-.58-1.07.41-.19-.58-1.07.41-.19-.58-1.07.41-.19.58,1.07.41-.19.58,1.07.41-.19.58,1.07.41-.19-3.21-5.88,1.22-.58,6.41,11.76Z"/><path class="cls-2" d="m508.6,755.73l-1.22.58-2.92-5.34-2.84,1.35,2.92,5.34-1.22.58-6.41-11.76,1.22-.58,2.62,4.81,2.84-1.35-2.62-4.81,1.22-.58,6.41,11.76Z"/><path class="cls-2" d="m514.2,750.38l-.41.19.29.53-.41.19.29.54-.41.19.29.53-.41.19.29.53-2.03.96-.29-.53-.41.19-.29-.53-.41.19-.29-.54-.41.19-.29-.53-.41.19-4.08-7.48.41-.19-.29-.53.41-.19-.29-.53.41-.19-.29-.54.41-.19-.29-.53,2.03-.96.29.53.41-.19.29.54.41-.19.29.53.41-.19.29.53.41-.19,4.08,7.48Zm-1.51.04l-3.5-6.41-.41.19-.29-.53-.41.19-.29-.53-1.22.58.29.53-.41.19.29.53-.41.19,3.5,6.41.41-.19.29.53.41-.19.29.53,1.22-.58-.29-.53.41-.19-.29-.53.41-.19Z"/><path class="cls-2" d="m528.9,746.11l-1.22.58-.58-1.07-.41.19-.58-1.07-.41.19-.58-1.07-.41.19-.58-1.07-.41.19-.58-1.07-.81.38.29.53-.41.19,2.62,4.81-1.22.58-6.41-11.76,1.22-.58,2.62,4.81.41-.19-.29-.53.41-.19-.29-.53.41-.19-.29-.54.41-.19-.29-.53.41-.19-.29-.53.41-.19-.3-.55.41-.19-.28-.52.41-.19-.29-.54.41-.19-.29-.53.41-.19,1.17,2.14-.41.19.29.53-.41.19.29.53-.41.19.28.52-.41.19.3.55-.41.19.29.53-.41.19.29.53.41-.19.29.54.41-.19.58,1.07.41-.19.58,1.07.41-.19.58,1.07.41-.19.58,1.07.41-.19.87,1.6Z"/><path class="cls-2" d="m535.66,742.9l-1.22.58-.29-.53-.41.19-.58-1.07-.41.19-.58-1.07-.41.19-.58-1.07-.41.19-.58-1.07-.41.19-.58-1.07-.41.19-.58-1.07-.41.19,3.79,6.95-1.22.58-6.41-11.76.81-.38.58,1.07.41-.19.58,1.07.41-.19.58,1.07.41-.19.58,1.07.41-.19.58,1.07.41-.19.58,1.07.41-.19.58,1.07.41-.19.58,1.07.41-.19-4.67-8.55,1.22-.58,6.41,11.76Z"/><path class="cls-2" d="m541.26,737.55l-.41.19.29.53-.41.19.29.54-.41.19.29.53-.41.19.29.53-2.03.96-.29-.53-.41.19-.29-.53-.41.19-.29-.54-.41.19-.29-.53-.41.19-4.08-7.48.41-.19-.29-.53.41-.19-.29-.53.41-.19-.29-.54.41-.19-.29-.53,2.03-.96.29.53.41-.19.29.54.41-.19.29.53.41-.19.29.53.41-.19,4.08,7.48Zm-1.51.04l-3.5-6.41-.41.19-.29-.53-.41.19-.29-.53-1.22.58.29.53-.41.19.29.53-.41.19,3.5,6.41.41-.19.29.53.41-.19.29.53,1.22-.58-.29-.53.41-.19-.29-.53.41-.19Z"/><path class="cls-2" d="m549.19,736.48l-.41.19-.58-1.07-.41.19-.58-1.07-.41.19-.58-1.07-.41.19-.58-1.07-.41.19-.58-1.07-.41.19-.58-1.07-.41.19.58,1.07-.41.19.58,1.07-.41.19.58,1.07-.41.19.58,1.07-.41.19.58,1.07-.41.19.58,1.07-.41.19-6.41-11.76,1.22-.58,3.21,5.88.41-.19-.58-1.07.41-.19-.58-1.07.41-.19-.58-1.07.41-.19.58,1.07.41-.19.58,1.07.41-.19.58,1.07.41-.19-3.21-5.88,1.22-.58,6.41,11.76Z"/><path class="cls-2" d="m555.08,731.67l-.41.19.29.54-.41.19.29.53-.41.19.29.53-2.84,1.35-.29-.53-.41.19-.29-.53-.41.19-.29-.54-.41.19-.87-1.6,1.22-.58.58,1.07.41-.19.29.53,2.03-.96-.29-.53.41-.19-1.46-2.67-.41.19-.29-.53-2.43,1.15-.29-.53-.41.19-.29-.54-.41.19-.29-.53-.41.19-1.75-3.21.41-.19-.29-.53.41-.19-.29-.54.41-.19-.29-.53,2.84-1.35.29.53.41-.19.29.54.41-.19.29.53.41-.19.87,1.6-1.22.58-.58-1.07-.41.19-.29-.53-2.03.96.29.53-.41.19,1.17,2.14.41-.19.29.53,2.43-1.15.29.53.41-.19.29.54.41-.19.29.53.41-.19,2.04,3.74Z"/><path class="cls-2" d="m563.95,716.71l-.41.19.58,1.07-.41.19.58,1.07-.41.19.58,1.07-.41.19.58,1.07-.41.19,3.21,5.88-1.22.58-3.21-5.88-.41.19-.58-1.07-.41.19-.58-1.07-.41.19-.58-1.07-.41.19-.58-1.07-.41.19-.87-1.6,1.22-.58.58,1.07.41-.19.58,1.07.41-.19.58,1.07.41-.19.58,1.07.41-.19-.58-1.07.41-.19-.58-1.07.41-.19-.58-1.07.41-.19-.58-1.07,1.22-.58.87,1.6Z"/><path class="cls-2" d="m575.08,721.51l-.41.19.29.53-.41.19.29.54-.41.19.29.53-.41.19.29.53-2.03.96-.29-.53-.41.19-.29-.53-.41.19-.29-.54-.41.19-.29-.53-.41.19-4.08-7.48.41-.19-.29-.53.41-.19-.29-.53.41-.19-.29-.54.41-.19-.29-.53,2.03-.96.29.53.41-.19.29.54.41-.19.29.53.41-.19.29.53.41-.19,4.08,7.48Zm-1.51.04l-3.5-6.41-.41.19-.29-.53-.41.19-.29-.53-1.22.58.29.53-.41.19.29.53-.41.19,3.5,6.41.41-.19.29.53.41-.19.29.53,1.22-.58-.29-.53.41-.19-.29-.53.41-.19Z"/><path class="cls-2" d="m582.14,718.84l-.41.19.29.54-.41.19.29.53-.41.19.29.53-2.84,1.35-.29-.53-.41.19-.29-.53-.41.19-.29-.54-.41.19-5.54-10.15,1.22-.58,5.25,9.62.41-.19.29.53,2.03-.96-.29-.53.41-.19-5.25-9.62,1.22-.58,5.54,10.15Z"/><path class="cls-2" d="m596.54,714.03l-1.22.58-3.21-5.88-.41.19.58,1.07-.41.19.58,1.07-.41.19.58,1.07-.41.19-.58-1.07-.41.19-.58-1.07-.41.19-.58-1.07-.41.19,3.21,5.88-1.22.58-6.41-11.76.41-.19.58,1.07.41-.19.58,1.07.41-.19.58,1.07.41-.19.58,1.07.41-.19.58,1.07.41-.19.58,1.07.41-.19-.58-1.07.41-.19-.58-1.07.41-.19-.58-1.07.41-.19-.58-1.07.41-.19-.58-1.07.41-.19-.58-1.07.41-.19,6.41,11.76Z"/><path class="cls-2" d="m603.31,710.82l-5.27,2.5-.87-1.6,2.03-.96-4.66-8.55-.81.38-.87-1.6,2.84-1.35.87,1.6-.81.38,4.66,8.55,2.03-.96.87,1.6Z"/><path class="cls-2" d="m609.49,706.55l-.41.19.29.53-.41.19.29.53-2.84,1.35-.29-.53-.41.19-.29-.53-.41.19-.29-.54-.41.19-.29-.53-.41.19-4.08-7.48.41-.19-.29-.53.41-.19-.29-.53.41-.19-.29-.54.41-.19-.29-.53,2.84-1.35.29.53.41-.19.29.54.41-.19.58,1.07-1.22.58-.29-.53-2.03.96.29.53-.41.19.29.53-.41.19,3.5,6.41.41-.19.29.53.41-.19.29.53,2.03-.96-1.75-3.21-.41.19.29.53-1.22.58-1.17-2.14,2.84-1.35,2.92,5.35Z"/><path class="cls-2" d="m616.84,704.41l-1.22.58-2.92-5.34-2.84,1.35,2.92,5.34-1.22.58-6.41-11.76,1.22-.58,2.62,4.81,2.84-1.35-2.62-4.81,1.22-.58,6.41,11.76Z"/><path class="cls-2" d="m618.06,691.04l-2.03.96,5.54,10.15-1.22.58-5.54-10.15-2.03.96-.87-1.6,5.27-2.5.87,1.6Z"/><path class="cls-2" d="m637.13,694.78l-.41.19-.58-1.07-.41.19-.58-1.07-.41.19-.58-1.07-.41.19-.58-1.07-.41.19-.58-1.07-.41.19-.58-1.07-.41.19.58,1.07-.41.19.58,1.07-.41.19.58,1.07-.41.19.58,1.07-.41.19.58,1.07-.41.19.58,1.07-.41.19-6.41-11.76,1.22-.58,3.21,5.88.41-.19-.58-1.07.41-.19-.58-1.07.41-.19-.58-1.07.41-.19.58,1.07.41-.19.58,1.07.41-.19.58,1.07.41-.19-3.21-5.88,1.22-.58,6.41,11.76Z"/><path class="cls-2" d="m643.9,691.58l-5.27,2.5-.87-1.6,2.03-.96-4.66-8.55-.81.38-.87-1.6,2.84-1.35.87,1.6-.81.38,4.66,8.55,2.03-.96.87,1.6Z"/><path class="cls-2" d="m650.66,688.37l-1.22.58-.29-.53-.41.19-.58-1.07-.41.19-.58-1.07-.41.19-.58-1.07-.41.19-.58-1.07-.41.19-.58-1.07-.41.19-.58-1.07-.41.19,3.79,6.95-1.22.58-6.41-11.76.81-.38.58,1.07.41-.19.58,1.07.41-.19.58,1.07.41-.19.58,1.07.41-.19.58,1.07.41-.19.58,1.07.41-.19.58,1.07.41-.19.58,1.07.41-.19-4.67-8.55,1.22-.58,6.41,11.76Z"/><path class="cls-2" d="m538.41,755.73l-2.03.96,5.54,10.15-1.22.58-5.54-10.15-2.03.96-.87-1.6,5.27-2.5.87,1.6Z"/><path class="cls-2" d="m550.71,762.68l-1.22.58-2.92-5.34-2.84,1.35,2.92,5.34-1.22.58-6.41-11.76,1.22-.58,2.62,4.81,2.84-1.35-2.62-4.81,1.22-.58,6.41,11.76Z"/><path class="cls-2" d="m557.48,759.47l-5.27,2.5-6.41-11.76,5.27-2.5.87,1.6-4.06,1.92,1.75,3.21,3.25-1.54.87,1.6-3.25,1.54,2.04,3.74,4.06-1.92.87,1.6Z"/><path class="cls-2" d="m571,753.06l-5.27,2.5-6.41-11.76,1.22-.58,5.54,10.15,4.06-1.92.87,1.6Z"/><path class="cls-2" d="m576.6,747.71l-.41.19.29.53-.41.19.29.54-.41.19.29.53-.41.19.29.53-2.03.96-.29-.53-.41.19-.29-.53-.41.19-.29-.54-.41.19-.29-.53-.41.19-4.08-7.48.41-.19-.29-.53.41-.19-.29-.53.41-.19-.29-.54.41-.19-.29-.53,2.03-.96.29.53.41-.19.29.54.41-.19.29.53.41-.19.29.53.41-.19,4.08,7.48Zm-1.51.04l-3.5-6.41-.41.19-.29-.53-.41.19-.29-.53-1.22.58.29.53-.41.19.29.53-.41.19,3.5,6.41.41-.19.29.53.41-.19.29.53,1.22-.58-.29-.53.41-.19-.29-.53.41-.19Z"/><path class="cls-2" d="m579,736.49l-2.03.96,5.54,10.15-1.22.58-5.54-10.15-2.03.96-.87-1.6,5.27-2.5.87,1.6Z"/><path class="cls-2" d="m585.76,733.28l-2.03.96,5.54,10.15-1.22.58-5.54-10.15-2.03.96-.87-1.6,5.27-2.5.87,1.6Z"/><path class="cls-2" d="m598.06,740.23l-5.27,2.5-6.41-11.76,5.27-2.5.87,1.6-4.06,1.92,1.75,3.21,3.25-1.54.87,1.6-3.25,1.54,2.04,3.74,4.06-1.92.87,1.6Z"/><path class="cls-2" d="m604.83,737.02l-1.22.58-1.17-2.14-.41.19-.58-1.07-.41.19-.58-1.07-.41.19-.58-1.07-1.62.77,2.92,5.34-1.22.58-6.41-11.76,4.06-1.92.29.53.41-.19.29.54.41-.19.29.53.41-.19,1.75,3.21-.41.19.29.53-.41.19.29.54-.41.19.58,1.07.41-.19.58,1.07.41-.19.58,1.07.41-.19,1.46,2.67Zm-5.3-6.91l-1.17-2.14-.41.19-.29-.53-2.43,1.15,1.75,3.21,2.43-1.15-.29-.53.41-.19Z"/><path class="cls-2" d="m606.05,723.66l-.41.19.58,1.07-.41.19.58,1.07-.41.19.58,1.07-.41.19.58,1.07-.41.19,3.21,5.88-1.22.58-3.21-5.88-.41.19-.58-1.07-.41.19-.58-1.07-.41.19-.58-1.07-.41.19-.58-1.07-.41.19-.87-1.6,1.22-.58.58,1.07.41-.19.58,1.07.41-.19.58,1.07.41-.19.58,1.07.41-.19-.58-1.07.41-.19-.58-1.07.41-.19-.58-1.07.41-.19-.58-1.07,1.22-.58.87,1.6Z"/><path class="cls-2" d="m616.33,731.57l-1.62.77-1.17-2.14,1.62-.77,1.17,2.14Z"/><path class="cls-2" d="m623.09,728.36l-1.62.77-1.17-2.14,1.62-.77,1.17,2.14Z"/><path class="cls-2" d="m629.86,725.15l-1.62.77-1.17-2.14,1.62-.77,1.17,2.14Z"/><path class="cls-2" d="m512.33,438.5l-.41.19.29.53-.41.19.29.53-.41.19.29.53-.41.19.29.53-2.03.96-.29-.53-.41.19-.29-.53-.41.19-.29-.53-.41.19-.29-.53-.41.19-4.08-7.48.41-.19-.29-.53.41-.19-.29-.53.41-.19-.29-.53.41-.19-.29-.53,2.03-.96.29.53.41-.19.29.53.41-.19.29.53.41-.19.29.53.41-.19,4.08,7.48Zm-5.41-6.18l-.29-.53-.29-.53-2.03.96.29.53-.41.19,3.21,5.88.41-.19-.58-1.07.41-.19-.58-1.07.41-.19-.58-1.07.41-.19-.58-1.07.41-.19-.58-1.07.41-.19Zm4.2,6.76l-2.92-5.34-.41.19.58,1.07-.41.19.58,1.07-.41.19.58,1.07-.41.19.58,1.07-.41.19.58,1.07-.41.19.29.53,2.03-.96-.29-.53.41-.19Z"/><path class="cls-2" d="m519.1,435.3l-.81.38,1.17,2.14-1.22.58-1.17-2.14-3.25,1.54-.29-.53-.29-.53.41-.19-.58-1.07.41-.19-.58-1.07.41-.19-.58-1.07.41-.19-.58-1.07.41-.19-.58-1.07.41-.19-.58-1.07.41-.19-.58-1.07.41-.19-.58-1.07,1.22-.58,4.37,8.02.81-.38.87,1.6Zm-2.9-.64l-2.33-4.28-.41.19.58,1.07-.41.19.58,1.07-.41.19.58,1.07-.41.19.58,1.07,1.62-.77Z"/><path class="cls-2" d="m526.16,432.62l-.41.19.29.53-.41.19.29.53-.41.19.29.53-2.84,1.35-.29-.53-.41.19-.29-.53-.41.19-.29-.53-.41.19-2.62-4.81.41-.19-.58-1.07.41-.19-.29-.53.41-.19-.29-.53.41-.19-.29-.53.41-.19-.29-.53.41-.19-.29-.53.41-.19-.29-.53.41-.19-.29-.53.41-.19-.29-.53,1.22-.58.58,1.07-.41.19.29.53-.41.19.29.53-.41.19.29.53-.41.19.29.53-.41.19.29.53-.41.19.29.53-.41.19.29.53,2.03-.96.29.53.41-.19.29.53.41-.19.29.53.41-.19,2.04,3.74Zm-1.51.04l-1.46-2.67-.41.19-.29-.53-2.03.96.29.53-.41.19,1.46,2.67.41-.19.29.53,2.03-.96-.29-.53.41-.19Z"/><path class="cls-2" d="m532.92,429.42l-.41.19.29.53-.41.19.29.53-.41.19.29.53-2.84,1.35-.29-.53-.41.19-.29-.53-.41.19-.29-.53-.41.19-2.62-4.81.41-.19-.58-1.07.41-.19-.29-.53.41-.19-.29-.53.41-.19-.29-.53.41-.19-.29-.53.41-.19-.29-.53.41-.19-.29-.53.41-.19-.29-.53.41-.19-.29-.53,1.22-.58.58,1.07-.41.19.29.53-.41.19.29.53-.41.19.29.53-.41.19.29.53-.41.19.29.53-.41.19.29.53-.41.19.29.53,2.03-.96.29.53.41-.19.29.53.41-.19.29.53.41-.19,2.04,3.74Zm-1.51.04l-1.46-2.67-.41.19-.29-.53-2.03.96.29.53-.41.19,1.46,2.67.41-.19.29.53,2.03-.96-.29-.53.41-.19Z"/><path class="cls-2" d="m546.45,423l-.41.19.29.53-.41.19.29.53-.41.19.29.53-3.25,1.54-.29-.53-.41.19-.29-.53-.41.19-.58-1.07,1.22-.58.29.53,2.43-1.15-.29-.53.41-.19-1.75-3.21-.41.19-.29-.53-3.65,1.73-3.21-5.88,5.27-2.5.87,1.6-4.06,1.92,1.46,2.67,2.84-1.35.29.53.41-.19.29.53.41-.19.29.53.41-.19,2.33,4.28Z"/><path class="cls-2" d="m553.21,419.79l-.41.19.29.53-.41.19.29.53-.41.19.29.53-2.84,1.35-.29-.53-.41.19-.29-.53-.41.19-.29-.53-.41.19-2.04-3.74.41-.19-.29-.53.41-.19-.29-.53-.41.19-.29-.53-.41.19-1.75-3.21.41-.19-.29-.53.41-.19-.29-.53.41-.19-.29-.53,2.84-1.35.29.53.41-.19.29.53.41-.19.29.53.41-.19,1.75,3.21-.41.19.29.53-.41.19.29.53.41-.19.29.53.41-.19,2.04,3.74Zm-4.42-5.3l-1.17-2.14-.41.19-.29-.53-2.03.96.29.53-.41.19,1.17,2.14.41-.19.29.53,2.03-.96-.29-.53.41-.19Zm2.92,5.34l-1.46-2.67-.41.19-.29-.53-2.03.96.29.53-.41.19,1.46,2.67.41-.19.29.53,2.03-.96-.29-.53.41-.19Z"/><path class="cls-2" d="m559.69,416.05l-.81.38,1.17,2.14-1.22.58-1.17-2.14-3.25,1.54-.29-.53-.29-.53.41-.19-.58-1.07.41-.19-.58-1.07.41-.19-.58-1.07.41-.19-.58-1.07.41-.19-.58-1.07.41-.19-.58-1.07.41-.19-.58-1.07.41-.19-.58-1.07,1.22-.58,4.37,8.02.81-.38.87,1.6Zm-2.9-.64l-2.33-4.28-.41.19.58,1.07-.41.19.58,1.07-.41.19.58,1.07-.41.19.58,1.07,1.62-.77Z"/><path class="cls-2" d="m573.51,410.17l-.41.19.29.53-.41.19.29.53-.41.19.29.53-2.84,1.35-.29-.53-.41.19-.29-.53-.41.19-.29-.53-.41.19-2.62-4.81.41-.19-.58-1.07.41-.19-.29-.53.41-.19-.29-.53.41-.19-.29-.53.41-.19-.29-.53.41-.19-.29-.53.41-.19-.29-.53.41-.19-.29-.53.41-.19-.29-.53,1.22-.58.58,1.07-.41.19.29.53-.41.19.29.53-.41.19.29.53-.41.19.29.53-.41.19.29.53-.41.19.29.53-.41.19.29.53,2.03-.96.29.53.41-.19.29.53.41-.19.29.53.41-.19,2.04,3.74Zm-1.51.04l-1.46-2.67-.41.19-.29-.53-2.03.96.29.53-.41.19,1.46,2.67.41-.19.29.53,2.03-.96-.29-.53.41-.19Z"/><path class="cls-2" d="m580.27,406.96l-.41.19.29.53-.41.19.29.53-.41.19.29.53-2.84,1.35-.29-.53-.41.19-.29-.53-.41.19-.29-.53-.41.19-.87-1.6,1.22-.58.58,1.07.41-.19.29.53,2.03-.96-.29-.53.41-.19-1.17-2.14-.41.19-.29-.53-.41.19-.29-.53-.41.19-.29-.53-.41.19-.29-.53-.41.19-.29-.53-.41.19-.29-.53.41-.19-.29-.53.41-.19-.29-.53.41-.19-.29-.53.41-.19-.29-.53.41-.19-.29-.53-3.65,1.73-.87-1.6,5.27-2.5,1.17,2.14-.41.19.29.53-.41.19.29.53-.41.19.29.53-.41.19.29.53-.41.19.29.53.41-.19.29.53.41-.19.29.53.41-.19.29.53.41-.19.29.53.41-.19,1.75,3.21Z"/><path class="cls-2" d="m587.04,403.75l-.41.19.29.53-.41.19.29.53-.41.19.29.53-2.84,1.35-.29-.53-.41.19-.29-.53-.41.19-.29-.53-.41.19-.87-1.6,1.22-.58.58,1.07.41-.19.29.53,2.03-.96-.29-.53.41-.19-1.17-2.14-.41.19-.29-.53-.41.19-.29-.53-.41.19-.29-.53-.41.19-.29-.53-.41.19-.29-.53-.41.19-.29-.53.41-.19-.29-.53.41-.19-.29-.53.41-.19-.29-.53.41-.19-.29-.53.41-.19-.29-.53-3.65,1.73-.87-1.6,5.27-2.5,1.17,2.14-.41.19.29.53-.41.19.29.53-.41.19.29.53-.41.19.29.53-.41.19.29.53.41-.19.29.53.41-.19.29.53.41-.19.29.53.41-.19.29.53.41-.19,1.75,3.21Z"/><path class="cls-2" d="m364.15,698.4l-1.22.58-.29-.53-.41.19-.58-1.07-.41.19-.58-1.07-.41.19-.58-1.07-.41.19-.58-1.07-.41.19-.58-1.07-.41.19-.58-1.07-.41.19,3.79,6.95-1.22.58-6.41-11.76.81-.38.58,1.07.41-.19.58,1.07.41-.19.58,1.07.41-.19.58,1.07.41-.19.58,1.07.41-.19.58,1.07.41-.19.58,1.07.41-.19.58,1.07.41-.19-4.67-8.55,1.22-.58,6.41,11.76Z"/><path class="cls-2" d="m370.92,695.19l-1.22.58-.58-1.07-.41.19.29.53-.41.19.29.53-2.03.96-.29-.53-.41.19-.29-.53-.41.19-.29-.54-.41.19-3.79-6.95,1.22-.58,3.5,6.41.41-.19.29.53,1.62-.77-.29-.53.41-.19-.29-.53.41-.19-3.21-5.88,1.22-.58,4.66,8.55Z"/><path class="cls-2" d="m377.68,691.98l-1.22.58-3.5-6.41-.41.19-.29-.53-.41.19,2.04,3.74-1.22.58-1.75-3.21-.41.19-.29-.53-.41.19,3.79,6.95-1.22.58-4.66-8.55,1.22-.58.29.53.41-.19-.29-.53.81-.38.29.53.41-.19.29.53.41-.19-.29-.53.41-.19-.29-.53.81-.38.29.53.41-.19.29.53.41-.19,4.08,7.48Z"/><path class="cls-2" d="m384.38,686.79l-.41.19.29.54-.41.19.29.53-.41.19.29.53-2.03.96-.29-.53-.41.19-.29-.53-.41.19.58,1.07-1.22.58-6.41-11.76,1.22-.58,2.33,4.28.41-.19-.29-.53.41-.19-.29-.53,2.03-.96.29.53.41-.19.29.53.41-.19.29.53.41-.19,2.92,5.34Zm-1.51.04l-2.33-4.28-.41.19-.29-.53-1.62.77.29.53-.41.19.29.54-.41.19,1.75,3.21.41-.19.29.53.41-.19.29.53,1.62-.77-.29-.53.41-.19Z"/><path class="cls-2" d="m389.69,680.91l-.41.19.29.53-.41.19.29.54-3.25,1.54.58,1.07.41-.19.29.53,3.25-1.54.87,1.6-3.65,1.73-.29-.53-.41.19-.29-.53-.41.19-.29-.54-.41.19-2.92-5.34.41-.19-.29-.53.41-.19-.29-.53.41-.19-.29-.53,2.84-1.35.29.53.41-.19.29.53.41-.19.29.53.41-.19,1.46,2.67Zm-1.51.04l-.87-1.6-.41.19-.29-.53-2.03.96.29.53-.41.19.87,1.6,2.84-1.35Z"/><path class="cls-2" d="m395.29,675.56l-.81.38-.29-.53-2.84,1.35.29.53-.41.19,3.5,6.41-1.22.58-3.79-6.95.41-.19-.29-.53.41-.19-.29-.53.41-.19-.29-.53,3.65-1.73.29.53.41-.19.87,1.6Z"/><path class="cls-2" d="m411.15,673.42l-.41.19.29.53-.41.19.29.54-.41.19.29.53-.41.19.29.53-2.03.96-.29-.53-.41.19-.29-.53-.41.19-.29-.54-.41.19-.29-.53-.41.19-2.33-4.28.41-.19-.29-.53.41-.19-.29-.53.41-.19-.29-.53.41-.19-.29-.53,2.03-.96.29.53.41-.19.29.53.41-.19.29.53.41-.19.29.53.41-.19,2.33,4.28Zm-1.51.04l-1.75-3.21-.41.19-.29-.54-.41.19-.29-.53-1.22.58.29.53-.41.19.29.54-.41.19,1.75,3.21.41-.19.29.53.41-.19.29.53,1.22-.58-.29-.53.41-.19-.29-.53.41-.19Z"/><path class="cls-2" d="m413.83,662.73l-.81.38-.29-.53-2.43,1.15.29.53-.41.19.29.53-.41.19.87,1.6,3.65-1.73.87,1.6-3.65,1.73,3.21,5.88-1.22.58-5.25-9.62.41-.19-.29-.53.41-.19-.29-.53.41-.19-.29-.54.41-.19-.29-.53,3.25-1.54.29.53.41-.19.87,1.6Z"/><path class="cls-2" d="m432.03,664.87l-.41.19.29.53-.41.19.29.53-1.22.58-.29-.53-.41.19-.29-.53-.41.19.29.53-.41.19.29.53-1.22.58-.29-.53-.41.19-.29-.53-.41.19-4.08-7.48,1.22-.58,3.5,6.41.41-.19.29.53.41-.19-2.04-3.74,1.22-.58,2.04,3.74.41-.19-.29-.53.41-.19-3.5-6.41,1.22-.58,4.08,7.48Z"/><path class="cls-2" d="m439.37,662.73l-5.27,2.5-.87-1.6,2.03-.96-2.92-5.34-.81.38-.87-1.6,2.03-.96,3.79,6.95,2.03-.96.87,1.6Zm-7.57-9.19l-1.22.58-.87-1.6,1.22-.58.87,1.6Z"/><path class="cls-2" d="m446.14,659.52l-1.22.58-3.5-6.41-.41.19-.29-.53-1.62.77.29.53-.41.19.29.54-.41.19,3.21,5.88-1.22.58-4.66-8.55,1.22-.58.58,1.07.41-.19-.29-.53.41-.19-.29-.53,2.03-.96.29.53.41-.19.29.53.41-.19.29.53.41-.19,3.79,6.95Z"/><path class="cls-2" d="m452.03,654.71l-.41.19.29.54-.41.19.29.53-.41.19.29.53-2.84,1.35-.29-.53-.41.19-.29-.53-.41.19-.29-.54-.41.19-.58-1.07,1.22-.58.29.53.41-.19.29.53,2.03-.96-.29-.53.41-.19-.58-1.07-.41.19-.29-.54-2.43,1.15-.29-.53-.41.19-.29-.53-.41.19-.29-.53-.41.19-.87-1.6.41-.19-.29-.53.41-.19-.29-.53.41-.19-.29-.53,3.25-1.54.29.53.41-.19.29.53.41-.19.58,1.07-1.22.58-.29-.53-2.43,1.15.29.53-.41.19.29.54.41-.19.29.53,2.43-1.15.29.53.41-.19.29.53.41-.19.29.53.41-.19,1.17,2.14Z"/><path class="cls-2" d="m455.31,649.79l-1.62.77-1.17-2.14,1.62-.77,1.17,2.14Zm2.33,4.28l-1.62.77-1.17-2.14,1.62-.77,1.17,2.14Z"/><path class="cls-2" d="m509.81,620.39l-2.03.96,5.54,10.15-1.22.58-5.54-10.15-2.03.96-.87-1.6,5.27-2.5.87,1.6Z"/><path class="cls-2" d="m520.95,625.2l-.41.19.29.53-.41.19.29.54-.41.19.29.53-.41.19.29.53-2.03.96-.29-.53-.41.19-.29-.53-.41.19-.29-.54-.41.19-.29-.53-.41.19-2.33-4.28.41-.19-.29-.53.41-.19-.29-.53.41-.19-.29-.53.41-.19-.29-.53,2.03-.96.29.53.41-.19.29.53.41-.19.29.53.41-.19.29.53.41-.19,2.33,4.28Zm-1.51.04l-1.75-3.21-.41.19-.29-.54-.41.19-.29-.53-1.22.58.29.53-.41.19.29.54-.41.19,1.75,3.21.41-.19.29.53.41-.19.29.53,1.22-.58-.29-.53.41-.19-.29-.53.41-.19Z"/><path class="cls-2" d="m526.84,620.39l-.41.19.29.54-.41.19.29.53-.41.19.29.53-2.03.96-.29-.53-.41.19-.29-.53-.41.19,1.75,3.21-1.22.58-4.66-8.55,1.22-.58.58,1.07.41-.19-.29-.53.41-.19-.29-.53,2.03-.96.29.53.41-.19.29.53.41-.19.29.53.41-.19,1.75,3.21Zm-1.51.04l-1.17-2.14-.41.19-.29-.53-1.62.77.29.53-.41.19.29.54-.41.19.58,1.07.41-.19.29.53.41-.19.29.53,1.62-.77-.29-.53.41-.19Z"/><path class="cls-2" d="m542.41,617.71l-5.27,2.5-.87-1.6,2.03-.96-4.66-8.55-1.22.58-.87-1.6,2.43-1.15,5.54,10.15,2.03-.96.87,1.6Z"/><path class="cls-2" d="m548,612.37l-.41.19.29.53-.41.19.29.54-.41.19.29.53-.41.19.29.53-2.03.96-.29-.53-.41.19-.29-.53-.41.19-.29-.54-.41.19-.29-.53-.41.19-4.08-7.48.41-.19-.29-.53.41-.19-.29-.53.41-.19-.29-.54.41-.19-.29-.53,2.03-.96.29.53.41-.19.29.54.41-.19.29.53.41-.19.29.53.41-.19,4.08,7.48Zm-5.41-6.18l-.29-.53-.29-.53-2.03.96.29.53-.41.19,3.21,5.88.41-.19-.58-1.07.41-.19-.58-1.07.41-.19-.58-1.07.41-.19-.58-1.07.41-.19-.58-1.07.41-.19Zm4.2,6.76l-2.92-5.34-.41.19.58,1.07-.41.19.58,1.07-.41.19.58,1.07-.41.19.58,1.07-.41.19.58,1.07-.41.19.29.53,2.03-.96-.29-.53.41-.19Z"/><path class="cls-2" d="m562.7,608.09l-1.22.58-1.46-2.67-2.84,1.35,1.46,2.67-1.22.58-2.33-4.28-.29-.53-.58-1.07.41-.19-.58-1.07.41-.19-.58-1.07.41-.19-.58-1.07.41-.19-.58-1.07.41-.19-.58-1.07.41-.19-.29-.53.41-.19.29.53.41-.19.58,1.07.41-.19.58,1.07.41-.19.58,1.07.41-.19.58,1.07.41-.19.58,1.07.41-.19.58,1.07.29.53,2.33,4.28Zm-3.55-3.7l-.29-.53-.29-.53-.41.19-.58-1.07-.41.19-.58-1.07-.41.19-.58-1.07-.41.19.58,1.07-.41.19.58,1.07-.41.19.58,1.07-.41.19.29.53.29.53,2.84-1.35Z"/><path class="cls-2" d="m569.46,604.88l-.41.19-.58-1.07-.41.19-.58-1.07-.41.19-.58-1.07-.41.19-.58-1.07-.41.19-.58-1.07-.41.19-.58-1.07-.41.19.58,1.07-.41.19.58,1.07-.41.19.58,1.07-.41.19.58,1.07-.41.19.58,1.07-.41.19.58,1.07-.41.19-6.41-11.76,1.22-.58,3.21,5.88.41-.19-.58-1.07.41-.19-.58-1.07.41-.19-.58-1.07.41-.19.58,1.07.41-.19.58,1.07.41-.19.58,1.07.41-.19-3.21-5.88,1.22-.58,6.41,11.76Z"/><path class="cls-2" d="m576.23,601.68l-1.22.58-1.46-2.67-2.84,1.35,1.46,2.67-1.22.58-2.33-4.28-.29-.53-.58-1.07.41-.19-.58-1.07.41-.19-.58-1.07.41-.19-.58-1.07.41-.19-.58-1.07.41-.19-.58-1.07.41-.19-.29-.53.41-.19.29.53.41-.19.58,1.07.41-.19.58,1.07.41-.19.58,1.07.41-.19.58,1.07.41-.19.58,1.07.41-.19.58,1.07.29.53,2.33,4.28Zm-3.55-3.7l-.29-.53-.29-.53-.41.19-.58-1.07-.41.19-.58-1.07-.41.19-.58-1.07-.41.19.58,1.07-.41.19.58,1.07-.41.19.58,1.07-.41.19.29.53.29.53,2.84-1.35Z"/><path class="cls-2" d="m582.99,598.47l-1.22.58-1.17-2.14-.41.19-.58-1.07-.41.19-.58-1.07-.41.19-.58-1.07-1.62.77,2.92,5.34-1.22.58-6.41-11.76,4.06-1.92.29.53.41-.19.29.54.41-.19.29.53.41-.19,1.75,3.21-.41.19.29.53-.41.19.29.54-.41.19.58,1.07.41-.19.58,1.07.41-.19.58,1.07.41-.19,1.46,2.67Zm-5.3-6.91l-1.17-2.14-.41.19-.29-.53-2.43,1.15,1.75,3.21,2.43-1.15-.29-.53.41-.19Z"/><path class="cls-2" d="m588.3,592.59l-.41.19.29.53-.41.19.29.53-.41.19.29.54-.41.19.29.53-.42.2.29.53-3.23,1.53-6.41-11.76,3.25-1.54.29.53.41-.19.29.54.41-.19.29.53.41-.19.29.53.41-.19.29.53.41-.19,3.5,6.41Zm-1.51.04l-2.92-5.34-.41.19-.29-.54-.41.19-.29-.53-.41.19-.29-.53-1.62.77,4.66,8.55,1.62-.77-.29-.53.41-.19-.29-.53.41-.19-.29-.53.41-.19Z"/><path class="cls-2" d="m602.41,587.24l-.41.19.29.54-.41.19.29.53-.41.19.29.53-2.84,1.35-.29-.53-.41.19-.29-.53-.41.19-.29-.54-.41.19-.87-1.6,1.22-.58.58,1.07.41-.19.29.53,2.03-.96-.29-.53.41-.19-1.46-2.67-.41.19-.29-.53-2.43,1.15-.29-.53-.41.19-.29-.54-.41.19-.29-.53-.41.19-1.75-3.21.41-.19-.29-.53.41-.19-.29-.54.41-.19-.29-.53,2.84-1.35.29.53.41-.19.29.54.41-.19.29.53.41-.19.87,1.6-1.22.58-.58-1.07-.41.19-.29-.53-2.03.96.29.53-.41.19,1.17,2.14.41-.19.29.53,2.43-1.15.29.53.41-.19.29.54.41-.19.29.53.41-.19,2.04,3.74Z"/><path class="cls-2" d="m609.18,584.03l-.41.19.29.54-.41.19.29.53-.41.19.29.53-2.43,1.15-.29-.53-.41.19-.29-.53-.41.19-.29-.54-.41.19-.29-.53-.41.19-2.33-4.28.41-.19-.29-.53.41-.19-.29-.53.41-.19-.29-.53.41-.19-.29-.53,2.43-1.15.29.53.41-.19.29.53.41-.19.29.53.41-.19.58,1.07-1.22.58-.29-.54-.41.19-.29-.53-1.62.77.29.53-.41.19.29.54-.41.19,1.75,3.21.41-.19.29.53.41-.19.29.53,1.62-.77-.29-.53.41-.19-.29-.53,1.22-.58.58,1.07Z"/><path class="cls-2" d="m616.82,582.43l-1.22.58-3.5-6.41-.41.19-.29-.53-1.62.77.29.53-.41.19.29.54-.41.19,3.21,5.88-1.22.58-6.41-11.76,1.22-.58,2.33,4.28.41-.19-.29-.53.41-.19-.29-.53,2.03-.96.29.53.41-.19.29.53.41-.19.29.53.41-.19,3.79,6.95Z"/><path class="cls-2" d="m622.42,577.08l-.41.19.29.53-.41.19.29.54-.41.19.29.53-.41.19.29.53-2.03.96-.29-.53-.41.19-.29-.53-.41.19-.29-.54-.41.19-.29-.53-.41.19-2.33-4.28.41-.19-.29-.53.41-.19-.29-.53.41-.19-.29-.53.41-.19-.29-.53,2.03-.96.29.53.41-.19.29.53.41-.19.29.53.41-.19.29.53.41-.19,2.33,4.28Zm-1.51.04l-1.75-3.21-.41.19-.29-.54-.41.19-.29-.53-1.22.58.29.53-.41.19.29.54-.41.19,1.75,3.21.41-.19.29.53.41-.19.29.53,1.22-.58-.29-.53.41-.19-.29-.53.41-.19Z"/><path class="cls-2" d="m629.18,573.88l-.41.19.29.53-.41.19.29.54-.41.19.29.53-.41.19.29.53-2.03.96-.29-.53-.41.19-.29-.53-.41.19-.29-.54-.41.19-.29-.53-.41.19-2.33-4.28.41-.19-.29-.53.41-.19-.29-.53.41-.19-.29-.53.41-.19-.29-.53,2.03-.96.29.53.41-.19.29.53.41-.19.29.53.41-.19.29.53.41-.19,2.33,4.28Zm-1.51.04l-1.75-3.21-.41.19-.29-.54-.41.19-.29-.53-1.22.58.29.53-.41.19.29.54-.41.19,1.75,3.21.41-.19.29.53.41-.19.29.53,1.22-.58-.29-.53.41-.19-.29-.53.41-.19Z"/><path class="cls-2" d="m637.11,572.81l-2.84,1.35-.29-.53-.41.19-.29-.53-.41.19-.29-.54-.41.19-4.66-8.55-1.22.58-.87-1.6,2.43-1.15,5.25,9.62.41-.19.29.53,2.43-1.15.87,1.6Z"/><path class="cls-2" d="m650.64,566.39l-5.27,2.5-2.33-4.28.41-.19-.29-.53.41-.19-.29-.53.41-.19-.29-.53.41-.19-.29-.54,1.62-.77-.29-.53.41-.19-.29-.53.41-.19-1.17-2.14-.41.19-.29-.53-2.03.96.29.53-.41.19.58,1.07-1.22.58-.87-1.6.41-.19-.29-.53.41-.19-.29-.54.41-.19-.29-.53,2.84-1.35.29.53.41-.19.29.54.41-.19.29.53.41-.19,1.75,3.21-.41.19.29.53-.41.19.29.54-.41.19.29.53-.41.19.29.53-1.62.77.29.53-.41.19.29.53-.41.19,1.17,2.14,4.06-1.92.87,1.6Z"/><path class="cls-2" d="m656.24,561.05l-.41.19.29.53-.41.19.29.54-.41.19.29.53-.41.19.29.53-2.03.96-.29-.53-.41.19-.29-.53-.41.19-.29-.54-.41.19-.29-.53-.41.19-4.08-7.48.41-.19-.29-.53.41-.19-.29-.53.41-.19-.29-.54.41-.19-.29-.53,2.03-.96.29.53.41-.19.29.54.41-.19.29.53.41-.19.29.53.41-.19,4.08,7.48Zm-5.41-6.18l-.29-.53-.29-.53-2.03.96.29.53-.41.19,3.21,5.88.41-.19-.58-1.07.41-.19-.58-1.07.41-.19-.58-1.07.41-.19-.58-1.07.41-.19-.58-1.07.41-.19Zm4.2,6.76l-2.92-5.34-.41.19.58,1.07-.41.19.58,1.07-.41.19.58,1.07-.41.19.58,1.07-.41.19.58,1.07-.41.19.29.53,2.03-.96-.29-.53.41-.19Z"/><path class="cls-2" d="m664.17,559.98l-5.27,2.5-2.33-4.28.41-.19-.29-.53.41-.19-.29-.53.41-.19-.29-.53.41-.19-.29-.54,1.62-.77-.29-.53.41-.19-.29-.53.41-.19-1.17-2.14-.41.19-.29-.53-2.03.96.29.53-.41.19.58,1.07-1.22.58-.87-1.6.41-.19-.29-.53.41-.19-.29-.54.41-.19-.29-.53,2.84-1.35.29.53.41-.19.29.54.41-.19.29.53.41-.19,1.75,3.21-.41.19.29.53-.41.19.29.54-.41.19.29.53-.41.19.29.53-1.62.77.29.53-.41.19.29.53-.41.19,1.17,2.14,4.06-1.92.87,1.6Z"/><path class="cls-2" d="m669.77,554.63l-.81.38,1.17,2.14-1.22.58-1.17-2.14-3.25,1.54-.29-.53-.29-.53.41-.19-.58-1.07.41-.19-.58-1.07.41-.19-.58-1.07.41-.19-.58-1.07.41-.19-.58-1.07.41-.19-.58-1.07.41-.19-.58-1.07.41-.19-.58-1.07,1.22-.58,4.37,8.02.81-.38.87,1.6Zm-2.9-.64l-2.33-4.27-.41.19.58,1.07-.41.19.58,1.07-.41.19.58,1.07-.41.19.58,1.07,1.62-.77Z"/><path class="cls-3" d="m268.92,268.15c.12-.17.23-.35.35-.52.25.38.49.75.74,1.13-.2.05-.38.19-.6.1-.13-.05-.33-.46-.49-.71Z"/></svg>