<?xml version="1.0" encoding="UTF-8"?><svg id="Layer_1" xmlns="http://www.w3.org/2000/svg" viewBox="0 0 534.49 319.45"><defs><style>.cls-1,.cls-2{stroke-width:0px;}.cls-2{fill:#fff;}</style></defs><path class="cls-2" d="m6.09,0h495.54c5.2,5.85,2.49,13.02,1.75,18.98-3.67,29.85-6.5,59.81-10.3,89.61-4.94,38.8-8.97,77.7-14.1,116.48-2.64,19.94-4.82,39.96-7.09,59.95-1.02,8.97-4.95,17.23-5.05,26.43-.07,6.06-4.66,5.78-9.18,4.22-28.06-9.71-57.24-14.8-86.19-20.78-45.35-9.36-91.43-12.77-137.45-17.01-52.17-4.82-104.2-2.54-156.29.2-12.91.68-25.42,3.81-37.95,6.76-10.33,2.44-11.72,1.74-12.5-8.64-3.18-41.89-7.24-83.7-10.75-125.57-2.52-30.1-5.26-60.17-7.81-90.27-.32-3.73-2.11-8.18,1.88-10.54,4.03-2.39,8.26.14,11.69,2.33,10.67,6.83,19.45,15.88,26.62,26.16,5.53,7.93,12.48,12.78,21.65,15,18.7,4.52,36.06,12.92,53.41,20.69,11.61,5.2,23.65,9.71,34.89,15.76,13.12,7.05,27.68,8.96,41.79,12.47,18.9,4.71,36.84,12.3,55.34,18.21,7.81,2.5,14.27,24.78,11.54,35.74-1.86,7.48-5.15,14.37-8.55,21.26-1.42,2.88-3.45,7.15-.56,9.77,3.24,2.94,6.08-1.23,9.18-2.3,18.1-6.22,24.28-24.16,36.02-36.54,6.4-6.75,12.01-9.54,21.56-8.32,21.85,2.79,43.87,6.42,65.92,4.15,13.69-1.41,27.06-5.69,40.4-9.39,1.67-.46,2.92-1.85,4.06-3.2,17.51-20.82,12.33-55.04-10.13-70.06-8.1-5.42-16.95-7.94-26.16-9.51-13.9-2.38-27.63-7.66-41.99-4.4-7.48,1.7-15.07,1.82-22.48,2.98-14.03,2.18-24.25-3.46-33.68-12.37-2.02-1.91-3.75-4.08-6.37-5.29-7.42-3.43-11.02-1.44-11.62,6.53-.92,12.2-2.18,13.15-14.54,13.56-24.76.82-49.34-1.42-73.84-4.46-8.86-1.1-15.69-7.29-23.35-11.27-7.26-3.77-13.71-4.27-20.15,1.23-4.3,3.67-9.2,4.7-14.64,2.9-.66-.22-1.39-.19-2.05-.4-28.06-9.18-57.43-14-84.98-24.67-14.94-5.78-28.52-15.16-39.86-26.22C1.9,22.56,2.68,10.67,6.09,0Z"/><path class="cls-1" d="m6.09,0c-1.11,6.62.46,13.18.55,19.77.05,3.66,1.66,6.37,4.98,8.54,11.37,7.43,22.49,15.25,34.45,21.73,8.3,4.5,16.93,7.92,26.44,9.29,17.68,2.55,33.94,10.17,51.02,14.92,5.7,1.58,11.41,3.11,17.15,4.55,3.41.86,4.79-.39,5.31-4.12,1.56-11.38,3.5-12.41,13.97-7.72,5.39,2.41,10.89,4.88,15.7,8.24,11.82,8.29,24.97,11.41,39.1,12.3,18.76,1.17,37.49,2.89,56.32,2.13,8.5-.35,10.92-4.05,7.93-12.12-1.85-5-5.84-8.48-9.56-13.3,4.22-2.18,7.66-.5,11.2,0,13.35,1.91,24.67,7.85,33.14,18.12,4.56,5.54,9.48,6.03,15.64,4.99,14.79-2.49,29.69-3.56,44.7-3.36,17.63.24,34.47,4.29,50.84,10.48,16.12,6.1,24.42,17.61,24.11,35.16-.13,7.3.34,14.62.65,21.92.55,12.93-5.54,21.85-16.62,27.81-12.35,6.65-25.97,7.58-39.51,8.34-25.44,1.42-50.79.56-75.76-5.11-3.57-.81-5.04.86-6.83,3.15-5.99,7.69-11.94,15.42-18.19,22.91-7.17,8.59-15.43,16.09-24.53,22.61-4.55,3.26-9.46,5.97-15.15,6.64-2.75.32-5.73.43-7.62-2.23-2.03-2.86-.17-5.31,1.24-7.66,1.07-1.79,2.5-3.36,3.58-5.14,3.41-5.66,7.03-11.22,10.03-17.1,5.17-10.13,5.1-20.09,1-31.11-3.07-8.25-7.64-11.75-15.58-14-20.05-5.69-39.58-13.03-60.02-17.6-25.97-5.81-49.79-17.64-73.7-28.96-10.38-4.91-20.6-10.15-31.51-13.87-6.27-2.14-12.37-4.47-19.17-2.15-3.64,1.24-6.82.2-9.06-3.2-3.86-5.87-11.13-9.67-10.54-18.31.11-1.62-1.92-3.63-3.34-5.08-7.83-7.97-16.49-14.84-27.52-20.48-1.95,6.27-.47,12.06-.02,17.58,2.34,28.77,5.1,57.5,7.63,86.25,3.59,40.88,7.09,81.78,10.68,122.66.7,7.94.9,8.25,8.95,6.02,26.77-7.41,54.2-8.79,81.71-9.22,28.9-.46,57.81-2.17,86.71-.1,69.43,4.97,138.67,11.22,206.55,27.77,14.88,3.63,29.8,6.98,44.29,12.02,7.1,2.47,7.37,2.34,8.25-5.23,2.89-24.87,5.64-49.75,8.52-74.62,5.44-46.97,10.96-93.93,16.39-140.9,3.03-26.25,5.93-52.52,8.95-78.77.56-4.83,1.39-9.63,2.09-14.45.7,0,1.39,0,2.09,0,4.78,3.72,4.95,8.81,4.33,14.21-7.07,61.92-14.36,123.81-21.37,185.74-2.74,24.22-5.78,48.4-8.23,72.65-.18,1.74-.34,3.47-.16,5.21.46,4.43,1.78,8.57,6.84,9.21,5.14.65,7.51-3.05,8.56-7.4,1.22-5.08,1.99-10.26,2.5-15.46,7.19-72.4,14.83-144.75,22.65-217.09,1.05-9.68,2.06-19.39,2.95-29.09.61-6.57,1.4-13.27,7.02-17.97h4.18c-3.18,8.65-2.61,17.86-3.58,26.78-6.21,57-11.82,114.07-17.75,171.11-3.23,31.11-6.67,62.2-10.08,93.29-.92,8.43-1.35,8.81-9.72,7.99-5.53-.54-11.01-1.54-16.52-2.36-3.27-.49-5.25.29-5.5,4.16-.29,4.5-1.28,8.94-1.7,13.44-.44,4.72-2.68,5.99-7.01,4.4-33.13-12.22-67.85-17.9-102.31-24.52-32.44-6.24-65.22-10.23-98.21-12.41-20.46-1.35-40.84-3.82-61.31-4.95-15.62-.87-31.38-1.32-46.97-.33-16.71,1.06-33.4,1.07-50.1,1.45-22.38.51-44.3,3.64-65.94,9.21-8.28,2.14-8.87,1.97-9.77-6.78-2.27-22.13-4.1-44.31-6.08-66.47-3.92-43.97-7.87-87.93-11.7-131.91C6.36,54.74,4.18,27.37,1.9,0,3.3,0,4.69,0,6.09,0Z"/><path class="cls-2" d="m528.81,0c-3.03,30.06-6,60.12-9.12,90.17-3.08,29.7-6.39,59.37-9.48,89.06-3.77,36.27-7.37,72.55-11.12,108.82-.87,8.38-1.44,8.69-9.53,7.44-4.8-.74-9.59-1.6-14.41-2.2-3.53-.44-4.56-2.11-4.14-5.62,3.55-29.99,6.94-60.01,10.43-90.01,3.21-27.59,6.48-55.17,9.71-82.75,3.95-33.79,7.92-67.59,11.79-101.39.51-4.48.53-9.01.78-13.52,8.36,0,16.73,0,25.09,0Z"/><path class="cls-2" d="m180.41,82.73c3.44-.33,5.83,2.04,8.49,3.52,5.99,3.34,11.45,7.05,19.12,3.75,3.1-1.34,7.52.29,11.32.69,16.28,1.72,32.57,2.47,48.95,1.93,7.26-.24,14.56,1.02,21.85,1.14,16.77.28,33.26-2.71,49.84-4.63,25.46-2.95,50.7-2.93,75.38,5.11,4.28,1.39,8.38,3.35,12.5,5.18,12.18,5.42,17.95,14.97,17.5,28.17-.2,5.96.57,11.78,1.23,17.66,1.89,16.93-4.25,27.17-19.96,33.65-3.85,1.59-7.81,2.85-11.98,3.51-22.12,3.53-44.29,3.8-66.59,1.99-12.18-.99-23.94-3.39-35.63-6.89-42.29-12.64-84.22-26.52-126.95-37.69-26.07-6.82-50.29-18.3-74.47-29.83-10.06-4.8-20.04-9.74-30.72-13.01-4.96-1.52-9.94-2.99-15.33-2.74-2.96.14-6.59,2.84-8.87-.21-3.46-4.61-9.73-7.52-10.11-13.99-.35-5.87-3.64-9.66-7.46-13.23-6.11-5.71-12.71-10.82-19.8-15.31-10.46-6.64-10.42-6.7-10.08-19.95,3.28-1,4.99,1.76,7.08,3.21,9.44,6.57,19.09,12.78,29.17,18.31,9.23,5.07,18.95,8.46,29.46,9.97,15.59,2.24,29.9,9.09,44.93,13.36,7.69,2.18,15.26,4.69,23.24,5.85,4.53.66,6.75.02,6.19-5.01-.19-1.72-.19-3.5.05-5.21.57-3.97,2.61-5.4,6.54-3.62,8.87,4.03,17.76,7.99,25.46,14.12-.35-.47-.53-.7-.53-.7-.1-.09-.14-.07-.12.06.08.55.17.83.28.83Z"/><path class="cls-2" d="m252.32,234.42c-4.24-.09-4.42-2.11-2.37-5.27,3.41-5.24,6.93-10.42,10.12-15.8,7.85-13.25,11.26-26.89,3.22-41.45-.71-1.29-2.35-3.14-.47-4.54.88-.65,2.69-.48,3.93-.13,13.03,3.67,26.27,6.61,39.02,11.27,3.31,1.21,4.5,2.75,2.12,6-11.98,16.3-24.72,31.89-41.27,43.87-4.21,3.05-8.65,5.91-14.3,6.04Z"/><path class="cls-2" d="m278.16,67.34c14.33,1.48,24.76,7.73,33.54,17.19.93,1,2.08,2.02,1.7,3.54-.46,1.83-2.18,1.43-3.46,1.48-7.66.27-15.32.52-22.98.61-1.85.02-5.07.32-4.02-2.87,2.4-7.3-2.8-12.55-4.78-19.95Z"/><path class="cls-1" d="m263.67,149.03c.79-10.74,4.28-20.99,4.72-31.75,2.11,11.12-1.41,21.45-4.72,31.75Z"/><path class="cls-1" d="m248.87,111.4c-1.7,10.75-3.39,21.49-5.09,32.24-1.18-11.16-.54-22,4.99-31.97,0,0,.1-.27.1-.27Z"/><path class="cls-1" d="m253.54,137.73c1.42-7.03,2.83-14.06,4.25-21.08,1.3,10.09-.65,19.71-3.83,29.94-1.62-3.56-.33-6.24-.13-8.95l-.29.09Z"/><path class="cls-1" d="m205.63,132.78c-.41-8.87,1.13-16.73,3.89-24.48-.57,3.96-.6,7.93-1.04,11.86-.45,4.04.13,8.31-2.84,12.62Z"/><path class="cls-1" d="m190.53,126.89c-.68-7.38-.98-14.7,3.61-21.21-.86,7.13-2.52,14.12-3.61,21.21Z"/><path class="cls-1" d="m300.92,144.99c1.55-7.26,3.09-14.52,4.74-22.26,1.53,7.99.81,12.33-4.74,22.26Z"/><path class="cls-1" d="m272.39,153.24c-.27-6.1-.35-11.88,1.81-17.53q1.26,8.29-1.81,17.53Z"/><path class="cls-1" d="m175.59,122.55c-.46-7.44-.57-14.87,2.79-22.26-.24,3.65-.59,7.3-.71,10.96-.12,3.74-.03,7.49-.03,11.24-.69.02-1.37.04-2.06.06Z"/><path class="cls-1" d="m222.53,133.41c-1.84-9.17.62-16.11,2.57-23.11-.79,7.11-1.58,14.22-2.57,23.11Z"/><path class="cls-1" d="m159.86,111.46v6.86c-.06,0-.12,0-.18,0v-6.86c.06,0,.12,0,.18,0Z"/><path class="cls-1" d="m235.04,121.74c2.07-1.94.74-4.98,2.24-7.48.76,3.22.77,5.83-2.25,7.45l.58.59-.57-.57Z"/><path class="cls-1" d="m235.03,121.72c.64,3.3,1.18,6.61-.48,9.95.16-3.3.33-6.61.49-9.92,0,0,0-.04,0-.04Z"/><path class="cls-1" d="m135.2,102.25c-.11.64-.86,1.25-1.91,1.18-1.03-.07-1.69-.86-1.66-1.89.03-1.12.8-1.75,1.91-1.6.99.13,1.72.7,1.66,2.31Z"/><path class="cls-1" d="m170.15,129.4c-.3,1.02-1,1.68-2.02,1.43-.37-.09-.75-1.06-.73-1.61.04-1.09.79-1.67,1.85-1.21.42.18.61.91.9,1.39Z"/><path class="cls-1" d="m289.33,136.31c.46-.46,1.02-.85,1.34-1.39.34-.57.44-1.28.64-1.93.88.88.56,1.7-.24,2.35-.5.41-1.16.6-1.75.9l1.02-.02s-1.01.1-1.01.1Z"/><path class="cls-1" d="m184.2,123.48c-.16.24-.28.63-.49.68-.7.17-1.11-.21-1.04-.96.02-.26.28-.5.42-.75.37.34.74.69,1.11,1.04Z"/><path class="cls-1" d="m214.82,132.61c.42.43,1.12.82,1.19,1.3.19,1.3-.85,1.63-1.83,1.46-.3-.05-.66-1.1-.58-1.63.07-.42.77-.74,1.22-1.13Z"/><path class="cls-1" d="m287.98,146.1c.45-3.24.9-6.48,1.34-9.75,0-.04,0-.09,0-.1.71,3.31,1.54,6.65-1.15,9.57,0,0-.18.28-.18.28Z"/><path class="cls-1" d="m153.73,106.18c-.4.4-.79,1.12-1.21,1.15-1.15.08-1.76-.75-1.57-1.82.05-.28,1.12-.59,1.65-.5.44.08.76.75,1.13,1.16Z"/><path class="cls-1" d="m275.73,109.17c.13-.27.19-.66.4-.78.15-.08.73.2.73.31-.02.96-.44,1.12-1.13.47Z"/><path class="cls-1" d="m227.63,135.52c-.8.32-1.54.1-1.63-.73-.06-.58.44-1.22.69-1.83.56.32,1.29.52,1.65,1,.54.72.17,1.33-.72,1.55Z"/><path class="cls-1" d="m166.76,109.11c.6.18,1.2.36,1.79.55-.28.54-.46,1.42-.87,1.55-.47.15-1.35-.21-1.68-.64-.52-.69-.12-1.28.76-1.45Z"/><path class="cls-1" d="m314.43,119.45c-.08-.56-.2-1.12-.2-1.69,0-.1.52-.3.79-.28.83.04,1.29.57.91,1.18-.26.41-.98.54-1.5.79Z"/><path class="cls-1" d="m287.61,117.4c-.69-.49-.82-1.06-.28-1.59.21-.2.61-.26.93-.27.92-.03,1.43.49,1.01,1.13-.28.42-1.09.5-1.66.73Z"/><path class="cls-1" d="m284.52,134.22c-.31-.56-.62-1.13-.93-1.69.6-.25,1.26-.77,1.79-.65.36.08.77,1.06.72,1.6-.07.85-.77,1.08-1.58.74Z"/><path class="cls-1" d="m253.83,137.64c-.99-.09-1.99-.12-2.97-.31-.55-.1-1.28-.34-1.5-.74-.2-.37.2-1.05.33-1.59.52.37,1.05.73,1.56,1.11.74.55,1.48,1.11,2.25,1.65.03-.02.32-.11.32-.11Z"/><path class="cls-1" d="m254.35,117.77c-.4.29-.79.79-1.21.82-.82.06-1.12-.47-.76-1.16.13-.24.55-.55.7-.49.45.18.84.54,1.26.83Z"/><path class="cls-1" d="m168.8,118.07c-.34.41-.69,1.17-1.02,1.16-.98-.01-1.88-.53-1.41-1.71.17-.42,1.03-.8,1.54-.76.32.02.59.84.89,1.3Z"/><path class="cls-1" d="m218.04,103.15c-.21-.6-.66-1.24-.55-1.77.07-.32,1.04-.68,1.54-.61.83.11,1.1.86.57,1.5-.36.43-1.03.59-1.56.87Z"/><path class="cls-1" d="m347.89,151.83c-.14-.22-.41-.45-.39-.65.09-.78.48-.98.93-.49.15.17.2.57.11.78-.07.18-.42.24-.65.35Z"/><path class="cls-1" d="m153.89,96.07c-.12.3-.17.81-.36.86-.66.19-1-.29-.84-1.19.04-.21.45-.34.7-.51.17.28.33.56.5.84Z"/><polygon class="cls-1" points="259.14 145 259.94 145.42 259.06 145.67 259.14 145"/><polygon class="cls-1" points="415.15 143.11 415.91 142.91 415.83 143.48 415.15 143.11"/><path class="cls-1" d="m217.17,112.31c-.26.15-.51.42-.77.42-.22,0-.6-.3-.62-.49-.07-.91.38-1.17,1.16-.68.17.11.15.5.22.76Z"/><path class="cls-1" d="m247.34,142.89c.29.04.67-.02.83.14.16.16.21.61.09.82-.51.94-1,.88-1.24-.16-.05-.23.2-.53.31-.81Z"/><path class="cls-1" d="m289.83,156.06c.42-.5.75-1.15,1.28-1.46.52-.3.88.33.32,1.01-.27.34-1.18.16-1.8.22l.19.23Z"/><path class="cls-1" d="m200.36,112.5c-.1.27-.12.7-.31.79-.59.3-.95-.07-.84-.9.03-.23.4-.41.62-.61.18.24.36.48.53.72Z"/><polygon class="cls-1" points="371.9 93 372.68 92.84 372.53 93.43 371.9 93"/><path class="cls-1" d="m136.89,92.7c-.04.23,0,.56-.14.66-.19.14-.57.22-.76.12-.8-.44-.72-.86.18-1.04.21-.04.47.17.71.26Z"/><path class="cls-1" d="m282.77,138.12c.43.29.86.58,1.29.87-.37.5-.75,1-1.12,1.5-.25-.23-.73-.5-.7-.7.07-.57.34-1.12.54-1.67Z"/><polygon class="cls-1" points="382.09 109.62 382.84 109.47 382.71 110.01 382.09 109.62"/><path class="cls-1" d="m289.65,155.83c.31.77.83,1.54.05,2.33,0,0-.45-.31-.42-.4.17-.56.41-1.09.59-1.67-.04-.04-.22-.27-.22-.27Z"/><path class="cls-1" d="m352.29,157.75c.12.28.37.58.33.84-.04.26-.35.49-.55.73-.12-.29-.36-.59-.33-.86.03-.25.35-.47.54-.7Z"/><path class="cls-1" d="m238.97,133.99c.25,0,.59-.1.7.02.54.59.4,1.08-.36,1.24-.17.03-.54-.29-.6-.51-.06-.22.17-.51.26-.75Z"/><path class="cls-1" d="m182.75,132.79c.23.1.66.21.66.29-.06.89-.43,1.07-.91.46-.09-.11.16-.49.25-.75Z"/><path class="cls-1" d="m200.02,120.42c-.17.85-.65,1.1-1.39.65-.25-.15-.55-.48-.54-.72,0-.24.32-.56.58-.69.77-.38,1.24-.09,1.36.76Z"/><path class="cls-1" d="m315.48,130.39c-.3.55-.6,1.1-.91,1.64-.27-.22-.64-.38-.78-.66-.39-.82-.08-1.41.82-1.52.26-.03.57.34.86.53Z"/><path class="cls-1" d="m214.84,123.7c-.18.2-.37.4-.55.6-.53-.57-.46-1.02.2-1.35.12.25.23.5.35.75Z"/><path class="cls-1" d="m229.6,123.2c-.1.3-.12.77-.33.88-.61.33-.99-.08-.86-1,.04-.27.42-.48.65-.72.18.28.36.56.53.84Z"/><path class="cls-1" d="m352.28,165.66c-.23-.1-.64-.19-.65-.3-.02-.3.13-.61.22-.92.23.1.66.19.67.3.02.3-.14.61-.24.92Z"/><path class="cls-1" d="m241.93,123.87c-.11.26-.17.71-.34.76-.81.24-1.19-.14-.94-.93.08-.26.47-.41.72-.62.19.26.37.52.56.78Z"/><path class="cls-1" d="m252.36,127.56c-.22.24-.43.46-.63.68-.23-.52-.51-1.03-.66-1.57-.03-.12.44-.36.68-.55.21.5.42.99.61,1.44Z"/><path class="cls-1" d="m185.76,109.66c-.44.25-.91.74-1.32.69-.82-.1-1.05-.76-.55-1.43.29-.38.8-.6,1.21-.9.22.54.44,1.09.66,1.63Z"/><polygon class="cls-1" points="118.94 107.53 119.72 107.37 119.56 107.97 118.94 107.53"/><path class="cls-1" d="m203.77,105.76c-.27.06-.54.18-.79.14-.09-.01-.24-.56-.18-.61.75-.52,1.08-.34.97.46Z"/><polygon class="cls-1" points="368.46 112.06 367.85 111.76 368.48 111.5 368.46 112.06"/><polygon class="cls-1" points="275.47 117.97 274.78 118.28 274.81 117.62 275.47 117.97"/><polygon class="cls-1" points="442.16 132.17 442.44 132.95 441.73 132.88 442.16 132.17"/><polygon class="cls-1" points="352.32 113.56 352.49 114.09 351.98 114 352.32 113.56"/><polygon class="cls-1" points="355.76 145.11 356.52 144.83 356.44 145.56 355.76 145.11"/><path class="cls-1" d="m288.17,145.81v.75s-.16-.47-.17-.47c-.01,0,.17-.28.17-.28Z"/><path class="cls-1" d="m280.94,154.21c-.19-.23-.55-.47-.54-.68.01-.21.4-.4.62-.6.2.23.55.47.54.68-.01.21-.4.4-.62.6Z"/><path class="cls-1" d="m248.77,111.67l.03-.89s.06.58.06.6c0,.02-.09.29-.09.29Z"/><path class="cls-1" d="m168.66,101.41c-.21.19-.42.38-.63.58-.19-.22-.53-.45-.51-.65.01-.21.38-.39.59-.58.19.22.37.44.56.65Z"/><polygon class="cls-1" points="364.65 178.09 364.95 178.82 364.27 178.78 364.65 178.09"/><path class="cls-1" d="m180.41,82.73l.04-.54s.33.3.33.32c0,.02-.36.22-.36.22Z"/><path class="cls-1" d="m270.17,208.11c-.29.13-.59.38-.86.36-.26-.02-.51-.32-.76-.49.28-.13.57-.38.84-.36.27.02.52.32.78.5Z"/><path class="cls-1" d="m289.85,193.22c.26-.09.55-.31.78-.26.85.19.93.6.21.98-.2.11-.58,0-.81-.13-.13-.07-.13-.39-.18-.59Z"/><path class="cls-1" d="m283.78,184.39c.23.77-.04,1.26-.84,1.3-.21.01-.67-.48-.63-.57.24-.51.58-.96.89-1.44.19.23.39.47.58.7Z"/><polygon class="cls-1" points="262.39 224.44 262.55 224.96 262.05 224.87 262.39 224.44"/><path class="cls-1" d="m287.96,77.12c-.51-.24-1.4-.42-1.45-.73-.08-.49.41-1.07.66-1.61.51.29,1.19.47,1.49.91.44.64.07,1.21-.7,1.44Z"/><polygon class="cls-1" points="296.18 86.74 295.44 87.05 295.5 86.31 296.18 86.74"/></svg>