<?xml version="1.0" encoding="UTF-8"?><svg id="Layer_1" xmlns="http://www.w3.org/2000/svg" viewBox="0 0 536.08 162.72"><defs><style>.cls-1,.cls-2{stroke-width:0px;}.cls-2{fill:#fff;}</style></defs><path class="cls-1" d="m512.82,128.51c-10.94-7.43-21.56-15.41-32.91-22.14-22.15-13.13-45.35-24.61-66.93-38.59-17.02-11.03-34.98-9.43-53.29-9.06-1.82.04-3.85.47-4.67,1.92-4.05,7.18-9.58,4.76-15.17,2.72-17.32-6.33-34.66-12.58-51.96-18.96-24.52-9.05-50.33-13.71-75-22.28-7.7-2.67-15.96-2.93-23.71-.67-6.84,1.99-12.81,1.47-19.15-1.41-12.57-5.71-26.19-5.98-38.94-2.74-10.67,2.71-19.94,10.16-29.87,15.32-3.61,1.88-6.87,3.53-10.37,4.46-1.64.79-3.3,1.54-4.92,2.39-2.21,1.16-4.27,2.55-6.49,3.68-8.29,11.73-19.75,20.1-31.28,28.37-7.37,5.29-14.49,10.85-20.85,17.36-4.5,4.6-7.68,9.95-8.94,16.24-2.1,10.53,4.29,17.59,15.02,16.32,4.17-.49,7.67.52,10.84,2.68,3.43,2.34,6.6,5.12,9.68,7.92,5.77,5.25,12.37,9.08,19.74,11.42,4.02,1.28,8.29,2.44,8.75-4.61.4-6.03,4.93-7.75,10.45-7.64,4.08.07,7.52,1.71,10.39,4.3,7.34,6.62,16.14,9.5,25.71,10.19,5.06.37,9.6,1.81,13.57,4.79,6.18,4.64,11.63,4.68,17.77-.6,7.22-6.19,15.63-6.91,24.44-2.9,4.1,1.87,8.32,3.71,12.69,4.72,7.56,1.74,38.2-5.85,44.62-10.6,2.52-1.86,5-3.78,7.53-5.62,6.83-4.99,13.96-5.9,21.46-1.49,3.63,2.14,7.36,4.04,11.7,4.08,15.49.14,29.85-2.32,39.8-16.14,4.23-5.88,9.78-9.24,17.76-8.88,9.01.41,18.86-9.01,20.98-18.62-2.66,1.23-4.27,3.57-5.99,5.73-5.2,6.53-10.96,11.47-20.25,10.33-5.28-.65-9.11,2.97-12.6,6.42-2.46,2.44-4.45,5.36-6.89,7.83-9.46,9.61-29.34,14-40.62,7.42-11.56-6.74-21.17-4.95-30.55,3.12-7.12,6.13-14.77,10.4-24.6,9.19-2.48-.31-4.85.49-7.05,1.59-8.18,4.12-16.2,3.1-24.07-.81-10.98-5.45-21.51-5.37-31.23,2.65-4.2,3.47-8.05,3.33-12.3.35-4.92-3.44-10.26-5.86-16.41-6.05-8.66-.27-16.25-3.16-22.91-8.81-2.34-1.98-5.21-3.55-8.1-4.62-7.99-2.98-15.05-.77-18.2,7.07-2.14,5.34-4.63,4.85-8.43,3.26-6.83-2.86-12.6-7.23-18.06-12.22-6.2-5.69-12.65-10.6-22.28-8.24-4.89,1.2-8.04-2.27-8.95-7.9-1.3-8.08,2.76-14.19,7.9-19.59,6.25-6.57,13.46-12.08,20.86-17.34,9.09-6.45,18.36-12.81,25.47-21.51,4.39-5.37,9.17-9.43,16.27-10.19,2.88-.31,5.42-1.45,7.09-3.93,4.21-6.27,11.47-5.61,17.35-8.16,5.77-2.5,9.19-9.48,16.42-10.24,1.38-.15,2.73-.65,4.1-.71,11.54-.53,22.99-.48,33.71,4.79,5.52,2.71,11.12,3.54,17.11,1.19,8.17-3.21,16.72-2.49,24.6.32,24.94,8.89,51.17,13.35,75.94,22.76,17.56,6.67,35.29,12.88,52.99,19.15,8.13,2.88,8.33,3.06,8.63,11.62.08,2.22-.81,4.04-1.25,6.05-.23,1.03.81,2.38,1.54,1.59,5.94-6.46,7.8,1.15,10.15,3.41,11.57,11.12,24.76,18.62,40.46,22.6,26.98,6.85,54.1,13.02,81.39,18.42,9.19,1.82,18.24,4.61,27.69,5.01,2.33.1,5.34.6,5.99-2.62.46-2.31-1.65-3.66-3.39-4.84Z"/><path class="cls-1" d="m185.1,36.1c34.17,28.37,68.34,56.74,102.52,85.1-.68.81-1.35,1.63-2.03,2.44-34.18-28.44-68.37-56.87-102.55-85.31.69-.75,1.38-1.49,2.07-2.24Z"/><path class="cls-1" d="m184.71,113.59c-20.33-23.81-45.71-43.64-59.5-72.87,16.79,26.79,41.58,46.94,59.5,72.87Z"/><path class="cls-1" d="m270.65,62.64c-1.57-3.36-6.2-2.84-8.97-8.45,29.54,13.82,57.25,26.78,86.11,40.28-4.84,2.78-7.34.12-9.81-1.02-17.94-8.31-35.79-16.84-53.67-25.29-3.12-1.47-6.07-3.42-9.65-3.7-.4.02-.8.04-1.2.05-.81-.1-1.54-.38-2.19-.87-.21-.34-.42-.68-.63-1.02Z"/><path class="cls-1" d="m117.14,116.67c-12.57-20.23-25.71-40.49-26.99-65.57,4.76,23.57,17.39,43.81,26.99,65.57Z"/><path class="cls-1" d="m260.63,115.3c-4.29-2.8-8.41-5.89-12.89-8.33-9.48-5.17-14.97-3.55-21.02,5.57-3.41,5.14-4.81,11.43-9.72,15.74,2.46-9.43,5.65-18.52,13.77-24.86,3.37-2.63,7.34-3.67,11.75-2.19,7.63,2.56,13.99,6.91,19.68,12.27-.52.6-1.05,1.2-1.57,1.81Z"/><path class="cls-1" d="m203.76,112.65c-.87-11.32,3.46-21.22,10.27-24.12,7.73-3.3,14.65-1.16,21.28,4.27-3.56,2.51-5.54-.46-7.77-1.21-9.2-3.12-14.49-1.26-18.65,7.44-1.85,3.86-3.05,8.02-5.13,13.62Z"/><path class="cls-1" d="m139.45,121.19c6.31-12.14,14.09-13.87,27.32-6.6-5.42,2.15-9.95-2.25-14.96-1.2-4.78,1-7.21,5.78-12.36,7.8Z"/><path class="cls-1" d="m78.5,114.02c1.78-8.72,4.88-10.99,11.97-8.22,4.59,1.79,8.93,4.19,12.11,8.67-3.76,1.54-5.14-1.15-7.02-2.3-9.04-5.51-9.69-5.5-17.06,1.86Z"/><path class="cls-1" d="m185.33,92.18c-.64-8.56.89-16.25,7.22-21.65,4.6-3.92,10.25-2.93,15.36.41-.54.87-.92,1.83-1.13,1.79-12.56-2.21-14.92-.67-17.84,11.74-.61,2.6-.08,5.67-3.61,7.7Z"/><path class="cls-1" d="m300.09,110.43c-.77-7.44,1.15-12.54,6.52-15.16,6.02-2.93,11.85-1.19,18.91,4.29-7.09-.35-11.86-3.29-16.85-1.61-5.31,1.79-5.11,7.58-8.58,12.47Z"/><path class="cls-1" d="m298.79,81.33q-18.1-1.19-23.46,9.59c-1.56-5.35.25-9.15,3.9-12.09,3.85-3.11,8.99-2.51,19.57,2.5Z"/><path class="cls-1" d="m274.67,64.48c-.35,5.33-3.91,2.39-6.01,2.08-9.78-1.44-9.76-1.54-13.85,6.87-1.23-8.64.61-11.02,8.66-11.07,2.39-.02,4.79.19,7.18.29l-.32-.27c1.21,1.41,3.34,1.05,4.58,2.38l-.25-.28Z"/><path class="cls-1" d="m96.57,95.74q-12.53-6.5-19.93,1.32c-.82-5.36,1.94-8.36,5.97-9.34,6.73-1.64,10.64,2.99,13.97,8.02Z"/><path class="cls-1" d="m192.65,61.71c-9.27,1.39-12.92,8.55-16.92,17.05.27-12.89,5.91-18.38,16.92-17.05Z"/><path class="cls-1" d="m128,95.52c3.75-10.12,7.38-12.04,16.33-8.76-7.04.1-12.18,3.43-16.33,8.76Z"/><path class="cls-1" d="m166.48,64.35c-.25-7.29,3.35-12.24,9.56-15.46,1.16-.6,2.82-1.12,3.76.32,1.15,1.78-.38,2.19-1.72,2.57-6.52,1.84-7.8,8.19-11.6,12.57Z"/><path class="cls-1" d="m119.91,85.22c3.05-13.06,5.01-14.79,13.93-14.25q-6.41,3.77-13.93,14.25Z"/><path class="cls-1" d="m154.73,100.27c-7.86-1.2-13.4,3.1-20,8.69,5.6-10.87,9.39-12.42,20-8.69Z"/><path class="cls-1" d="m125.82,62.15c-3.35,2.31-6.81,3.67-9.88,7.75q1.95-7.91,9.88-7.75Z"/><path class="cls-1" d="m238.9,60.65c.62-4.84,3.17-6.86,8.47-5.9-2.04,3.73-6.57,3.11-8.47,5.9Z"/><path class="cls-1" d="m330.51,67.37c-.86,3.04-1.42,4.89-1.9,6.75-.35,1.35-.87,2.7-2.49,1.77-.58-.33-.8-1.84-.67-2.73.34-2.34,1.08-4.56,5.06-5.79Z"/><path class="cls-1" d="m287.56,52.58c-2.5,1.56-4.99,3.11-8.57,5.33,1.25-5.81,4.19-7.13,7.88-7.41.23.69.46,1.38.69,2.08Z"/><path class="cls-1" d="m269.73,46.62c-2.74.91-5.48,1.82-9.45,3.14,2.58-5.02,5.25-6.44,9.45-3.14Z"/><path class="cls-1" d="m299.36,62.12c-.62-.17-1.64-.25-1.68-.5-.37-1.97.98-2.94,2.49-3.72,1.01-.52,2.23-.33,2.31.76.16,2.03-2.26,2.13-3.12,3.46Z"/><path class="cls-2" d="m389.27,97.76c.25-10.63,3.97-19.7,12.14-26.7,3.36-2.88,14.95.07,16.06,3.96.47,1.66-.68,2.62-1.59,3.57-6.52,6.89-9.43,15.17-10.32,24.51-.63,6.63-1.03,6.59-7.85,4.74q-8.62-2.33-8.44-10.09Z"/><path class="cls-2" d="m419.49,108.56c1.16-7.95,3.46-15.47,8.86-21.68,3.93-4.52,5.5-4.2,12.4-.06,4.37,2.62,3.1,5.05,1.32,8.43-2.75,5.21-4.5,10.86-4.64,16.81-.1,4.37-2.42,5.24-6.06,4.53-2.36-.46-4.69-1.12-7.06-1.5-3.79-.62-5.34-2.77-4.82-6.52Z"/><path class="cls-2" d="m382.4,63.28c-6.98,7.09-9.27,16.01-9.69,25.54-.21,4.58-1.62,6.02-5.3,2.68-4.35-3.95-8.58-8.06-12.58-12.37-3.24-3.5-2.54-7.57-.83-11.66,1.72-4.12,4.78-5.72,9.04-5.3,6.48.63,13.11-1.08,19.48,1.28l-.11-.16Z"/><path class="cls-2" d="m392.39,61.93c1.4.58,3.34,1.3,5.2,2.17,2.43,1.14,2.93,2.9.91,4.78-8.65,8.02-12.07,18.24-13.06,29.66-.35,4.04-3.01,4.75-6.27,2.25-2.42-1.86-3.49-4.51-3.51-7.23-.05-9.87,1.77-19.31,8.32-27.17,1.98-2.38,4.3-4.57,8.41-4.46Z"/><path class="cls-2" d="m447.86,112.29c.17-1.27.15-2.71.57-3.99,1.4-4.26,2.58-9.64,7.2-10.61,4.37-.91,8.01,3.35,11.79,5.67.75.46,1.66,1.98,1.42,2.52-2.29,5.09-3.7,10.31-3.97,15.92-.06,1.34-1.96,1.76-3.41,1.44-3.7-.82-7.52-1.36-11.03-2.69-3.86-1.47-2.06-5.3-2.57-8.27Z"/><path class="cls-2" d="m408.86,102.58c.66-8.36,4.11-16.06,10.24-22.68,2.22-2.4,4.22-3.22,7.12-1.19,4.24,2.96.32,4.67-1.01,6.5-4.79,6.59-8.04,13.71-8.65,21.93-.16,2.22.59,5.37-3.32,5.06-2.8-.22-4.31-1.97-4.38-4.83-.03-1.39,0-2.77,0-4.78Z"/><path class="cls-2" d="m509.44,132.87c-7.1-1.3-14.23-2.44-21.29-3.94-7.72-1.64-9.2-4.64-6.37-11.73,1.14-2.86,2.75-3.81,5.49-1.92,7.62,5.26,15.26,10.49,22.89,15.74l-.72,1.85Z"/><path class="cls-2" d="m468.86,118.65c.07-2.78.22-5.52,1.63-8.04,1.24-2.23,2.39-4.34,5.54-2.77,2.56,1.28,5.2,2.34,3.57,6.11-.81,1.89-1.37,3.9-1.89,5.9-.65,2.49.11,5.97-4.29,5.57-4.32-.39-4.56-3.48-4.55-6.76Z"/><path class="cls-2" d="m440.26,112.91c1.19-5.64,2.12-11.83,5.45-17.28.92-1.51,2.21-3.33,4.03-2.26,2.75,1.62.56,3.47-.47,5.1-3.01,4.78-5.07,9.82-5.01,15.61.02,1.53.53,4.15-1.62,4.12-2.77-.04-2.19-2.86-2.38-5.3Z"/><path class="cls-2" d="m382.52,63.44c-.23-.16-.45-.31-.68-.47.14.07.28.15.49.26.07.04.19.2.19.2Z"/><path class="cls-2" d="m274.91,64.76c-1.56-.72-3.79-.18-4.58-2.38,1.75.36,3.58.59,4.58,2.38Z"/></svg>