<?xml version="1.0" encoding="UTF-8" standalone="no"?>
<!DOCTYPE svg PUBLIC "-//W3C//DTD SVG 1.1//EN" "http://www.w3.org/Graphics/SVG/1.1/DTD/svg11.dtd">
<svg width="100%" height="100%" viewBox="0 0 271 185" version="1.1" xmlns="http://www.w3.org/2000/svg" xmlns:xlink="http://www.w3.org/1999/xlink" xml:space="preserve" xmlns:serif="http://www.serif.com/" style="fill-rule:evenodd;clip-rule:evenodd;stroke-linejoin:round;stroke-miterlimit:2;">
    <g id="Artboard1" transform="matrix(0.959697,0,0,0.633963,4.93301,3.57766)">
        <rect x="-5.14" y="-5.643" width="281.962" height="291.068" style="fill:none;"/>
        <g transform="matrix(1.15258,-0.157329,0.155131,1.16892,-36.9223,21.7686)">
            <path d="M130.76,0.11C147.99,-0.7 165.43,3.2 183.02,5.14C208.57,7.95 234.04,11.53 259.53,14.84C268.37,15.99 268.63,16.46 267.4,25.38C258.41,90.79 249.42,156.19 240.46,221.61C237.98,239.72 238.03,239.71 220.06,238.42C181.23,235.63 142.4,232.85 103.56,230.07C74.09,227.96 44.57,226.33 15.16,223.6C-2.66,221.95 0.08,223.02 2.16,208.13C10.03,151.7 17.77,95.25 25.6,38.81C27.04,28.41 31.85,21.17 42.49,17.27C67.27,8.17 105.19,0.27 130.76,0.11Z" style="fill-rule:nonzero;"/>
        </g>
        <g transform="matrix(1.15258,-0.157329,0.155131,1.16892,-36.9223,21.7686)">
            <path d="M4.78,213.41C7.02,196.59 9.21,179.7 11.53,162.83C16.89,123.93 22.35,85.04 27.71,46.14C28.42,40.97 28.98,35.83 31.22,30.98C32.76,27.65 34.1,26.6 37.19,29.59C45.08,37.21 45.22,37.2 53.64,29.92C80.14,6.98 111.53,0.51 145.23,3.99C181.52,7.74 217.68,12.83 253.9,17.23C264.79,18.55 264.97,18.4 263.47,29.28C256.16,82.29 248.74,135.28 241.41,188.29C239.65,201.03 238.05,213.79 236.41,226.55C235.25,235.59 235.27,235.65 226.6,235.07C181.15,232.02 135.69,229 90.24,225.83C64.23,224.02 38.23,221.95 12.23,219.97C8.19,219.66 3.07,220.43 4.77,213.42L4.78,213.41Z" style="fill:rgb(242,237,180);fill-rule:nonzero;"/>
        </g>
        <g transform="matrix(1.15258,-0.157329,0.155131,1.16892,-36.9223,21.7686)">
            <path d="M68.29,13.94C61.23,19.29 54.47,24.51 48.16,30.31C46.61,31.74 44.75,33.16 42.87,31.06C41.06,29.04 38.91,26.84 38.3,24.38C37.73,22.1 40.77,21.62 42.63,20.9C50.9,17.7 59.19,14.54 68.29,13.94Z" style="fill:rgb(242,237,180);fill-rule:nonzero;"/>
        </g>
    </g>
</svg>
